# 3ds Max Wavefront OBJ Exporter v0.97b - (c)2007 guruware
# 创建的文件:04.10.2021 20:15:50

mtllib 111.mtl

#
# object Cone001
#

v  0.0000 0.0000 -0.0000
v  56.2016 0.0000 -32.4480
v  62.6847 0.0000 -16.7963
v  64.8960 0.0000 -0.0000
v  32.4480 0.0000 -56.2016
v  45.8884 0.0000 -45.8884
v  0.0000 0.0000 -64.8960
v  16.7963 0.0000 -62.6847
v  -32.4480 0.0000 -56.2016
v  -16.7963 0.0000 -62.6847
v  -56.2016 0.0000 -32.4480
v  -45.8884 0.0000 -45.8884
v  -64.8960 0.0000 -0.0000
v  -62.6847 0.0000 -16.7963
v  -56.2016 0.0000 32.4480
v  -62.6847 0.0000 16.7963
v  -32.4480 0.0000 56.2016
v  -45.8884 0.0000 45.8884
v  -0.0000 0.0000 64.8960
v  -16.7963 0.0000 62.6847
v  32.4480 0.0000 56.2016
v  16.7963 0.0000 62.6847
v  56.2016 0.0000 32.4480
v  45.8884 0.0000 45.8884
v  62.6847 0.0000 16.7964
v  60.8954 6.0720 -16.3169
v  63.0435 6.0720 -0.0000
v  54.5973 6.0720 -31.5218
v  44.5785 6.0720 -44.5785
v  31.5218 6.0720 -54.5973
v  16.3169 6.0720 -60.8954
v  0.0000 6.0720 -63.0435
v  -16.3169 6.0720 -60.8954
v  -31.5218 6.0720 -54.5973
v  -44.5785 6.0720 -44.5785
v  -54.5973 6.0720 -31.5218
v  -60.8954 6.0720 -16.3169
v  -63.0435 6.0720 -0.0000
v  -60.8954 6.0720 16.3168
v  -54.5973 6.0720 31.5217
v  -44.5785 6.0720 44.5785
v  -31.5218 6.0720 54.5973
v  -16.3169 6.0720 60.8954
v  -0.0000 6.0720 63.0435
v  16.3168 6.0720 60.8954
v  31.5217 6.0720 54.5973
v  44.5785 6.0720 44.5785
v  54.5973 6.0720 31.5218
v  60.8954 6.0720 16.3169
v  59.1060 12.1441 -15.8374
v  61.1910 12.1441 -0.0000
v  52.9930 12.1441 -30.5955
v  43.2686 12.1441 -43.2686
v  30.5955 12.1441 -52.9930
v  15.8374 12.1441 -59.1060
v  0.0000 12.1441 -61.1910
v  -15.8374 12.1441 -59.1060
v  -30.5955 12.1441 -52.9930
v  -43.2686 12.1441 -43.2686
v  -52.9930 12.1441 -30.5955
v  -59.1060 12.1441 -15.8374
v  -61.1910 12.1441 -0.0000
v  -59.1060 12.1441 15.8374
v  -52.9930 12.1441 30.5955
v  -43.2686 12.1441 43.2686
v  -30.5955 12.1441 52.9930
v  -15.8374 12.1441 59.1060
v  -0.0000 12.1441 61.1910
v  15.8374 12.1441 59.1060
v  30.5955 12.1441 52.9930
v  43.2686 12.1441 43.2686
v  52.9930 12.1441 30.5956
v  59.1060 12.1441 15.8374
v  57.3166 18.2161 -15.3579
v  59.3385 18.2161 -0.0000
v  51.3887 18.2161 -29.6693
v  41.9587 18.2161 -41.9587
v  29.6693 18.2161 -51.3887
v  15.3579 18.2161 -57.3166
v  0.0000 18.2161 -59.3385
v  -15.3579 18.2161 -57.3166
v  -29.6693 18.2161 -51.3887
v  -41.9587 18.2161 -41.9587
v  -51.3887 18.2161 -29.6693
v  -57.3166 18.2161 -15.3580
v  -59.3385 18.2161 -0.0000
v  -57.3166 18.2161 15.3579
v  -51.3887 18.2161 29.6692
v  -41.9587 18.2161 41.9587
v  -29.6693 18.2161 51.3887
v  -15.3580 18.2161 57.3166
v  -0.0000 18.2161 59.3385
v  15.3579 18.2161 57.3166
v  29.6692 18.2161 51.3887
v  41.9587 18.2161 41.9587
v  51.3887 18.2161 29.6693
v  57.3166 18.2161 15.3580
v  55.5273 24.2882 -14.8785
v  57.4861 24.2882 -0.0000
v  49.7844 24.2882 -28.7430
v  40.6488 24.2882 -40.6488
v  28.7430 24.2882 -49.7844
v  14.8785 24.2882 -55.5273
v  0.0000 24.2882 -57.4861
v  -14.8785 24.2882 -55.5273
v  -28.7430 24.2882 -49.7844
v  -40.6488 24.2882 -40.6488
v  -49.7844 24.2882 -28.7430
v  -55.5273 24.2882 -14.8785
v  -57.4861 24.2882 -0.0000
v  -55.5273 24.2882 14.8785
v  -49.7844 24.2882 28.7430
v  -40.6488 24.2882 40.6488
v  -28.7430 24.2882 49.7844
v  -14.8785 24.2882 55.5273
v  -0.0000 24.2882 57.4861
v  14.8785 24.2882 55.5273
v  28.7430 24.2882 49.7844
v  40.6488 24.2882 40.6488
v  49.7844 24.2882 28.7431
v  55.5273 24.2882 14.8785
v  53.7379 30.3602 -14.3990
v  55.6336 30.3602 -0.0000
v  48.1801 30.3602 -27.8168
v  39.3389 30.3602 -39.3389
v  27.8168 30.3602 -48.1801
v  14.3990 30.3602 -53.7379
v  0.0000 30.3602 -55.6336
v  -14.3990 30.3602 -53.7379
v  -27.8168 30.3602 -48.1801
v  -39.3389 30.3602 -39.3389
v  -48.1801 30.3602 -27.8168
v  -53.7379 30.3602 -14.3990
v  -55.6336 30.3602 -0.0000
v  -53.7379 30.3602 14.3990
v  -48.1801 30.3602 27.8168
v  -39.3389 30.3602 39.3389
v  -27.8168 30.3602 48.1801
v  -14.3990 30.3602 53.7379
v  -0.0000 30.3602 55.6336
v  14.3990 30.3602 53.7379
v  27.8168 30.3602 48.1801
v  39.3388 30.3602 39.3389
v  48.1801 30.3602 27.8168
v  53.7379 30.3602 14.3991
v  0.0000 30.3602 -0.0000
# 146 vertices

vn 0.0000 -1.0000 -0.0000
vn 0.7145 -0.5651 -0.4125
vn 0.7969 -0.5651 -0.2135
vn 0.8251 -0.5651 0.0000
vn 0.4125 -0.5651 -0.7145
vn 0.5834 -0.5651 -0.5834
vn 0.0000 -0.5651 -0.8251
vn 0.2135 -0.5651 -0.7969
vn -0.4125 -0.5651 -0.7145
vn -0.2135 -0.5651 -0.7969
vn -0.7145 -0.5651 -0.4125
vn -0.5834 -0.5651 -0.5834
vn -0.8251 -0.5651 -0.0000
vn -0.7969 -0.5651 -0.2135
vn -0.7145 -0.5651 0.4125
vn -0.7969 -0.5651 0.2135
vn -0.4125 -0.5651 0.7145
vn -0.5834 -0.5651 0.5834
vn -0.0000 -0.5651 0.8251
vn -0.2135 -0.5651 0.7969
vn 0.4125 -0.5651 0.7145
vn 0.2135 -0.5651 0.7969
vn 0.7145 -0.5651 0.4125
vn 0.5834 -0.5651 0.5834
vn 0.7969 -0.5651 0.2135
vn 0.9239 0.2918 -0.2476
vn 0.9565 0.2918 0.0000
vn 0.8283 0.2918 -0.4782
vn 0.6763 0.2918 -0.6763
vn 0.4782 0.2918 -0.8283
vn 0.2476 0.2918 -0.9239
vn 0.0000 0.2918 -0.9565
vn -0.2476 0.2918 -0.9239
vn -0.4782 0.2918 -0.8283
vn -0.6763 0.2918 -0.6763
vn -0.8283 0.2918 -0.4782
vn -0.9239 0.2918 -0.2476
vn -0.9565 0.2918 -0.0000
vn -0.9239 0.2918 0.2476
vn -0.8283 0.2918 0.4782
vn -0.6763 0.2918 0.6763
vn -0.4782 0.2918 0.8283
vn -0.2476 0.2918 0.9239
vn -0.0000 0.2918 0.9565
vn 0.2476 0.2918 0.9239
vn 0.4782 0.2918 0.8283
vn 0.6763 0.2918 0.6763
vn 0.8283 0.2918 0.4782
vn 0.9239 0.2918 0.2476
vn 0.6040 0.7804 -0.1618
vn 0.6253 0.7804 0.0000
vn 0.5415 0.7804 -0.3126
vn 0.4421 0.7804 -0.4421
vn 0.3126 0.7804 -0.5415
vn 0.1618 0.7804 -0.6040
vn 0.0000 0.7804 -0.6253
vn -0.1618 0.7804 -0.6040
vn -0.3126 0.7804 -0.5415
vn -0.4421 0.7804 -0.4421
vn -0.5415 0.7804 -0.3126
vn -0.6040 0.7804 -0.1618
vn -0.6253 0.7804 -0.0000
vn -0.6040 0.7804 0.1618
vn -0.5415 0.7804 0.3126
vn -0.4421 0.7804 0.4421
vn -0.3126 0.7804 0.5415
vn -0.1618 0.7804 0.6040
vn -0.0000 0.7804 0.6253
vn 0.1618 0.7804 0.6040
vn 0.3126 0.7804 0.5415
vn 0.4421 0.7804 0.4421
vn 0.5415 0.7804 0.3126
vn 0.6040 0.7804 0.1618
vn 0.0000 1.0000 -0.0000
# 74 vertex normals

vt 0.5000 0.0000 0.0000
vt 0.8333 0.0000 1.0000
vt 0.7917 0.0000 1.0000
vt 0.7500 0.0000 1.0000
vt 0.9167 0.0000 1.0000
vt 0.8750 0.0000 1.0000
vt 1.0000 0.0000 1.0000
vt 0.9583 0.0000 1.0000
vt 0.0833 0.0000 1.0000
vt 0.0417 0.0000 1.0000
vt 0.0000 0.0000 1.0000
vt 0.1667 0.0000 1.0000
vt 0.1250 0.0000 1.0000
vt 0.2500 0.0000 1.0000
vt 0.2083 0.0000 1.0000
vt 0.3333 0.0000 1.0000
vt 0.2917 0.0000 1.0000
vt 0.4167 0.0000 1.0000
vt 0.3750 0.0000 1.0000
vt 0.5000 0.0000 1.0000
vt 0.4583 0.0000 1.0000
vt 0.5833 0.0000 1.0000
vt 0.5417 0.0000 1.0000
vt 0.6667 0.0000 1.0000
vt 0.6250 0.0000 1.0000
vt 0.7083 0.0000 1.0000
vt 0.7917 0.2000 0.9715
vt 0.7500 0.2000 0.9715
vt 0.8333 0.2000 0.9715
vt 0.8750 0.2000 0.9715
vt 0.9167 0.2000 0.9715
vt 0.9583 0.2000 0.9715
vt 1.0000 0.2000 0.9715
vt 0.0417 0.2000 0.9715
vt 0.0000 0.2000 0.9715
vt 0.0833 0.2000 0.9715
vt 0.1250 0.2000 0.9715
vt 0.1667 0.2000 0.9715
vt 0.2083 0.2000 0.9715
vt 0.2500 0.2000 0.9715
vt 0.2917 0.2000 0.9715
vt 0.3333 0.2000 0.9715
vt 0.3750 0.2000 0.9715
vt 0.4167 0.2000 0.9715
vt 0.4583 0.2000 0.9715
vt 0.5000 0.2000 0.9715
vt 0.5417 0.2000 0.9715
vt 0.5833 0.2000 0.9715
vt 0.6250 0.2000 0.9715
vt 0.6667 0.2000 0.9715
vt 0.7083 0.2000 0.9715
vt 0.7917 0.4000 0.9429
vt 0.7500 0.4000 0.9429
vt 0.8333 0.4000 0.9429
vt 0.8750 0.4000 0.9429
vt 0.9167 0.4000 0.9429
vt 0.9583 0.4000 0.9429
vt 1.0000 0.4000 0.9429
vt 0.0417 0.4000 0.9429
vt 0.0000 0.4000 0.9429
vt 0.0833 0.4000 0.9429
vt 0.1250 0.4000 0.9429
vt 0.1667 0.4000 0.9429
vt 0.2083 0.4000 0.9429
vt 0.2500 0.4000 0.9429
vt 0.2917 0.4000 0.9429
vt 0.3333 0.4000 0.9429
vt 0.3750 0.4000 0.9429
vt 0.4167 0.4000 0.9429
vt 0.4583 0.4000 0.9429
vt 0.5000 0.4000 0.9429
vt 0.5417 0.4000 0.9429
vt 0.5833 0.4000 0.9429
vt 0.6250 0.4000 0.9429
vt 0.6667 0.4000 0.9429
vt 0.7083 0.4000 0.9429
vt 0.7917 0.6000 0.9144
vt 0.7500 0.6000 0.9144
vt 0.8333 0.6000 0.9144
vt 0.8750 0.6000 0.9144
vt 0.9167 0.6000 0.9144
vt 0.9583 0.6000 0.9144
vt 1.0000 0.6000 0.9144
vt 0.0417 0.6000 0.9144
vt 0.0000 0.6000 0.9144
vt 0.0833 0.6000 0.9144
vt 0.1250 0.6000 0.9144
vt 0.1667 0.6000 0.9144
vt 0.2083 0.6000 0.9144
vt 0.2500 0.6000 0.9144
vt 0.2917 0.6000 0.9144
vt 0.3333 0.6000 0.9144
vt 0.3750 0.6000 0.9144
vt 0.4167 0.6000 0.9144
vt 0.4583 0.6000 0.9144
vt 0.5000 0.6000 0.9144
vt 0.5417 0.6000 0.9144
vt 0.5833 0.6000 0.9144
vt 0.6250 0.6000 0.9144
vt 0.6667 0.6000 0.9144
vt 0.7083 0.6000 0.9144
vt 0.7917 0.8000 0.8858
vt 0.7500 0.8000 0.8858
vt 0.8333 0.8000 0.8858
vt 0.8750 0.8000 0.8858
vt 0.9167 0.8000 0.8858
vt 0.9583 0.8000 0.8858
vt 1.0000 0.8000 0.8858
vt 0.0417 0.8000 0.8858
vt 0.0000 0.8000 0.8858
vt 0.0833 0.8000 0.8858
vt 0.1250 0.8000 0.8858
vt 0.1667 0.8000 0.8858
vt 0.2083 0.8000 0.8858
vt 0.2500 0.8000 0.8858
vt 0.2917 0.8000 0.8858
vt 0.3333 0.8000 0.8858
vt 0.3750 0.8000 0.8858
vt 0.4167 0.8000 0.8858
vt 0.4583 0.8000 0.8858
vt 0.5000 0.8000 0.8858
vt 0.5417 0.8000 0.8858
vt 0.5833 0.8000 0.8858
vt 0.6250 0.8000 0.8858
vt 0.6667 0.8000 0.8858
vt 0.7083 0.8000 0.8858
vt 0.7917 1.0000 0.8573
vt 0.7500 1.0000 0.8573
vt 0.8333 1.0000 0.8573
vt 0.8750 1.0000 0.8573
vt 0.9167 1.0000 0.8573
vt 0.9583 1.0000 0.8573
vt 1.0000 1.0000 0.8573
vt 0.0417 1.0000 0.8573
vt 0.0000 1.0000 0.8573
vt 0.0833 1.0000 0.8573
vt 0.1250 1.0000 0.8573
vt 0.1667 1.0000 0.8573
vt 0.2083 1.0000 0.8573
vt 0.2500 1.0000 0.8573
vt 0.2917 1.0000 0.8573
vt 0.3333 1.0000 0.8573
vt 0.3750 1.0000 0.8573
vt 0.4167 1.0000 0.8573
vt 0.4583 1.0000 0.8573
vt 0.5000 1.0000 0.8573
vt 0.5417 1.0000 0.8573
vt 0.5833 1.0000 0.8573
vt 0.6250 1.0000 0.8573
vt 0.6667 1.0000 0.8573
vt 0.7083 1.0000 0.8573
vt 0.5000 1.0000 0.0000
vt 1.0076 1.0000 0.7989
# 153 texture coords

o Cone001
g Cone001
usemtl wire_177148027
s 1
f 1/1/1 2/2/2 3/3/3 4/4/4 
f 1/1/1 5/5/5 6/6/6 2/2/2 
f 1/1/1 7/7/7 8/8/8 5/5/5 
f 1/1/1 9/9/9 10/10/10 7/11/7 
f 1/1/1 11/12/11 12/13/12 9/9/9 
f 1/1/1 13/14/13 14/15/14 11/12/11 
f 1/1/1 15/16/15 16/17/16 13/14/13 
f 1/1/1 17/18/17 18/19/18 15/16/15 
f 1/1/1 19/20/19 20/21/20 17/18/17 
f 1/1/1 21/22/21 22/23/22 19/20/19 
f 1/1/1 23/24/23 24/25/24 21/22/21 
f 1/1/1 4/4/4 25/26/25 23/24/23 
s 8
f 4/4/4 3/3/3 26/27/26 27/28/27 
f 3/3/3 2/2/2 28/29/28 26/27/26 
f 2/2/2 6/6/6 29/30/29 28/29/28 
f 6/6/6 5/5/5 30/31/30 29/30/29 
f 5/5/5 8/8/8 31/32/31 30/31/30 
f 8/8/8 7/7/7 32/33/32 31/32/31 
f 7/11/7 10/10/10 33/34/33 32/35/32 
f 10/10/10 9/9/9 34/36/34 33/34/33 
f 9/9/9 12/13/12 35/37/35 34/36/34 
f 12/13/12 11/12/11 36/38/36 35/37/35 
f 11/12/11 14/15/14 37/39/37 36/38/36 
f 14/15/14 13/14/13 38/40/38 37/39/37 
f 13/14/13 16/17/16 39/41/39 38/40/38 
f 16/17/16 15/16/15 40/42/40 39/41/39 
f 15/16/15 18/19/18 41/43/41 40/42/40 
f 18/19/18 17/18/17 42/44/42 41/43/41 
f 17/18/17 20/21/20 43/45/43 42/44/42 
f 20/21/20 19/20/19 44/46/44 43/45/43 
f 19/20/19 22/23/22 45/47/45 44/46/44 
f 22/23/22 21/22/21 46/48/46 45/47/45 
f 21/22/21 24/25/24 47/49/47 46/48/46 
f 24/25/24 23/24/23 48/50/48 47/49/47 
f 23/24/23 25/26/25 49/51/49 48/50/48 
f 25/26/25 4/4/4 27/28/27 49/51/49 
f 27/28/27 26/27/26 50/52/26 51/53/27 
f 26/27/26 28/29/28 52/54/28 50/52/26 
f 28/29/28 29/30/29 53/55/29 52/54/28 
f 29/30/29 30/31/30 54/56/30 53/55/29 
f 30/31/30 31/32/31 55/57/31 54/56/30 
f 31/32/31 32/33/32 56/58/32 55/57/31 
f 32/35/32 33/34/33 57/59/33 56/60/32 
f 33/34/33 34/36/34 58/61/34 57/59/33 
f 34/36/34 35/37/35 59/62/35 58/61/34 
f 35/37/35 36/38/36 60/63/36 59/62/35 
f 36/38/36 37/39/37 61/64/37 60/63/36 
f 37/39/37 38/40/38 62/65/38 61/64/37 
f 38/40/38 39/41/39 63/66/39 62/65/38 
f 39/41/39 40/42/40 64/67/40 63/66/39 
f 40/42/40 41/43/41 65/68/41 64/67/40 
f 41/43/41 42/44/42 66/69/42 65/68/41 
f 42/44/42 43/45/43 67/70/43 66/69/42 
f 43/45/43 44/46/44 68/71/44 67/70/43 
f 44/46/44 45/47/45 69/72/45 68/71/44 
f 45/47/45 46/48/46 70/73/46 69/72/45 
f 46/48/46 47/49/47 71/74/47 70/73/46 
f 47/49/47 48/50/48 72/75/48 71/74/47 
f 48/50/48 49/51/49 73/76/49 72/75/48 
f 49/51/49 27/28/27 51/53/27 73/76/49 
f 51/53/27 50/52/26 74/77/26 75/78/27 
f 50/52/26 52/54/28 76/79/28 74/77/26 
f 52/54/28 53/55/29 77/80/29 76/79/28 
f 53/55/29 54/56/30 78/81/30 77/80/29 
f 54/56/30 55/57/31 79/82/31 78/81/30 
f 55/57/31 56/58/32 80/83/32 79/82/31 
f 56/60/32 57/59/33 81/84/33 80/85/32 
f 57/59/33 58/61/34 82/86/34 81/84/33 
f 58/61/34 59/62/35 83/87/35 82/86/34 
f 59/62/35 60/63/36 84/88/36 83/87/35 
f 60/63/36 61/64/37 85/89/37 84/88/36 
f 61/64/37 62/65/38 86/90/38 85/89/37 
f 62/65/38 63/66/39 87/91/39 86/90/38 
f 63/66/39 64/67/40 88/92/40 87/91/39 
f 64/67/40 65/68/41 89/93/41 88/92/40 
f 65/68/41 66/69/42 90/94/42 89/93/41 
f 66/69/42 67/70/43 91/95/43 90/94/42 
f 67/70/43 68/71/44 92/96/44 91/95/43 
f 68/71/44 69/72/45 93/97/45 92/96/44 
f 69/72/45 70/73/46 94/98/46 93/97/45 
f 70/73/46 71/74/47 95/99/47 94/98/46 
f 71/74/47 72/75/48 96/100/48 95/99/47 
f 72/75/48 73/76/49 97/101/49 96/100/48 
f 73/76/49 51/53/27 75/78/27 97/101/49 
f 75/78/27 74/77/26 98/102/26 99/103/27 
f 74/77/26 76/79/28 100/104/28 98/102/26 
f 76/79/28 77/80/29 101/105/29 100/104/28 
f 77/80/29 78/81/30 102/106/30 101/105/29 
f 78/81/30 79/82/31 103/107/31 102/106/30 
f 79/82/31 80/83/32 104/108/32 103/107/31 
f 80/85/32 81/84/33 105/109/33 104/110/32 
f 81/84/33 82/86/34 106/111/34 105/109/33 
f 82/86/34 83/87/35 107/112/35 106/111/34 
f 83/87/35 84/88/36 108/113/36 107/112/35 
f 84/88/36 85/89/37 109/114/37 108/113/36 
f 85/89/37 86/90/38 110/115/38 109/114/37 
f 86/90/38 87/91/39 111/116/39 110/115/38 
f 87/91/39 88/92/40 112/117/40 111/116/39 
f 88/92/40 89/93/41 113/118/41 112/117/40 
f 89/93/41 90/94/42 114/119/42 113/118/41 
f 90/94/42 91/95/43 115/120/43 114/119/42 
f 91/95/43 92/96/44 116/121/44 115/120/43 
f 92/96/44 93/97/45 117/122/45 116/121/44 
f 93/97/45 94/98/46 118/123/46 117/122/45 
f 94/98/46 95/99/47 119/124/47 118/123/46 
f 95/99/47 96/100/48 120/125/48 119/124/47 
f 96/100/48 97/101/49 121/126/49 120/125/48 
f 97/101/49 75/78/27 99/103/27 121/126/49 
f 99/103/27 98/102/26 122/127/50 123/128/51 
f 98/102/26 100/104/28 124/129/52 122/127/50 
f 100/104/28 101/105/29 125/130/53 124/129/52 
f 101/105/29 102/106/30 126/131/54 125/130/53 
f 102/106/30 103/107/31 127/132/55 126/131/54 
f 103/107/31 104/108/32 128/133/56 127/132/55 
f 104/110/32 105/109/33 129/134/57 128/135/56 
f 105/109/33 106/111/34 130/136/58 129/134/57 
f 106/111/34 107/112/35 131/137/59 130/136/58 
f 107/112/35 108/113/36 132/138/60 131/137/59 
f 108/113/36 109/114/37 133/139/61 132/138/60 
f 109/114/37 110/115/38 134/140/62 133/139/61 
f 110/115/38 111/116/39 135/141/63 134/140/62 
f 111/116/39 112/117/40 136/142/64 135/141/63 
f 112/117/40 113/118/41 137/143/65 136/142/64 
f 113/118/41 114/119/42 138/144/66 137/143/65 
f 114/119/42 115/120/43 139/145/67 138/144/66 
f 115/120/43 116/121/44 140/146/68 139/145/67 
f 116/121/44 117/122/45 141/147/69 140/146/68 
f 117/122/45 118/123/46 142/148/70 141/147/69 
f 118/123/46 119/124/47 143/149/71 142/148/70 
f 119/124/47 120/125/48 144/150/72 143/149/71 
f 120/125/48 121/126/49 145/151/73 144/150/72 
f 121/126/49 99/103/27 123/128/51 145/151/73 
s 1
f 146/152/74 145/151/73 123/128/51 122/127/50 
f 146/152/74 122/127/50 124/129/52 125/130/53 
f 146/152/74 125/130/53 126/131/54 127/132/55 
f 146/152/74 127/132/55 128/133/56 129/153/57 
f 146/152/74 129/134/57 130/136/58 131/137/59 
f 146/152/74 131/137/59 132/138/60 133/139/61 
f 146/152/74 133/139/61 134/140/62 135/141/63 
f 146/152/74 135/141/63 136/142/64 137/143/65 
f 146/152/74 137/143/65 138/144/66 139/145/67 
f 146/152/74 139/145/67 140/146/68 141/147/69 
f 146/152/74 141/147/69 142/148/70 143/149/71 
f 146/152/74 143/149/71 144/150/72 145/151/73 
# 144 polygons

#
# object Cone002
#

v  0.0000 15.0000 -0.0000
v  38.8715 15.0000 -22.4425
v  43.3555 15.0000 -11.6171
v  44.8850 15.0000 -0.0000
v  22.4425 15.0000 -38.8715
v  31.7385 15.0000 -31.7385
v  0.0000 15.0000 -44.8850
v  11.6171 15.0000 -43.3555
v  -22.4425 15.0000 -38.8715
v  -11.6171 15.0000 -43.3556
v  -38.8715 15.0000 -22.4425
v  -31.7385 15.0000 -31.7385
v  -44.8850 15.0000 -0.0000
v  -43.3555 15.0000 -11.6171
v  -38.8715 15.0000 22.4425
v  -43.3556 15.0000 11.6171
v  -22.4425 15.0000 38.8715
v  -31.7385 15.0000 31.7384
v  -0.0000 15.0000 44.8850
v  -11.6171 15.0000 43.3555
v  22.4425 15.0000 38.8715
v  11.6171 15.0000 43.3556
v  38.8715 15.0000 22.4425
v  31.7384 15.0000 31.7385
v  43.3555 15.0000 11.6171
v  37.9280 33.8066 -10.1628
v  39.2659 33.8066 -0.0000
v  34.0053 33.8066 -19.6330
v  27.7652 33.8066 -27.7652
v  19.6330 33.8066 -34.0053
v  10.1628 33.8066 -37.9280
v  0.0000 33.8066 -39.2659
v  -10.1628 33.8066 -37.9280
v  -19.6330 33.8066 -34.0053
v  -27.7652 33.8066 -27.7652
v  -34.0053 33.8066 -19.6330
v  -37.9280 33.8066 -10.1628
v  -39.2659 33.8066 -0.0000
v  -37.9280 33.8066 10.1628
v  -34.0053 33.8066 19.6329
v  -27.7652 33.8066 27.7652
v  -19.6330 33.8066 34.0053
v  -10.1628 33.8066 37.9280
v  -0.0000 33.8066 39.2659
v  10.1627 33.8066 37.9280
v  19.6329 33.8066 34.0053
v  27.7652 33.8066 27.7652
v  34.0053 33.8066 19.6330
v  37.9280 33.8066 10.1628
v  32.5004 52.6132 -8.7085
v  33.6469 52.6132 -0.0000
v  29.1390 52.6132 -16.8234
v  23.7919 52.6132 -23.7919
v  16.8234 52.6132 -29.1391
v  8.7085 52.6132 -32.5004
v  0.0000 52.6132 -33.6469
v  -8.7084 52.6132 -32.5004
v  -16.8234 52.6132 -29.1391
v  -23.7919 52.6132 -23.7919
v  -29.1390 52.6132 -16.8234
v  -32.5004 52.6132 -8.7085
v  -33.6469 52.6132 -0.0000
v  -32.5004 52.6132 8.7084
v  -29.1391 52.6132 16.8234
v  -23.7919 52.6132 23.7919
v  -16.8234 52.6132 29.1390
v  -8.7085 52.6132 32.5004
v  -0.0000 52.6132 33.6469
v  8.7084 52.6132 32.5004
v  16.8234 52.6132 29.1391
v  23.7919 52.6132 23.7920
v  29.1390 52.6132 16.8235
v  32.5004 52.6132 8.7085
v  27.0728 71.4198 -7.2541
v  28.0278 71.4198 -0.0000
v  24.2728 71.4198 -14.0139
v  19.8187 71.4198 -19.8187
v  14.0139 71.4198 -24.2728
v  7.2541 71.4198 -27.0728
v  0.0000 71.4198 -28.0278
v  -7.2541 71.4198 -27.0728
v  -14.0139 71.4198 -24.2728
v  -19.8187 71.4198 -19.8187
v  -24.2728 71.4198 -14.0139
v  -27.0728 71.4198 -7.2541
v  -28.0278 71.4198 -0.0000
v  -27.0728 71.4198 7.2541
v  -24.2728 71.4198 14.0139
v  -19.8187 71.4198 19.8187
v  -14.0139 71.4198 24.2728
v  -7.2541 71.4198 27.0728
v  -0.0000 71.4198 28.0278
v  7.2541 71.4198 27.0728
v  14.0139 71.4198 24.2728
v  19.8187 71.4198 19.8187
v  24.2728 71.4198 14.0139
v  27.0728 71.4198 7.2542
v  21.6452 90.2264 -5.7998
v  22.4088 90.2264 -0.0000
v  19.4066 90.2264 -11.2044
v  15.8454 90.2264 -15.8454
v  11.2044 90.2264 -19.4066
v  5.7998 90.2264 -21.6452
v  0.0000 90.2264 -22.4088
v  -5.7998 90.2264 -21.6452
v  -11.2044 90.2264 -19.4066
v  -15.8454 90.2264 -15.8454
v  -19.4066 90.2264 -11.2044
v  -21.6452 90.2264 -5.7998
v  -22.4088 90.2264 -0.0000
v  -21.6452 90.2264 5.7998
v  -19.4066 90.2264 11.2044
v  -15.8454 90.2264 15.8454
v  -11.2044 90.2264 19.4066
v  -5.7998 90.2264 21.6452
v  -0.0000 90.2264 22.4088
v  5.7998 90.2264 21.6452
v  11.2044 90.2264 19.4066
v  15.8454 90.2264 15.8454
v  19.4066 90.2264 11.2044
v  21.6452 90.2264 5.7998
v  16.2176 109.0330 -4.3455
v  16.7897 109.0330 -0.0000
v  14.5403 109.0330 -8.3949
v  11.8721 109.0330 -11.8721
v  8.3949 109.0330 -14.5403
v  4.3455 109.0330 -16.2176
v  0.0000 109.0330 -16.7897
v  -4.3455 109.0330 -16.2176
v  -8.3949 109.0330 -14.5403
v  -11.8721 109.0330 -11.8721
v  -14.5403 109.0330 -8.3949
v  -16.2176 109.0330 -4.3455
v  -16.7897 109.0330 -0.0000
v  -16.2176 109.0330 4.3455
v  -14.5403 109.0330 8.3949
v  -11.8721 109.0330 11.8721
v  -8.3949 109.0330 14.5403
v  -4.3455 109.0330 16.2176
v  -0.0000 109.0330 16.7897
v  4.3455 109.0330 16.2176
v  8.3949 109.0330 14.5403
v  11.8721 109.0330 11.8721
v  14.5403 109.0330 8.3949
v  16.2176 109.0330 4.3455
v  0.0000 109.0330 -0.0000
# 146 vertices

vn 0.0000 -1.0000 -0.0000
vn 0.7131 -0.5674 -0.4117
vn 0.7954 -0.5674 -0.2131
vn 0.8235 -0.5674 0.0000
vn 0.4117 -0.5674 -0.7131
vn 0.5823 -0.5674 -0.5823
vn 0.0000 -0.5674 -0.8235
vn 0.2131 -0.5674 -0.7954
vn -0.4117 -0.5674 -0.7131
vn -0.2131 -0.5674 -0.7954
vn -0.7131 -0.5674 -0.4117
vn -0.5823 -0.5674 -0.5823
vn -0.8235 -0.5674 -0.0000
vn -0.7954 -0.5674 -0.2131
vn -0.7131 -0.5674 0.4117
vn -0.7954 -0.5674 0.2131
vn -0.4117 -0.5674 0.7131
vn -0.5823 -0.5674 0.5823
vn -0.0000 -0.5674 0.8235
vn -0.2131 -0.5674 0.7954
vn 0.4117 -0.5674 0.7131
vn 0.2131 -0.5674 0.7954
vn 0.7131 -0.5674 0.4117
vn 0.5823 -0.5674 0.5823
vn 0.7954 -0.5674 0.2131
vn 0.9255 0.2863 -0.2480
vn 0.9581 0.2863 0.0000
vn 0.8298 0.2863 -0.4791
vn 0.6775 0.2863 -0.6775
vn 0.4791 0.2863 -0.8298
vn 0.2480 0.2863 -0.9255
vn 0.0000 0.2863 -0.9581
vn -0.2480 0.2863 -0.9255
vn -0.4791 0.2863 -0.8298
vn -0.6775 0.2863 -0.6775
vn -0.8298 0.2863 -0.4791
vn -0.9255 0.2863 -0.2480
vn -0.9581 0.2863 -0.0000
vn -0.9255 0.2863 0.2480
vn -0.8298 0.2863 0.4791
vn -0.6775 0.2863 0.6775
vn -0.4791 0.2863 0.8298
vn -0.2480 0.2863 0.9255
vn -0.0000 0.2863 0.9581
vn 0.2480 0.2863 0.9255
vn 0.4791 0.2863 0.8298
vn 0.6775 0.2863 0.6775
vn 0.8298 0.2863 0.4791
vn 0.9255 0.2863 0.2480
vn 0.6062 0.7786 -0.1624
vn 0.6276 0.7786 0.0000
vn 0.5435 0.7786 -0.3138
vn 0.4437 0.7786 -0.4437
vn 0.3138 0.7786 -0.5435
vn 0.1624 0.7786 -0.6062
vn 0.0000 0.7786 -0.6276
vn -0.1624 0.7786 -0.6062
vn -0.3138 0.7786 -0.5435
vn -0.4437 0.7786 -0.4437
vn -0.5435 0.7786 -0.3138
vn -0.6062 0.7786 -0.1624
vn -0.6276 0.7786 -0.0000
vn -0.6062 0.7786 0.1624
vn -0.5435 0.7786 0.3138
vn -0.4437 0.7786 0.4437
vn -0.3138 0.7786 0.5435
vn -0.1624 0.7786 0.6062
vn -0.0000 0.7786 0.6276
vn 0.1624 0.7786 0.6062
vn 0.3138 0.7786 0.5435
vn 0.4437 0.7786 0.4437
vn 0.5435 0.7786 0.3138
vn 0.6062 0.7786 0.1624
vn 0.0000 1.0000 -0.0000
# 74 vertex normals

vt 0.5000 0.0000 0.0000
vt 0.8333 0.0000 1.0000
vt 0.7917 0.0000 1.0000
vt 0.7500 0.0000 1.0000
vt 0.9167 0.0000 1.0000
vt 0.8750 0.0000 1.0000
vt 1.0000 0.0000 1.0000
vt 0.9583 0.0000 1.0000
vt 0.0833 0.0000 1.0000
vt 0.0417 0.0000 1.0000
vt 0.0000 0.0000 1.0000
vt 0.1667 0.0000 1.0000
vt 0.1250 0.0000 1.0000
vt 0.2500 0.0000 1.0000
vt 0.2083 0.0000 1.0000
vt 0.3333 0.0000 1.0000
vt 0.2917 0.0000 1.0000
vt 0.4167 0.0000 1.0000
vt 0.3750 0.0000 1.0000
vt 0.5000 0.0000 1.0000
vt 0.4583 0.0000 1.0000
vt 0.5833 0.0000 1.0000
vt 0.5417 0.0000 1.0000
vt 0.6667 0.0000 1.0000
vt 0.6250 0.0000 1.0000
vt 0.7083 0.0000 1.0000
vt 0.7917 0.2000 0.8748
vt 0.7500 0.2000 0.8748
vt 0.8333 0.2000 0.8748
vt 0.8750 0.2000 0.8748
vt 0.9167 0.2000 0.8748
vt 0.9583 0.2000 0.8748
vt 1.0000 0.2000 0.8748
vt 0.0417 0.2000 0.8748
vt 0.0000 0.2000 0.8748
vt 0.0833 0.2000 0.8748
vt 0.1250 0.2000 0.8748
vt 0.1667 0.2000 0.8748
vt 0.2083 0.2000 0.8748
vt 0.2500 0.2000 0.8748
vt 0.2917 0.2000 0.8748
vt 0.3333 0.2000 0.8748
vt 0.3750 0.2000 0.8748
vt 0.4167 0.2000 0.8748
vt 0.4583 0.2000 0.8748
vt 0.5000 0.2000 0.8748
vt 0.5417 0.2000 0.8748
vt 0.5833 0.2000 0.8748
vt 0.6250 0.2000 0.8748
vt 0.6667 0.2000 0.8748
vt 0.7083 0.2000 0.8748
vt 0.7917 0.4000 0.7496
vt 0.7500 0.4000 0.7496
vt 0.8333 0.4000 0.7496
vt 0.8750 0.4000 0.7496
vt 0.9167 0.4000 0.7496
vt 0.9583 0.4000 0.7496
vt 1.0000 0.4000 0.7496
vt 0.0417 0.4000 0.7496
vt 0.0000 0.4000 0.7496
vt 0.0833 0.4000 0.7496
vt 0.1250 0.4000 0.7496
vt 0.1667 0.4000 0.7496
vt 0.2083 0.4000 0.7496
vt 0.2500 0.4000 0.7496
vt 0.2917 0.4000 0.7496
vt 0.3333 0.4000 0.7496
vt 0.3750 0.4000 0.7496
vt 0.4167 0.4000 0.7496
vt 0.4583 0.4000 0.7496
vt 0.5000 0.4000 0.7496
vt 0.5417 0.4000 0.7496
vt 0.5833 0.4000 0.7496
vt 0.6250 0.4000 0.7496
vt 0.6667 0.4000 0.7496
vt 0.7083 0.4000 0.7496
vt 0.7917 0.6000 0.6244
vt 0.7500 0.6000 0.6244
vt 0.8333 0.6000 0.6244
vt 0.8750 0.6000 0.6244
vt 0.9167 0.6000 0.6244
vt 0.9583 0.6000 0.6244
vt 1.0000 0.6000 0.6244
vt 0.0417 0.6000 0.6244
vt 0.0000 0.6000 0.6244
vt 0.0833 0.6000 0.6244
vt 0.1250 0.6000 0.6244
vt 0.1667 0.6000 0.6244
vt 0.2083 0.6000 0.6244
vt 0.2500 0.6000 0.6244
vt 0.2917 0.6000 0.6244
vt 0.3333 0.6000 0.6244
vt 0.3750 0.6000 0.6244
vt 0.4167 0.6000 0.6244
vt 0.4583 0.6000 0.6244
vt 0.5000 0.6000 0.6244
vt 0.5417 0.6000 0.6244
vt 0.5833 0.6000 0.6244
vt 0.6250 0.6000 0.6244
vt 0.6667 0.6000 0.6244
vt 0.7083 0.6000 0.6244
vt 0.7917 0.8000 0.4992
vt 0.7500 0.8000 0.4992
vt 0.8333 0.8000 0.4992
vt 0.8750 0.8000 0.4992
vt 0.9167 0.8000 0.4992
vt 0.9583 0.8000 0.4992
vt 1.0000 0.8000 0.4992
vt 0.0417 0.8000 0.4992
vt 0.0000 0.8000 0.4992
vt 0.0833 0.8000 0.4992
vt 0.1250 0.8000 0.4992
vt 0.1667 0.8000 0.4992
vt 0.2083 0.8000 0.4992
vt 0.2500 0.8000 0.4992
vt 0.2917 0.8000 0.4992
vt 0.3333 0.8000 0.4992
vt 0.3750 0.8000 0.4992
vt 0.4167 0.8000 0.4992
vt 0.4583 0.8000 0.4992
vt 0.5000 0.8000 0.4992
vt 0.5417 0.8000 0.4992
vt 0.5833 0.8000 0.4992
vt 0.6250 0.8000 0.4992
vt 0.6667 0.8000 0.4992
vt 0.7083 0.8000 0.4992
vt 0.7917 1.0000 0.3741
vt 0.7500 1.0000 0.3741
vt 0.8333 1.0000 0.3741
vt 0.8750 1.0000 0.3741
vt 0.9167 1.0000 0.3741
vt 0.9583 1.0000 0.3741
vt 1.0000 1.0000 0.3741
vt 0.0417 1.0000 0.3741
vt 0.0000 1.0000 0.3741
vt 0.0833 1.0000 0.3741
vt 0.1250 1.0000 0.3741
vt 0.1667 1.0000 0.3741
vt 0.2083 1.0000 0.3741
vt 0.2500 1.0000 0.3741
vt 0.2917 1.0000 0.3741
vt 0.3333 1.0000 0.3741
vt 0.3750 1.0000 0.3741
vt 0.4167 1.0000 0.3741
vt 0.4583 1.0000 0.3741
vt 0.5000 1.0000 0.3741
vt 0.5417 1.0000 0.3741
vt 0.5833 1.0000 0.3741
vt 0.6250 1.0000 0.3741
vt 0.6667 1.0000 0.3741
vt 0.7083 1.0000 0.3741
vt 0.5000 1.0000 0.0000
vt 1.0076 1.0000 0.3486
# 153 texture coords

o Cone002
g Cone002
usemtl wire_177148027
s 1
f 147/154/75 148/155/76 149/156/77 150/157/78 
f 147/154/75 151/158/79 152/159/80 148/155/76 
f 147/154/75 153/160/81 154/161/82 151/158/79 
f 147/154/75 155/162/83 156/163/84 153/164/81 
f 147/154/75 157/165/85 158/166/86 155/162/83 
f 147/154/75 159/167/87 160/168/88 157/165/85 
f 147/154/75 161/169/89 162/170/90 159/167/87 
f 147/154/75 163/171/91 164/172/92 161/169/89 
f 147/154/75 165/173/93 166/174/94 163/171/91 
f 147/154/75 167/175/95 168/176/96 165/173/93 
f 147/154/75 169/177/97 170/178/98 167/175/95 
f 147/154/75 150/157/78 171/179/99 169/177/97 
s 8
f 150/157/78 149/156/77 172/180/100 173/181/101 
f 149/156/77 148/155/76 174/182/102 172/180/100 
f 148/155/76 152/159/80 175/183/103 174/182/102 
f 152/159/80 151/158/79 176/184/104 175/183/103 
f 151/158/79 154/161/82 177/185/105 176/184/104 
f 154/161/82 153/160/81 178/186/106 177/185/105 
f 153/164/81 156/163/84 179/187/107 178/188/106 
f 156/163/84 155/162/83 180/189/108 179/187/107 
f 155/162/83 158/166/86 181/190/109 180/189/108 
f 158/166/86 157/165/85 182/191/110 181/190/109 
f 157/165/85 160/168/88 183/192/111 182/191/110 
f 160/168/88 159/167/87 184/193/112 183/192/111 
f 159/167/87 162/170/90 185/194/113 184/193/112 
f 162/170/90 161/169/89 186/195/114 185/194/113 
f 161/169/89 164/172/92 187/196/115 186/195/114 
f 164/172/92 163/171/91 188/197/116 187/196/115 
f 163/171/91 166/174/94 189/198/117 188/197/116 
f 166/174/94 165/173/93 190/199/118 189/198/117 
f 165/173/93 168/176/96 191/200/119 190/199/118 
f 168/176/96 167/175/95 192/201/120 191/200/119 
f 167/175/95 170/178/98 193/202/121 192/201/120 
f 170/178/98 169/177/97 194/203/122 193/202/121 
f 169/177/97 171/179/99 195/204/123 194/203/122 
f 171/179/99 150/157/78 173/181/101 195/204/123 
f 173/181/101 172/180/100 196/205/100 197/206/101 
f 172/180/100 174/182/102 198/207/102 196/205/100 
f 174/182/102 175/183/103 199/208/103 198/207/102 
f 175/183/103 176/184/104 200/209/104 199/208/103 
f 176/184/104 177/185/105 201/210/105 200/209/104 
f 177/185/105 178/186/106 202/211/106 201/210/105 
f 178/188/106 179/187/107 203/212/107 202/213/106 
f 179/187/107 180/189/108 204/214/108 203/212/107 
f 180/189/108 181/190/109 205/215/109 204/214/108 
f 181/190/109 182/191/110 206/216/110 205/215/109 
f 182/191/110 183/192/111 207/217/111 206/216/110 
f 183/192/111 184/193/112 208/218/112 207/217/111 
f 184/193/112 185/194/113 209/219/113 208/218/112 
f 185/194/113 186/195/114 210/220/114 209/219/113 
f 186/195/114 187/196/115 211/221/115 210/220/114 
f 187/196/115 188/197/116 212/222/116 211/221/115 
f 188/197/116 189/198/117 213/223/117 212/222/116 
f 189/198/117 190/199/118 214/224/118 213/223/117 
f 190/199/118 191/200/119 215/225/119 214/224/118 
f 191/200/119 192/201/120 216/226/120 215/225/119 
f 192/201/120 193/202/121 217/227/121 216/226/120 
f 193/202/121 194/203/122 218/228/122 217/227/121 
f 194/203/122 195/204/123 219/229/123 218/228/122 
f 195/204/123 173/181/101 197/206/101 219/229/123 
f 197/206/101 196/205/100 220/230/100 221/231/101 
f 196/205/100 198/207/102 222/232/102 220/230/100 
f 198/207/102 199/208/103 223/233/103 222/232/102 
f 199/208/103 200/209/104 224/234/104 223/233/103 
f 200/209/104 201/210/105 225/235/105 224/234/104 
f 201/210/105 202/211/106 226/236/106 225/235/105 
f 202/213/106 203/212/107 227/237/107 226/238/106 
f 203/212/107 204/214/108 228/239/108 227/237/107 
f 204/214/108 205/215/109 229/240/109 228/239/108 
f 205/215/109 206/216/110 230/241/110 229/240/109 
f 206/216/110 207/217/111 231/242/111 230/241/110 
f 207/217/111 208/218/112 232/243/112 231/242/111 
f 208/218/112 209/219/113 233/244/113 232/243/112 
f 209/219/113 210/220/114 234/245/114 233/244/113 
f 210/220/114 211/221/115 235/246/115 234/245/114 
f 211/221/115 212/222/116 236/247/116 235/246/115 
f 212/222/116 213/223/117 237/248/117 236/247/116 
f 213/223/117 214/224/118 238/249/118 237/248/117 
f 214/224/118 215/225/119 239/250/119 238/249/118 
f 215/225/119 216/226/120 240/251/120 239/250/119 
f 216/226/120 217/227/121 241/252/121 240/251/120 
f 217/227/121 218/228/122 242/253/122 241/252/121 
f 218/228/122 219/229/123 243/254/123 242/253/122 
f 219/229/123 197/206/101 221/231/101 243/254/123 
f 221/231/101 220/230/100 244/255/100 245/256/101 
f 220/230/100 222/232/102 246/257/102 244/255/100 
f 222/232/102 223/233/103 247/258/103 246/257/102 
f 223/233/103 224/234/104 248/259/104 247/258/103 
f 224/234/104 225/235/105 249/260/105 248/259/104 
f 225/235/105 226/236/106 250/261/106 249/260/105 
f 226/238/106 227/237/107 251/262/107 250/263/106 
f 227/237/107 228/239/108 252/264/108 251/262/107 
f 228/239/108 229/240/109 253/265/109 252/264/108 
f 229/240/109 230/241/110 254/266/110 253/265/109 
f 230/241/110 231/242/111 255/267/111 254/266/110 
f 231/242/111 232/243/112 256/268/112 255/267/111 
f 232/243/112 233/244/113 257/269/113 256/268/112 
f 233/244/113 234/245/114 258/270/114 257/269/113 
f 234/245/114 235/246/115 259/271/115 258/270/114 
f 235/246/115 236/247/116 260/272/116 259/271/115 
f 236/247/116 237/248/117 261/273/117 260/272/116 
f 237/248/117 238/249/118 262/274/118 261/273/117 
f 238/249/118 239/250/119 263/275/119 262/274/118 
f 239/250/119 240/251/120 264/276/120 263/275/119 
f 240/251/120 241/252/121 265/277/121 264/276/120 
f 241/252/121 242/253/122 266/278/122 265/277/121 
f 242/253/122 243/254/123 267/279/123 266/278/122 
f 243/254/123 221/231/101 245/256/101 267/279/123 
f 245/256/101 244/255/100 268/280/124 269/281/125 
f 244/255/100 246/257/102 270/282/126 268/280/124 
f 246/257/102 247/258/103 271/283/127 270/282/126 
f 247/258/103 248/259/104 272/284/128 271/283/127 
f 248/259/104 249/260/105 273/285/129 272/284/128 
f 249/260/105 250/261/106 274/286/130 273/285/129 
f 250/263/106 251/262/107 275/287/131 274/288/130 
f 251/262/107 252/264/108 276/289/132 275/287/131 
f 252/264/108 253/265/109 277/290/133 276/289/132 
f 253/265/109 254/266/110 278/291/134 277/290/133 
f 254/266/110 255/267/111 279/292/135 278/291/134 
f 255/267/111 256/268/112 280/293/136 279/292/135 
f 256/268/112 257/269/113 281/294/137 280/293/136 
f 257/269/113 258/270/114 282/295/138 281/294/137 
f 258/270/114 259/271/115 283/296/139 282/295/138 
f 259/271/115 260/272/116 284/297/140 283/296/139 
f 260/272/116 261/273/117 285/298/141 284/297/140 
f 261/273/117 262/274/118 286/299/142 285/298/141 
f 262/274/118 263/275/119 287/300/143 286/299/142 
f 263/275/119 264/276/120 288/301/144 287/300/143 
f 264/276/120 265/277/121 289/302/145 288/301/144 
f 265/277/121 266/278/122 290/303/146 289/302/145 
f 266/278/122 267/279/123 291/304/147 290/303/146 
f 267/279/123 245/256/101 269/281/125 291/304/147 
s 1
f 292/305/148 291/304/147 269/281/125 268/280/124 
f 292/305/148 268/280/124 270/282/126 271/283/127 
f 292/305/148 271/283/127 272/284/128 273/285/129 
f 292/305/148 273/285/129 274/286/130 275/306/131 
f 292/305/148 275/287/131 276/289/132 277/290/133 
f 292/305/148 277/290/133 278/291/134 279/292/135 
f 292/305/148 279/292/135 280/293/136 281/294/137 
f 292/305/148 281/294/137 282/295/138 283/296/139 
f 292/305/148 283/296/139 284/297/140 285/298/141 
f 292/305/148 285/298/141 286/299/142 287/300/143 
f 292/305/148 287/300/143 288/301/144 289/302/145 
f 292/305/148 289/302/145 290/303/146 291/304/147 
# 144 polygons

