# 3ds Max Wavefront OBJ Exporter v0.97b - (c)2007 guruware
# 创建的文件:04.10.2021 20:31:25

mtllib 122.mtl

#
# object Cone001
#

v  0.0000 0.0000 -0.0000
v  43.9721 0.0000 -25.3873
v  49.0445 0.0000 -13.1414
v  50.7746 0.0000 -0.0000
v  25.3873 0.0000 -43.9721
v  35.9031 0.0000 -35.9031
v  0.0000 0.0000 -50.7746
v  13.1414 0.0000 -49.0445
v  -25.3873 0.0000 -43.9721
v  -13.1414 0.0000 -49.0445
v  -43.9721 0.0000 -25.3873
v  -35.9031 0.0000 -35.9031
v  -50.7746 0.0000 -0.0000
v  -49.0445 0.0000 -13.1415
v  -43.9721 0.0000 25.3873
v  -49.0445 0.0000 13.1414
v  -25.3873 0.0000 43.9721
v  -35.9031 0.0000 35.9031
v  -0.0000 0.0000 50.7746
v  -13.1415 0.0000 49.0445
v  25.3873 0.0000 43.9721
v  13.1414 0.0000 49.0445
v  43.9721 0.0000 25.3873
v  35.9031 0.0000 35.9031
v  49.0445 0.0000 13.1415
v  48.3288 3.3873 -12.9497
v  50.0336 3.3873 -0.0000
v  43.3304 3.3873 -25.0168
v  35.3791 3.3873 -35.3791
v  25.0168 3.3873 -43.3304
v  12.9497 3.3873 -48.3288
v  0.0000 3.3873 -50.0336
v  -12.9497 3.3873 -48.3288
v  -25.0168 3.3873 -43.3304
v  -35.3791 3.3873 -35.3791
v  -43.3304 3.3873 -25.0168
v  -48.3288 3.3873 -12.9497
v  -50.0336 3.3873 -0.0000
v  -48.3288 3.3873 12.9496
v  -43.3304 3.3873 25.0168
v  -35.3791 3.3873 35.3791
v  -25.0168 3.3873 43.3304
v  -12.9497 3.3873 48.3288
v  -0.0000 3.3873 50.0336
v  12.9496 3.3873 48.3288
v  25.0168 3.3873 43.3304
v  35.3791 3.3873 35.3792
v  43.3304 3.3873 25.0169
v  48.3288 3.3873 12.9497
v  47.6131 6.7746 -12.7579
v  49.2927 6.7746 -0.0000
v  42.6887 6.7746 -24.6463
v  34.8552 6.7746 -34.8552
v  24.6463 6.7746 -42.6887
v  12.7579 6.7746 -47.6131
v  0.0000 6.7746 -49.2927
v  -12.7579 6.7746 -47.6131
v  -24.6463 6.7746 -42.6887
v  -34.8552 6.7746 -34.8552
v  -42.6887 6.7746 -24.6463
v  -47.6131 6.7746 -12.7579
v  -49.2927 6.7746 -0.0000
v  -47.6131 6.7746 12.7579
v  -42.6887 6.7746 24.6463
v  -34.8552 6.7746 34.8552
v  -24.6464 6.7746 42.6887
v  -12.7579 6.7746 47.6131
v  -0.0000 6.7746 49.2927
v  12.7579 6.7746 47.6131
v  24.6463 6.7746 42.6887
v  34.8552 6.7746 34.8552
v  42.6887 6.7746 24.6464
v  47.6131 6.7746 12.7579
v  46.8973 10.1619 -12.5661
v  48.5517 10.1619 -0.0000
v  42.0470 10.1619 -24.2758
v  34.3312 10.1619 -34.3312
v  24.2758 10.1619 -42.0470
v  12.5661 10.1619 -46.8973
v  0.0000 10.1619 -48.5517
v  -12.5661 10.1619 -46.8973
v  -24.2758 10.1619 -42.0470
v  -34.3312 10.1619 -34.3312
v  -42.0470 10.1619 -24.2759
v  -46.8973 10.1619 -12.5661
v  -48.5517 10.1619 -0.0000
v  -46.8973 10.1619 12.5661
v  -42.0470 10.1619 24.2758
v  -34.3312 10.1619 34.3312
v  -24.2759 10.1619 42.0470
v  -12.5661 10.1619 46.8973
v  -0.0000 10.1619 48.5517
v  12.5661 10.1619 46.8973
v  24.2758 10.1619 42.0470
v  34.3312 10.1619 34.3313
v  42.0470 10.1619 24.2759
v  46.8973 10.1619 12.5661
v  46.1816 13.5492 -12.3743
v  47.8107 13.5492 -0.0000
v  41.4053 13.5492 -23.9054
v  33.8073 13.5492 -33.8073
v  23.9054 13.5492 -41.4053
v  12.3743 13.5492 -46.1816
v  0.0000 13.5492 -47.8107
v  -12.3743 13.5492 -46.1816
v  -23.9054 13.5492 -41.4053
v  -33.8073 13.5492 -33.8073
v  -41.4053 13.5492 -23.9054
v  -46.1816 13.5492 -12.3743
v  -47.8107 13.5492 -0.0000
v  -46.1816 13.5492 12.3743
v  -41.4053 13.5492 23.9053
v  -33.8073 13.5492 33.8073
v  -23.9054 13.5492 41.4053
v  -12.3743 13.5492 46.1816
v  -0.0000 13.5492 47.8107
v  12.3743 13.5492 46.1816
v  23.9053 13.5492 41.4053
v  33.8073 13.5492 33.8073
v  41.4053 13.5492 23.9054
v  46.1816 13.5492 12.3744
v  45.4659 16.9366 -12.1825
v  47.0697 16.9366 -0.0000
v  40.7636 16.9366 -23.5349
v  33.2833 16.9366 -33.2833
v  23.5349 16.9366 -40.7636
v  12.1825 16.9366 -45.4659
v  0.0000 16.9366 -47.0697
v  -12.1825 16.9366 -45.4659
v  -23.5349 16.9366 -40.7636
v  -33.2833 16.9366 -33.2833
v  -40.7636 16.9366 -23.5349
v  -45.4659 16.9366 -12.1826
v  -47.0697 16.9366 -0.0000
v  -45.4659 16.9366 12.1825
v  -40.7636 16.9366 23.5349
v  -33.2834 16.9366 33.2833
v  -23.5349 16.9366 40.7636
v  -12.1826 16.9366 45.4659
v  -0.0000 16.9366 47.0697
v  12.1825 16.9366 45.4659
v  23.5348 16.9366 40.7636
v  33.2833 16.9366 33.2834
v  40.7636 16.9366 23.5349
v  45.4659 16.9366 12.1826
v  0.0000 16.9366 -0.0000
# 146 vertices

vn 0.0000 -1.0000 -0.0000
vn 0.6947 -0.5971 -0.4011
vn 0.7748 -0.5971 -0.2076
vn 0.8021 -0.5971 0.0000
vn 0.4011 -0.5971 -0.6947
vn 0.5672 -0.5971 -0.5672
vn 0.0000 -0.5971 -0.8021
vn 0.2076 -0.5971 -0.7748
vn -0.4011 -0.5971 -0.6947
vn -0.2076 -0.5971 -0.7748
vn -0.6947 -0.5971 -0.4011
vn -0.5672 -0.5971 -0.5672
vn -0.8021 -0.5971 -0.0000
vn -0.7748 -0.5971 -0.2076
vn -0.6947 -0.5971 0.4011
vn -0.7748 -0.5971 0.2076
vn -0.4011 -0.5971 0.6947
vn -0.5672 -0.5971 0.5672
vn -0.0000 -0.5971 0.8021
vn -0.2076 -0.5971 0.7748
vn 0.4011 -0.5971 0.6947
vn 0.2076 -0.5971 0.7748
vn 0.6947 -0.5971 0.4011
vn 0.5672 -0.5971 0.5672
vn 0.7748 -0.5971 0.2076
vn 0.9436 0.2137 -0.2528
vn 0.9769 0.2137 0.0000
vn 0.8460 0.2137 -0.4885
vn 0.6908 0.2137 -0.6908
vn 0.4884 0.2137 -0.8460
vn 0.2528 0.2137 -0.9436
vn 0.0000 0.2137 -0.9769
vn -0.2528 0.2137 -0.9436
vn -0.4884 0.2137 -0.8460
vn -0.6908 0.2137 -0.6908
vn -0.8460 0.2137 -0.4885
vn -0.9436 0.2137 -0.2528
vn -0.9769 0.2137 -0.0000
vn -0.9436 0.2137 0.2528
vn -0.8460 0.2137 0.4884
vn -0.6908 0.2137 0.6908
vn -0.4885 0.2137 0.8460
vn -0.2528 0.2137 0.9436
vn -0.0000 0.2137 0.9769
vn 0.2528 0.2137 0.9436
vn 0.4884 0.2137 0.8460
vn 0.6908 0.2137 0.6908
vn 0.8460 0.2137 0.4885
vn 0.9436 0.2137 0.2528
vn 0.8460 0.2137 -0.4884
vn 0.4885 0.2137 -0.8460
vn 0.6343 0.7541 -0.1700
vn 0.6567 0.7541 0.0000
vn 0.5687 0.7541 -0.3284
vn 0.4644 0.7541 -0.4644
vn 0.3284 0.7541 -0.5687
vn 0.1700 0.7541 -0.6343
vn 0.0000 0.7541 -0.6567
vn -0.1700 0.7541 -0.6343
vn -0.3284 0.7541 -0.5687
vn -0.4644 0.7541 -0.4644
vn -0.5687 0.7541 -0.3284
vn -0.6343 0.7541 -0.1700
vn -0.6567 0.7541 -0.0000
vn -0.6343 0.7541 0.1700
vn -0.5687 0.7541 0.3284
vn -0.4644 0.7541 0.4644
vn -0.3284 0.7541 0.5687
vn -0.1700 0.7541 0.6343
vn -0.0000 0.7541 0.6567
vn 0.1700 0.7541 0.6343
vn 0.3284 0.7541 0.5687
vn 0.4644 0.7541 0.4644
vn 0.5687 0.7541 0.3284
vn 0.6343 0.7541 0.1700
vn 0.0000 1.0000 -0.0000
# 76 vertex normals

vt 0.5000 0.0000 0.0000
vt 0.8333 0.0000 1.0000
vt 0.7917 0.0000 1.0000
vt 0.7500 0.0000 1.0000
vt 0.9167 0.0000 1.0000
vt 0.8750 0.0000 1.0000
vt 1.0000 0.0000 1.0000
vt 0.9583 0.0000 1.0000
vt 0.0833 0.0000 1.0000
vt 0.0417 0.0000 1.0000
vt 0.0000 0.0000 1.0000
vt 0.1667 0.0000 1.0000
vt 0.1250 0.0000 1.0000
vt 0.2500 0.0000 1.0000
vt 0.2083 0.0000 1.0000
vt 0.3333 0.0000 1.0000
vt 0.2917 0.0000 1.0000
vt 0.4167 0.0000 1.0000
vt 0.3750 0.0000 1.0000
vt 0.5000 0.0000 1.0000
vt 0.4583 0.0000 1.0000
vt 0.5833 0.0000 1.0000
vt 0.5417 0.0000 1.0000
vt 0.6667 0.0000 1.0000
vt 0.6250 0.0000 1.0000
vt 0.7083 0.0000 1.0000
vt 0.7917 0.2000 0.9854
vt 0.7500 0.2000 0.9854
vt 0.8333 0.2000 0.9854
vt 0.8750 0.2000 0.9854
vt 0.9167 0.2000 0.9854
vt 0.9583 0.2000 0.9854
vt 1.0000 0.2000 0.9854
vt 0.0417 0.2000 0.9854
vt 0.0000 0.2000 0.9854
vt 0.0833 0.2000 0.9854
vt 0.1250 0.2000 0.9854
vt 0.1667 0.2000 0.9854
vt 0.2083 0.2000 0.9854
vt 0.2500 0.2000 0.9854
vt 0.2917 0.2000 0.9854
vt 0.3333 0.2000 0.9854
vt 0.3750 0.2000 0.9854
vt 0.4167 0.2000 0.9854
vt 0.4583 0.2000 0.9854
vt 0.5000 0.2000 0.9854
vt 0.5417 0.2000 0.9854
vt 0.5833 0.2000 0.9854
vt 0.6250 0.2000 0.9854
vt 0.6667 0.2000 0.9854
vt 0.7083 0.2000 0.9854
vt 0.7917 0.4000 0.9708
vt 0.7500 0.4000 0.9708
vt 0.8333 0.4000 0.9708
vt 0.8750 0.4000 0.9708
vt 0.9167 0.4000 0.9708
vt 0.9583 0.4000 0.9708
vt 1.0000 0.4000 0.9708
vt 0.0417 0.4000 0.9708
vt 0.0000 0.4000 0.9708
vt 0.0833 0.4000 0.9708
vt 0.1250 0.4000 0.9708
vt 0.1667 0.4000 0.9708
vt 0.2083 0.4000 0.9708
vt 0.2500 0.4000 0.9708
vt 0.2917 0.4000 0.9708
vt 0.3333 0.4000 0.9708
vt 0.3750 0.4000 0.9708
vt 0.4167 0.4000 0.9708
vt 0.4583 0.4000 0.9708
vt 0.5000 0.4000 0.9708
vt 0.5417 0.4000 0.9708
vt 0.5833 0.4000 0.9708
vt 0.6250 0.4000 0.9708
vt 0.6667 0.4000 0.9708
vt 0.7083 0.4000 0.9708
vt 0.7917 0.6000 0.9562
vt 0.7500 0.6000 0.9562
vt 0.8333 0.6000 0.9562
vt 0.8750 0.6000 0.9562
vt 0.9167 0.6000 0.9562
vt 0.9583 0.6000 0.9562
vt 1.0000 0.6000 0.9562
vt 0.0417 0.6000 0.9562
vt 0.0000 0.6000 0.9562
vt 0.0833 0.6000 0.9562
vt 0.1250 0.6000 0.9562
vt 0.1667 0.6000 0.9562
vt 0.2083 0.6000 0.9562
vt 0.2500 0.6000 0.9562
vt 0.2917 0.6000 0.9562
vt 0.3333 0.6000 0.9562
vt 0.3750 0.6000 0.9562
vt 0.4167 0.6000 0.9562
vt 0.4583 0.6000 0.9562
vt 0.5000 0.6000 0.9562
vt 0.5417 0.6000 0.9562
vt 0.5833 0.6000 0.9562
vt 0.6250 0.6000 0.9562
vt 0.6667 0.6000 0.9562
vt 0.7083 0.6000 0.9562
vt 0.7917 0.8000 0.9416
vt 0.7500 0.8000 0.9416
vt 0.8333 0.8000 0.9416
vt 0.8750 0.8000 0.9416
vt 0.9167 0.8000 0.9416
vt 0.9583 0.8000 0.9416
vt 1.0000 0.8000 0.9416
vt 0.0417 0.8000 0.9416
vt 0.0000 0.8000 0.9416
vt 0.0833 0.8000 0.9416
vt 0.1250 0.8000 0.9416
vt 0.1667 0.8000 0.9416
vt 0.2083 0.8000 0.9416
vt 0.2500 0.8000 0.9416
vt 0.2917 0.8000 0.9416
vt 0.3333 0.8000 0.9416
vt 0.3750 0.8000 0.9416
vt 0.4167 0.8000 0.9416
vt 0.4583 0.8000 0.9416
vt 0.5000 0.8000 0.9416
vt 0.5417 0.8000 0.9416
vt 0.5833 0.8000 0.9416
vt 0.6250 0.8000 0.9416
vt 0.6667 0.8000 0.9416
vt 0.7083 0.8000 0.9416
vt 0.7917 1.0000 0.9270
vt 0.7500 1.0000 0.9270
vt 0.8333 1.0000 0.9270
vt 0.8750 1.0000 0.9270
vt 0.9167 1.0000 0.9270
vt 0.9583 1.0000 0.9270
vt 1.0000 1.0000 0.9270
vt 0.0417 1.0000 0.9270
vt 0.0000 1.0000 0.9270
vt 0.0833 1.0000 0.9270
vt 0.1250 1.0000 0.9270
vt 0.1667 1.0000 0.9270
vt 0.2083 1.0000 0.9270
vt 0.2500 1.0000 0.9270
vt 0.2917 1.0000 0.9270
vt 0.3333 1.0000 0.9270
vt 0.3750 1.0000 0.9270
vt 0.4167 1.0000 0.9270
vt 0.4583 1.0000 0.9270
vt 0.5000 1.0000 0.9270
vt 0.5417 1.0000 0.9270
vt 0.5833 1.0000 0.9270
vt 0.6250 1.0000 0.9270
vt 0.6667 1.0000 0.9270
vt 0.7083 1.0000 0.9270
vt 0.5000 1.0000 0.0000
vt -0.0076 1.0000 0.8639
# 153 texture coords

o Cone001
g Cone001
usemtl wire_006135006
s 1
f 1/1/1 2/2/2 3/3/3 4/4/4 
f 1/1/1 5/5/5 6/6/6 2/2/2 
f 1/1/1 7/7/7 8/8/8 5/5/5 
f 1/1/1 9/9/9 10/10/10 7/11/7 
f 1/1/1 11/12/11 12/13/12 9/9/9 
f 1/1/1 13/14/13 14/15/14 11/12/11 
f 1/1/1 15/16/15 16/17/16 13/14/13 
f 1/1/1 17/18/17 18/19/18 15/16/15 
f 1/1/1 19/20/19 20/21/20 17/18/17 
f 1/1/1 21/22/21 22/23/22 19/20/19 
f 1/1/1 23/24/23 24/25/24 21/22/21 
f 1/1/1 4/4/4 25/26/25 23/24/23 
s 8
f 4/4/4 3/3/3 26/27/26 27/28/27 
f 3/3/3 2/2/2 28/29/28 26/27/26 
f 2/2/2 6/6/6 29/30/29 28/29/28 
f 6/6/6 5/5/5 30/31/30 29/30/29 
f 5/5/5 8/8/8 31/32/31 30/31/30 
f 8/8/8 7/7/7 32/33/32 31/32/31 
f 7/11/7 10/10/10 33/34/33 32/35/32 
f 10/10/10 9/9/9 34/36/34 33/34/33 
f 9/9/9 12/13/12 35/37/35 34/36/34 
f 12/13/12 11/12/11 36/38/36 35/37/35 
f 11/12/11 14/15/14 37/39/37 36/38/36 
f 14/15/14 13/14/13 38/40/38 37/39/37 
f 13/14/13 16/17/16 39/41/39 38/40/38 
f 16/17/16 15/16/15 40/42/40 39/41/39 
f 15/16/15 18/19/18 41/43/41 40/42/40 
f 18/19/18 17/18/17 42/44/42 41/43/41 
f 17/18/17 20/21/20 43/45/43 42/44/42 
f 20/21/20 19/20/19 44/46/44 43/45/43 
f 19/20/19 22/23/22 45/47/45 44/46/44 
f 22/23/22 21/22/21 46/48/46 45/47/45 
f 21/22/21 24/25/24 47/49/47 46/48/46 
f 24/25/24 23/24/23 48/50/48 47/49/47 
f 23/24/23 25/26/25 49/51/49 48/50/48 
f 25/26/25 4/4/4 27/28/27 49/51/49 
f 27/28/27 26/27/26 50/52/26 51/53/27 
f 26/27/26 28/29/28 52/54/50 50/52/26 
f 28/29/28 29/30/29 53/55/29 52/54/50 
f 29/30/29 30/31/30 54/56/30 53/55/29 
f 30/31/30 31/32/31 55/57/31 54/56/30 
f 31/32/31 32/33/32 56/58/32 55/57/31 
f 32/35/32 33/34/33 57/59/33 56/60/32 
f 33/34/33 34/36/34 58/61/34 57/59/33 
f 34/36/34 35/37/35 59/62/35 58/61/34 
f 35/37/35 36/38/36 60/63/36 59/62/35 
f 36/38/36 37/39/37 61/64/37 60/63/36 
f 37/39/37 38/40/38 62/65/38 61/64/37 
f 38/40/38 39/41/39 63/66/39 62/65/38 
f 39/41/39 40/42/40 64/67/40 63/66/39 
f 40/42/40 41/43/41 65/68/41 64/67/40 
f 41/43/41 42/44/42 66/69/42 65/68/41 
f 42/44/42 43/45/43 67/70/43 66/69/42 
f 43/45/43 44/46/44 68/71/44 67/70/43 
f 44/46/44 45/47/45 69/72/45 68/71/44 
f 45/47/45 46/48/46 70/73/46 69/72/45 
f 46/48/46 47/49/47 71/74/47 70/73/46 
f 47/49/47 48/50/48 72/75/48 71/74/47 
f 48/50/48 49/51/49 73/76/49 72/75/48 
f 49/51/49 27/28/27 51/53/27 73/76/49 
f 51/53/27 50/52/26 74/77/26 75/78/27 
f 50/52/26 52/54/50 76/79/28 74/77/26 
f 52/54/50 53/55/29 77/80/29 76/79/28 
f 53/55/29 54/56/30 78/81/30 77/80/29 
f 54/56/30 55/57/31 79/82/31 78/81/30 
f 55/57/31 56/58/32 80/83/32 79/82/31 
f 56/60/32 57/59/33 81/84/33 80/85/32 
f 57/59/33 58/61/34 82/86/34 81/84/33 
f 58/61/34 59/62/35 83/87/35 82/86/34 
f 59/62/35 60/63/36 84/88/36 83/87/35 
f 60/63/36 61/64/37 85/89/37 84/88/36 
f 61/64/37 62/65/38 86/90/38 85/89/37 
f 62/65/38 63/66/39 87/91/39 86/90/38 
f 63/66/39 64/67/40 88/92/40 87/91/39 
f 64/67/40 65/68/41 89/93/41 88/92/40 
f 65/68/41 66/69/42 90/94/42 89/93/41 
f 66/69/42 67/70/43 91/95/43 90/94/42 
f 67/70/43 68/71/44 92/96/44 91/95/43 
f 68/71/44 69/72/45 93/97/45 92/96/44 
f 69/72/45 70/73/46 94/98/46 93/97/45 
f 70/73/46 71/74/47 95/99/47 94/98/46 
f 71/74/47 72/75/48 96/100/48 95/99/47 
f 72/75/48 73/76/49 97/101/49 96/100/48 
f 73/76/49 51/53/27 75/78/27 97/101/49 
f 75/78/27 74/77/26 98/102/26 99/103/27 
f 74/77/26 76/79/28 100/104/28 98/102/26 
f 76/79/28 77/80/29 101/105/29 100/104/28 
f 77/80/29 78/81/30 102/106/51 101/105/29 
f 78/81/30 79/82/31 103/107/31 102/106/51 
f 79/82/31 80/83/32 104/108/32 103/107/31 
f 80/85/32 81/84/33 105/109/33 104/110/32 
f 81/84/33 82/86/34 106/111/34 105/109/33 
f 82/86/34 83/87/35 107/112/35 106/111/34 
f 83/87/35 84/88/36 108/113/36 107/112/35 
f 84/88/36 85/89/37 109/114/37 108/113/36 
f 85/89/37 86/90/38 110/115/38 109/114/37 
f 86/90/38 87/91/39 111/116/39 110/115/38 
f 87/91/39 88/92/40 112/117/40 111/116/39 
f 88/92/40 89/93/41 113/118/41 112/117/40 
f 89/93/41 90/94/42 114/119/42 113/118/41 
f 90/94/42 91/95/43 115/120/43 114/119/42 
f 91/95/43 92/96/44 116/121/44 115/120/43 
f 92/96/44 93/97/45 117/122/45 116/121/44 
f 93/97/45 94/98/46 118/123/46 117/122/45 
f 94/98/46 95/99/47 119/124/47 118/123/46 
f 95/99/47 96/100/48 120/125/48 119/124/47 
f 96/100/48 97/101/49 121/126/49 120/125/48 
f 97/101/49 75/78/27 99/103/27 121/126/49 
f 99/103/27 98/102/26 122/127/52 123/128/53 
f 98/102/26 100/104/28 124/129/54 122/127/52 
f 100/104/28 101/105/29 125/130/55 124/129/54 
f 101/105/29 102/106/51 126/131/56 125/130/55 
f 102/106/51 103/107/31 127/132/57 126/131/56 
f 103/107/31 104/108/32 128/133/58 127/132/57 
f 104/110/32 105/109/33 129/134/59 128/135/58 
f 105/109/33 106/111/34 130/136/60 129/134/59 
f 106/111/34 107/112/35 131/137/61 130/136/60 
f 107/112/35 108/113/36 132/138/62 131/137/61 
f 108/113/36 109/114/37 133/139/63 132/138/62 
f 109/114/37 110/115/38 134/140/64 133/139/63 
f 110/115/38 111/116/39 135/141/65 134/140/64 
f 111/116/39 112/117/40 136/142/66 135/141/65 
f 112/117/40 113/118/41 137/143/67 136/142/66 
f 113/118/41 114/119/42 138/144/68 137/143/67 
f 114/119/42 115/120/43 139/145/69 138/144/68 
f 115/120/43 116/121/44 140/146/70 139/145/69 
f 116/121/44 117/122/45 141/147/71 140/146/70 
f 117/122/45 118/123/46 142/148/72 141/147/71 
f 118/123/46 119/124/47 143/149/73 142/148/72 
f 119/124/47 120/125/48 144/150/74 143/149/73 
f 120/125/48 121/126/49 145/151/75 144/150/74 
f 121/126/49 99/103/27 123/128/53 145/151/75 
s 1
f 146/152/76 145/151/75 123/128/53 122/127/52 
f 146/152/76 122/127/52 124/129/54 125/130/55 
f 146/152/76 125/130/55 126/131/56 127/132/57 
f 146/152/76 127/153/57 128/135/58 129/134/59 
f 146/152/76 129/134/59 130/136/60 131/137/61 
f 146/152/76 131/137/61 132/138/62 133/139/63 
f 146/152/76 133/139/63 134/140/64 135/141/65 
f 146/152/76 135/141/65 136/142/66 137/143/67 
f 146/152/76 137/143/67 138/144/68 139/145/69 
f 146/152/76 139/145/69 140/146/70 141/147/71 
f 146/152/76 141/147/71 142/148/72 143/149/73 
f 146/152/76 143/149/73 144/150/74 145/151/75 
# 144 polygons

#
# object Cone002
#

v  0.0000 10.0000 -0.0000
v  19.3076 10.0000 -11.1472
v  21.5348 10.0000 -5.7702
v  22.2944 10.0000 -0.0000
v  11.1472 10.0000 -19.3076
v  15.7646 10.0000 -15.7646
v  0.0000 10.0000 -22.2944
v  5.7702 10.0000 -21.5348
v  -11.1472 10.0000 -19.3076
v  -5.7702 10.0000 -21.5348
v  -19.3076 10.0000 -11.1472
v  -15.7645 10.0000 -15.7646
v  -22.2944 10.0000 -0.0000
v  -21.5348 10.0000 -5.7702
v  -19.3076 10.0000 11.1472
v  -21.5348 10.0000 5.7702
v  -11.1472 10.0000 19.3076
v  -15.7646 10.0000 15.7645
v  -0.0000 10.0000 22.2944
v  -5.7702 10.0000 21.5348
v  11.1472 10.0000 19.3076
v  5.7702 10.0000 21.5348
v  19.3075 10.0000 11.1472
v  15.7645 10.0000 15.7646
v  21.5348 10.0000 5.7702
v  18.6820 28.9235 -5.0058
v  19.3411 28.9235 -0.0000
v  16.7499 28.9235 -9.6705
v  13.6762 28.9235 -13.6762
v  9.6705 28.9235 -16.7499
v  5.0058 28.9235 -18.6820
v  0.0000 28.9235 -19.3411
v  -5.0058 28.9235 -18.6820
v  -9.6705 28.9235 -16.7499
v  -13.6762 28.9235 -13.6762
v  -16.7498 28.9235 -9.6705
v  -18.6820 28.9235 -5.0058
v  -19.3411 28.9235 -0.0000
v  -18.6820 28.9235 5.0058
v  -16.7499 28.9235 9.6705
v  -13.6762 28.9235 13.6762
v  -9.6705 28.9235 16.7498
v  -5.0058 28.9235 18.6820
v  -0.0000 28.9235 19.3411
v  5.0058 28.9235 18.6820
v  9.6705 28.9235 16.7499
v  13.6762 28.9235 13.6762
v  16.7498 28.9235 9.6705
v  18.6820 28.9235 5.0058
v  15.8293 47.8470 -4.2414
v  16.3877 47.8470 -0.0000
v  14.1921 47.8470 -8.1938
v  11.5878 47.8470 -11.5878
v  8.1938 47.8470 -14.1921
v  4.2414 47.8470 -15.8293
v  0.0000 47.8470 -16.3877
v  -4.2414 47.8470 -15.8293
v  -8.1938 47.8470 -14.1922
v  -11.5878 47.8470 -11.5878
v  -14.1921 47.8470 -8.1938
v  -15.8293 47.8470 -4.2414
v  -16.3877 47.8470 -0.0000
v  -15.8293 47.8470 4.2414
v  -14.1922 47.8470 8.1938
v  -11.5878 47.8470 11.5878
v  -8.1938 47.8470 14.1921
v  -4.2415 47.8470 15.8293
v  -0.0000 47.8470 16.3877
v  4.2414 47.8470 15.8293
v  8.1938 47.8470 14.1922
v  11.5878 47.8470 11.5878
v  14.1921 47.8470 8.1939
v  15.8293 47.8470 4.2415
v  12.9765 66.7706 -3.4771
v  13.4343 66.7706 -0.0000
v  11.6344 66.7706 -6.7171
v  9.4995 66.7706 -9.4995
v  6.7171 66.7706 -11.6344
v  3.4771 66.7706 -12.9765
v  0.0000 66.7706 -13.4343
v  -3.4771 66.7706 -12.9765
v  -6.7171 66.7706 -11.6344
v  -9.4995 66.7706 -9.4995
v  -11.6344 66.7706 -6.7172
v  -12.9765 66.7706 -3.4771
v  -13.4343 66.7706 -0.0000
v  -12.9765 66.7706 3.4770
v  -11.6344 66.7706 6.7171
v  -9.4995 66.7706 9.4995
v  -6.7172 66.7706 11.6344
v  -3.4771 66.7706 12.9765
v  -0.0000 66.7706 13.4343
v  3.4770 66.7706 12.9765
v  6.7171 66.7706 11.6344
v  9.4995 66.7706 9.4995
v  11.6344 66.7706 6.7172
v  12.9765 66.7706 3.4771
v  10.1238 85.6941 -2.7127
v  10.4809 85.6941 -0.0000
v  9.0767 85.6941 -5.2405
v  7.4111 85.6941 -7.4111
v  5.2405 85.6941 -9.0767
v  2.7127 85.6941 -10.1238
v  0.0000 85.6941 -10.4809
v  -2.7127 85.6941 -10.1238
v  -5.2405 85.6941 -9.0767
v  -7.4111 85.6941 -7.4111
v  -9.0767 85.6941 -5.2405
v  -10.1238 85.6941 -2.7127
v  -10.4809 85.6941 -0.0000
v  -10.1238 85.6941 2.7127
v  -9.0767 85.6941 5.2405
v  -7.4111 85.6941 7.4111
v  -5.2405 85.6941 9.0767
v  -2.7127 85.6941 10.1238
v  -0.0000 85.6941 10.4809
v  2.7127 85.6941 10.1238
v  5.2405 85.6941 9.0767
v  7.4111 85.6941 7.4111
v  9.0767 85.6941 5.2405
v  10.1238 85.6941 2.7127
v  7.2710 104.6176 -1.9483
v  7.5275 104.6176 -0.0000
v  6.5190 104.6176 -3.7638
v  5.3228 104.6176 -5.3228
v  3.7638 104.6176 -6.5190
v  1.9483 104.6176 -7.2710
v  0.0000 104.6176 -7.5275
v  -1.9483 104.6176 -7.2710
v  -3.7638 104.6176 -6.5190
v  -5.3228 104.6176 -5.3228
v  -6.5190 104.6176 -3.7638
v  -7.2710 104.6176 -1.9483
v  -7.5275 104.6176 -0.0000
v  -7.2710 104.6176 1.9483
v  -6.5190 104.6176 3.7638
v  -5.3228 104.6176 5.3228
v  -3.7638 104.6176 6.5190
v  -1.9483 104.6176 7.2710
v  -0.0000 104.6176 7.5275
v  1.9483 104.6176 7.2710
v  3.7638 104.6176 6.5190
v  5.3228 104.6176 5.3228
v  6.5190 104.6176 3.7638
v  7.2710 104.6176 1.9483
v  0.0000 104.6176 -0.0000
# 146 vertices

vn 0.0000 -1.0000 -0.0000
vn 0.6790 -0.6207 -0.3920
vn 0.7573 -0.6207 -0.2029
vn 0.7841 -0.6207 0.0000
vn 0.3920 -0.6207 -0.6790
vn 0.5544 -0.6207 -0.5544
vn 0.0000 -0.6207 -0.7841
vn 0.2029 -0.6207 -0.7573
vn -0.3920 -0.6207 -0.6790
vn -0.2029 -0.6207 -0.7573
vn -0.6790 -0.6207 -0.3920
vn -0.5544 -0.6207 -0.5544
vn -0.7841 -0.6207 -0.0000
vn -0.7573 -0.6207 -0.2029
vn -0.6790 -0.6207 0.3920
vn -0.7573 -0.6207 0.2029
vn -0.3920 -0.6207 0.6790
vn -0.5544 -0.6207 0.5544
vn -0.0000 -0.6207 0.7841
vn -0.2029 -0.6207 0.7573
vn 0.3920 -0.6207 0.6790
vn 0.2029 -0.6207 0.7573
vn 0.6790 -0.6207 0.3920
vn 0.5544 -0.6207 0.5544
vn 0.7573 -0.6207 0.2029
vn 0.9544 0.1542 -0.2557
vn 0.9880 0.1542 0.0000
vn 0.8557 0.1542 -0.4940
vn 0.6986 0.1542 -0.6986
vn 0.4940 0.1542 -0.8557
vn 0.2557 0.1542 -0.9544
vn 0.0000 0.1542 -0.9880
vn -0.2557 0.1542 -0.9544
vn -0.4940 0.1542 -0.8557
vn -0.6986 0.1542 -0.6986
vn -0.8557 0.1542 -0.4940
vn -0.9544 0.1542 -0.2557
vn -0.9880 0.1542 -0.0000
vn -0.9544 0.1542 0.2557
vn -0.8557 0.1542 0.4940
vn -0.6986 0.1542 0.6986
vn -0.4940 0.1542 0.8557
vn -0.2557 0.1542 0.9544
vn -0.0000 0.1542 0.9880
vn 0.2557 0.1542 0.9544
vn 0.4940 0.1542 0.8557
vn 0.6986 0.1542 0.6986
vn 0.8557 0.1542 0.4940
vn 0.9544 0.1542 0.2557
vn 0.6563 0.7337 -0.1759
vn 0.6795 0.7337 0.0000
vn 0.5884 0.7337 -0.3397
vn 0.4805 0.7337 -0.4805
vn 0.3397 0.7337 -0.5884
vn 0.1759 0.7337 -0.6563
vn 0.0000 0.7337 -0.6795
vn -0.1759 0.7337 -0.6563
vn -0.3397 0.7337 -0.5884
vn -0.4805 0.7337 -0.4805
vn -0.5884 0.7337 -0.3397
vn -0.6563 0.7337 -0.1759
vn -0.6795 0.7337 -0.0000
vn -0.6563 0.7337 0.1759
vn -0.5884 0.7337 0.3397
vn -0.4805 0.7337 0.4805
vn -0.3397 0.7337 0.5884
vn -0.1759 0.7337 0.6563
vn -0.0000 0.7337 0.6795
vn 0.1759 0.7337 0.6563
vn 0.3397 0.7337 0.5884
vn 0.4805 0.7337 0.4805
vn 0.5884 0.7337 0.3397
vn 0.6563 0.7337 0.1759
vn 0.0000 1.0000 -0.0000
# 74 vertex normals

vt 0.5000 0.0000 0.0000
vt 0.8333 0.0000 1.0000
vt 0.7917 0.0000 1.0000
vt 0.7500 0.0000 1.0000
vt 0.9167 0.0000 1.0000
vt 0.8750 0.0000 1.0000
vt 1.0000 0.0000 1.0000
vt 0.9583 0.0000 1.0000
vt 0.0833 0.0000 1.0000
vt 0.0417 0.0000 1.0000
vt 0.0000 0.0000 1.0000
vt 0.1667 0.0000 1.0000
vt 0.1250 0.0000 1.0000
vt 0.2500 0.0000 1.0000
vt 0.2083 0.0000 1.0000
vt 0.3333 0.0000 1.0000
vt 0.2917 0.0000 1.0000
vt 0.4167 0.0000 1.0000
vt 0.3750 0.0000 1.0000
vt 0.5000 0.0000 1.0000
vt 0.4583 0.0000 1.0000
vt 0.5833 0.0000 1.0000
vt 0.5417 0.0000 1.0000
vt 0.6667 0.0000 1.0000
vt 0.6250 0.0000 1.0000
vt 0.7083 0.0000 1.0000
vt 0.7917 0.2000 0.8675
vt 0.7500 0.2000 0.8675
vt 0.8333 0.2000 0.8675
vt 0.8750 0.2000 0.8675
vt 0.9167 0.2000 0.8675
vt 0.9583 0.2000 0.8675
vt 1.0000 0.2000 0.8675
vt 0.0417 0.2000 0.8675
vt 0.0000 0.2000 0.8675
vt 0.0833 0.2000 0.8675
vt 0.1250 0.2000 0.8675
vt 0.1667 0.2000 0.8675
vt 0.2083 0.2000 0.8675
vt 0.2500 0.2000 0.8675
vt 0.2917 0.2000 0.8675
vt 0.3333 0.2000 0.8675
vt 0.3750 0.2000 0.8675
vt 0.4167 0.2000 0.8675
vt 0.4583 0.2000 0.8675
vt 0.5000 0.2000 0.8675
vt 0.5417 0.2000 0.8675
vt 0.5833 0.2000 0.8675
vt 0.6250 0.2000 0.8675
vt 0.6667 0.2000 0.8675
vt 0.7083 0.2000 0.8675
vt 0.7917 0.4000 0.7351
vt 0.7500 0.4000 0.7351
vt 0.8333 0.4000 0.7351
vt 0.8750 0.4000 0.7351
vt 0.9167 0.4000 0.7351
vt 0.9583 0.4000 0.7351
vt 1.0000 0.4000 0.7351
vt 0.0417 0.4000 0.7351
vt 0.0000 0.4000 0.7351
vt 0.0833 0.4000 0.7351
vt 0.1250 0.4000 0.7351
vt 0.1667 0.4000 0.7351
vt 0.2083 0.4000 0.7351
vt 0.2500 0.4000 0.7351
vt 0.2917 0.4000 0.7351
vt 0.3333 0.4000 0.7351
vt 0.3750 0.4000 0.7351
vt 0.4167 0.4000 0.7351
vt 0.4583 0.4000 0.7351
vt 0.5000 0.4000 0.7351
vt 0.5417 0.4000 0.7351
vt 0.5833 0.4000 0.7351
vt 0.6250 0.4000 0.7351
vt 0.6667 0.4000 0.7351
vt 0.7083 0.4000 0.7351
vt 0.7917 0.6000 0.6026
vt 0.7500 0.6000 0.6026
vt 0.8333 0.6000 0.6026
vt 0.8750 0.6000 0.6026
vt 0.9167 0.6000 0.6026
vt 0.9583 0.6000 0.6026
vt 1.0000 0.6000 0.6026
vt 0.0417 0.6000 0.6026
vt 0.0000 0.6000 0.6026
vt 0.0833 0.6000 0.6026
vt 0.1250 0.6000 0.6026
vt 0.1667 0.6000 0.6026
vt 0.2083 0.6000 0.6026
vt 0.2500 0.6000 0.6026
vt 0.2917 0.6000 0.6026
vt 0.3333 0.6000 0.6026
vt 0.3750 0.6000 0.6026
vt 0.4167 0.6000 0.6026
vt 0.4583 0.6000 0.6026
vt 0.5000 0.6000 0.6026
vt 0.5417 0.6000 0.6026
vt 0.5833 0.6000 0.6026
vt 0.6250 0.6000 0.6026
vt 0.6667 0.6000 0.6026
vt 0.7083 0.6000 0.6026
vt 0.7917 0.8000 0.4701
vt 0.7500 0.8000 0.4701
vt 0.8333 0.8000 0.4701
vt 0.8750 0.8000 0.4701
vt 0.9167 0.8000 0.4701
vt 0.9583 0.8000 0.4701
vt 1.0000 0.8000 0.4701
vt 0.0417 0.8000 0.4701
vt 0.0000 0.8000 0.4701
vt 0.0833 0.8000 0.4701
vt 0.1250 0.8000 0.4701
vt 0.1667 0.8000 0.4701
vt 0.2083 0.8000 0.4701
vt 0.2500 0.8000 0.4701
vt 0.2917 0.8000 0.4701
vt 0.3333 0.8000 0.4701
vt 0.3750 0.8000 0.4701
vt 0.4167 0.8000 0.4701
vt 0.4583 0.8000 0.4701
vt 0.5000 0.8000 0.4701
vt 0.5417 0.8000 0.4701
vt 0.5833 0.8000 0.4701
vt 0.6250 0.8000 0.4701
vt 0.6667 0.8000 0.4701
vt 0.7083 0.8000 0.4701
vt 0.7917 1.0000 0.3376
vt 0.7500 1.0000 0.3376
vt 0.8333 1.0000 0.3376
vt 0.8750 1.0000 0.3376
vt 0.9167 1.0000 0.3376
vt 0.9583 1.0000 0.3376
vt 1.0000 1.0000 0.3376
vt 0.0417 1.0000 0.3376
vt 0.0000 1.0000 0.3376
vt 0.0833 1.0000 0.3376
vt 0.1250 1.0000 0.3376
vt 0.1667 1.0000 0.3376
vt 0.2083 1.0000 0.3376
vt 0.2500 1.0000 0.3376
vt 0.2917 1.0000 0.3376
vt 0.3333 1.0000 0.3376
vt 0.3750 1.0000 0.3376
vt 0.4167 1.0000 0.3376
vt 0.4583 1.0000 0.3376
vt 0.5000 1.0000 0.3376
vt 0.5417 1.0000 0.3376
vt 0.5833 1.0000 0.3376
vt 0.6250 1.0000 0.3376
vt 0.6667 1.0000 0.3376
vt 0.7083 1.0000 0.3376
vt 0.5000 1.0000 0.0000
vt 1.0076 1.0000 0.3146
# 153 texture coords

o Cone002
g Cone002
usemtl wire_006135006
s 1
f 147/154/77 148/155/78 149/156/79 150/157/80 
f 147/154/77 151/158/81 152/159/82 148/155/78 
f 147/154/77 153/160/83 154/161/84 151/158/81 
f 147/154/77 155/162/85 156/163/86 153/164/83 
f 147/154/77 157/165/87 158/166/88 155/162/85 
f 147/154/77 159/167/89 160/168/90 157/165/87 
f 147/154/77 161/169/91 162/170/92 159/167/89 
f 147/154/77 163/171/93 164/172/94 161/169/91 
f 147/154/77 165/173/95 166/174/96 163/171/93 
f 147/154/77 167/175/97 168/176/98 165/173/95 
f 147/154/77 169/177/99 170/178/100 167/175/97 
f 147/154/77 150/157/80 171/179/101 169/177/99 
s 8
f 150/157/80 149/156/79 172/180/102 173/181/103 
f 149/156/79 148/155/78 174/182/104 172/180/102 
f 148/155/78 152/159/82 175/183/105 174/182/104 
f 152/159/82 151/158/81 176/184/106 175/183/105 
f 151/158/81 154/161/84 177/185/107 176/184/106 
f 154/161/84 153/160/83 178/186/108 177/185/107 
f 153/164/83 156/163/86 179/187/109 178/188/108 
f 156/163/86 155/162/85 180/189/110 179/187/109 
f 155/162/85 158/166/88 181/190/111 180/189/110 
f 158/166/88 157/165/87 182/191/112 181/190/111 
f 157/165/87 160/168/90 183/192/113 182/191/112 
f 160/168/90 159/167/89 184/193/114 183/192/113 
f 159/167/89 162/170/92 185/194/115 184/193/114 
f 162/170/92 161/169/91 186/195/116 185/194/115 
f 161/169/91 164/172/94 187/196/117 186/195/116 
f 164/172/94 163/171/93 188/197/118 187/196/117 
f 163/171/93 166/174/96 189/198/119 188/197/118 
f 166/174/96 165/173/95 190/199/120 189/198/119 
f 165/173/95 168/176/98 191/200/121 190/199/120 
f 168/176/98 167/175/97 192/201/122 191/200/121 
f 167/175/97 170/178/100 193/202/123 192/201/122 
f 170/178/100 169/177/99 194/203/124 193/202/123 
f 169/177/99 171/179/101 195/204/125 194/203/124 
f 171/179/101 150/157/80 173/181/103 195/204/125 
f 173/181/103 172/180/102 196/205/102 197/206/103 
f 172/180/102 174/182/104 198/207/104 196/205/102 
f 174/182/104 175/183/105 199/208/105 198/207/104 
f 175/183/105 176/184/106 200/209/106 199/208/105 
f 176/184/106 177/185/107 201/210/107 200/209/106 
f 177/185/107 178/186/108 202/211/108 201/210/107 
f 178/188/108 179/187/109 203/212/109 202/213/108 
f 179/187/109 180/189/110 204/214/110 203/212/109 
f 180/189/110 181/190/111 205/215/111 204/214/110 
f 181/190/111 182/191/112 206/216/112 205/215/111 
f 182/191/112 183/192/113 207/217/113 206/216/112 
f 183/192/113 184/193/114 208/218/114 207/217/113 
f 184/193/114 185/194/115 209/219/115 208/218/114 
f 185/194/115 186/195/116 210/220/116 209/219/115 
f 186/195/116 187/196/117 211/221/117 210/220/116 
f 187/196/117 188/197/118 212/222/118 211/221/117 
f 188/197/118 189/198/119 213/223/119 212/222/118 
f 189/198/119 190/199/120 214/224/120 213/223/119 
f 190/199/120 191/200/121 215/225/121 214/224/120 
f 191/200/121 192/201/122 216/226/122 215/225/121 
f 192/201/122 193/202/123 217/227/123 216/226/122 
f 193/202/123 194/203/124 218/228/124 217/227/123 
f 194/203/124 195/204/125 219/229/125 218/228/124 
f 195/204/125 173/181/103 197/206/103 219/229/125 
f 197/206/103 196/205/102 220/230/102 221/231/103 
f 196/205/102 198/207/104 222/232/104 220/230/102 
f 198/207/104 199/208/105 223/233/105 222/232/104 
f 199/208/105 200/209/106 224/234/106 223/233/105 
f 200/209/106 201/210/107 225/235/107 224/234/106 
f 201/210/107 202/211/108 226/236/108 225/235/107 
f 202/213/108 203/212/109 227/237/109 226/238/108 
f 203/212/109 204/214/110 228/239/110 227/237/109 
f 204/214/110 205/215/111 229/240/111 228/239/110 
f 205/215/111 206/216/112 230/241/112 229/240/111 
f 206/216/112 207/217/113 231/242/113 230/241/112 
f 207/217/113 208/218/114 232/243/114 231/242/113 
f 208/218/114 209/219/115 233/244/115 232/243/114 
f 209/219/115 210/220/116 234/245/116 233/244/115 
f 210/220/116 211/221/117 235/246/117 234/245/116 
f 211/221/117 212/222/118 236/247/118 235/246/117 
f 212/222/118 213/223/119 237/248/119 236/247/118 
f 213/223/119 214/224/120 238/249/120 237/248/119 
f 214/224/120 215/225/121 239/250/121 238/249/120 
f 215/225/121 216/226/122 240/251/122 239/250/121 
f 216/226/122 217/227/123 241/252/123 240/251/122 
f 217/227/123 218/228/124 242/253/124 241/252/123 
f 218/228/124 219/229/125 243/254/125 242/253/124 
f 219/229/125 197/206/103 221/231/103 243/254/125 
f 221/231/103 220/230/102 244/255/102 245/256/103 
f 220/230/102 222/232/104 246/257/104 244/255/102 
f 222/232/104 223/233/105 247/258/105 246/257/104 
f 223/233/105 224/234/106 248/259/106 247/258/105 
f 224/234/106 225/235/107 249/260/107 248/259/106 
f 225/235/107 226/236/108 250/261/108 249/260/107 
f 226/238/108 227/237/109 251/262/109 250/263/108 
f 227/237/109 228/239/110 252/264/110 251/262/109 
f 228/239/110 229/240/111 253/265/111 252/264/110 
f 229/240/111 230/241/112 254/266/112 253/265/111 
f 230/241/112 231/242/113 255/267/113 254/266/112 
f 231/242/113 232/243/114 256/268/114 255/267/113 
f 232/243/114 233/244/115 257/269/115 256/268/114 
f 233/244/115 234/245/116 258/270/116 257/269/115 
f 234/245/116 235/246/117 259/271/117 258/270/116 
f 235/246/117 236/247/118 260/272/118 259/271/117 
f 236/247/118 237/248/119 261/273/119 260/272/118 
f 237/248/119 238/249/120 262/274/120 261/273/119 
f 238/249/120 239/250/121 263/275/121 262/274/120 
f 239/250/121 240/251/122 264/276/122 263/275/121 
f 240/251/122 241/252/123 265/277/123 264/276/122 
f 241/252/123 242/253/124 266/278/124 265/277/123 
f 242/253/124 243/254/125 267/279/125 266/278/124 
f 243/254/125 221/231/103 245/256/103 267/279/125 
f 245/256/103 244/255/102 268/280/126 269/281/127 
f 244/255/102 246/257/104 270/282/128 268/280/126 
f 246/257/104 247/258/105 271/283/129 270/282/128 
f 247/258/105 248/259/106 272/284/130 271/283/129 
f 248/259/106 249/260/107 273/285/131 272/284/130 
f 249/260/107 250/261/108 274/286/132 273/285/131 
f 250/263/108 251/262/109 275/287/133 274/288/132 
f 251/262/109 252/264/110 276/289/134 275/287/133 
f 252/264/110 253/265/111 277/290/135 276/289/134 
f 253/265/111 254/266/112 278/291/136 277/290/135 
f 254/266/112 255/267/113 279/292/137 278/291/136 
f 255/267/113 256/268/114 280/293/138 279/292/137 
f 256/268/114 257/269/115 281/294/139 280/293/138 
f 257/269/115 258/270/116 282/295/140 281/294/139 
f 258/270/116 259/271/117 283/296/141 282/295/140 
f 259/271/117 260/272/118 284/297/142 283/296/141 
f 260/272/118 261/273/119 285/298/143 284/297/142 
f 261/273/119 262/274/120 286/299/144 285/298/143 
f 262/274/120 263/275/121 287/300/145 286/299/144 
f 263/275/121 264/276/122 288/301/146 287/300/145 
f 264/276/122 265/277/123 289/302/147 288/301/146 
f 265/277/123 266/278/124 290/303/148 289/302/147 
f 266/278/124 267/279/125 291/304/149 290/303/148 
f 267/279/125 245/256/103 269/281/127 291/304/149 
s 1
f 292/305/150 291/304/149 269/281/127 268/280/126 
f 292/305/150 268/280/126 270/282/128 271/283/129 
f 292/305/150 271/283/129 272/284/130 273/285/131 
f 292/305/150 273/285/131 274/286/132 275/306/133 
f 292/305/150 275/287/133 276/289/134 277/290/135 
f 292/305/150 277/290/135 278/291/136 279/292/137 
f 292/305/150 279/292/137 280/293/138 281/294/139 
f 292/305/150 281/294/139 282/295/140 283/296/141 
f 292/305/150 283/296/141 284/297/142 285/298/143 
f 292/305/150 285/298/143 286/299/144 287/300/145 
f 292/305/150 287/300/145 288/301/146 289/302/147 
f 292/305/150 289/302/147 290/303/148 291/304/149 
# 144 polygons

#
# object Cylinder001
#

v  0.0000 95.0000 -0.0000
v  3.5654 95.0000 -2.9917
v  4.3736 95.0000 -1.5919
v  4.6543 95.0000 -0.0000
v  0.8082 95.0000 -4.5836
v  2.3271 95.0000 -4.0307
v  -2.3271 95.0000 -4.0307
v  -0.8082 95.0000 -4.5836
v  -4.3736 95.0000 -1.5919
v  -3.5654 95.0000 -2.9917
v  -4.3736 95.0000 1.5919
v  -4.6543 95.0000 -0.0000
v  -2.3272 95.0000 4.0307
v  -3.5654 95.0000 2.9917
v  0.8082 95.0000 4.5836
v  -0.8082 95.0000 4.5836
v  3.5654 95.0000 2.9917
v  2.3271 95.0000 4.0307
v  4.3736 95.0000 1.5919
v  4.3736 105.4192 -1.5919
v  4.6543 105.4192 -0.0000
v  3.5654 105.4192 -2.9917
v  2.3271 105.4192 -4.0307
v  0.8082 105.4192 -4.5836
v  -0.8082 105.4192 -4.5836
v  -2.3271 105.4192 -4.0307
v  -3.5654 105.4192 -2.9917
v  -4.3736 105.4192 -1.5919
v  -4.6543 105.4192 -0.0000
v  -4.3736 105.4192 1.5919
v  -3.5654 105.4192 2.9917
v  -2.3272 105.4192 4.0307
v  -0.8082 105.4192 4.5836
v  0.8082 105.4192 4.5836
v  2.3271 105.4192 4.0307
v  3.5654 105.4192 2.9917
v  4.3736 105.4192 1.5919
v  4.3736 115.8384 -1.5919
v  4.6543 115.8384 -0.0000
v  3.5654 115.8384 -2.9917
v  2.3271 115.8384 -4.0307
v  0.8082 115.8384 -4.5836
v  -0.8082 115.8384 -4.5836
v  -2.3271 115.8384 -4.0307
v  -3.5654 115.8384 -2.9917
v  -4.3736 115.8384 -1.5919
v  -4.6543 115.8384 -0.0000
v  -4.3736 115.8384 1.5919
v  -3.5654 115.8384 2.9917
v  -2.3272 115.8384 4.0307
v  -0.8082 115.8384 4.5836
v  0.8082 115.8384 4.5836
v  2.3271 115.8384 4.0307
v  3.5654 115.8384 2.9917
v  4.3736 115.8384 1.5919
v  4.3736 126.2576 -1.5919
v  4.6543 126.2576 -0.0000
v  3.5654 126.2576 -2.9917
v  2.3271 126.2576 -4.0307
v  0.8082 126.2576 -4.5836
v  -0.8082 126.2576 -4.5836
v  -2.3271 126.2576 -4.0307
v  -3.5654 126.2576 -2.9917
v  -4.3736 126.2576 -1.5919
v  -4.6543 126.2576 -0.0000
v  -4.3736 126.2576 1.5919
v  -3.5654 126.2576 2.9917
v  -2.3272 126.2576 4.0307
v  -0.8082 126.2576 4.5836
v  0.8082 126.2576 4.5836
v  2.3271 126.2576 4.0307
v  3.5654 126.2576 2.9917
v  4.3736 126.2576 1.5919
v  4.3736 136.6768 -1.5919
v  4.6543 136.6768 -0.0000
v  3.5654 136.6768 -2.9917
v  2.3271 136.6768 -4.0307
v  0.8082 136.6768 -4.5836
v  -0.8082 136.6768 -4.5836
v  -2.3271 136.6768 -4.0307
v  -3.5654 136.6768 -2.9917
v  -4.3736 136.6768 -1.5919
v  -4.6543 136.6768 -0.0000
v  -4.3736 136.6768 1.5919
v  -3.5654 136.6768 2.9917
v  -2.3272 136.6768 4.0307
v  -0.8082 136.6768 4.5836
v  0.8082 136.6768 4.5836
v  2.3271 136.6768 4.0307
v  3.5654 136.6768 2.9917
v  4.3736 136.6768 1.5919
v  4.3736 147.0960 -1.5919
v  4.6543 147.0960 -0.0000
v  3.5654 147.0960 -2.9917
v  2.3271 147.0960 -4.0307
v  0.8082 147.0960 -4.5836
v  -0.8082 147.0960 -4.5836
v  -2.3271 147.0960 -4.0307
v  -3.5654 147.0960 -2.9917
v  -4.3736 147.0960 -1.5919
v  -4.6543 147.0960 -0.0000
v  -4.3736 147.0960 1.5919
v  -3.5654 147.0960 2.9917
v  -2.3272 147.0960 4.0307
v  -0.8082 147.0960 4.5836
v  0.8082 147.0960 4.5836
v  2.3271 147.0960 4.0307
v  3.5654 147.0960 2.9917
v  4.3736 147.0960 1.5919
v  0.0000 147.0960 -0.0000
# 110 vertices

vn 0.0000 -1.0000 -0.0000
vn 0.5687 -0.6700 -0.4772
vn 0.6976 -0.6700 -0.2539
vn 0.7423 -0.6701 -0.0000
vn 0.1289 -0.6700 -0.7311
vn 0.3712 -0.6700 -0.6429
vn -0.3712 -0.6700 -0.6429
vn -0.1289 -0.6700 -0.7311
vn -0.6976 -0.6700 -0.2539
vn -0.5687 -0.6700 -0.4772
vn -0.6975 -0.6701 0.2539
vn -0.7423 -0.6700 -0.0000
vn -0.3711 -0.6701 0.6429
vn -0.5686 -0.6701 0.4771
vn 0.1289 -0.6700 0.7311
vn -0.1289 -0.6700 0.7311
vn 0.5687 -0.6700 0.4772
vn 0.3712 -0.6700 0.6429
vn 0.6975 -0.6701 0.2539
vn 0.9397 -0.0000 -0.3420
vn 1.0000 -0.0000 0.0000
vn 0.7660 -0.0000 -0.6428
vn 0.5000 -0.0000 -0.8660
vn 0.1736 -0.0000 -0.9848
vn -0.1736 -0.0000 -0.9848
vn -0.5000 -0.0000 -0.8660
vn -0.7660 -0.0000 -0.6428
vn -0.9397 -0.0000 -0.3420
vn -1.0000 -0.0000 -0.0000
vn -0.9397 -0.0000 0.3420
vn -0.7660 -0.0000 0.6428
vn -0.5000 -0.0000 0.8660
vn -0.1736 -0.0000 0.9848
vn 0.1736 -0.0000 0.9848
vn 0.5000 -0.0000 0.8660
vn 0.7660 -0.0000 0.6428
vn 0.9397 -0.0000 0.3420
vn 0.9397 0.0000 -0.3420
vn 1.0000 0.0000 -0.0000
vn 0.7660 0.0000 -0.6428
vn 0.5000 0.0000 -0.8660
vn 0.1736 0.0000 -0.9848
vn -0.1736 0.0000 -0.9848
vn -0.7661 0.0000 -0.6428
vn -0.9397 0.0000 -0.3420
vn -1.0000 0.0000 -0.0000
vn -0.7661 -0.0000 0.6428
vn -0.5000 0.0000 0.8660
vn 0.1736 0.0000 0.9848
vn 0.5000 0.0000 0.8660
vn 0.7660 0.0000 0.6428
vn 1.0000 0.0000 0.0000
vn -0.5000 0.0000 -0.8660
vn -0.7660 0.0000 -0.6428
vn -0.9397 0.0000 0.3420
vn -0.7660 0.0000 0.6428
vn -0.1736 0.0000 0.9848
vn 0.9397 0.0000 0.3420
vn 0.6976 0.6700 -0.2539
vn 0.7423 0.6701 -0.0000
vn 0.5687 0.6700 -0.4772
vn 0.3712 0.6700 -0.6429
vn 0.1289 0.6700 -0.7311
vn -0.1289 0.6700 -0.7311
vn -0.3712 0.6700 -0.6429
vn -0.5687 0.6700 -0.4772
vn -0.6976 0.6700 -0.2539
vn -0.7423 0.6700 -0.0000
vn -0.6975 0.6701 0.2539
vn -0.5686 0.6701 0.4771
vn -0.3711 0.6701 0.6429
vn -0.1289 0.6700 0.7311
vn 0.1289 0.6700 0.7311
vn 0.3712 0.6700 0.6429
vn 0.5687 0.6700 0.4772
vn 0.6975 0.6701 0.2539
vn 0.0000 1.0000 -0.0000
# 77 vertex normals

vt 0.5000 0.0000 0.0000
vt 0.8611 0.0000 1.0000
vt 0.8056 0.0000 1.0000
vt 0.7500 0.0000 1.0000
vt 0.9722 0.0000 1.0000
vt 0.9167 0.0000 1.0000
vt 0.0833 0.0000 1.0000
vt 0.0278 0.0000 1.0000
vt -0.0278 0.0000 1.0000
vt 0.1944 0.0000 1.0000
vt 0.1389 0.0000 1.0000
vt 0.3056 0.0000 1.0000
vt 0.2500 0.0000 1.0000
vt 0.4167 0.0000 1.0000
vt 0.3611 0.0000 1.0000
vt 0.5278 0.0000 1.0000
vt 0.4722 0.0000 1.0000
vt 0.6389 0.0000 1.0000
vt 0.5833 0.0000 1.0000
vt 0.6944 0.0000 1.0000
vt 0.8056 0.2000 1.0000
vt 0.7500 0.2000 1.0000
vt 0.8611 0.2000 1.0000
vt 0.9167 0.2000 1.0000
vt 0.9722 0.2000 1.0000
vt 0.0278 0.2000 1.0000
vt -0.0278 0.2000 1.0000
vt 0.0833 0.2000 1.0000
vt 0.1389 0.2000 1.0000
vt 0.1944 0.2000 1.0000
vt 0.2500 0.2000 1.0000
vt 0.3056 0.2000 1.0000
vt 0.3611 0.2000 1.0000
vt 0.4167 0.2000 1.0000
vt 0.4722 0.2000 1.0000
vt 0.5278 0.2000 1.0000
vt 0.5833 0.2000 1.0000
vt 0.6389 0.2000 1.0000
vt 0.6944 0.2000 1.0000
vt 0.8056 0.4000 1.0000
vt 0.7500 0.4000 1.0000
vt 0.8611 0.4000 1.0000
vt 0.9167 0.4000 1.0000
vt 0.9722 0.4000 1.0000
vt 0.0278 0.4000 1.0000
vt -0.0278 0.4000 1.0000
vt 0.0833 0.4000 1.0000
vt 0.1389 0.4000 1.0000
vt 0.1944 0.4000 1.0000
vt 0.2500 0.4000 1.0000
vt 0.3056 0.4000 1.0000
vt 0.3611 0.4000 1.0000
vt 0.4167 0.4000 1.0000
vt 0.4722 0.4000 1.0000
vt 0.5278 0.4000 1.0000
vt 0.5833 0.4000 1.0000
vt 0.6389 0.4000 1.0000
vt 0.6944 0.4000 1.0000
vt 0.8056 0.6000 1.0000
vt 0.7500 0.6000 1.0000
vt 0.8611 0.6000 1.0000
vt 0.9167 0.6000 1.0000
vt 0.9722 0.6000 1.0000
vt 0.0278 0.6000 1.0000
vt -0.0278 0.6000 1.0000
vt 0.0833 0.6000 1.0000
vt 0.1389 0.6000 1.0000
vt 0.1944 0.6000 1.0000
vt 0.2500 0.6000 1.0000
vt 0.3056 0.6000 1.0000
vt 0.3611 0.6000 1.0000
vt 0.4167 0.6000 1.0000
vt 0.4722 0.6000 1.0000
vt 0.5278 0.6000 1.0000
vt 0.5833 0.6000 1.0000
vt 0.6389 0.6000 1.0000
vt 0.6944 0.6000 1.0000
vt 0.8056 0.8000 1.0000
vt 0.7500 0.8000 1.0000
vt 0.8611 0.8000 1.0000
vt 0.9167 0.8000 1.0000
vt 0.9722 0.8000 1.0000
vt 0.0278 0.8000 1.0000
vt -0.0278 0.8000 1.0000
vt 0.0833 0.8000 1.0000
vt 0.1389 0.8000 1.0000
vt 0.1944 0.8000 1.0000
vt 0.2500 0.8000 1.0000
vt 0.3056 0.8000 1.0000
vt 0.3611 0.8000 1.0000
vt 0.4167 0.8000 1.0000
vt 0.4722 0.8000 1.0000
vt 0.5278 0.8000 1.0000
vt 0.5833 0.8000 1.0000
vt 0.6389 0.8000 1.0000
vt 0.6944 0.8000 1.0000
vt 0.8056 1.0000 1.0000
vt 0.7500 1.0000 1.0000
vt 0.8611 1.0000 1.0000
vt 0.9167 1.0000 1.0000
vt 0.9722 1.0000 1.0000
vt 0.0278 1.0000 1.0000
vt -0.0278 1.0000 1.0000
vt 0.0833 1.0000 1.0000
vt 0.1389 1.0000 1.0000
vt 0.1944 1.0000 1.0000
vt 0.2500 1.0000 1.0000
vt 0.3056 1.0000 1.0000
vt 0.3611 1.0000 1.0000
vt 0.4167 1.0000 1.0000
vt 0.4722 1.0000 1.0000
vt 0.5278 1.0000 1.0000
vt 0.5833 1.0000 1.0000
vt 0.6389 1.0000 1.0000
vt 0.6944 1.0000 1.0000
vt 0.5000 1.0000 0.0000
vt -0.0197 1.0000 0.8794
# 117 texture coords

o Cylinder001
g Cylinder001
usemtl wire_006135006
s 1
f 293/307/151 294/308/152 295/309/153 296/310/154 
f 293/307/151 297/311/155 298/312/156 294/308/152 
f 293/307/151 299/313/157 300/314/158 297/315/155 
f 293/307/151 301/316/159 302/317/160 299/313/157 
f 293/307/151 303/318/161 304/319/162 301/316/159 
f 293/307/151 305/320/163 306/321/164 303/318/161 
f 293/307/151 307/322/165 308/323/166 305/320/163 
f 293/307/151 309/324/167 310/325/168 307/322/165 
f 293/307/151 296/310/154 311/326/169 309/324/167 
s 8
f 296/310/154 295/309/153 312/327/170 313/328/171 
f 295/309/153 294/308/152 314/329/172 312/327/170 
f 294/308/152 298/312/156 315/330/173 314/329/172 
f 298/312/156 297/311/155 316/331/174 315/330/173 
f 297/315/155 300/314/158 317/332/175 316/333/174 
f 300/314/158 299/313/157 318/334/176 317/332/175 
f 299/313/157 302/317/160 319/335/177 318/334/176 
f 302/317/160 301/316/159 320/336/178 319/335/177 
f 301/316/159 304/319/162 321/337/179 320/336/178 
f 304/319/162 303/318/161 322/338/180 321/337/179 
f 303/318/161 306/321/164 323/339/181 322/338/180 
f 306/321/164 305/320/163 324/340/182 323/339/181 
f 305/320/163 308/323/166 325/341/183 324/340/182 
f 308/323/166 307/322/165 326/342/184 325/341/183 
f 307/322/165 310/325/168 327/343/185 326/342/184 
f 310/325/168 309/324/167 328/344/186 327/343/185 
f 309/324/167 311/326/169 329/345/187 328/344/186 
f 311/326/169 296/310/154 313/328/171 329/345/187 
f 313/328/171 312/327/170 330/346/188 331/347/189 
f 312/327/170 314/329/172 332/348/190 330/346/188 
f 314/329/172 315/330/173 333/349/191 332/348/190 
f 315/330/173 316/331/174 334/350/192 333/349/191 
f 316/333/174 317/332/175 335/351/193 334/352/192 
f 317/332/175 318/334/176 336/353/176 335/351/193 
f 318/334/176 319/335/177 337/354/194 336/353/176 
f 319/335/177 320/336/178 338/355/195 337/354/194 
f 320/336/178 321/337/179 339/356/196 338/355/195 
f 321/337/179 322/338/180 340/357/180 339/356/196 
f 322/338/180 323/339/181 341/358/197 340/357/180 
f 323/339/181 324/340/182 342/359/198 341/358/197 
f 324/340/182 325/341/183 343/360/183 342/359/198 
f 325/341/183 326/342/184 344/361/199 343/360/183 
f 326/342/184 327/343/185 345/362/200 344/361/199 
f 327/343/185 328/344/186 346/363/201 345/362/200 
f 328/344/186 329/345/187 347/364/187 346/363/201 
f 329/345/187 313/328/171 331/347/189 347/364/187 
f 331/347/189 330/346/188 348/365/188 349/366/202 
f 330/346/188 332/348/190 350/367/190 348/365/188 
f 332/348/190 333/349/191 351/368/191 350/367/190 
f 333/349/191 334/350/192 352/369/192 351/368/191 
f 334/352/192 335/351/193 353/370/193 352/371/192 
f 335/351/193 336/353/176 354/372/203 353/370/193 
f 336/353/176 337/354/194 355/373/204 354/372/203 
f 337/354/194 338/355/195 356/374/195 355/373/204 
f 338/355/195 339/356/196 357/375/196 356/374/195 
f 339/356/196 340/357/180 358/376/205 357/375/196 
f 340/357/180 341/358/197 359/377/206 358/376/205 
f 341/358/197 342/359/198 360/378/198 359/377/206 
f 342/359/198 343/360/183 361/379/207 360/378/198 
f 343/360/183 344/361/199 362/380/199 361/379/207 
f 344/361/199 345/362/200 363/381/200 362/380/199 
f 345/362/200 346/363/201 364/382/201 363/381/200 
f 346/363/201 347/364/187 365/383/208 364/382/201 
f 347/364/187 331/347/189 349/366/202 365/383/208 
f 349/366/202 348/365/188 366/384/188 367/385/189 
f 348/365/188 350/367/190 368/386/190 366/384/188 
f 350/367/190 351/368/191 369/387/191 368/386/190 
f 351/368/191 352/369/192 370/388/192 369/387/191 
f 352/371/192 353/370/193 371/389/193 370/390/192 
f 353/370/193 354/372/203 372/391/203 371/389/193 
f 354/372/203 355/373/204 373/392/204 372/391/203 
f 355/373/204 356/374/195 374/393/195 373/392/204 
f 356/374/195 357/375/196 375/394/196 374/393/195 
f 357/375/196 358/376/205 376/395/205 375/394/196 
f 358/376/205 359/377/206 377/396/206 376/395/205 
f 359/377/206 360/378/198 378/397/198 377/396/206 
f 360/378/198 361/379/207 379/398/207 378/397/198 
f 361/379/207 362/380/199 380/399/199 379/398/207 
f 362/380/199 363/381/200 381/400/200 380/399/199 
f 363/381/200 364/382/201 382/401/201 381/400/200 
f 364/382/201 365/383/208 383/402/208 382/401/201 
f 365/383/208 349/366/202 367/385/189 383/402/208 
f 367/385/189 366/384/188 384/403/209 385/404/210 
f 366/384/188 368/386/190 386/405/211 384/403/209 
f 368/386/190 369/387/191 387/406/212 386/405/211 
f 369/387/191 370/388/192 388/407/213 387/406/212 
f 370/390/192 371/389/193 389/408/214 388/409/213 
f 371/389/193 372/391/203 390/410/215 389/408/214 
f 372/391/203 373/392/204 391/411/216 390/410/215 
f 373/392/204 374/393/195 392/412/217 391/411/216 
f 374/393/195 375/394/196 393/413/218 392/412/217 
f 375/394/196 376/395/205 394/414/219 393/413/218 
f 376/395/205 377/396/206 395/415/220 394/414/219 
f 377/396/206 378/397/198 396/416/221 395/415/220 
f 378/397/198 379/398/207 397/417/222 396/416/221 
f 379/398/207 380/399/199 398/418/223 397/417/222 
f 380/399/199 381/400/200 399/419/224 398/418/223 
f 381/400/200 382/401/201 400/420/225 399/419/224 
f 382/401/201 383/402/208 401/421/226 400/420/225 
f 383/402/208 367/385/189 385/404/210 401/421/226 
s 1
f 402/422/227 401/421/226 385/404/210 384/403/209 
f 402/422/227 384/403/209 386/405/211 387/406/212 
f 402/422/227 387/423/212 388/409/213 389/408/214 
f 402/422/227 389/408/214 390/410/215 391/411/216 
f 402/422/227 391/411/216 392/412/217 393/413/218 
f 402/422/227 393/413/218 394/414/219 395/415/220 
f 402/422/227 395/415/220 396/416/221 397/417/222 
f 402/422/227 397/417/222 398/418/223 399/419/224 
f 402/422/227 399/419/224 400/420/225 401/421/226 
# 108 polygons

#
# object Cone003
#

v  0.0000 130.0000 -0.0000
v  20.5049 130.0000 -11.8385
v  22.8703 130.0000 -6.1281
v  23.6770 130.0000 -0.0000
v  11.8385 130.0000 -20.5049
v  16.7422 130.0000 -16.7422
v  0.0000 130.0000 -23.6770
v  6.1281 130.0000 -22.8703
v  -11.8385 130.0000 -20.5049
v  -6.1281 130.0000 -22.8703
v  -20.5049 130.0000 -11.8385
v  -16.7422 130.0000 -16.7422
v  -23.6770 130.0000 -0.0000
v  -22.8703 130.0000 -6.1281
v  -20.5049 130.0000 11.8385
v  -22.8703 130.0000 6.1281
v  -11.8385 130.0000 20.5049
v  -16.7422 130.0000 16.7422
v  -0.0000 130.0000 23.6770
v  -6.1281 130.0000 22.8703
v  11.8385 130.0000 20.5049
v  6.1281 130.0000 22.8703
v  20.5049 130.0000 11.8385
v  16.7422 130.0000 16.7422
v  22.8703 130.0000 6.1281
v  18.2962 135.0663 -4.9025
v  18.9416 135.0663 -0.0000
v  16.4039 135.0663 -9.4708
v  13.3938 135.0663 -13.3938
v  9.4708 135.0663 -16.4039
v  4.9025 135.0663 -18.2962
v  0.0000 135.0663 -18.9416
v  -4.9025 135.0663 -18.2962
v  -9.4708 135.0663 -16.4039
v  -13.3938 135.0663 -13.3938
v  -16.4039 135.0663 -9.4708
v  -18.2962 135.0663 -4.9025
v  -18.9416 135.0663 -0.0000
v  -18.2962 135.0663 4.9024
v  -16.4039 135.0663 9.4708
v  -13.3938 135.0663 13.3938
v  -9.4708 135.0663 16.4039
v  -4.9025 135.0663 18.2962
v  -0.0000 135.0663 18.9416
v  4.9024 135.0663 18.2962
v  9.4708 135.0663 16.4039
v  13.3938 135.0663 13.3938
v  16.4039 135.0663 9.4708
v  18.2962 135.0663 4.9025
v  13.7222 140.1327 -3.6768
v  14.2062 140.1327 -0.0000
v  12.3030 140.1327 -7.1031
v  10.0453 140.1327 -10.0453
v  7.1031 140.1327 -12.3030
v  3.6768 140.1327 -13.7222
v  0.0000 140.1327 -14.2062
v  -3.6768 140.1327 -13.7222
v  -7.1031 140.1327 -12.3030
v  -10.0453 140.1327 -10.0453
v  -12.3030 140.1327 -7.1031
v  -13.7222 140.1327 -3.6768
v  -14.2062 140.1327 -0.0000
v  -13.7222 140.1327 3.6768
v  -12.3030 140.1327 7.1031
v  -10.0453 140.1327 10.0453
v  -7.1031 140.1327 12.3030
v  -3.6768 140.1327 13.7222
v  -0.0000 140.1327 14.2062
v  3.6768 140.1327 13.7222
v  7.1031 140.1327 12.3030
v  10.0453 140.1327 10.0453
v  12.3029 140.1327 7.1031
v  13.7222 140.1327 3.6769
v  9.1481 145.1990 -2.4512
v  9.4708 145.1990 -0.0000
v  8.2020 145.1990 -4.7354
v  6.6969 145.1990 -6.6969
v  4.7354 145.1990 -8.2020
v  2.4512 145.1990 -9.1481
v  0.0000 145.1990 -9.4708
v  -2.4512 145.1990 -9.1481
v  -4.7354 145.1990 -8.2020
v  -6.6969 145.1990 -6.6969
v  -8.2020 145.1990 -4.7354
v  -9.1481 145.1990 -2.4512
v  -9.4708 145.1990 -0.0000
v  -9.1481 145.1990 2.4512
v  -8.2020 145.1990 4.7354
v  -6.6969 145.1990 6.6969
v  -4.7354 145.1990 8.2020
v  -2.4512 145.1990 9.1481
v  -0.0000 145.1990 9.4708
v  2.4512 145.1990 9.1481
v  4.7354 145.1990 8.2020
v  6.6969 145.1990 6.6969
v  8.2020 145.1990 4.7354
v  9.1481 145.1990 2.4512
v  4.5741 150.2654 -1.2256
v  4.7354 150.2654 -0.0000
v  4.1010 150.2654 -2.3677
v  3.3484 150.2654 -3.3484
v  2.3677 150.2654 -4.1010
v  1.2256 150.2654 -4.5741
v  0.0000 150.2654 -4.7354
v  -1.2256 150.2654 -4.5741
v  -2.3677 150.2654 -4.1010
v  -3.3484 150.2654 -3.3484
v  -4.1010 150.2654 -2.3677
v  -4.5741 150.2654 -1.2256
v  -4.7354 150.2654 -0.0000
v  -4.5741 150.2654 1.2256
v  -4.1010 150.2654 2.3677
v  -3.3484 150.2654 3.3484
v  -2.3677 150.2654 4.1010
v  -1.2256 150.2654 4.5741
v  -0.0000 150.2654 4.7354
v  1.2256 150.2654 4.5741
v  2.3677 150.2654 4.1010
v  3.3484 150.2654 3.3484
v  4.1010 150.2654 2.3677
v  4.5741 150.2654 1.2256
v  0.0000 155.3317 -0.0000
# 122 vertices

vn 0.0000 -1.0000 -0.0000
vn 0.8036 -0.3728 -0.4640
vn 0.8963 -0.3728 -0.2402
vn 0.9279 -0.3728 0.0000
vn 0.4640 -0.3728 -0.8036
vn 0.6561 -0.3728 -0.6561
vn 0.0000 -0.3728 -0.9279
vn 0.2402 -0.3728 -0.8963
vn -0.4640 -0.3728 -0.8036
vn -0.2402 -0.3728 -0.8963
vn -0.8036 -0.3728 -0.4640
vn -0.6561 -0.3728 -0.6561
vn -0.9279 -0.3728 -0.0000
vn -0.8963 -0.3728 -0.2402
vn -0.8036 -0.3728 0.4640
vn -0.8963 -0.3728 0.2402
vn -0.4640 -0.3728 0.8036
vn -0.6561 -0.3728 0.6561
vn -0.0000 -0.3728 0.9279
vn -0.2402 -0.3728 0.8963
vn 0.4640 -0.3728 0.8036
vn 0.2402 -0.3728 0.8963
vn 0.8036 -0.3728 0.4640
vn 0.6561 -0.3728 0.6561
vn 0.8963 -0.3728 0.2402
vn 0.7057 0.6828 -0.1891
vn 0.7306 0.6828 0.0000
vn 0.6327 0.6828 -0.3653
vn 0.5166 0.6828 -0.5166
vn 0.3653 0.6828 -0.6327
vn 0.1891 0.6828 -0.7057
vn 0.0000 0.6828 -0.7306
vn -0.1891 0.6828 -0.7057
vn -0.3653 0.6828 -0.6327
vn -0.5166 0.6828 -0.5166
vn -0.6327 0.6828 -0.3653
vn -0.7057 0.6828 -0.1891
vn -0.7306 0.6828 -0.0000
vn -0.7057 0.6828 0.1891
vn -0.6327 0.6828 0.3653
vn -0.5166 0.6828 0.5166
vn -0.3653 0.6828 0.6327
vn -0.1891 0.6828 0.7057
vn -0.0000 0.6828 0.7306
vn 0.1891 0.6828 0.7057
vn 0.3653 0.6828 0.6327
vn 0.5166 0.6828 0.5166
vn 0.6327 0.6828 0.3653
vn 0.7057 0.6828 0.1891
vn 1.0000 0.0000 -0.0000
# 50 vertex normals

vt 0.5000 0.0000 0.0000
vt 0.8333 0.0000 1.0000
vt 0.7917 0.0000 1.0000
vt 0.7500 0.0000 1.0000
vt 0.9167 0.0000 1.0000
vt 0.8750 0.0000 1.0000
vt 1.0000 0.0000 1.0000
vt 0.9583 0.0000 1.0000
vt 0.0833 0.0000 1.0000
vt 0.0417 0.0000 1.0000
vt 0.0000 0.0000 1.0000
vt 0.1667 0.0000 1.0000
vt 0.1250 0.0000 1.0000
vt 0.2500 0.0000 1.0000
vt 0.2083 0.0000 1.0000
vt 0.3333 0.0000 1.0000
vt 0.2917 0.0000 1.0000
vt 0.4167 0.0000 1.0000
vt 0.3750 0.0000 1.0000
vt 0.5000 0.0000 1.0000
vt 0.4583 0.0000 1.0000
vt 0.5833 0.0000 1.0000
vt 0.5417 0.0000 1.0000
vt 0.6667 0.0000 1.0000
vt 0.6250 0.0000 1.0000
vt 0.7083 0.0000 1.0000
vt 0.7917 0.2000 0.8000
vt 0.7500 0.2000 0.8000
vt 0.8333 0.2000 0.8000
vt 0.8750 0.2000 0.8000
vt 0.9167 0.2000 0.8000
vt 0.9583 0.2000 0.8000
vt 1.0000 0.2000 0.8000
vt 0.0417 0.2000 0.8000
vt 0.0000 0.2000 0.8000
vt 0.0833 0.2000 0.8000
vt 0.1250 0.2000 0.8000
vt 0.1667 0.2000 0.8000
vt 0.2083 0.2000 0.8000
vt 0.2500 0.2000 0.8000
vt 0.2917 0.2000 0.8000
vt 0.3333 0.2000 0.8000
vt 0.3750 0.2000 0.8000
vt 0.4167 0.2000 0.8000
vt 0.4583 0.2000 0.8000
vt 0.5000 0.2000 0.8000
vt 0.5417 0.2000 0.8000
vt 0.5833 0.2000 0.8000
vt 0.6250 0.2000 0.8000
vt 0.6667 0.2000 0.8000
vt 0.7083 0.2000 0.8000
vt 0.7917 0.4000 0.6000
vt 0.7500 0.4000 0.6000
vt 0.8333 0.4000 0.6000
vt 0.8750 0.4000 0.6000
vt 0.9167 0.4000 0.6000
vt 0.9583 0.4000 0.6000
vt 1.0000 0.4000 0.6000
vt 0.0417 0.4000 0.6000
vt 0.0000 0.4000 0.6000
vt 0.0833 0.4000 0.6000
vt 0.1250 0.4000 0.6000
vt 0.1667 0.4000 0.6000
vt 0.2083 0.4000 0.6000
vt 0.2500 0.4000 0.6000
vt 0.2917 0.4000 0.6000
vt 0.3333 0.4000 0.6000
vt 0.3750 0.4000 0.6000
vt 0.4167 0.4000 0.6000
vt 0.4583 0.4000 0.6000
vt 0.5000 0.4000 0.6000
vt 0.5417 0.4000 0.6000
vt 0.5833 0.4000 0.6000
vt 0.6250 0.4000 0.6000
vt 0.6667 0.4000 0.6000
vt 0.7083 0.4000 0.6000
vt 0.7917 0.6000 0.4000
vt 0.7500 0.6000 0.4000
vt 0.8333 0.6000 0.4000
vt 0.8750 0.6000 0.4000
vt 0.9167 0.6000 0.4000
vt 0.9583 0.6000 0.4000
vt 1.0000 0.6000 0.4000
vt 0.0417 0.6000 0.4000
vt 0.0000 0.6000 0.4000
vt 0.0833 0.6000 0.4000
vt 0.1250 0.6000 0.4000
vt 0.1667 0.6000 0.4000
vt 0.2083 0.6000 0.4000
vt 0.2500 0.6000 0.4000
vt 0.2917 0.6000 0.4000
vt 0.3333 0.6000 0.4000
vt 0.3750 0.6000 0.4000
vt 0.4167 0.6000 0.4000
vt 0.4583 0.6000 0.4000
vt 0.5000 0.6000 0.4000
vt 0.5417 0.6000 0.4000
vt 0.5833 0.6000 0.4000
vt 0.6250 0.6000 0.4000
vt 0.6667 0.6000 0.4000
vt 0.7083 0.6000 0.4000
vt 0.7917 0.8000 0.2000
vt 0.7500 0.8000 0.2000
vt 0.8333 0.8000 0.2000
vt 0.8750 0.8000 0.2000
vt 0.9167 0.8000 0.2000
vt 0.9583 0.8000 0.2000
vt 1.0000 0.8000 0.2000
vt 0.0417 0.8000 0.2000
vt 0.0000 0.8000 0.2000
vt 0.0833 0.8000 0.2000
vt 0.1250 0.8000 0.2000
vt 0.1667 0.8000 0.2000
vt 0.2083 0.8000 0.2000
vt 0.2500 0.8000 0.2000
vt 0.2917 0.8000 0.2000
vt 0.3333 0.8000 0.2000
vt 0.3750 0.8000 0.2000
vt 0.4167 0.8000 0.2000
vt 0.4583 0.8000 0.2000
vt 0.5000 0.8000 0.2000
vt 0.5417 0.8000 0.2000
vt 0.5833 0.8000 0.2000
vt 0.6250 0.8000 0.2000
vt 0.6667 0.8000 0.2000
vt 0.7083 0.8000 0.2000
vt 0.5000 1.0000 0.0000
# 127 texture coords

o Cone003
g Cone003
usemtl wire_006135006
s 1
f 403/424/228 404/425/229 405/426/230 406/427/231 
f 403/424/228 407/428/232 408/429/233 404/425/229 
f 403/424/228 409/430/234 410/431/235 407/428/232 
f 403/424/228 411/432/236 412/433/237 409/434/234 
f 403/424/228 413/435/238 414/436/239 411/432/236 
f 403/424/228 415/437/240 416/438/241 413/435/238 
f 403/424/228 417/439/242 418/440/243 415/437/240 
f 403/424/228 419/441/244 420/442/245 417/439/242 
f 403/424/228 421/443/246 422/444/247 419/441/244 
f 403/424/228 423/445/248 424/446/249 421/443/246 
f 403/424/228 425/447/250 426/448/251 423/445/248 
f 403/424/228 406/427/231 427/449/252 425/447/250 
s 8
f 406/427/231 405/426/230 428/450/253 429/451/254 
f 405/426/230 404/425/229 430/452/255 428/450/253 
f 404/425/229 408/429/233 431/453/256 430/452/255 
f 408/429/233 407/428/232 432/454/257 431/453/256 
f 407/428/232 410/431/235 433/455/258 432/454/257 
f 410/431/235 409/430/234 434/456/259 433/455/258 
f 409/434/234 412/433/237 435/457/260 434/458/259 
f 412/433/237 411/432/236 436/459/261 435/457/260 
f 411/432/236 414/436/239 437/460/262 436/459/261 
f 414/436/239 413/435/238 438/461/263 437/460/262 
f 413/435/238 416/438/241 439/462/264 438/461/263 
f 416/438/241 415/437/240 440/463/265 439/462/264 
f 415/437/240 418/440/243 441/464/266 440/463/265 
f 418/440/243 417/439/242 442/465/267 441/464/266 
f 417/439/242 420/442/245 443/466/268 442/465/267 
f 420/442/245 419/441/244 444/467/269 443/466/268 
f 419/441/244 422/444/247 445/468/270 444/467/269 
f 422/444/247 421/443/246 446/469/271 445/468/270 
f 421/443/246 424/446/249 447/470/272 446/469/271 
f 424/446/249 423/445/248 448/471/273 447/470/272 
f 423/445/248 426/448/251 449/472/274 448/471/273 
f 426/448/251 425/447/250 450/473/275 449/472/274 
f 425/447/250 427/449/252 451/474/276 450/473/275 
f 427/449/252 406/427/231 429/451/254 451/474/276 
f 429/451/254 428/450/253 452/475/253 453/476/254 
f 428/450/253 430/452/255 454/477/255 452/475/253 
f 430/452/255 431/453/256 455/478/256 454/477/255 
f 431/453/256 432/454/257 456/479/257 455/478/256 
f 432/454/257 433/455/258 457/480/258 456/479/257 
f 433/455/258 434/456/259 458/481/259 457/480/258 
f 434/458/259 435/457/260 459/482/260 458/483/259 
f 435/457/260 436/459/261 460/484/261 459/482/260 
f 436/459/261 437/460/262 461/485/262 460/484/261 
f 437/460/262 438/461/263 462/486/263 461/485/262 
f 438/461/263 439/462/264 463/487/264 462/486/263 
f 439/462/264 440/463/265 464/488/265 463/487/264 
f 440/463/265 441/464/266 465/489/266 464/488/265 
f 441/464/266 442/465/267 466/490/267 465/489/266 
f 442/465/267 443/466/268 467/491/268 466/490/267 
f 443/466/268 444/467/269 468/492/269 467/491/268 
f 444/467/269 445/468/270 469/493/270 468/492/269 
f 445/468/270 446/469/271 470/494/271 469/493/270 
f 446/469/271 447/470/272 471/495/272 470/494/271 
f 447/470/272 448/471/273 472/496/273 471/495/272 
f 448/471/273 449/472/274 473/497/274 472/496/273 
f 449/472/274 450/473/275 474/498/275 473/497/274 
f 450/473/275 451/474/276 475/499/276 474/498/275 
f 451/474/276 429/451/254 453/476/254 475/499/276 
f 453/476/254 452/475/253 476/500/253 477/501/254 
f 452/475/253 454/477/255 478/502/255 476/500/253 
f 454/477/255 455/478/256 479/503/256 478/502/255 
f 455/478/256 456/479/257 480/504/257 479/503/256 
f 456/479/257 457/480/258 481/505/258 480/504/257 
f 457/480/258 458/481/259 482/506/259 481/505/258 
f 458/483/259 459/482/260 483/507/260 482/508/259 
f 459/482/260 460/484/261 484/509/261 483/507/260 
f 460/484/261 461/485/262 485/510/262 484/509/261 
f 461/485/262 462/486/263 486/511/263 485/510/262 
f 462/486/263 463/487/264 487/512/264 486/511/263 
f 463/487/264 464/488/265 488/513/265 487/512/264 
f 464/488/265 465/489/266 489/514/266 488/513/265 
f 465/489/266 466/490/267 490/515/267 489/514/266 
f 466/490/267 467/491/268 491/516/268 490/515/267 
f 467/491/268 468/492/269 492/517/269 491/516/268 
f 468/492/269 469/493/270 493/518/270 492/517/269 
f 469/493/270 470/494/271 494/519/271 493/518/270 
f 470/494/271 471/495/272 495/520/272 494/519/271 
f 471/495/272 472/496/273 496/521/273 495/520/272 
f 472/496/273 473/497/274 497/522/274 496/521/273 
f 473/497/274 474/498/275 498/523/275 497/522/274 
f 474/498/275 475/499/276 499/524/276 498/523/275 
f 475/499/276 453/476/254 477/501/254 499/524/276 
f 477/501/254 476/500/253 500/525/253 501/526/254 
f 476/500/253 478/502/255 502/527/255 500/525/253 
f 478/502/255 479/503/256 503/528/256 502/527/255 
f 479/503/256 480/504/257 504/529/257 503/528/256 
f 480/504/257 481/505/258 505/530/258 504/529/257 
f 481/505/258 482/506/259 506/531/259 505/530/258 
f 482/508/259 483/507/260 507/532/260 506/533/259 
f 483/507/260 484/509/261 508/534/261 507/532/260 
f 484/509/261 485/510/262 509/535/262 508/534/261 
f 485/510/262 486/511/263 510/536/263 509/535/262 
f 486/511/263 487/512/264 511/537/264 510/536/263 
f 487/512/264 488/513/265 512/538/265 511/537/264 
f 488/513/265 489/514/266 513/539/266 512/538/265 
f 489/514/266 490/515/267 514/540/267 513/539/266 
f 490/515/267 491/516/268 515/541/268 514/540/267 
f 491/516/268 492/517/269 516/542/269 515/541/268 
f 492/517/269 493/518/270 517/543/270 516/542/269 
f 493/518/270 494/519/271 518/544/271 517/543/270 
f 494/519/271 495/520/272 519/545/272 518/544/271 
f 495/520/272 496/521/273 520/546/273 519/545/272 
f 496/521/273 497/522/274 521/547/274 520/546/273 
f 497/522/274 498/523/275 522/548/275 521/547/274 
f 498/523/275 499/524/276 523/549/276 522/548/275 
f 499/524/276 477/501/254 501/526/254 523/549/276 
f 501/526/254 500/525/253 524/550/277 524/550/277 
f 500/525/253 502/527/255 524/550/277 524/550/277 
f 502/527/255 503/528/256 524/550/277 524/550/277 
f 503/528/256 504/529/257 524/550/277 524/550/277 
f 504/529/257 505/530/258 524/550/277 524/550/277 
f 505/530/258 506/531/259 524/550/277 524/550/277 
f 506/533/259 507/532/260 524/550/277 524/550/277 
f 507/532/260 508/534/261 524/550/277 524/550/277 
f 508/534/261 509/535/262 524/550/277 524/550/277 
f 509/535/262 510/536/263 524/550/277 524/550/277 
f 510/536/263 511/537/264 524/550/277 524/550/277 
f 511/537/264 512/538/265 524/550/277 524/550/277 
f 512/538/265 513/539/266 524/550/277 524/550/277 
f 513/539/266 514/540/267 524/550/277 524/550/277 
f 514/540/267 515/541/268 524/550/277 524/550/277 
f 515/541/268 516/542/269 524/550/277 524/550/277 
f 516/542/269 517/543/270 524/550/277 524/550/277 
f 517/543/270 518/544/271 524/550/277 524/550/277 
f 518/544/271 519/545/272 524/550/277 524/550/277 
f 519/545/272 520/546/273 524/550/277 524/550/277 
f 520/546/273 521/547/274 524/550/277 524/550/277 
f 521/547/274 522/548/275 524/550/277 524/550/277 
f 522/548/275 523/549/276 524/550/277 524/550/277 
f 523/549/276 501/526/254 524/550/277 524/550/277 
s 1
f 524/550/277 524/550/277 524/550/277 524/550/277 
f 524/550/277 524/550/277 524/550/277 524/550/277 
f 524/550/277 524/550/277 524/550/277 524/550/277 
f 524/550/277 524/550/277 524/550/277 524/550/277 
f 524/550/277 524/550/277 524/550/277 524/550/277 
f 524/550/277 524/550/277 524/550/277 524/550/277 
f 524/550/277 524/550/277 524/550/277 524/550/277 
f 524/550/277 524/550/277 524/550/277 524/550/277 
f 524/550/277 524/550/277 524/550/277 524/550/277 
f 524/550/277 524/550/277 524/550/277 524/550/277 
f 524/550/277 524/550/277 524/550/277 524/550/277 
f 524/550/277 524/550/277 524/550/277 524/550/277 
# 144 polygons

