# 3ds Max Wavefront OBJ Exporter v0.97b - (c)2007 guruware
# 创建的文件:27.10.2021 08:49:00

mtllib 123.mtl

#
# object Cylinder001
#

v  0.0000 0.0000 -0.0000
v  4.9655 0.0000 -4.1731
v  6.0911 0.0000 -2.2205
v  6.4820 0.0000 -0.0000
v  1.1256 0.0000 -6.3936
v  3.2410 0.0000 -5.6225
v  -3.2410 0.0000 -5.6225
v  -1.1256 0.0000 -6.3936
v  -6.0911 0.0000 -2.2205
v  -4.9655 0.0000 -4.1731
v  -6.0911 0.0000 2.2205
v  -6.4820 0.0000 -0.0000
v  -3.2410 0.0000 5.6225
v  -4.9655 0.0000 4.1731
v  1.1256 0.0000 6.3936
v  -1.1256 0.0000 6.3936
v  4.9655 0.0000 4.1732
v  3.2410 0.0000 5.6225
v  6.0911 0.0000 2.2205
v  6.0911 10.9326 -2.2205
v  6.4820 10.9326 -0.0000
v  4.9655 10.9326 -4.1731
v  3.2410 10.9326 -5.6225
v  1.1256 10.9326 -6.3936
v  -1.1256 10.9326 -6.3936
v  -3.2410 10.9326 -5.6225
v  -4.9655 10.9326 -4.1731
v  -6.0911 10.9326 -2.2205
v  -6.4820 10.9326 -0.0000
v  -6.0911 10.9326 2.2205
v  -4.9655 10.9326 4.1731
v  -3.2410 10.9326 5.6225
v  -1.1256 10.9326 6.3936
v  1.1256 10.9326 6.3936
v  3.2410 10.9326 5.6225
v  4.9655 10.9326 4.1732
v  6.0911 10.9326 2.2205
v  6.0911 21.8651 -2.2205
v  6.4820 21.8651 -0.0000
v  4.9655 21.8651 -4.1731
v  3.2410 21.8651 -5.6225
v  1.1256 21.8651 -6.3936
v  -1.1256 21.8651 -6.3936
v  -3.2410 21.8651 -5.6225
v  -4.9655 21.8651 -4.1731
v  -6.0911 21.8651 -2.2205
v  -6.4820 21.8651 -0.0000
v  -6.0911 21.8651 2.2205
v  -4.9655 21.8651 4.1731
v  -3.2410 21.8651 5.6225
v  -1.1256 21.8651 6.3936
v  1.1256 21.8651 6.3936
v  3.2410 21.8651 5.6225
v  4.9655 21.8651 4.1732
v  6.0911 21.8651 2.2205
v  6.0911 32.7977 -2.2205
v  6.4820 32.7977 -0.0000
v  4.9655 32.7977 -4.1731
v  3.2410 32.7977 -5.6225
v  1.1256 32.7977 -6.3936
v  -1.1256 32.7977 -6.3936
v  -3.2410 32.7977 -5.6225
v  -4.9655 32.7977 -4.1731
v  -6.0911 32.7977 -2.2205
v  -6.4820 32.7977 -0.0000
v  -6.0911 32.7977 2.2205
v  -4.9655 32.7977 4.1731
v  -3.2410 32.7977 5.6225
v  -1.1256 32.7977 6.3936
v  1.1256 32.7977 6.3936
v  3.2410 32.7977 5.6225
v  4.9655 32.7977 4.1732
v  6.0911 32.7977 2.2205
v  6.0911 43.7302 -2.2205
v  6.4820 43.7302 -0.0000
v  4.9655 43.7302 -4.1731
v  3.2410 43.7302 -5.6225
v  1.1256 43.7302 -6.3936
v  -1.1256 43.7302 -6.3936
v  -3.2410 43.7302 -5.6225
v  -4.9655 43.7302 -4.1731
v  -6.0911 43.7302 -2.2205
v  -6.4820 43.7302 -0.0000
v  -6.0911 43.7302 2.2205
v  -4.9655 43.7302 4.1731
v  -3.2410 43.7302 5.6225
v  -1.1256 43.7302 6.3936
v  1.1256 43.7302 6.3936
v  3.2410 43.7302 5.6225
v  4.9655 43.7302 4.1732
v  6.0911 43.7302 2.2205
v  6.0911 54.6628 -2.2205
v  6.4820 54.6628 -0.0000
v  4.9655 54.6628 -4.1731
v  3.2410 54.6628 -5.6225
v  1.1256 54.6628 -6.3936
v  -1.1256 54.6628 -6.3936
v  -3.2410 54.6628 -5.6225
v  -4.9655 54.6628 -4.1731
v  -6.0911 54.6628 -2.2205
v  -6.4820 54.6628 -0.0000
v  -6.0911 54.6628 2.2205
v  -4.9655 54.6628 4.1731
v  -3.2410 54.6628 5.6225
v  -1.1256 54.6628 6.3936
v  1.1256 54.6628 6.3936
v  3.2410 54.6628 5.6225
v  4.9655 54.6628 4.1732
v  6.0911 54.6628 2.2205
v  0.0000 54.6628 -0.0000
# 110 vertices

vn 0.0000 -1.0000 -0.0000
vn 0.5687 -0.6700 -0.4772
vn 0.6975 -0.6701 -0.2539
vn 0.7423 -0.6701 0.0000
vn 0.1289 -0.6700 -0.7311
vn 0.3712 -0.6700 -0.6429
vn -0.3711 -0.6701 -0.6429
vn -0.1289 -0.6700 -0.7311
vn -0.6976 -0.6700 -0.2539
vn -0.5686 -0.6701 -0.4771
vn -0.6976 -0.6700 0.2539
vn -0.7423 -0.6700 -0.0000
vn -0.3712 -0.6700 0.6429
vn -0.5687 -0.6700 0.4772
vn 0.1289 -0.6700 0.7311
vn -0.1289 -0.6700 0.7311
vn 0.5686 -0.6701 0.4772
vn 0.3712 -0.6700 0.6429
vn 0.6975 -0.6701 0.2539
vn 0.9397 0.0000 -0.3420
vn 1.0000 0.0000 0.0000
vn 0.7660 0.0000 -0.6428
vn 0.5000 0.0000 -0.8660
vn 0.1736 0.0000 -0.9848
vn -0.1736 0.0000 -0.9848
vn -0.5000 0.0000 -0.8660
vn -0.7661 0.0000 -0.6428
vn -0.9397 0.0000 -0.3420
vn -1.0000 0.0000 -0.0000
vn -0.9397 0.0000 0.3420
vn -0.7660 0.0000 0.6428
vn -0.5000 0.0000 0.8660
vn -0.1736 0.0000 0.9848
vn 0.1736 0.0000 0.9848
vn 0.5000 0.0000 0.8660
vn 0.7660 0.0000 0.6428
vn 0.9397 0.0000 0.3420
vn 0.6975 0.6701 -0.2539
vn 0.7423 0.6701 0.0000
vn 0.5687 0.6700 -0.4772
vn 0.3712 0.6700 -0.6429
vn 0.1289 0.6700 -0.7311
vn -0.1289 0.6700 -0.7311
vn -0.3711 0.6701 -0.6429
vn -0.5686 0.6701 -0.4771
vn -0.6976 0.6700 -0.2539
vn -0.7423 0.6700 -0.0000
vn -0.6976 0.6700 0.2539
vn -0.5687 0.6700 0.4772
vn -0.3712 0.6700 0.6429
vn -0.1289 0.6700 0.7311
vn 0.1289 0.6700 0.7311
vn 0.3712 0.6700 0.6429
vn 0.5686 0.6701 0.4772
vn 0.6975 0.6701 0.2539
vn 0.0000 1.0000 -0.0000
# 56 vertex normals

vt 0.5000 0.0000 0.0000
vt 0.8611 0.0000 1.0000
vt 0.8056 0.0000 1.0000
vt 0.7500 0.0000 1.0000
vt 0.9722 0.0000 1.0000
vt 0.9167 0.0000 1.0000
vt 0.0833 0.0000 1.0000
vt 0.0278 0.0000 1.0000
vt -0.0278 0.0000 1.0000
vt 0.1944 0.0000 1.0000
vt 0.1389 0.0000 1.0000
vt 0.3056 0.0000 1.0000
vt 0.2500 0.0000 1.0000
vt 0.4167 0.0000 1.0000
vt 0.3611 0.0000 1.0000
vt 0.5278 0.0000 1.0000
vt 0.4722 0.0000 1.0000
vt 0.6389 0.0000 1.0000
vt 0.5833 0.0000 1.0000
vt 0.6944 0.0000 1.0000
vt 0.8056 0.2000 1.0000
vt 0.7500 0.2000 1.0000
vt 0.8611 0.2000 1.0000
vt 0.9167 0.2000 1.0000
vt 0.9722 0.2000 1.0000
vt 0.0278 0.2000 1.0000
vt -0.0278 0.2000 1.0000
vt 0.0833 0.2000 1.0000
vt 0.1389 0.2000 1.0000
vt 0.1944 0.2000 1.0000
vt 0.2500 0.2000 1.0000
vt 0.3056 0.2000 1.0000
vt 0.3611 0.2000 1.0000
vt 0.4167 0.2000 1.0000
vt 0.4722 0.2000 1.0000
vt 0.5278 0.2000 1.0000
vt 0.5833 0.2000 1.0000
vt 0.6389 0.2000 1.0000
vt 0.6944 0.2000 1.0000
vt 0.8056 0.4000 1.0000
vt 0.7500 0.4000 1.0000
vt 0.8611 0.4000 1.0000
vt 0.9167 0.4000 1.0000
vt 0.9722 0.4000 1.0000
vt 0.0278 0.4000 1.0000
vt -0.0278 0.4000 1.0000
vt 0.0833 0.4000 1.0000
vt 0.1389 0.4000 1.0000
vt 0.1944 0.4000 1.0000
vt 0.2500 0.4000 1.0000
vt 0.3056 0.4000 1.0000
vt 0.3611 0.4000 1.0000
vt 0.4167 0.4000 1.0000
vt 0.4722 0.4000 1.0000
vt 0.5278 0.4000 1.0000
vt 0.5833 0.4000 1.0000
vt 0.6389 0.4000 1.0000
vt 0.6944 0.4000 1.0000
vt 0.8056 0.6000 1.0000
vt 0.7500 0.6000 1.0000
vt 0.8611 0.6000 1.0000
vt 0.9167 0.6000 1.0000
vt 0.9722 0.6000 1.0000
vt 0.0278 0.6000 1.0000
vt -0.0278 0.6000 1.0000
vt 0.0833 0.6000 1.0000
vt 0.1389 0.6000 1.0000
vt 0.1944 0.6000 1.0000
vt 0.2500 0.6000 1.0000
vt 0.3056 0.6000 1.0000
vt 0.3611 0.6000 1.0000
vt 0.4167 0.6000 1.0000
vt 0.4722 0.6000 1.0000
vt 0.5278 0.6000 1.0000
vt 0.5833 0.6000 1.0000
vt 0.6389 0.6000 1.0000
vt 0.6944 0.6000 1.0000
vt 0.8056 0.8000 1.0000
vt 0.7500 0.8000 1.0000
vt 0.8611 0.8000 1.0000
vt 0.9167 0.8000 1.0000
vt 0.9722 0.8000 1.0000
vt 0.0278 0.8000 1.0000
vt -0.0278 0.8000 1.0000
vt 0.0833 0.8000 1.0000
vt 0.1389 0.8000 1.0000
vt 0.1944 0.8000 1.0000
vt 0.2500 0.8000 1.0000
vt 0.3056 0.8000 1.0000
vt 0.3611 0.8000 1.0000
vt 0.4167 0.8000 1.0000
vt 0.4722 0.8000 1.0000
vt 0.5278 0.8000 1.0000
vt 0.5833 0.8000 1.0000
vt 0.6389 0.8000 1.0000
vt 0.6944 0.8000 1.0000
vt 0.8056 1.0000 1.0000
vt 0.7500 1.0000 1.0000
vt 0.8611 1.0000 1.0000
vt 0.9167 1.0000 1.0000
vt 0.9722 1.0000 1.0000
vt 0.0278 1.0000 1.0000
vt -0.0278 1.0000 1.0000
vt 0.0833 1.0000 1.0000
vt 0.1389 1.0000 1.0000
vt 0.1944 1.0000 1.0000
vt 0.2500 1.0000 1.0000
vt 0.3056 1.0000 1.0000
vt 0.3611 1.0000 1.0000
vt 0.4167 1.0000 1.0000
vt 0.4722 1.0000 1.0000
vt 0.5278 1.0000 1.0000
vt 0.5833 1.0000 1.0000
vt 0.6389 1.0000 1.0000
vt 0.6944 1.0000 1.0000
vt 0.5000 1.0000 0.0000
vt -0.0197 1.0000 0.8794
# 117 texture coords

o Cylinder001
g Cylinder001
usemtl wire_211209008
s 1
f 1/1/1 2/2/2 3/3/3 4/4/4 
f 1/1/1 5/5/5 6/6/6 2/2/2 
f 1/1/1 7/7/7 8/8/8 5/9/5 
f 1/1/1 9/10/9 10/11/10 7/7/7 
f 1/1/1 11/12/11 12/13/12 9/10/9 
f 1/1/1 13/14/13 14/15/14 11/12/11 
f 1/1/1 15/16/15 16/17/16 13/14/13 
f 1/1/1 17/18/17 18/19/18 15/16/15 
f 1/1/1 4/4/4 19/20/19 17/18/17 
s 8
f 4/4/4 3/3/3 20/21/20 21/22/21 
f 3/3/3 2/2/2 22/23/22 20/21/20 
f 2/2/2 6/6/6 23/24/23 22/23/22 
f 6/6/6 5/5/5 24/25/24 23/24/23 
f 5/9/5 8/8/8 25/26/25 24/27/24 
f 8/8/8 7/7/7 26/28/26 25/26/25 
f 7/7/7 10/11/10 27/29/27 26/28/26 
f 10/11/10 9/10/9 28/30/28 27/29/27 
f 9/10/9 12/13/12 29/31/29 28/30/28 
f 12/13/12 11/12/11 30/32/30 29/31/29 
f 11/12/11 14/15/14 31/33/31 30/32/30 
f 14/15/14 13/14/13 32/34/32 31/33/31 
f 13/14/13 16/17/16 33/35/33 32/34/32 
f 16/17/16 15/16/15 34/36/34 33/35/33 
f 15/16/15 18/19/18 35/37/35 34/36/34 
f 18/19/18 17/18/17 36/38/36 35/37/35 
f 17/18/17 19/20/19 37/39/37 36/38/36 
f 19/20/19 4/4/4 21/22/21 37/39/37 
f 21/22/21 20/21/20 38/40/20 39/41/21 
f 20/21/20 22/23/22 40/42/22 38/40/20 
f 22/23/22 23/24/23 41/43/23 40/42/22 
f 23/24/23 24/25/24 42/44/24 41/43/23 
f 24/27/24 25/26/25 43/45/25 42/46/24 
f 25/26/25 26/28/26 44/47/26 43/45/25 
f 26/28/26 27/29/27 45/48/27 44/47/26 
f 27/29/27 28/30/28 46/49/28 45/48/27 
f 28/30/28 29/31/29 47/50/29 46/49/28 
f 29/31/29 30/32/30 48/51/30 47/50/29 
f 30/32/30 31/33/31 49/52/31 48/51/30 
f 31/33/31 32/34/32 50/53/32 49/52/31 
f 32/34/32 33/35/33 51/54/33 50/53/32 
f 33/35/33 34/36/34 52/55/34 51/54/33 
f 34/36/34 35/37/35 53/56/35 52/55/34 
f 35/37/35 36/38/36 54/57/36 53/56/35 
f 36/38/36 37/39/37 55/58/37 54/57/36 
f 37/39/37 21/22/21 39/41/21 55/58/37 
f 39/41/21 38/40/20 56/59/20 57/60/21 
f 38/40/20 40/42/22 58/61/22 56/59/20 
f 40/42/22 41/43/23 59/62/23 58/61/22 
f 41/43/23 42/44/24 60/63/24 59/62/23 
f 42/46/24 43/45/25 61/64/25 60/65/24 
f 43/45/25 44/47/26 62/66/26 61/64/25 
f 44/47/26 45/48/27 63/67/27 62/66/26 
f 45/48/27 46/49/28 64/68/28 63/67/27 
f 46/49/28 47/50/29 65/69/29 64/68/28 
f 47/50/29 48/51/30 66/70/30 65/69/29 
f 48/51/30 49/52/31 67/71/31 66/70/30 
f 49/52/31 50/53/32 68/72/32 67/71/31 
f 50/53/32 51/54/33 69/73/33 68/72/32 
f 51/54/33 52/55/34 70/74/34 69/73/33 
f 52/55/34 53/56/35 71/75/35 70/74/34 
f 53/56/35 54/57/36 72/76/36 71/75/35 
f 54/57/36 55/58/37 73/77/37 72/76/36 
f 55/58/37 39/41/21 57/60/21 73/77/37 
f 57/60/21 56/59/20 74/78/20 75/79/21 
f 56/59/20 58/61/22 76/80/22 74/78/20 
f 58/61/22 59/62/23 77/81/23 76/80/22 
f 59/62/23 60/63/24 78/82/24 77/81/23 
f 60/65/24 61/64/25 79/83/25 78/84/24 
f 61/64/25 62/66/26 80/85/26 79/83/25 
f 62/66/26 63/67/27 81/86/27 80/85/26 
f 63/67/27 64/68/28 82/87/28 81/86/27 
f 64/68/28 65/69/29 83/88/29 82/87/28 
f 65/69/29 66/70/30 84/89/30 83/88/29 
f 66/70/30 67/71/31 85/90/31 84/89/30 
f 67/71/31 68/72/32 86/91/32 85/90/31 
f 68/72/32 69/73/33 87/92/33 86/91/32 
f 69/73/33 70/74/34 88/93/34 87/92/33 
f 70/74/34 71/75/35 89/94/35 88/93/34 
f 71/75/35 72/76/36 90/95/36 89/94/35 
f 72/76/36 73/77/37 91/96/37 90/95/36 
f 73/77/37 57/60/21 75/79/21 91/96/37 
f 75/79/21 74/78/20 92/97/38 93/98/39 
f 74/78/20 76/80/22 94/99/40 92/97/38 
f 76/80/22 77/81/23 95/100/41 94/99/40 
f 77/81/23 78/82/24 96/101/42 95/100/41 
f 78/84/24 79/83/25 97/102/43 96/103/42 
f 79/83/25 80/85/26 98/104/44 97/102/43 
f 80/85/26 81/86/27 99/105/45 98/104/44 
f 81/86/27 82/87/28 100/106/46 99/105/45 
f 82/87/28 83/88/29 101/107/47 100/106/46 
f 83/88/29 84/89/30 102/108/48 101/107/47 
f 84/89/30 85/90/31 103/109/49 102/108/48 
f 85/90/31 86/91/32 104/110/50 103/109/49 
f 86/91/32 87/92/33 105/111/51 104/110/50 
f 87/92/33 88/93/34 106/112/52 105/111/51 
f 88/93/34 89/94/35 107/113/53 106/112/52 
f 89/94/35 90/95/36 108/114/54 107/113/53 
f 90/95/36 91/96/37 109/115/55 108/114/54 
f 91/96/37 75/79/21 93/98/39 109/115/55 
s 1
f 110/116/56 109/115/55 93/98/39 92/97/38 
f 110/116/56 92/97/38 94/99/40 95/100/41 
f 110/116/56 95/117/41 96/103/42 97/102/43 
f 110/116/56 97/102/43 98/104/44 99/105/45 
f 110/116/56 99/105/45 100/106/46 101/107/47 
f 110/116/56 101/107/47 102/108/48 103/109/49 
f 110/116/56 103/109/49 104/110/50 105/111/51 
f 110/116/56 105/111/51 106/112/52 107/113/53 
f 110/116/56 107/113/53 108/114/54 109/115/55 
# 108 polygons

#
# object Cylinder002
#

v  0.0000 53.7405 -0.0000
v  1.6307 53.7405 -1.3705
v  2.0003 53.7405 -0.7292
v  2.1287 53.7405 -0.0000
v  0.3696 53.7405 -2.0997
v  1.0643 53.7405 -1.8464
v  -1.0643 53.7405 -1.8464
v  -0.3696 53.7405 -2.0997
v  -2.0003 53.7405 -0.7292
v  -1.6307 53.7405 -1.3705
v  -2.0003 53.7405 0.7292
v  -2.1287 53.7405 -0.0000
v  -1.0643 53.7405 1.8464
v  -1.6307 53.7405 1.3705
v  0.3696 53.7405 2.0997
v  -0.3696 53.7405 2.0997
v  1.6307 53.7405 1.3705
v  1.0643 53.7405 1.8464
v  2.0003 53.7405 0.7292
v  2.0003 55.7403 -0.7292
v  2.1287 55.7403 -0.0000
v  1.6307 55.7403 -1.3705
v  1.0643 55.7403 -1.8464
v  0.3696 55.7403 -2.0997
v  -0.3696 55.7403 -2.0997
v  -1.0643 55.7403 -1.8464
v  -1.6307 55.7403 -1.3705
v  -2.0003 55.7403 -0.7292
v  -2.1287 55.7403 -0.0000
v  -2.0003 55.7403 0.7292
v  -1.6307 55.7403 1.3705
v  -1.0643 55.7403 1.8464
v  -0.3696 55.7403 2.0997
v  0.3696 55.7403 2.0997
v  1.0643 55.7403 1.8464
v  1.6307 55.7403 1.3705
v  2.0003 55.7403 0.7292
v  2.0003 57.7401 -0.7292
v  2.1287 57.7401 -0.0000
v  1.6307 57.7401 -1.3705
v  1.0643 57.7401 -1.8464
v  0.3696 57.7401 -2.0997
v  -0.3696 57.7401 -2.0997
v  -1.0643 57.7401 -1.8464
v  -1.6307 57.7401 -1.3705
v  -2.0003 57.7401 -0.7292
v  -2.1287 57.7401 -0.0000
v  -2.0003 57.7401 0.7292
v  -1.6307 57.7401 1.3705
v  -1.0643 57.7401 1.8464
v  -0.3696 57.7401 2.0997
v  0.3696 57.7401 2.0997
v  1.0643 57.7401 1.8464
v  1.6307 57.7401 1.3705
v  2.0003 57.7401 0.7292
v  2.0003 59.7399 -0.7292
v  2.1287 59.7399 -0.0000
v  1.6307 59.7399 -1.3705
v  1.0643 59.7399 -1.8464
v  0.3696 59.7399 -2.0997
v  -0.3696 59.7399 -2.0997
v  -1.0643 59.7399 -1.8464
v  -1.6307 59.7399 -1.3705
v  -2.0003 59.7399 -0.7292
v  -2.1287 59.7399 -0.0000
v  -2.0003 59.7399 0.7292
v  -1.6307 59.7399 1.3705
v  -1.0643 59.7399 1.8464
v  -0.3696 59.7399 2.0997
v  0.3696 59.7399 2.0997
v  1.0643 59.7399 1.8464
v  1.6307 59.7399 1.3705
v  2.0003 59.7399 0.7292
v  2.0003 61.7397 -0.7292
v  2.1287 61.7397 -0.0000
v  1.6307 61.7397 -1.3705
v  1.0643 61.7397 -1.8464
v  0.3696 61.7397 -2.0997
v  -0.3696 61.7397 -2.0997
v  -1.0643 61.7397 -1.8464
v  -1.6307 61.7397 -1.3705
v  -2.0003 61.7397 -0.7292
v  -2.1287 61.7397 -0.0000
v  -2.0003 61.7397 0.7292
v  -1.6307 61.7397 1.3705
v  -1.0643 61.7397 1.8464
v  -0.3696 61.7397 2.0997
v  0.3696 61.7397 2.0997
v  1.0643 61.7397 1.8464
v  1.6307 61.7397 1.3705
v  2.0003 61.7397 0.7292
v  2.0003 63.7395 -0.7292
v  2.1287 63.7395 -0.0000
v  1.6307 63.7395 -1.3705
v  1.0643 63.7395 -1.8464
v  0.3696 63.7395 -2.0997
v  -0.3696 63.7395 -2.0997
v  -1.0643 63.7395 -1.8464
v  -1.6307 63.7395 -1.3705
v  -2.0003 63.7395 -0.7292
v  -2.1287 63.7395 -0.0000
v  -2.0003 63.7395 0.7292
v  -1.6307 63.7395 1.3705
v  -1.0643 63.7395 1.8464
v  -0.3696 63.7395 2.0997
v  0.3696 63.7395 2.0997
v  1.0643 63.7395 1.8464
v  1.6307 63.7395 1.3705
v  2.0003 63.7395 0.7292
v  0.0000 63.7395 -0.0000
# 110 vertices

vn 0.0000 -1.0000 -0.0000
vn 0.5687 -0.6700 -0.4772
vn 0.6975 -0.6701 -0.2539
vn 0.7423 -0.6701 0.0000
vn 0.1289 -0.6700 -0.7311
vn 0.3712 -0.6700 -0.6429
vn -0.3712 -0.6700 -0.6429
vn -0.1289 -0.6700 -0.7311
vn -0.6975 -0.6701 -0.2539
vn -0.5687 -0.6700 -0.4772
vn -0.6976 -0.6700 0.2539
vn -0.7423 -0.6701 0.0000
vn -0.3712 -0.6700 0.6429
vn -0.5687 -0.6700 0.4772
vn 0.1289 -0.6700 0.7311
vn -0.1289 -0.6700 0.7311
vn 0.5687 -0.6700 0.4772
vn 0.3712 -0.6700 0.6429
vn 0.6975 -0.6701 0.2539
vn 0.9397 0.0000 -0.3420
vn 1.0000 0.0000 0.0000
vn 0.7660 0.0000 -0.6428
vn 0.5000 0.0000 -0.8660
vn 0.1736 0.0000 -0.9848
vn -0.1736 0.0000 -0.9848
vn -0.5000 0.0000 -0.8660
vn -0.7660 0.0000 -0.6428
vn -0.9397 0.0000 -0.3420
vn -1.0000 0.0000 0.0000
vn -0.9397 0.0000 0.3420
vn -0.7660 0.0000 0.6428
vn -0.5000 0.0000 0.8660
vn -0.1736 0.0000 0.9848
vn 0.1736 0.0000 0.9848
vn 0.5000 0.0000 0.8660
vn 0.7660 0.0000 0.6428
vn 0.9397 0.0000 0.3420
vn 0.6975 0.6701 -0.2539
vn 0.7423 0.6701 0.0000
vn 0.5687 0.6700 -0.4772
vn 0.3712 0.6700 -0.6429
vn 0.1289 0.6700 -0.7311
vn -0.1289 0.6700 -0.7311
vn -0.3712 0.6700 -0.6429
vn -0.5687 0.6700 -0.4772
vn -0.6975 0.6701 -0.2539
vn -0.7423 0.6701 0.0000
vn -0.6976 0.6700 0.2539
vn -0.5687 0.6700 0.4772
vn -0.3712 0.6700 0.6429
vn -0.1289 0.6700 0.7311
vn 0.1289 0.6700 0.7311
vn 0.3712 0.6700 0.6429
vn 0.5687 0.6700 0.4772
vn 0.6975 0.6701 0.2539
vn 0.0000 1.0000 -0.0000
# 56 vertex normals

vt 0.5000 0.0000 0.0000
vt 0.8611 0.0000 1.0000
vt 0.8056 0.0000 1.0000
vt 0.7500 0.0000 1.0000
vt 0.9722 0.0000 1.0000
vt 0.9167 0.0000 1.0000
vt 0.0833 0.0000 1.0000
vt 0.0278 0.0000 1.0000
vt -0.0278 0.0000 1.0000
vt 0.1944 0.0000 1.0000
vt 0.1389 0.0000 1.0000
vt 0.3056 0.0000 1.0000
vt 0.2500 0.0000 1.0000
vt 0.4167 0.0000 1.0000
vt 0.3611 0.0000 1.0000
vt 0.5278 0.0000 1.0000
vt 0.4722 0.0000 1.0000
vt 0.6389 0.0000 1.0000
vt 0.5833 0.0000 1.0000
vt 0.6944 0.0000 1.0000
vt 0.8056 0.2000 1.0000
vt 0.7500 0.2000 1.0000
vt 0.8611 0.2000 1.0000
vt 0.9167 0.2000 1.0000
vt 0.9722 0.2000 1.0000
vt 0.0278 0.2000 1.0000
vt -0.0278 0.2000 1.0000
vt 0.0833 0.2000 1.0000
vt 0.1389 0.2000 1.0000
vt 0.1944 0.2000 1.0000
vt 0.2500 0.2000 1.0000
vt 0.3056 0.2000 1.0000
vt 0.3611 0.2000 1.0000
vt 0.4167 0.2000 1.0000
vt 0.4722 0.2000 1.0000
vt 0.5278 0.2000 1.0000
vt 0.5833 0.2000 1.0000
vt 0.6389 0.2000 1.0000
vt 0.6944 0.2000 1.0000
vt 0.8056 0.4000 1.0000
vt 0.7500 0.4000 1.0000
vt 0.8611 0.4000 1.0000
vt 0.9167 0.4000 1.0000
vt 0.9722 0.4000 1.0000
vt 0.0278 0.4000 1.0000
vt -0.0278 0.4000 1.0000
vt 0.0833 0.4000 1.0000
vt 0.1389 0.4000 1.0000
vt 0.1944 0.4000 1.0000
vt 0.2500 0.4000 1.0000
vt 0.3056 0.4000 1.0000
vt 0.3611 0.4000 1.0000
vt 0.4167 0.4000 1.0000
vt 0.4722 0.4000 1.0000
vt 0.5278 0.4000 1.0000
vt 0.5833 0.4000 1.0000
vt 0.6389 0.4000 1.0000
vt 0.6944 0.4000 1.0000
vt 0.8056 0.6000 1.0000
vt 0.7500 0.6000 1.0000
vt 0.8611 0.6000 1.0000
vt 0.9167 0.6000 1.0000
vt 0.9722 0.6000 1.0000
vt 0.0278 0.6000 1.0000
vt -0.0278 0.6000 1.0000
vt 0.0833 0.6000 1.0000
vt 0.1389 0.6000 1.0000
vt 0.1944 0.6000 1.0000
vt 0.2500 0.6000 1.0000
vt 0.3056 0.6000 1.0000
vt 0.3611 0.6000 1.0000
vt 0.4167 0.6000 1.0000
vt 0.4722 0.6000 1.0000
vt 0.5278 0.6000 1.0000
vt 0.5833 0.6000 1.0000
vt 0.6389 0.6000 1.0000
vt 0.6944 0.6000 1.0000
vt 0.8056 0.8000 1.0000
vt 0.7500 0.8000 1.0000
vt 0.8611 0.8000 1.0000
vt 0.9167 0.8000 1.0000
vt 0.9722 0.8000 1.0000
vt 0.0278 0.8000 1.0000
vt -0.0278 0.8000 1.0000
vt 0.0833 0.8000 1.0000
vt 0.1389 0.8000 1.0000
vt 0.1944 0.8000 1.0000
vt 0.2500 0.8000 1.0000
vt 0.3056 0.8000 1.0000
vt 0.3611 0.8000 1.0000
vt 0.4167 0.8000 1.0000
vt 0.4722 0.8000 1.0000
vt 0.5278 0.8000 1.0000
vt 0.5833 0.8000 1.0000
vt 0.6389 0.8000 1.0000
vt 0.6944 0.8000 1.0000
vt 0.8056 1.0000 1.0000
vt 0.7500 1.0000 1.0000
vt 0.8611 1.0000 1.0000
vt 0.9167 1.0000 1.0000
vt 0.9722 1.0000 1.0000
vt 0.0278 1.0000 1.0000
vt -0.0278 1.0000 1.0000
vt 0.0833 1.0000 1.0000
vt 0.1389 1.0000 1.0000
vt 0.1944 1.0000 1.0000
vt 0.2500 1.0000 1.0000
vt 0.3056 1.0000 1.0000
vt 0.3611 1.0000 1.0000
vt 0.4167 1.0000 1.0000
vt 0.4722 1.0000 1.0000
vt 0.5278 1.0000 1.0000
vt 0.5833 1.0000 1.0000
vt 0.6389 1.0000 1.0000
vt 0.6944 1.0000 1.0000
vt 0.5000 1.0000 0.0000
vt -0.0197 1.0000 0.8794
# 117 texture coords

o Cylinder002
g Cylinder002
usemtl wire_211209008
s 1
f 111/118/57 112/119/58 113/120/59 114/121/60 
f 111/118/57 115/122/61 116/123/62 112/119/58 
f 111/118/57 117/124/63 118/125/64 115/126/61 
f 111/118/57 119/127/65 120/128/66 117/124/63 
f 111/118/57 121/129/67 122/130/68 119/127/65 
f 111/118/57 123/131/69 124/132/70 121/129/67 
f 111/118/57 125/133/71 126/134/72 123/131/69 
f 111/118/57 127/135/73 128/136/74 125/133/71 
f 111/118/57 114/121/60 129/137/75 127/135/73 
s 8
f 114/121/60 113/120/59 130/138/76 131/139/77 
f 113/120/59 112/119/58 132/140/78 130/138/76 
f 112/119/58 116/123/62 133/141/79 132/140/78 
f 116/123/62 115/122/61 134/142/80 133/141/79 
f 115/126/61 118/125/64 135/143/81 134/144/80 
f 118/125/64 117/124/63 136/145/82 135/143/81 
f 117/124/63 120/128/66 137/146/83 136/145/82 
f 120/128/66 119/127/65 138/147/84 137/146/83 
f 119/127/65 122/130/68 139/148/85 138/147/84 
f 122/130/68 121/129/67 140/149/86 139/148/85 
f 121/129/67 124/132/70 141/150/87 140/149/86 
f 124/132/70 123/131/69 142/151/88 141/150/87 
f 123/131/69 126/134/72 143/152/89 142/151/88 
f 126/134/72 125/133/71 144/153/90 143/152/89 
f 125/133/71 128/136/74 145/154/91 144/153/90 
f 128/136/74 127/135/73 146/155/92 145/154/91 
f 127/135/73 129/137/75 147/156/93 146/155/92 
f 129/137/75 114/121/60 131/139/77 147/156/93 
f 131/139/77 130/138/76 148/157/76 149/158/77 
f 130/138/76 132/140/78 150/159/78 148/157/76 
f 132/140/78 133/141/79 151/160/79 150/159/78 
f 133/141/79 134/142/80 152/161/80 151/160/79 
f 134/144/80 135/143/81 153/162/81 152/163/80 
f 135/143/81 136/145/82 154/164/82 153/162/81 
f 136/145/82 137/146/83 155/165/83 154/164/82 
f 137/146/83 138/147/84 156/166/84 155/165/83 
f 138/147/84 139/148/85 157/167/85 156/166/84 
f 139/148/85 140/149/86 158/168/86 157/167/85 
f 140/149/86 141/150/87 159/169/87 158/168/86 
f 141/150/87 142/151/88 160/170/88 159/169/87 
f 142/151/88 143/152/89 161/171/89 160/170/88 
f 143/152/89 144/153/90 162/172/90 161/171/89 
f 144/153/90 145/154/91 163/173/91 162/172/90 
f 145/154/91 146/155/92 164/174/92 163/173/91 
f 146/155/92 147/156/93 165/175/93 164/174/92 
f 147/156/93 131/139/77 149/158/77 165/175/93 
f 149/158/77 148/157/76 166/176/76 167/177/77 
f 148/157/76 150/159/78 168/178/78 166/176/76 
f 150/159/78 151/160/79 169/179/79 168/178/78 
f 151/160/79 152/161/80 170/180/80 169/179/79 
f 152/163/80 153/162/81 171/181/81 170/182/80 
f 153/162/81 154/164/82 172/183/82 171/181/81 
f 154/164/82 155/165/83 173/184/83 172/183/82 
f 155/165/83 156/166/84 174/185/84 173/184/83 
f 156/166/84 157/167/85 175/186/85 174/185/84 
f 157/167/85 158/168/86 176/187/86 175/186/85 
f 158/168/86 159/169/87 177/188/87 176/187/86 
f 159/169/87 160/170/88 178/189/88 177/188/87 
f 160/170/88 161/171/89 179/190/89 178/189/88 
f 161/171/89 162/172/90 180/191/90 179/190/89 
f 162/172/90 163/173/91 181/192/91 180/191/90 
f 163/173/91 164/174/92 182/193/92 181/192/91 
f 164/174/92 165/175/93 183/194/93 182/193/92 
f 165/175/93 149/158/77 167/177/77 183/194/93 
f 167/177/77 166/176/76 184/195/76 185/196/77 
f 166/176/76 168/178/78 186/197/78 184/195/76 
f 168/178/78 169/179/79 187/198/79 186/197/78 
f 169/179/79 170/180/80 188/199/80 187/198/79 
f 170/182/80 171/181/81 189/200/81 188/201/80 
f 171/181/81 172/183/82 190/202/82 189/200/81 
f 172/183/82 173/184/83 191/203/83 190/202/82 
f 173/184/83 174/185/84 192/204/84 191/203/83 
f 174/185/84 175/186/85 193/205/85 192/204/84 
f 175/186/85 176/187/86 194/206/86 193/205/85 
f 176/187/86 177/188/87 195/207/87 194/206/86 
f 177/188/87 178/189/88 196/208/88 195/207/87 
f 178/189/88 179/190/89 197/209/89 196/208/88 
f 179/190/89 180/191/90 198/210/90 197/209/89 
f 180/191/90 181/192/91 199/211/91 198/210/90 
f 181/192/91 182/193/92 200/212/92 199/211/91 
f 182/193/92 183/194/93 201/213/93 200/212/92 
f 183/194/93 167/177/77 185/196/77 201/213/93 
f 185/196/77 184/195/76 202/214/94 203/215/95 
f 184/195/76 186/197/78 204/216/96 202/214/94 
f 186/197/78 187/198/79 205/217/97 204/216/96 
f 187/198/79 188/199/80 206/218/98 205/217/97 
f 188/201/80 189/200/81 207/219/99 206/220/98 
f 189/200/81 190/202/82 208/221/100 207/219/99 
f 190/202/82 191/203/83 209/222/101 208/221/100 
f 191/203/83 192/204/84 210/223/102 209/222/101 
f 192/204/84 193/205/85 211/224/103 210/223/102 
f 193/205/85 194/206/86 212/225/104 211/224/103 
f 194/206/86 195/207/87 213/226/105 212/225/104 
f 195/207/87 196/208/88 214/227/106 213/226/105 
f 196/208/88 197/209/89 215/228/107 214/227/106 
f 197/209/89 198/210/90 216/229/108 215/228/107 
f 198/210/90 199/211/91 217/230/109 216/229/108 
f 199/211/91 200/212/92 218/231/110 217/230/109 
f 200/212/92 201/213/93 219/232/111 218/231/110 
f 201/213/93 185/196/77 203/215/95 219/232/111 
s 1
f 220/233/112 219/232/111 203/215/95 202/214/94 
f 220/233/112 202/214/94 204/216/96 205/217/97 
f 220/233/112 205/234/97 206/220/98 207/219/99 
f 220/233/112 207/219/99 208/221/100 209/222/101 
f 220/233/112 209/222/101 210/223/102 211/224/103 
f 220/233/112 211/224/103 212/225/104 213/226/105 
f 220/233/112 213/226/105 214/227/106 215/228/107 
f 220/233/112 215/228/107 216/229/108 217/230/109 
f 220/233/112 217/230/109 218/231/110 219/232/111 
# 108 polygons

#
# object Cylinder003
#

v  -0.2015 58.3701 5.9853
v  1.4108 57.4218 5.0205
v  1.7762 57.8655 5.4719
v  1.9032 58.3701 5.9853
v  0.1640 56.9173 4.5071
v  0.8508 57.0925 4.6854
v  -1.2538 57.0925 4.6854
v  -0.5669 56.9173 4.5071
v  -2.1792 57.8655 5.4719
v  -1.8137 57.4218 5.0205
v  -2.1792 58.8746 6.4987
v  -2.3061 58.3701 5.9853
v  -1.2538 59.6477 7.2853
v  -1.8137 59.3184 6.9502
v  0.1640 59.8229 7.4636
v  -0.5669 59.8229 7.4636
v  1.4108 59.3184 6.9502
v  0.8508 59.6477 7.2853
v  1.7762 58.8747 6.4987
v  1.7762 60.3781 3.0026
v  1.9032 60.8826 3.5160
v  1.4108 59.9344 2.5511
v  0.8508 59.6050 2.2160
v  0.1640 59.4298 2.0377
v  -0.5669 59.4298 2.0377
v  -1.2538 59.6050 2.2160
v  -1.8137 59.9344 2.5511
v  -2.1792 60.3781 3.0026
v  -2.3061 60.8826 3.5160
v  -2.1792 61.3872 4.0294
v  -1.8137 61.8309 4.4809
v  -1.2538 62.1602 4.8159
v  -0.5669 62.3355 4.9942
v  0.1640 62.3355 4.9942
v  0.8508 62.1602 4.8159
v  1.4108 61.8309 4.4809
v  1.7762 61.3872 4.0294
v  1.7762 62.8906 0.5333
v  1.9032 63.3952 1.0467
v  1.4108 62.4469 0.0818
v  0.8508 62.1176 -0.2533
v  0.1640 61.9424 -0.4316
v  -0.5669 61.9424 -0.4316
v  -1.2538 62.1176 -0.2533
v  -1.8137 62.4469 0.0818
v  -2.1792 62.8906 0.5333
v  -2.3061 63.3952 1.0467
v  -2.1792 63.8998 1.5601
v  -1.8137 64.3435 2.0115
v  -1.2538 64.6728 2.3466
v  -0.5669 64.8480 2.5249
v  0.1640 64.8480 2.5249
v  0.8508 64.6728 2.3466
v  1.4108 64.3435 2.0115
v  1.7762 63.8998 1.5601
v  1.7762 65.4032 -1.9361
v  1.9032 65.9077 -1.4227
v  1.4108 64.9595 -2.3875
v  0.8508 64.6302 -2.7226
v  0.1640 64.4549 -2.9009
v  -0.5669 64.4549 -2.9009
v  -1.2538 64.6302 -2.7226
v  -1.8137 64.9595 -2.3875
v  -2.1792 65.4032 -1.9361
v  -2.3061 65.9077 -1.4227
v  -2.1792 66.4123 -0.9093
v  -1.8137 66.8560 -0.4578
v  -1.2538 67.1853 -0.1227
v  -0.5669 67.3606 0.0556
v  0.1640 67.3606 0.0556
v  0.8508 67.1853 -0.1227
v  1.4108 66.8560 -0.4578
v  1.7762 66.4123 -0.9093
v  1.7762 67.9157 -4.4054
v  1.9032 68.4203 -3.8920
v  1.4108 67.4720 -4.8569
v  0.8508 67.1427 -5.1920
v  0.1640 66.9675 -5.3703
v  -0.5669 66.9675 -5.3703
v  -1.2538 67.1427 -5.1920
v  -1.8137 67.4720 -4.8569
v  -2.1792 67.9157 -4.4054
v  -2.3061 68.4203 -3.8920
v  -2.1792 68.9249 -3.3786
v  -1.8137 69.3686 -2.9271
v  -1.2538 69.6979 -2.5920
v  -0.5669 69.8731 -2.4137
v  0.1640 69.8731 -2.4137
v  0.8508 69.6979 -2.5920
v  1.4108 69.3686 -2.9271
v  1.7762 68.9249 -3.3786
v  1.7762 70.4283 -6.8747
v  1.9032 70.9329 -6.3613
v  1.4108 69.9846 -7.3262
v  0.8508 69.6553 -7.6613
v  0.1640 69.4800 -7.8396
v  -0.5669 69.4800 -7.8396
v  -1.2538 69.6553 -7.6613
v  -1.8137 69.9846 -7.3262
v  -2.1792 70.4283 -6.8747
v  -2.3061 70.9329 -6.3613
v  -2.1792 71.4374 -5.8479
v  -1.8137 71.8811 -5.3965
v  -1.2538 72.2104 -5.0614
v  -0.5669 72.3857 -4.8831
v  0.1640 72.3857 -4.8831
v  0.8508 72.2104 -5.0614
v  1.4108 71.8811 -5.3965
v  1.7762 71.4374 -5.8479
v  -0.2015 70.9329 -6.3613
# 110 vertices

vn 0.0000 -0.7132 0.7009
vn 0.5687 -0.8123 0.1293
vn 0.6975 -0.6559 0.2886
vn 0.7424 -0.4779 0.4696
vn 0.1289 -0.9903 -0.0517
vn 0.3712 -0.9285 0.0111
vn -0.3712 -0.9285 0.0111
vn -0.1289 -0.9903 -0.0517
vn -0.6976 -0.6558 0.2886
vn -0.5686 -0.8123 0.1294
vn -0.6976 -0.2999 0.6507
vn -0.7423 -0.4779 0.4697
vn -0.3712 -0.0273 0.9282
vn -0.5687 -0.1434 0.8100
vn 0.1289 0.0346 0.9911
vn -0.1289 0.0346 0.9911
vn 0.5687 -0.1434 0.8100
vn 0.3712 -0.0273 0.9282
vn 0.6976 -0.2999 0.6507
vn 0.9397 -0.2397 -0.2439
vn 1.0000 0.0000 0.0000
vn 0.7660 -0.4506 -0.4584
vn 0.5000 -0.6070 -0.6177
vn 0.1736 -0.6903 -0.7024
vn -0.1736 -0.6903 -0.7024
vn -0.5000 -0.6070 -0.6177
vn -0.7660 -0.4506 -0.4584
vn -0.9397 -0.2397 -0.2439
vn -1.0000 -0.0000 -0.0000
vn -0.9397 0.2397 0.2439
vn -0.7660 0.4506 0.4584
vn -0.5000 0.6070 0.6177
vn -0.1736 0.6903 0.7024
vn 0.1736 0.6903 0.7024
vn 0.5000 0.6070 0.6177
vn 0.7660 0.4506 0.4585
vn 0.9397 0.2397 0.2439
vn 0.9397 -0.2398 -0.2439
vn -0.7661 -0.4505 -0.4584
vn 0.7660 0.4506 0.4584
vn 0.6975 0.2999 -0.6508
vn 0.7423 0.4779 -0.4697
vn 0.5687 0.1434 -0.8100
vn 0.3712 0.0273 -0.9282
vn 0.1289 -0.0345 -0.9911
vn -0.1289 -0.0346 -0.9911
vn -0.3711 0.0273 -0.9282
vn -0.5686 0.1435 -0.8100
vn -0.6976 0.2999 -0.6507
vn -0.7423 0.4779 -0.4697
vn -0.6976 0.6558 -0.2886
vn -0.5687 0.8123 -0.1293
vn -0.3712 0.9285 -0.0111
vn -0.1289 0.9903 0.0517
vn 0.1289 0.9903 0.0517
vn 0.3712 0.9285 -0.0111
vn 0.5687 0.8123 -0.1293
vn 0.6976 0.6558 -0.2886
vn 0.0000 0.7132 -0.7009
# 59 vertex normals

vt 0.5000 0.0000 0.0000
vt 0.8611 0.0000 1.0000
vt 0.8056 0.0000 1.0000
vt 0.7500 0.0000 1.0000
vt 0.9722 0.0000 1.0000
vt 0.9167 0.0000 1.0000
vt 0.0833 0.0000 1.0000
vt 0.0278 0.0000 1.0000
vt -0.0278 0.0000 1.0000
vt 0.1944 0.0000 1.0000
vt 0.1389 0.0000 1.0000
vt 0.3056 0.0000 1.0000
vt 0.2500 0.0000 1.0000
vt 0.4167 0.0000 1.0000
vt 0.3611 0.0000 1.0000
vt 0.5278 0.0000 1.0000
vt 0.4722 0.0000 1.0000
vt 0.6389 0.0000 1.0000
vt 0.5833 0.0000 1.0000
vt 0.6944 0.0000 1.0000
vt 0.8056 0.2000 1.0000
vt 0.7500 0.2000 1.0000
vt 0.8611 0.2000 1.0000
vt 0.9167 0.2000 1.0000
vt 0.9722 0.2000 1.0000
vt 0.0278 0.2000 1.0000
vt -0.0278 0.2000 1.0000
vt 0.0833 0.2000 1.0000
vt 0.1389 0.2000 1.0000
vt 0.1944 0.2000 1.0000
vt 0.2500 0.2000 1.0000
vt 0.3056 0.2000 1.0000
vt 0.3611 0.2000 1.0000
vt 0.4167 0.2000 1.0000
vt 0.4722 0.2000 1.0000
vt 0.5278 0.2000 1.0000
vt 0.5833 0.2000 1.0000
vt 0.6389 0.2000 1.0000
vt 0.6944 0.2000 1.0000
vt 0.8056 0.4000 1.0000
vt 0.7500 0.4000 1.0000
vt 0.8611 0.4000 1.0000
vt 0.9167 0.4000 1.0000
vt 0.9722 0.4000 1.0000
vt 0.0278 0.4000 1.0000
vt -0.0278 0.4000 1.0000
vt 0.0833 0.4000 1.0000
vt 0.1389 0.4000 1.0000
vt 0.1944 0.4000 1.0000
vt 0.2500 0.4000 1.0000
vt 0.3056 0.4000 1.0000
vt 0.3611 0.4000 1.0000
vt 0.4167 0.4000 1.0000
vt 0.4722 0.4000 1.0000
vt 0.5278 0.4000 1.0000
vt 0.5833 0.4000 1.0000
vt 0.6389 0.4000 1.0000
vt 0.6944 0.4000 1.0000
vt 0.8056 0.6000 1.0000
vt 0.7500 0.6000 1.0000
vt 0.8611 0.6000 1.0000
vt 0.9167 0.6000 1.0000
vt 0.9722 0.6000 1.0000
vt 0.0278 0.6000 1.0000
vt -0.0278 0.6000 1.0000
vt 0.0833 0.6000 1.0000
vt 0.1389 0.6000 1.0000
vt 0.1944 0.6000 1.0000
vt 0.2500 0.6000 1.0000
vt 0.3056 0.6000 1.0000
vt 0.3611 0.6000 1.0000
vt 0.4167 0.6000 1.0000
vt 0.4722 0.6000 1.0000
vt 0.5278 0.6000 1.0000
vt 0.5833 0.6000 1.0000
vt 0.6389 0.6000 1.0000
vt 0.6944 0.6000 1.0000
vt 0.8056 0.8000 1.0000
vt 0.7500 0.8000 1.0000
vt 0.8611 0.8000 1.0000
vt 0.9167 0.8000 1.0000
vt 0.9722 0.8000 1.0000
vt 0.0278 0.8000 1.0000
vt -0.0278 0.8000 1.0000
vt 0.0833 0.8000 1.0000
vt 0.1389 0.8000 1.0000
vt 0.1944 0.8000 1.0000
vt 0.2500 0.8000 1.0000
vt 0.3056 0.8000 1.0000
vt 0.3611 0.8000 1.0000
vt 0.4167 0.8000 1.0000
vt 0.4722 0.8000 1.0000
vt 0.5278 0.8000 1.0000
vt 0.5833 0.8000 1.0000
vt 0.6389 0.8000 1.0000
vt 0.6944 0.8000 1.0000
vt 0.8056 1.0000 1.0000
vt 0.7500 1.0000 1.0000
vt 0.8611 1.0000 1.0000
vt 0.9167 1.0000 1.0000
vt 0.9722 1.0000 1.0000
vt 0.0278 1.0000 1.0000
vt -0.0278 1.0000 1.0000
vt 0.0833 1.0000 1.0000
vt 0.1389 1.0000 1.0000
vt 0.1944 1.0000 1.0000
vt 0.2500 1.0000 1.0000
vt 0.3056 1.0000 1.0000
vt 0.3611 1.0000 1.0000
vt 0.4167 1.0000 1.0000
vt 0.4722 1.0000 1.0000
vt 0.5278 1.0000 1.0000
vt 0.5833 1.0000 1.0000
vt 0.6389 1.0000 1.0000
vt 0.6944 1.0000 1.0000
vt 0.5000 1.0000 0.0000
vt 0.9708 1.0000 0.8794
# 117 texture coords

o Cylinder003
g Cylinder003
usemtl wire_211209008
s 1
f 221/235/113 222/236/114 223/237/115 224/238/116 
f 221/235/113 225/239/117 226/240/118 222/236/114 
f 221/235/113 227/241/119 228/242/120 225/243/117 
f 221/235/113 229/244/121 230/245/122 227/241/119 
f 221/235/113 231/246/123 232/247/124 229/244/121 
f 221/235/113 233/248/125 234/249/126 231/246/123 
f 221/235/113 235/250/127 236/251/128 233/248/125 
f 221/235/113 237/252/129 238/253/130 235/250/127 
f 221/235/113 224/238/116 239/254/131 237/252/129 
s 8
f 224/238/116 223/237/115 240/255/132 241/256/133 
f 223/237/115 222/236/114 242/257/134 240/255/132 
f 222/236/114 226/240/118 243/258/135 242/257/134 
f 226/240/118 225/239/117 244/259/136 243/258/135 
f 225/243/117 228/242/120 245/260/137 244/261/136 
f 228/242/120 227/241/119 246/262/138 245/260/137 
f 227/241/119 230/245/122 247/263/139 246/262/138 
f 230/245/122 229/244/121 248/264/140 247/263/139 
f 229/244/121 232/247/124 249/265/141 248/264/140 
f 232/247/124 231/246/123 250/266/142 249/265/141 
f 231/246/123 234/249/126 251/267/143 250/266/142 
f 234/249/126 233/248/125 252/268/144 251/267/143 
f 233/248/125 236/251/128 253/269/145 252/268/144 
f 236/251/128 235/250/127 254/270/146 253/269/145 
f 235/250/127 238/253/130 255/271/147 254/270/146 
f 238/253/130 237/252/129 256/272/148 255/271/147 
f 237/252/129 239/254/131 257/273/149 256/272/148 
f 239/254/131 224/238/116 241/256/133 257/273/149 
f 241/256/133 240/255/132 258/274/150 259/275/133 
f 240/255/132 242/257/134 260/276/134 258/274/150 
f 242/257/134 243/258/135 261/277/135 260/276/134 
f 243/258/135 244/259/136 262/278/136 261/277/135 
f 244/261/136 245/260/137 263/279/137 262/280/136 
f 245/260/137 246/262/138 264/281/138 263/279/137 
f 246/262/138 247/263/139 265/282/139 264/281/138 
f 247/263/139 248/264/140 266/283/140 265/282/139 
f 248/264/140 249/265/141 267/284/141 266/283/140 
f 249/265/141 250/266/142 268/285/142 267/284/141 
f 250/266/142 251/267/143 269/286/143 268/285/142 
f 251/267/143 252/268/144 270/287/144 269/286/143 
f 252/268/144 253/269/145 271/288/145 270/287/144 
f 253/269/145 254/270/146 272/289/146 271/288/145 
f 254/270/146 255/271/147 273/290/147 272/289/146 
f 255/271/147 256/272/148 274/291/148 273/290/147 
f 256/272/148 257/273/149 275/292/149 274/291/148 
f 257/273/149 241/256/133 259/275/133 275/292/149 
f 259/275/133 258/274/150 276/293/132 277/294/133 
f 258/274/150 260/276/134 278/295/134 276/293/132 
f 260/276/134 261/277/135 279/296/135 278/295/134 
f 261/277/135 262/278/136 280/297/136 279/296/135 
f 262/280/136 263/279/137 281/298/137 280/299/136 
f 263/279/137 264/281/138 282/300/138 281/298/137 
f 264/281/138 265/282/139 283/301/139 282/300/138 
f 265/282/139 266/283/140 284/302/140 283/301/139 
f 266/283/140 267/284/141 285/303/141 284/302/140 
f 267/284/141 268/285/142 286/304/142 285/303/141 
f 268/285/142 269/286/143 287/305/143 286/304/142 
f 269/286/143 270/287/144 288/306/144 287/305/143 
f 270/287/144 271/288/145 289/307/145 288/306/144 
f 271/288/145 272/289/146 290/308/146 289/307/145 
f 272/289/146 273/290/147 291/309/147 290/308/146 
f 273/290/147 274/291/148 292/310/148 291/309/147 
f 274/291/148 275/292/149 293/311/149 292/310/148 
f 275/292/149 259/275/133 277/294/133 293/311/149 
f 277/294/133 276/293/132 294/312/150 295/313/133 
f 276/293/132 278/295/134 296/314/134 294/312/150 
f 278/295/134 279/296/135 297/315/135 296/314/134 
f 279/296/135 280/297/136 298/316/136 297/315/135 
f 280/299/136 281/298/137 299/317/137 298/318/136 
f 281/298/137 282/300/138 300/319/138 299/317/137 
f 282/300/138 283/301/139 301/320/151 300/319/138 
f 283/301/139 284/302/140 302/321/140 301/320/151 
f 284/302/140 285/303/141 303/322/141 302/321/140 
f 285/303/141 286/304/142 304/323/142 303/322/141 
f 286/304/142 287/305/143 305/324/143 304/323/142 
f 287/305/143 288/306/144 306/325/144 305/324/143 
f 288/306/144 289/307/145 307/326/145 306/325/144 
f 289/307/145 290/308/146 308/327/146 307/326/145 
f 290/308/146 291/309/147 309/328/147 308/327/146 
f 291/309/147 292/310/148 310/329/152 309/328/147 
f 292/310/148 293/311/149 311/330/149 310/329/152 
f 293/311/149 277/294/133 295/313/133 311/330/149 
f 295/313/133 294/312/150 312/331/153 313/332/154 
f 294/312/150 296/314/134 314/333/155 312/331/153 
f 296/314/134 297/315/135 315/334/156 314/333/155 
f 297/315/135 298/316/136 316/335/157 315/334/156 
f 298/318/136 299/317/137 317/336/158 316/337/157 
f 299/317/137 300/319/138 318/338/159 317/336/158 
f 300/319/138 301/320/151 319/339/160 318/338/159 
f 301/320/151 302/321/140 320/340/161 319/339/160 
f 302/321/140 303/322/141 321/341/162 320/340/161 
f 303/322/141 304/323/142 322/342/163 321/341/162 
f 304/323/142 305/324/143 323/343/164 322/342/163 
f 305/324/143 306/325/144 324/344/165 323/343/164 
f 306/325/144 307/326/145 325/345/166 324/344/165 
f 307/326/145 308/327/146 326/346/167 325/345/166 
f 308/327/146 309/328/147 327/347/168 326/346/167 
f 309/328/147 310/329/152 328/348/169 327/347/168 
f 310/329/152 311/330/149 329/349/170 328/348/169 
f 311/330/149 295/313/133 313/332/154 329/349/170 
s 1
f 330/350/171 329/349/170 313/332/154 312/331/153 
f 330/350/171 312/331/153 314/333/155 315/334/156 
f 330/350/171 315/334/156 316/335/157 317/351/158 
f 330/350/171 317/336/158 318/338/159 319/339/160 
f 330/350/171 319/339/160 320/340/161 321/341/162 
f 330/350/171 321/341/162 322/342/163 323/343/164 
f 330/350/171 323/343/164 324/344/165 325/345/166 
f 330/350/171 325/345/166 326/346/167 327/347/168 
f 330/350/171 327/347/168 328/348/169 329/349/170 
# 108 polygons

#
# object Cylinder004
#

v  -0.2015 58.3533 -6.3983
v  1.4108 59.3307 -7.3336
v  1.7762 58.8733 -6.8960
v  1.9032 58.3533 -6.3983
v  0.1640 59.8507 -7.8313
v  0.8508 59.6701 -7.6585
v  -1.2538 59.6701 -7.6585
v  -0.5669 59.8507 -7.8313
v  -2.1792 58.8733 -6.8960
v  -1.8137 59.3307 -7.3336
v  -2.1792 57.8332 -5.9006
v  -2.3061 58.3533 -6.3983
v  -1.2538 57.0364 -5.1381
v  -1.8137 57.3759 -5.4629
v  0.1640 56.8558 -4.9653
v  -0.5669 56.8558 -4.9653
v  1.4108 57.3759 -5.4629
v  0.8508 57.0364 -5.1381
v  1.7762 57.8332 -5.9006
v  1.7762 61.3090 -4.3508
v  1.9032 60.7889 -3.8531
v  1.4108 61.7663 -4.7884
v  0.8508 62.1058 -5.1133
v  0.1640 62.2864 -5.2861
v  -0.5669 62.2864 -5.2861
v  -1.2538 62.1058 -5.1133
v  -1.8137 61.7663 -4.7884
v  -2.1792 61.3090 -4.3508
v  -2.3061 60.7889 -3.8531
v  -2.1792 60.2689 -3.3554
v  -1.8137 59.8115 -2.9177
v  -1.2538 59.4721 -2.5929
v  -0.5669 59.2915 -2.4201
v  0.1640 59.2915 -2.4201
v  0.8508 59.4721 -2.5929
v  1.4108 59.8115 -2.9177
v  1.7762 60.2689 -3.3554
v  1.7762 63.7447 -1.8056
v  1.9032 63.2246 -1.3079
v  1.4108 64.2020 -2.2432
v  0.8508 64.5415 -2.5681
v  0.1640 64.7221 -2.7409
v  -0.5669 64.7221 -2.7409
v  -1.2538 64.5415 -2.5681
v  -1.8137 64.2020 -2.2432
v  -2.1792 63.7447 -1.8056
v  -2.3061 63.2246 -1.3079
v  -2.1792 62.7046 -0.8102
v  -1.8137 62.2472 -0.3726
v  -1.2538 61.9078 -0.0477
v  -0.5669 61.7272 0.1251
v  0.1640 61.7272 0.1251
v  0.8508 61.9078 -0.0477
v  1.4108 62.2472 -0.3726
v  1.7762 62.7046 -0.8102
v  1.7762 66.1804 0.7396
v  1.9032 65.6603 1.2373
v  1.4108 66.6377 0.3020
v  0.8508 66.9771 -0.0229
v  0.1640 67.1577 -0.1957
v  -0.5669 67.1577 -0.1957
v  -1.2538 66.9771 -0.0229
v  -1.8137 66.6377 0.3020
v  -2.1792 66.1804 0.7396
v  -2.3061 65.6603 1.2373
v  -2.1792 65.1402 1.7350
v  -1.8137 64.6829 2.1726
v  -1.2538 64.3434 2.4975
v  -0.5669 64.1628 2.6703
v  0.1640 64.1628 2.6703
v  0.8508 64.3434 2.4975
v  1.4108 64.6829 2.1726
v  1.7762 65.1402 1.7350
v  1.7762 68.6160 3.2848
v  1.9032 68.0960 3.7825
v  1.4108 69.0734 2.8472
v  0.8508 69.4128 2.5223
v  0.1640 69.5934 2.3495
v  -0.5669 69.5934 2.3495
v  -1.2538 69.4128 2.5223
v  -1.8137 69.0734 2.8472
v  -2.1792 68.6160 3.2848
v  -2.3061 68.0960 3.7825
v  -2.1792 67.5759 4.2802
v  -1.8137 67.1186 4.7178
v  -1.2538 66.7791 5.0427
v  -0.5669 66.5985 5.2155
v  0.1640 66.5985 5.2155
v  0.8508 66.7791 5.0427
v  1.4108 67.1186 4.7178
v  1.7762 67.5759 4.2802
v  1.7762 71.0517 5.8300
v  1.9032 70.5316 6.3277
v  1.4108 71.5090 5.3924
v  0.8508 71.8485 5.0675
v  0.1640 72.0291 4.8947
v  -0.5669 72.0291 4.8947
v  -1.2538 71.8485 5.0675
v  -1.8137 71.5090 5.3924
v  -2.1792 71.0517 5.8300
v  -2.3061 70.5316 6.3277
v  -2.1792 70.0116 6.8254
v  -1.8137 69.5542 7.2630
v  -1.2538 69.2148 7.5879
v  -0.5669 69.0342 7.7607
v  0.1640 69.0342 7.7607
v  0.8508 69.2148 7.5879
v  1.4108 69.5542 7.2630
v  1.7762 70.0116 6.8254
v  -0.2015 70.5316 6.3277
# 110 vertices

vn 0.0000 -0.6914 -0.7225
vn 0.5687 -0.1185 -0.8140
vn 0.6975 -0.2798 -0.6597
vn 0.7424 -0.4632 -0.4841
vn 0.1289 0.0649 -0.9895
vn 0.3712 0.0013 -0.9286
vn -0.3712 0.0013 -0.9286
vn -0.1289 0.0649 -0.9895
vn -0.6976 -0.2798 -0.6596
vn -0.5686 -0.1186 -0.8140
vn -0.6976 -0.6467 -0.3085
vn -0.7423 -0.4633 -0.4841
vn -0.3712 -0.9277 -0.0396
vn -0.5687 -0.8080 -0.1542
vn 0.1289 -0.9914 0.0214
vn -0.1289 -0.9914 0.0214
vn 0.5687 -0.8080 -0.1542
vn 0.3712 -0.9277 -0.0396
vn 0.6976 -0.6467 -0.3085
vn 0.9397 0.2471 -0.2365
vn 1.0000 -0.0000 0.0000
vn 0.7660 0.4644 -0.4444
vn 0.5000 0.6257 -0.5988
vn 0.1736 0.7115 -0.6809
vn -0.1736 0.7115 -0.6809
vn -0.5000 0.6257 -0.5988
vn -0.7660 0.4644 -0.4444
vn -0.9397 0.2471 -0.2365
vn -1.0000 0.0000 -0.0000
vn -0.9397 -0.2471 0.2365
vn -0.7660 -0.4644 0.4444
vn -0.5000 -0.6257 0.5988
vn -0.1736 -0.7115 0.6809
vn 0.1736 -0.7115 0.6809
vn 0.5000 -0.6257 0.5988
vn 0.7660 -0.4644 0.4444
vn 0.9397 -0.2471 0.2365
vn -0.7661 0.4644 -0.4444
vn 0.6975 0.6467 0.3086
vn 0.7423 0.4633 0.4841
vn 0.5687 0.8080 0.1542
vn 0.3712 0.9277 0.0397
vn 0.1289 0.9914 -0.0213
vn -0.1289 0.9914 -0.0214
vn -0.3711 0.9277 0.0396
vn -0.5686 0.8080 0.1542
vn -0.6976 0.6467 0.3085
vn -0.7423 0.4633 0.4841
vn -0.6976 0.2798 0.6596
vn -0.5687 0.1185 0.8140
vn -0.3712 -0.0012 0.9286
vn -0.1289 -0.0649 0.9895
vn 0.1289 -0.0649 0.9895
vn 0.3712 -0.0012 0.9286
vn 0.5687 0.1185 0.8140
vn 0.6976 0.2798 0.6596
vn 0.0000 0.6914 0.7225
# 57 vertex normals

vt 0.5000 0.0000 0.0000
vt 0.8611 0.0000 1.0000
vt 0.8056 0.0000 1.0000
vt 0.7500 0.0000 1.0000
vt 0.9722 0.0000 1.0000
vt 0.9167 0.0000 1.0000
vt 0.0833 0.0000 1.0000
vt 0.0278 0.0000 1.0000
vt -0.0278 0.0000 1.0000
vt 0.1944 0.0000 1.0000
vt 0.1389 0.0000 1.0000
vt 0.3056 0.0000 1.0000
vt 0.2500 0.0000 1.0000
vt 0.4167 0.0000 1.0000
vt 0.3611 0.0000 1.0000
vt 0.5278 0.0000 1.0000
vt 0.4722 0.0000 1.0000
vt 0.6389 0.0000 1.0000
vt 0.5833 0.0000 1.0000
vt 0.6944 0.0000 1.0000
vt 0.8056 0.2000 1.0000
vt 0.7500 0.2000 1.0000
vt 0.8611 0.2000 1.0000
vt 0.9167 0.2000 1.0000
vt 0.9722 0.2000 1.0000
vt 0.0278 0.2000 1.0000
vt -0.0278 0.2000 1.0000
vt 0.0833 0.2000 1.0000
vt 0.1389 0.2000 1.0000
vt 0.1944 0.2000 1.0000
vt 0.2500 0.2000 1.0000
vt 0.3056 0.2000 1.0000
vt 0.3611 0.2000 1.0000
vt 0.4167 0.2000 1.0000
vt 0.4722 0.2000 1.0000
vt 0.5278 0.2000 1.0000
vt 0.5833 0.2000 1.0000
vt 0.6389 0.2000 1.0000
vt 0.6944 0.2000 1.0000
vt 0.8056 0.4000 1.0000
vt 0.7500 0.4000 1.0000
vt 0.8611 0.4000 1.0000
vt 0.9167 0.4000 1.0000
vt 0.9722 0.4000 1.0000
vt 0.0278 0.4000 1.0000
vt -0.0278 0.4000 1.0000
vt 0.0833 0.4000 1.0000
vt 0.1389 0.4000 1.0000
vt 0.1944 0.4000 1.0000
vt 0.2500 0.4000 1.0000
vt 0.3056 0.4000 1.0000
vt 0.3611 0.4000 1.0000
vt 0.4167 0.4000 1.0000
vt 0.4722 0.4000 1.0000
vt 0.5278 0.4000 1.0000
vt 0.5833 0.4000 1.0000
vt 0.6389 0.4000 1.0000
vt 0.6944 0.4000 1.0000
vt 0.8056 0.6000 1.0000
vt 0.7500 0.6000 1.0000
vt 0.8611 0.6000 1.0000
vt 0.9167 0.6000 1.0000
vt 0.9722 0.6000 1.0000
vt 0.0278 0.6000 1.0000
vt -0.0278 0.6000 1.0000
vt 0.0833 0.6000 1.0000
vt 0.1389 0.6000 1.0000
vt 0.1944 0.6000 1.0000
vt 0.2500 0.6000 1.0000
vt 0.3056 0.6000 1.0000
vt 0.3611 0.6000 1.0000
vt 0.4167 0.6000 1.0000
vt 0.4722 0.6000 1.0000
vt 0.5278 0.6000 1.0000
vt 0.5833 0.6000 1.0000
vt 0.6389 0.6000 1.0000
vt 0.6944 0.6000 1.0000
vt 0.8056 0.8000 1.0000
vt 0.7500 0.8000 1.0000
vt 0.8611 0.8000 1.0000
vt 0.9167 0.8000 1.0000
vt 0.9722 0.8000 1.0000
vt 0.0278 0.8000 1.0000
vt -0.0278 0.8000 1.0000
vt 0.0833 0.8000 1.0000
vt 0.1389 0.8000 1.0000
vt 0.1944 0.8000 1.0000
vt 0.2500 0.8000 1.0000
vt 0.3056 0.8000 1.0000
vt 0.3611 0.8000 1.0000
vt 0.4167 0.8000 1.0000
vt 0.4722 0.8000 1.0000
vt 0.5278 0.8000 1.0000
vt 0.5833 0.8000 1.0000
vt 0.6389 0.8000 1.0000
vt 0.6944 0.8000 1.0000
vt 0.8056 1.0000 1.0000
vt 0.7500 1.0000 1.0000
vt 0.8611 1.0000 1.0000
vt 0.9167 1.0000 1.0000
vt 0.9722 1.0000 1.0000
vt 0.0278 1.0000 1.0000
vt -0.0278 1.0000 1.0000
vt 0.0833 1.0000 1.0000
vt 0.1389 1.0000 1.0000
vt 0.1944 1.0000 1.0000
vt 0.2500 1.0000 1.0000
vt 0.3056 1.0000 1.0000
vt 0.3611 1.0000 1.0000
vt 0.4167 1.0000 1.0000
vt 0.4722 1.0000 1.0000
vt 0.5278 1.0000 1.0000
vt 0.5833 1.0000 1.0000
vt 0.6389 1.0000 1.0000
vt 0.6944 1.0000 1.0000
vt 0.5000 1.0000 0.0000
vt 0.9708 1.0000 0.8794
# 117 texture coords

o Cylinder004
g Cylinder004
usemtl wire_211209008
s 1
f 331/352/172 332/353/173 333/354/174 334/355/175 
f 331/352/172 335/356/176 336/357/177 332/353/173 
f 331/352/172 337/358/178 338/359/179 335/360/176 
f 331/352/172 339/361/180 340/362/181 337/358/178 
f 331/352/172 341/363/182 342/364/183 339/361/180 
f 331/352/172 343/365/184 344/366/185 341/363/182 
f 331/352/172 345/367/186 346/368/187 343/365/184 
f 331/352/172 347/369/188 348/370/189 345/367/186 
f 331/352/172 334/355/175 349/371/190 347/369/188 
s 8
f 334/355/175 333/354/174 350/372/191 351/373/192 
f 333/354/174 332/353/173 352/374/193 350/372/191 
f 332/353/173 336/357/177 353/375/194 352/374/193 
f 336/357/177 335/356/176 354/376/195 353/375/194 
f 335/360/176 338/359/179 355/377/196 354/378/195 
f 338/359/179 337/358/178 356/379/197 355/377/196 
f 337/358/178 340/362/181 357/380/198 356/379/197 
f 340/362/181 339/361/180 358/381/199 357/380/198 
f 339/361/180 342/364/183 359/382/200 358/381/199 
f 342/364/183 341/363/182 360/383/201 359/382/200 
f 341/363/182 344/366/185 361/384/202 360/383/201 
f 344/366/185 343/365/184 362/385/203 361/384/202 
f 343/365/184 346/368/187 363/386/204 362/385/203 
f 346/368/187 345/367/186 364/387/205 363/386/204 
f 345/367/186 348/370/189 365/388/206 364/387/205 
f 348/370/189 347/369/188 366/389/207 365/388/206 
f 347/369/188 349/371/190 367/390/208 366/389/207 
f 349/371/190 334/355/175 351/373/192 367/390/208 
f 351/373/192 350/372/191 368/391/191 369/392/192 
f 350/372/191 352/374/193 370/393/193 368/391/191 
f 352/374/193 353/375/194 371/394/194 370/393/193 
f 353/375/194 354/376/195 372/395/195 371/394/194 
f 354/378/195 355/377/196 373/396/196 372/397/195 
f 355/377/196 356/379/197 374/398/197 373/396/196 
f 356/379/197 357/380/198 375/399/198 374/398/197 
f 357/380/198 358/381/199 376/400/199 375/399/198 
f 358/381/199 359/382/200 377/401/200 376/400/199 
f 359/382/200 360/383/201 378/402/201 377/401/200 
f 360/383/201 361/384/202 379/403/202 378/402/201 
f 361/384/202 362/385/203 380/404/203 379/403/202 
f 362/385/203 363/386/204 381/405/204 380/404/203 
f 363/386/204 364/387/205 382/406/205 381/405/204 
f 364/387/205 365/388/206 383/407/206 382/406/205 
f 365/388/206 366/389/207 384/408/207 383/407/206 
f 366/389/207 367/390/208 385/409/208 384/408/207 
f 367/390/208 351/373/192 369/392/192 385/409/208 
f 369/392/192 368/391/191 386/410/191 387/411/192 
f 368/391/191 370/393/193 388/412/193 386/410/191 
f 370/393/193 371/394/194 389/413/194 388/412/193 
f 371/394/194 372/395/195 390/414/195 389/413/194 
f 372/397/195 373/396/196 391/415/196 390/416/195 
f 373/396/196 374/398/197 392/417/197 391/415/196 
f 374/398/197 375/399/198 393/418/198 392/417/197 
f 375/399/198 376/400/199 394/419/199 393/418/198 
f 376/400/199 377/401/200 395/420/200 394/419/199 
f 377/401/200 378/402/201 396/421/201 395/420/200 
f 378/402/201 379/403/202 397/422/202 396/421/201 
f 379/403/202 380/404/203 398/423/203 397/422/202 
f 380/404/203 381/405/204 399/424/204 398/423/203 
f 381/405/204 382/406/205 400/425/205 399/424/204 
f 382/406/205 383/407/206 401/426/206 400/425/205 
f 383/407/206 384/408/207 402/427/207 401/426/206 
f 384/408/207 385/409/208 403/428/208 402/427/207 
f 385/409/208 369/392/192 387/411/192 403/428/208 
f 387/411/192 386/410/191 404/429/191 405/430/192 
f 386/410/191 388/412/193 406/431/193 404/429/191 
f 388/412/193 389/413/194 407/432/194 406/431/193 
f 389/413/194 390/414/195 408/433/195 407/432/194 
f 390/416/195 391/415/196 409/434/196 408/435/195 
f 391/415/196 392/417/197 410/436/197 409/434/196 
f 392/417/197 393/418/198 411/437/209 410/436/197 
f 393/418/198 394/419/199 412/438/199 411/437/209 
f 394/419/199 395/420/200 413/439/200 412/438/199 
f 395/420/200 396/421/201 414/440/201 413/439/200 
f 396/421/201 397/422/202 415/441/202 414/440/201 
f 397/422/202 398/423/203 416/442/203 415/441/202 
f 398/423/203 399/424/204 417/443/204 416/442/203 
f 399/424/204 400/425/205 418/444/205 417/443/204 
f 400/425/205 401/426/206 419/445/206 418/444/205 
f 401/426/206 402/427/207 420/446/207 419/445/206 
f 402/427/207 403/428/208 421/447/208 420/446/207 
f 403/428/208 387/411/192 405/430/192 421/447/208 
f 405/430/192 404/429/191 422/448/210 423/449/211 
f 404/429/191 406/431/193 424/450/212 422/448/210 
f 406/431/193 407/432/194 425/451/213 424/450/212 
f 407/432/194 408/433/195 426/452/214 425/451/213 
f 408/435/195 409/434/196 427/453/215 426/454/214 
f 409/434/196 410/436/197 428/455/216 427/453/215 
f 410/436/197 411/437/209 429/456/217 428/455/216 
f 411/437/209 412/438/199 430/457/218 429/456/217 
f 412/438/199 413/439/200 431/458/219 430/457/218 
f 413/439/200 414/440/201 432/459/220 431/458/219 
f 414/440/201 415/441/202 433/460/221 432/459/220 
f 415/441/202 416/442/203 434/461/222 433/460/221 
f 416/442/203 417/443/204 435/462/223 434/461/222 
f 417/443/204 418/444/205 436/463/224 435/462/223 
f 418/444/205 419/445/206 437/464/225 436/463/224 
f 419/445/206 420/446/207 438/465/226 437/464/225 
f 420/446/207 421/447/208 439/466/227 438/465/226 
f 421/447/208 405/430/192 423/449/211 439/466/227 
s 1
f 440/467/228 439/466/227 423/449/211 422/448/210 
f 440/467/228 422/448/210 424/450/212 425/451/213 
f 440/467/228 425/451/213 426/452/214 427/468/215 
f 440/467/228 427/453/215 428/455/216 429/456/217 
f 440/467/228 429/456/217 430/457/218 431/458/219 
f 440/467/228 431/458/219 432/459/220 433/460/221 
f 440/467/228 433/460/221 434/461/222 435/462/223 
f 440/467/228 435/462/223 436/463/224 437/464/225 
f 440/467/228 437/464/225 438/465/226 439/466/227 
# 108 polygons

