# 3ds Max Wavefront OBJ Exporter v0.97b - (c)2007 guruware
# ´´½¨µÄÎÄ¼ş:23.05.2022 10:18:57

mtllib 1594.mtl

#
# object Cylinder001
#

v  10.4092 0.0019 3.7886
v  8.1557 0.0011 4.7087
v  -0.0000 0.0000 0.0000
v  9.2743 0.0011 1.6353
v  8.4857 0.0019 7.1203
v  6.0534 0.0011 7.2142
v  5.5386 0.0019 9.5932
v  3.2209 0.0011 8.8495
v  1.9235 0.0019 10.9090
v  -0.0000 0.0011 9.4174
v  -1.9235 0.0019 10.9090
v  -3.2209 0.0011 8.8495
v  -5.5386 0.0019 9.5932
v  -6.0534 0.0011 7.2142
v  -8.4857 0.0019 7.1203
v  -8.1557 0.0011 4.7087
v  -10.4092 0.0019 3.7886
v  -9.2743 0.0011 1.6353
v  -11.0772 0.0019 -0.0000
v  -9.2743 0.0011 -1.6353
v  -10.4092 0.0019 -3.7886
v  -8.1557 0.0011 -4.7087
v  -8.4857 0.0019 -7.1203
v  -6.0534 0.0011 -7.2142
v  -5.5386 0.0019 -9.5932
v  -3.2209 0.0011 -8.8495
v  -1.9235 0.0019 -10.9090
v  -0.0000 0.0011 -9.4174
v  1.9235 0.0019 -10.9090
v  3.2209 0.0011 -8.8495
v  5.5386 0.0019 -9.5932
v  6.0534 0.0011 -7.2142
v  8.4857 0.0019 -7.1203
v  8.1557 0.0011 -4.7087
v  10.4092 0.0019 -3.7886
v  9.2743 0.0011 -1.6353
v  11.0772 0.0019 0.0000
v  12.3658 0.0043 -2.1804
v  12.5580 0.0043 0.0000
v  11.8007 0.0043 -4.2951
v  11.8007 0.0086 -4.2951
v  12.3658 0.0086 -2.1804
v  12.5580 0.0086 0.0000
v  10.8743 0.0043 -6.2783
v  9.6200 0.0043 -8.0721
v  9.6200 0.0086 -8.0721
v  10.8743 0.0086 -6.2783
v  8.0712 0.0043 -9.6189
v  6.2790 0.0043 -10.8756
v  6.2790 0.0086 -10.8756
v  8.0712 0.0086 -9.6189
v  4.2946 0.0043 -11.7993
v  2.1807 0.0043 -12.3672
v  2.1807 0.0086 -12.3672
v  4.2946 0.0086 -11.7993
v  -0.0000 0.0043 -12.5565
v  -2.1807 0.0043 -12.3672
v  -2.1807 0.0086 -12.3672
v  -0.0000 0.0086 -12.5565
v  -4.2946 0.0043 -11.7993
v  -6.2790 0.0043 -10.8756
v  -6.2790 0.0086 -10.8756
v  -4.2946 0.0086 -11.7993
v  -8.0712 0.0043 -9.6189
v  -9.6200 0.0043 -8.0721
v  -9.6200 0.0086 -8.0721
v  -8.0712 0.0086 -9.6189
v  -10.8743 0.0043 -6.2783
v  -11.8007 0.0043 -4.2951
v  -11.8007 0.0086 -4.2951
v  -10.8743 0.0086 -6.2783
v  -12.3658 0.0043 -2.1804
v  -12.5580 0.0043 -0.0000
v  -12.5580 0.0086 -0.0000
v  -12.3658 0.0086 -2.1804
v  -12.3658 0.0043 2.1804
v  -11.8007 0.0043 4.2951
v  -11.8007 0.0086 4.2951
v  -12.3658 0.0086 2.1804
v  -10.8743 0.0043 6.2783
v  -9.6200 0.0043 8.0721
v  -9.6200 0.0086 8.0721
v  -10.8743 0.0086 6.2783
v  -8.0712 0.0043 9.6189
v  -6.2790 0.0043 10.8756
v  -6.2790 0.0086 10.8756
v  -8.0712 0.0086 9.6189
v  -4.2946 0.0043 11.7993
v  -2.1807 0.0043 12.3672
v  -2.1807 0.0086 12.3672
v  -4.2946 0.0086 11.7993
v  -0.0000 0.0043 12.5565
v  2.1807 0.0043 12.3672
v  2.1807 0.0086 12.3672
v  -0.0000 0.0086 12.5565
v  4.2946 0.0043 11.7993
v  6.2790 0.0043 10.8756
v  6.2790 0.0086 10.8756
v  4.2946 0.0086 11.7993
v  8.0712 0.0043 9.6189
v  9.6200 0.0043 8.0721
v  9.6200 0.0086 8.0721
v  8.0712 0.0086 9.6189
v  10.8743 0.0043 6.2783
v  11.8007 0.0043 4.2951
v  11.8007 0.0086 4.2951
v  10.8743 0.0086 6.2783
v  12.3658 0.0043 2.1804
v  12.3658 0.0086 2.1804
v  12.3658 0.0129 -2.1804
v  12.5580 0.0129 0.0000
v  11.8007 0.0129 -4.2951
v  11.8007 0.0172 -4.2951
v  12.3658 0.0172 -2.1804
v  12.5580 0.0172 0.0000
v  10.8743 0.0129 -6.2783
v  9.6200 0.0129 -8.0721
v  9.6200 0.0172 -8.0721
v  10.8743 0.0172 -6.2783
v  8.0712 0.0129 -9.6189
v  6.2790 0.0129 -10.8756
v  6.2790 0.0172 -10.8756
v  8.0712 0.0172 -9.6189
v  4.2946 0.0129 -11.7993
v  2.1807 0.0129 -12.3672
v  2.1807 0.0172 -12.3672
v  4.2946 0.0172 -11.7993
v  -0.0000 0.0129 -12.5565
v  -2.1807 0.0129 -12.3672
v  -2.1807 0.0172 -12.3672
v  -0.0000 0.0172 -12.5565
v  -4.2946 0.0129 -11.7993
v  -6.2790 0.0129 -10.8756
v  -6.2790 0.0172 -10.8756
v  -4.2946 0.0172 -11.7993
v  -8.0712 0.0129 -9.6189
v  -9.6200 0.0129 -8.0721
v  -9.6200 0.0172 -8.0721
v  -8.0712 0.0172 -9.6189
v  -10.8743 0.0129 -6.2783
v  -11.8007 0.0129 -4.2951
v  -11.8007 0.0172 -4.2951
v  -10.8743 0.0172 -6.2783
v  -12.3658 0.0129 -2.1804
v  -12.5580 0.0129 -0.0000
v  -12.5580 0.0172 -0.0000
v  -12.3658 0.0172 -2.1804
v  -12.3658 0.0129 2.1804
v  -11.8007 0.0129 4.2951
v  -11.8007 0.0172 4.2951
v  -12.3658 0.0172 2.1804
v  -10.8743 0.0129 6.2783
v  -9.6200 0.0129 8.0721
v  -9.6200 0.0172 8.0721
v  -10.8743 0.0172 6.2783
v  -8.0712 0.0129 9.6189
v  -6.2790 0.0129 10.8756
v  -6.2790 0.0172 10.8756
v  -8.0712 0.0172 9.6189
v  -4.2946 0.0129 11.7993
v  -2.1807 0.0129 12.3672
v  -2.1807 0.0172 12.3672
v  -4.2946 0.0172 11.7993
v  -0.0000 0.0129 12.5565
v  2.1807 0.0129 12.3672
v  2.1807 0.0172 12.3672
v  -0.0000 0.0172 12.5565
v  4.2946 0.0129 11.7993
v  6.2790 0.0129 10.8756
v  6.2790 0.0172 10.8756
v  4.2946 0.0172 11.7993
v  8.0712 0.0129 9.6189
v  9.6200 0.0129 8.0721
v  9.6200 0.0172 8.0721
v  8.0712 0.0172 9.6189
v  10.8743 0.0129 6.2783
v  11.8007 0.0129 4.2951
v  11.8007 0.0172 4.2951
v  10.8743 0.0172 6.2783
v  12.3658 0.0129 2.1804
v  12.3658 0.0172 2.1804
v  12.3658 0.0215 -2.1804
v  12.5580 0.0215 0.0000
v  11.8007 0.0215 -4.2951
v  11.8007 0.0258 -4.2951
v  12.3658 0.0258 -2.1804
v  12.5580 0.0258 0.0000
v  10.8743 0.0215 -6.2783
v  9.6200 0.0215 -8.0721
v  9.6200 0.0258 -8.0721
v  10.8743 0.0258 -6.2783
v  8.0712 0.0215 -9.6189
v  6.2790 0.0215 -10.8756
v  6.2790 0.0258 -10.8756
v  8.0712 0.0258 -9.6189
v  4.2946 0.0215 -11.7993
v  2.1807 0.0215 -12.3672
v  2.1807 0.0258 -12.3672
v  4.2946 0.0258 -11.7993
v  -0.0000 0.0215 -12.5565
v  -2.1807 0.0215 -12.3672
v  -2.1807 0.0258 -12.3672
v  -0.0000 0.0258 -12.5565
v  -4.2946 0.0215 -11.7993
v  -6.2790 0.0215 -10.8756
v  -6.2790 0.0258 -10.8756
v  -4.2946 0.0258 -11.7993
v  -8.0712 0.0215 -9.6189
v  -9.6200 0.0215 -8.0721
v  -9.6200 0.0258 -8.0721
v  -8.0712 0.0258 -9.6189
v  -10.8743 0.0215 -6.2783
v  -11.8007 0.0215 -4.2951
v  -11.8007 0.0258 -4.2951
v  -10.8743 0.0258 -6.2783
v  -12.3658 0.0215 -2.1804
v  -12.5580 0.0215 -0.0000
v  -12.5580 0.0258 -0.0000
v  -12.3658 0.0258 -2.1804
v  -12.3658 0.0215 2.1804
v  -11.8007 0.0215 4.2951
v  -11.8007 0.0258 4.2951
v  -12.3658 0.0258 2.1804
v  -10.8743 0.0215 6.2783
v  -9.6200 0.0215 8.0721
v  -9.6200 0.0258 8.0721
v  -10.8743 0.0258 6.2783
v  -8.0712 0.0215 9.6189
v  -6.2790 0.0215 10.8756
v  -6.2790 0.0258 10.8756
v  -8.0712 0.0258 9.6189
v  -4.2946 0.0215 11.7993
v  -2.1807 0.0215 12.3672
v  -2.1807 0.0258 12.3672
v  -4.2946 0.0258 11.7993
v  -0.0000 0.0215 12.5565
v  2.1807 0.0215 12.3672
v  2.1807 0.0258 12.3672
v  -0.0000 0.0258 12.5565
v  4.2946 0.0215 11.7993
v  6.2790 0.0215 10.8756
v  6.2790 0.0258 10.8756
v  4.2946 0.0258 11.7993
v  8.0712 0.0215 9.6189
v  9.6200 0.0215 8.0721
v  9.6200 0.0258 8.0721
v  8.0712 0.0258 9.6189
v  10.8743 0.0215 6.2783
v  11.8007 0.0215 4.2951
v  11.8007 0.0258 4.2951
v  10.8743 0.0258 6.2783
v  12.3658 0.0215 2.1804
v  12.3658 0.0258 2.1804
v  12.3658 0.0301 -2.1804
v  12.5580 0.0301 0.0000
v  11.8007 0.0301 -4.2951
v  11.8007 0.0344 -4.2951
v  12.3658 0.0344 -2.1804
v  12.5580 0.0344 0.0000
v  10.8743 0.0301 -6.2783
v  9.6200 0.0301 -8.0721
v  9.6200 0.0344 -8.0721
v  10.8743 0.0344 -6.2783
v  8.0712 0.0301 -9.6189
v  6.2790 0.0301 -10.8756
v  6.2790 0.0344 -10.8756
v  8.0712 0.0344 -9.6189
v  4.2946 0.0301 -11.7993
v  2.1807 0.0301 -12.3672
v  2.1807 0.0344 -12.3672
v  4.2946 0.0344 -11.7993
v  -0.0000 0.0301 -12.5565
v  -2.1807 0.0301 -12.3672
v  -2.1807 0.0344 -12.3672
v  -0.0000 0.0344 -12.5565
v  -4.2946 0.0301 -11.7993
v  -6.2790 0.0301 -10.8756
v  -6.2790 0.0344 -10.8756
v  -4.2946 0.0344 -11.7993
v  -8.0712 0.0301 -9.6189
v  -9.6200 0.0301 -8.0721
v  -9.6200 0.0344 -8.0721
v  -8.0712 0.0344 -9.6189
v  -10.8743 0.0301 -6.2783
v  -11.8007 0.0301 -4.2951
v  -11.8007 0.0344 -4.2951
v  -10.8743 0.0344 -6.2783
v  -12.3658 0.0301 -2.1804
v  -12.5580 0.0301 -0.0000
v  -12.5580 0.0344 -0.0000
v  -12.3658 0.0344 -2.1804
v  -12.3658 0.0301 2.1804
v  -11.8007 0.0301 4.2951
v  -11.8007 0.0344 4.2951
v  -12.3658 0.0344 2.1804
v  -10.8743 0.0301 6.2783
v  -9.6200 0.0301 8.0721
v  -9.6200 0.0344 8.0721
v  -10.8743 0.0344 6.2783
v  -8.0712 0.0301 9.6189
v  -6.2790 0.0301 10.8756
v  -6.2790 0.0344 10.8756
v  -8.0712 0.0344 9.6189
v  -4.2946 0.0301 11.7993
v  -2.1807 0.0301 12.3672
v  -2.1807 0.0344 12.3672
v  -4.2946 0.0344 11.7993
v  -0.0000 0.0301 12.5565
v  2.1807 0.0301 12.3672
v  2.1807 0.0344 12.3672
v  -0.0000 0.0344 12.5565
v  4.2946 0.0301 11.7993
v  6.2790 0.0301 10.8756
v  6.2790 0.0344 10.8756
v  4.2946 0.0344 11.7993
v  8.0712 0.0301 9.6189
v  9.6200 0.0301 8.0721
v  9.6200 0.0344 8.0721
v  8.0712 0.0344 9.6189
v  10.8743 0.0301 6.2783
v  11.8007 0.0301 4.2951
v  11.8007 0.0344 4.2951
v  10.8743 0.0344 6.2783
v  12.3658 0.0301 2.1804
v  12.3658 0.0344 2.1804
v  12.3658 0.0388 -2.1804
v  12.5580 0.0388 0.0000
v  11.8007 0.0388 -4.2951
v  10.4092 0.0411 -3.7886
v  9.2743 0.0420 -1.6353
v  11.0772 0.0411 0.0000
v  10.8743 0.0388 -6.2783
v  9.6200 0.0388 -8.0721
v  8.4857 0.0411 -7.1203
v  8.1557 0.0420 -4.7087
v  8.0712 0.0388 -9.6189
v  6.2790 0.0388 -10.8756
v  5.5386 0.0411 -9.5932
v  6.0534 0.0420 -7.2142
v  4.2946 0.0388 -11.7993
v  2.1807 0.0388 -12.3672
v  1.9235 0.0411 -10.9090
v  3.2209 0.0420 -8.8495
v  -0.0000 0.0388 -12.5565
v  -2.1807 0.0388 -12.3672
v  -1.9235 0.0411 -10.9090
v  -0.0000 0.0420 -9.4174
v  -4.2946 0.0388 -11.7993
v  -6.2790 0.0388 -10.8756
v  -5.5386 0.0411 -9.5932
v  -3.2209 0.0420 -8.8495
v  -8.0712 0.0388 -9.6189
v  -9.6200 0.0388 -8.0721
v  -8.4857 0.0411 -7.1203
v  -6.0534 0.0420 -7.2142
v  -10.8743 0.0388 -6.2783
v  -11.8007 0.0388 -4.2951
v  -10.4092 0.0411 -3.7886
v  -8.1557 0.0420 -4.7087
v  -12.3658 0.0388 -2.1804
v  -12.5580 0.0388 -0.0000
v  -11.0772 0.0411 -0.0000
v  -9.2743 0.0420 -1.6353
v  -12.3658 0.0388 2.1804
v  -11.8007 0.0388 4.2951
v  -10.4092 0.0411 3.7886
v  -9.2743 0.0420 1.6353
v  -10.8743 0.0388 6.2783
v  -9.6200 0.0388 8.0721
v  -8.4857 0.0411 7.1203
v  -8.1557 0.0420 4.7087
v  -8.0712 0.0388 9.6189
v  -6.2790 0.0388 10.8756
v  -5.5386 0.0411 9.5932
v  -6.0534 0.0420 7.2142
v  -4.2946 0.0388 11.7993
v  -2.1807 0.0388 12.3672
v  -1.9235 0.0411 10.9090
v  -3.2209 0.0420 8.8495
v  -0.0000 0.0388 12.5565
v  2.1807 0.0388 12.3672
v  1.9235 0.0411 10.9090
v  -0.0000 0.0420 9.4174
v  4.2946 0.0388 11.7993
v  6.2790 0.0388 10.8756
v  5.5386 0.0411 9.5932
v  3.2209 0.0420 8.8495
v  8.0712 0.0388 9.6189
v  9.6200 0.0388 8.0721
v  8.4857 0.0411 7.1203
v  6.0534 0.0420 7.2142
v  10.8743 0.0388 6.2783
v  11.8007 0.0388 4.2951
v  10.4092 0.0411 3.7886
v  8.1557 0.0420 4.7087
v  12.3658 0.0388 2.1804
v  9.2743 0.0420 1.6353
v  -0.0000 0.0431 0.0000
# 398 vertices

vn 0.0382 -0.9992 0.0139
vn 0.0099 -0.9999 0.0057
vn -0.0000 -1.0000 0.0000
vn 0.0113 -0.9999 0.0020
vn 0.0312 -0.9992 0.0262
vn 0.0074 -0.9999 0.0088
vn 0.0203 -0.9992 0.0352
vn 0.0039 -0.9999 0.0108
vn 0.0071 -0.9992 0.0401
vn -0.0000 -0.9999 0.0115
vn -0.0071 -0.9992 0.0401
vn -0.0039 -0.9999 0.0108
vn -0.0203 -0.9992 0.0352
vn -0.0074 -0.9999 0.0088
vn -0.0312 -0.9992 0.0262
vn -0.0099 -0.9999 0.0057
vn -0.0382 -0.9992 0.0139
vn -0.0113 -0.9999 0.0020
vn -0.0407 -0.9992 -0.0000
vn -0.0113 -0.9999 -0.0020
vn -0.0382 -0.9992 -0.0139
vn -0.0099 -0.9999 -0.0057
vn -0.0312 -0.9992 -0.0262
vn -0.0074 -0.9999 -0.0088
vn -0.0203 -0.9992 -0.0352
vn -0.0039 -0.9999 -0.0108
vn -0.0071 -0.9992 -0.0401
vn -0.0000 -0.9999 -0.0115
vn 0.0071 -0.9992 -0.0401
vn 0.0039 -0.9999 -0.0108
vn 0.0203 -0.9992 -0.0352
vn 0.0074 -0.9999 -0.0088
vn 0.0312 -0.9992 -0.0262
vn 0.0099 -0.9999 -0.0057
vn 0.0382 -0.9992 -0.0139
vn 0.0113 -0.9999 -0.0020
vn 0.0407 -0.9992 0.0000
vn 0.7244 -0.6774 -0.1277
vn 0.7416 -0.6709 -0.0000
vn 0.6968 -0.6709 -0.2536
vn 0.9397 -0.0000 -0.3420
vn 0.9848 -0.0000 -0.1736
vn 1.0000 0.0000 0.0000
vn 0.6371 -0.6774 -0.3678
vn 0.5681 -0.6709 -0.4767
vn 0.7660 -0.0000 -0.6428
vn 0.8660 0.0000 -0.5000
vn 0.4729 -0.6773 -0.5636
vn 0.3708 -0.6709 -0.6422
vn 0.5000 0.0000 -0.8660
vn 0.6428 -0.0000 -0.7660
vn 0.2516 -0.6774 -0.6912
vn 0.1288 -0.6709 -0.7303
vn 0.1736 0.0000 -0.9848
vn 0.3420 0.0000 -0.9397
vn -0.0000 -0.6774 -0.7356
vn -0.1288 -0.6709 -0.7303
vn -0.1736 -0.0000 -0.9848
vn -0.0000 0.0000 -1.0000
vn -0.2516 -0.6774 -0.6913
vn -0.3708 -0.6709 -0.6422
vn -0.5000 0.0000 -0.8660
vn -0.3420 -0.0000 -0.9397
vn -0.4729 -0.6774 -0.5635
vn -0.5680 -0.6709 -0.4766
vn -0.7660 0.0000 -0.6428
vn -0.6428 0.0000 -0.7660
vn -0.6371 -0.6774 -0.3678
vn -0.6968 -0.6709 -0.2536
vn -0.9397 -0.0000 -0.3420
vn -0.8660 0.0000 -0.5000
vn -0.7245 -0.6774 -0.1277
vn -0.7416 -0.6709 -0.0000
vn -1.0000 -0.0000 -0.0000
vn -0.9848 0.0000 -0.1736
vn -0.7245 -0.6774 0.1277
vn -0.6968 -0.6709 0.2536
vn -0.9397 0.0000 0.3420
vn -0.9848 0.0000 0.1736
vn -0.6371 -0.6774 0.3678
vn -0.5681 -0.6709 0.4767
vn -0.7660 0.0000 0.6428
vn -0.8660 0.0000 0.5000
vn -0.4729 -0.6774 0.5635
vn -0.3708 -0.6709 0.6422
vn -0.5000 0.0000 0.8660
vn -0.6428 0.0000 0.7660
vn -0.2516 -0.6774 0.6913
vn -0.1288 -0.6709 0.7303
vn -0.1736 0.0000 0.9848
vn -0.3420 0.0000 0.9397
vn -0.0000 -0.6774 0.7356
vn 0.1288 -0.6709 0.7303
vn 0.1736 0.0000 0.9848
vn -0.0000 0.0000 1.0000
vn 0.2516 -0.6774 0.6913
vn 0.3708 -0.6709 0.6422
vn 0.5000 0.0000 0.8660
vn 0.3420 0.0000 0.9397
vn 0.4728 -0.6774 0.5635
vn 0.5681 -0.6709 0.4767
vn 0.7660 0.0000 0.6428
vn 0.6428 -0.0000 0.7660
vn 0.6371 -0.6774 0.3678
vn 0.6968 -0.6709 0.2536
vn 0.9397 0.0000 0.3420
vn 0.8660 0.0000 0.5000
vn 0.7245 -0.6774 0.1277
vn 0.9848 0.0000 0.1736
vn 0.9848 0.0000 -0.1736
vn 0.9397 0.0000 -0.3420
vn 0.7660 0.0000 -0.6428
vn 0.6428 0.0000 -0.7660
vn 0.1736 -0.0000 -0.9848
vn 0.0000 0.0000 -1.0000
vn -0.1736 0.0000 -0.9848
vn -0.0000 -0.0000 -1.0000
vn -0.3420 0.0000 -0.9397
vn -0.5000 -0.0000 -0.8660
vn -0.9397 0.0000 -0.3420
vn -1.0000 0.0000 -0.0000
vn -0.1736 -0.0000 0.9848
vn -0.0000 -0.0000 1.0000
vn 0.6428 0.0000 0.7660
vn 0.9848 0.0000 -0.1737
vn -0.9848 0.0000 -0.1737
vn -1.0000 0.0000 0.0000
vn -0.7660 -0.0000 0.6428
vn 0.1737 -0.0000 0.9848
vn 0.1736 -0.0000 0.9848
vn 0.5000 -0.0000 0.8660
vn 0.9397 -0.0000 0.3420
vn 0.7661 0.0000 -0.6428
vn 0.7244 0.6774 -0.1277
vn 0.7415 0.6709 0.0000
vn 0.6969 0.6709 -0.2536
vn 0.0382 0.9992 -0.0139
vn 0.0113 0.9999 -0.0020
vn 0.0407 0.9992 0.0000
vn 0.6370 0.6775 -0.3678
vn 0.5681 0.6709 -0.4767
vn 0.0312 0.9992 -0.0262
vn 0.0099 0.9999 -0.0057
vn 0.4729 0.6774 -0.5635
vn 0.3708 0.6709 -0.6422
vn 0.0203 0.9992 -0.0352
vn 0.0074 0.9999 -0.0088
vn 0.2516 0.6774 -0.6913
vn 0.1288 0.6709 -0.7303
vn 0.0071 0.9992 -0.0401
vn 0.0039 0.9999 -0.0108
vn -0.0000 0.6774 -0.7356
vn -0.1288 0.6709 -0.7303
vn -0.0071 0.9992 -0.0401
vn -0.0000 0.9999 -0.0115
vn -0.2516 0.6774 -0.6913
vn -0.3708 0.6709 -0.6422
vn -0.0203 0.9992 -0.0352
vn -0.0039 0.9999 -0.0108
vn -0.4729 0.6774 -0.5635
vn -0.5681 0.6709 -0.4767
vn -0.0312 0.9992 -0.0262
vn -0.0074 0.9999 -0.0088
vn -0.6371 0.6774 -0.3678
vn -0.6968 0.6709 -0.2536
vn -0.0382 0.9992 -0.0139
vn -0.0099 0.9999 -0.0057
vn -0.7244 0.6774 -0.1277
vn -0.7416 0.6709 -0.0000
vn -0.0407 0.9992 -0.0000
vn -0.0113 0.9999 -0.0020
vn -0.7245 0.6774 0.1277
vn -0.6968 0.6709 0.2536
vn -0.0382 0.9992 0.0139
vn -0.0113 0.9999 0.0020
vn -0.6371 0.6774 0.3678
vn -0.5681 0.6709 0.4767
vn -0.0312 0.9992 0.0262
vn -0.0099 0.9999 0.0057
vn -0.4729 0.6774 0.5635
vn -0.3708 0.6709 0.6422
vn -0.0203 0.9992 0.0352
vn -0.0074 0.9999 0.0088
vn -0.2516 0.6774 0.6913
vn -0.1288 0.6709 0.7303
vn -0.0071 0.9992 0.0401
vn -0.0039 0.9999 0.0108
vn -0.0000 0.6774 0.7356
vn 0.1288 0.6709 0.7303
vn 0.0071 0.9992 0.0401
vn -0.0000 0.9999 0.0115
vn 0.2516 0.6774 0.6912
vn 0.3708 0.6709 0.6422
vn 0.0203 0.9992 0.0352
vn 0.0039 0.9999 0.0108
vn 0.4729 0.6774 0.5635
vn 0.5681 0.6709 0.4767
vn 0.0312 0.9992 0.0262
vn 0.0074 0.9999 0.0088
vn 0.6370 0.6774 0.3678
vn 0.6968 0.6709 0.2536
vn 0.0382 0.9992 0.0139
vn 0.0099 0.9999 0.0057
vn 0.7245 0.6774 0.1277
vn 0.0113 0.9999 0.0020
vn -0.0000 1.0000 0.0000
# 206 vertex normals

vt 0.3400 0.0000 -0.0000
vt 0.2677 0.0000 -0.1737
vt 0.5241 0.0000 0.0623
vt 0.5450 0.0000 0.5000
vt 0.1953 0.0000 -0.3473
vt 0.1413 0.0000 -0.5000
vt 0.0874 0.0000 -0.6527
vt 0.0583 0.0000 -0.7660
vt 0.0292 0.0000 -0.8794
vt 0.0285 0.0000 -0.9397
vt 0.0278 0.0000 -1.0000
vt 0.0556 0.0000 -1.0000
vt 0.0833 0.0000 -1.0000
vt 0.1362 0.0000 -0.9397
vt 0.1891 0.0000 -0.8794
vt 0.2608 0.0000 -0.7660
vt 0.3325 0.0000 -0.6527
vt 0.4142 0.0000 -0.5000
vt 0.4960 0.0000 -0.3473
vt 0.5780 0.0000 -0.1736
vt 0.6600 0.0000 0.0000
vt 0.7323 0.0000 0.1736
vt 0.8047 0.0000 0.3473
vt 0.8587 0.0000 0.5000
vt 0.9126 0.0000 0.6527
vt 0.9417 0.0000 0.7660
vt 0.9708 0.0000 0.8794
vt 0.9715 0.0000 0.9397
vt 0.9722 0.0000 1.0000
vt 0.8394 0.0250 0.7656
vt 0.8731 0.0444 0.8958
vt 0.7977 0.0250 0.7656
vt 0.8237 0.0444 0.8958
vt 0.7560 0.0250 0.7656
vt 0.7743 0.0444 0.8958
vt 0.7144 0.0250 0.7656
vt 0.6855 0.0444 0.7847
vt 0.7778 0.1000 1.0000
vt 0.7500 0.1000 1.0000
vt 0.8056 0.1000 1.0000
vt 0.8056 0.2000 1.0000
vt 0.7778 0.2000 1.0000
vt 0.7500 0.2000 1.0000
vt 0.8333 0.1000 1.0000
vt 0.8611 0.1000 1.0000
vt 0.8611 0.2000 1.0000
vt 0.8333 0.2000 1.0000
vt 0.8889 0.1000 1.0000
vt 0.9167 0.1000 1.0000
vt 0.9167 0.2000 1.0000
vt 0.8889 0.2000 1.0000
vt 0.9444 0.1000 1.0000
vt 0.9722 0.1000 1.0000
vt 0.9722 0.2000 1.0000
vt 0.9444 0.2000 1.0000
vt -0.0278 0.0000 1.0000
vt 0.0000 0.0000 1.0000
vt 0.0000 0.1000 1.0000
vt -0.0278 0.1000 1.0000
vt 0.0278 0.0000 1.0000
vt 0.0278 0.1000 1.0000
vt 0.0278 0.2000 1.0000
vt 0.0000 0.2000 1.0000
vt -0.0278 0.2000 1.0000
vt 0.0556 0.0000 1.0000
vt 0.0556 0.1000 1.0000
vt 0.0833 0.0000 1.0000
vt 0.0833 0.1000 1.0000
vt 0.0833 0.2000 1.0000
vt 0.0556 0.2000 1.0000
vt 0.1111 0.0000 1.0000
vt 0.1111 0.1000 1.0000
vt 0.1389 0.0000 1.0000
vt 0.1389 0.1000 1.0000
vt 0.1389 0.2000 1.0000
vt 0.1111 0.2000 1.0000
vt 0.1667 0.0000 1.0000
vt 0.1667 0.1000 1.0000
vt 0.1944 0.0000 1.0000
vt 0.1944 0.1000 1.0000
vt 0.1944 0.2000 1.0000
vt 0.1667 0.2000 1.0000
vt 0.2222 0.0000 1.0000
vt 0.2222 0.1000 1.0000
vt 0.2500 0.0000 1.0000
vt 0.2500 0.1000 1.0000
vt 0.2500 0.2000 1.0000
vt 0.2222 0.2000 1.0000
vt 0.2778 0.0000 1.0000
vt 0.2778 0.1000 1.0000
vt 0.3056 0.0000 1.0000
vt 0.3056 0.1000 1.0000
vt 0.3056 0.2000 1.0000
vt 0.2778 0.2000 1.0000
vt 0.3333 0.0000 1.0000
vt 0.3333 0.1000 1.0000
vt 0.3611 0.0000 1.0000
vt 0.3611 0.1000 1.0000
vt 0.3611 0.2000 1.0000
vt 0.3333 0.2000 1.0000
vt 0.3889 0.0000 1.0000
vt 0.3889 0.1000 1.0000
vt 0.4167 0.0000 1.0000
vt 0.4167 0.1000 1.0000
vt 0.4167 0.2000 1.0000
vt 0.3889 0.2000 1.0000
vt 0.4444 0.0000 1.0000
vt 0.4444 0.1000 1.0000
vt 0.4722 0.0000 1.0000
vt 0.4722 0.1000 1.0000
vt 0.4722 0.2000 1.0000
vt 0.4444 0.2000 1.0000
vt 0.5000 0.0000 1.0000
vt 0.5000 0.1000 1.0000
vt 0.5278 0.0000 1.0000
vt 0.5278 0.1000 1.0000
vt 0.5278 0.2000 1.0000
vt 0.5000 0.2000 1.0000
vt 0.5556 0.0000 1.0000
vt 0.5556 0.1000 1.0000
vt 0.5833 0.0000 1.0000
vt 0.5833 0.1000 1.0000
vt 0.5833 0.2000 1.0000
vt 0.5556 0.2000 1.0000
vt 0.6111 0.0000 1.0000
vt 0.6111 0.1000 1.0000
vt 0.6389 0.0000 1.0000
vt 0.6389 0.1000 1.0000
vt 0.6389 0.2000 1.0000
vt 0.6111 0.2000 1.0000
vt 0.6667 0.0000 1.0000
vt 0.6667 0.1000 1.0000
vt 0.6944 0.0000 1.0000
vt 0.6944 0.1000 1.0000
vt 0.6944 0.2000 1.0000
vt 0.6667 0.2000 1.0000
vt 0.7222 0.0000 1.0000
vt 0.7222 0.1000 1.0000
vt 0.7222 0.2000 1.0000
vt 0.7778 0.3000 1.0000
vt 0.7500 0.3000 1.0000
vt 0.8056 0.3000 1.0000
vt 0.8056 0.4000 1.0000
vt 0.7778 0.4000 1.0000
vt 0.7500 0.4000 1.0000
vt 0.8333 0.3000 1.0000
vt 0.8611 0.3000 1.0000
vt 0.8611 0.4000 1.0000
vt 0.8333 0.4000 1.0000
vt 0.8889 0.3000 1.0000
vt 0.9167 0.3000 1.0000
vt 0.9167 0.4000 1.0000
vt 0.8889 0.4000 1.0000
vt 0.9444 0.3000 1.0000
vt 0.9722 0.3000 1.0000
vt 0.9722 0.4000 1.0000
vt 0.9444 0.4000 1.0000
vt 0.0000 0.3000 1.0000
vt -0.0278 0.3000 1.0000
vt 0.0278 0.3000 1.0000
vt 0.0278 0.4000 1.0000
vt 0.0000 0.4000 1.0000
vt -0.0278 0.4000 1.0000
vt 0.0556 0.3000 1.0000
vt 0.0833 0.3000 1.0000
vt 0.0833 0.4000 1.0000
vt 0.0556 0.4000 1.0000
vt 0.1111 0.3000 1.0000
vt 0.1389 0.3000 1.0000
vt 0.1389 0.4000 1.0000
vt 0.1111 0.4000 1.0000
vt 0.1667 0.3000 1.0000
vt 0.1944 0.3000 1.0000
vt 0.1944 0.4000 1.0000
vt 0.1667 0.4000 1.0000
vt 0.2222 0.3000 1.0000
vt 0.2500 0.3000 1.0000
vt 0.2500 0.4000 1.0000
vt 0.2222 0.4000 1.0000
vt 0.2778 0.3000 1.0000
vt 0.3056 0.3000 1.0000
vt 0.3056 0.4000 1.0000
vt 0.2778 0.4000 1.0000
vt 0.3333 0.3000 1.0000
vt 0.3611 0.3000 1.0000
vt 0.3611 0.4000 1.0000
vt 0.3333 0.4000 1.0000
vt 0.3889 0.3000 1.0000
vt 0.4167 0.3000 1.0000
vt 0.4167 0.4000 1.0000
vt 0.3889 0.4000 1.0000
vt 0.4444 0.3000 1.0000
vt 0.4722 0.3000 1.0000
vt 0.4722 0.4000 1.0000
vt 0.4444 0.4000 1.0000
vt 0.5000 0.3000 1.0000
vt 0.5278 0.3000 1.0000
vt 0.5278 0.4000 1.0000
vt 0.5000 0.4000 1.0000
vt 0.5556 0.3000 1.0000
vt 0.5833 0.3000 1.0000
vt 0.5833 0.4000 1.0000
vt 0.5556 0.4000 1.0000
vt 0.6111 0.3000 1.0000
vt 0.6389 0.3000 1.0000
vt 0.6389 0.4000 1.0000
vt 0.6111 0.4000 1.0000
vt 0.6667 0.3000 1.0000
vt 0.6944 0.3000 1.0000
vt 0.6944 0.4000 1.0000
vt 0.6667 0.4000 1.0000
vt 0.7222 0.3000 1.0000
vt 0.7222 0.4000 1.0000
vt 0.7778 0.5000 1.0000
vt 0.7500 0.5000 1.0000
vt 0.8056 0.5000 1.0000
vt 0.8056 0.6000 1.0000
vt 0.7778 0.6000 1.0000
vt 0.7500 0.6000 1.0000
vt 0.8333 0.5000 1.0000
vt 0.8611 0.5000 1.0000
vt 0.8611 0.6000 1.0000
vt 0.8333 0.6000 1.0000
vt 0.8889 0.5000 1.0000
vt 0.9167 0.5000 1.0000
vt 0.9167 0.6000 1.0000
vt 0.8889 0.6000 1.0000
vt 0.9444 0.5000 1.0000
vt 0.9722 0.5000 1.0000
vt 0.9722 0.6000 1.0000
vt 0.9444 0.6000 1.0000
vt 0.0000 0.5000 1.0000
vt -0.0278 0.5000 1.0000
vt 0.0278 0.5000 1.0000
vt 0.0278 0.6000 1.0000
vt 0.0000 0.6000 1.0000
vt -0.0278 0.6000 1.0000
vt 0.0556 0.5000 1.0000
vt 0.0833 0.5000 1.0000
vt 0.0833 0.6000 1.0000
vt 0.0556 0.6000 1.0000
vt 0.1111 0.5000 1.0000
vt 0.1389 0.5000 1.0000
vt 0.1389 0.6000 1.0000
vt 0.1111 0.6000 1.0000
vt 0.1667 0.5000 1.0000
vt 0.1944 0.5000 1.0000
vt 0.1944 0.6000 1.0000
vt 0.1667 0.6000 1.0000
vt 0.2222 0.5000 1.0000
vt 0.2500 0.5000 1.0000
vt 0.2500 0.6000 1.0000
vt 0.2222 0.6000 1.0000
vt 0.2778 0.5000 1.0000
vt 0.3056 0.5000 1.0000
vt 0.3056 0.6000 1.0000
vt 0.2778 0.6000 1.0000
vt 0.3333 0.5000 1.0000
vt 0.3611 0.5000 1.0000
vt 0.3611 0.6000 1.0000
vt 0.3333 0.6000 1.0000
vt 0.3889 0.5000 1.0000
vt 0.4167 0.5000 1.0000
vt 0.4167 0.6000 1.0000
vt 0.3889 0.6000 1.0000
vt 0.4444 0.5000 1.0000
vt 0.4722 0.5000 1.0000
vt 0.4722 0.6000 1.0000
vt 0.4444 0.6000 1.0000
vt 0.5000 0.5000 1.0000
vt 0.5278 0.5000 1.0000
vt 0.5278 0.6000 1.0000
vt 0.5000 0.6000 1.0000
vt 0.5556 0.5000 1.0000
vt 0.5833 0.5000 1.0000
vt 0.5833 0.6000 1.0000
vt 0.5556 0.6000 1.0000
vt 0.6111 0.5000 1.0000
vt 0.6389 0.5000 1.0000
vt 0.6389 0.6000 1.0000
vt 0.6111 0.6000 1.0000
vt 0.6667 0.5000 1.0000
vt 0.6944 0.5000 1.0000
vt 0.6944 0.6000 1.0000
vt 0.6667 0.6000 1.0000
vt 0.7222 0.5000 1.0000
vt 0.7222 0.6000 1.0000
vt 0.7778 0.7000 1.0000
vt 0.7500 0.7000 1.0000
vt 0.8056 0.7000 1.0000
vt 0.8056 0.8000 1.0000
vt 0.7778 0.8000 1.0000
vt 0.7500 0.8000 1.0000
vt 0.8333 0.7000 1.0000
vt 0.8611 0.7000 1.0000
vt 0.8611 0.8000 1.0000
vt 0.8333 0.8000 1.0000
vt 0.8889 0.7000 1.0000
vt 0.9167 0.7000 1.0000
vt 0.9167 0.8000 1.0000
vt 0.8889 0.8000 1.0000
vt 0.9444 0.7000 1.0000
vt 0.9722 0.7000 1.0000
vt 0.9722 0.8000 1.0000
vt 0.9444 0.8000 1.0000
vt 0.0000 0.7000 1.0000
vt -0.0278 0.7000 1.0000
vt 0.0278 0.7000 1.0000
vt 0.0278 0.8000 1.0000
vt 0.0000 0.8000 1.0000
vt -0.0278 0.8000 1.0000
vt 0.0556 0.7000 1.0000
vt 0.0833 0.7000 1.0000
vt 0.0833 0.8000 1.0000
vt 0.0556 0.8000 1.0000
vt 0.1111 0.7000 1.0000
vt 0.1389 0.7000 1.0000
vt 0.1389 0.8000 1.0000
vt 0.1111 0.8000 1.0000
vt 0.1667 0.7000 1.0000
vt 0.1944 0.7000 1.0000
vt 0.1944 0.8000 1.0000
vt 0.1667 0.8000 1.0000
vt 0.2222 0.7000 1.0000
vt 0.2500 0.7000 1.0000
vt 0.2500 0.8000 1.0000
vt 0.2222 0.8000 1.0000
vt 0.2778 0.7000 1.0000
vt 0.3056 0.7000 1.0000
vt 0.3056 0.8000 1.0000
vt 0.2778 0.8000 1.0000
vt 0.3333 0.7000 1.0000
vt 0.3611 0.7000 1.0000
vt 0.3611 0.8000 1.0000
vt 0.3333 0.8000 1.0000
vt 0.3889 0.7000 1.0000
vt 0.4167 0.7000 1.0000
vt 0.4167 0.8000 1.0000
vt 0.3889 0.8000 1.0000
vt 0.4444 0.7000 1.0000
vt 0.4722 0.7000 1.0000
vt 0.4722 0.8000 1.0000
vt 0.4444 0.8000 1.0000
vt 0.5000 0.7000 1.0000
vt 0.5278 0.7000 1.0000
vt 0.5278 0.8000 1.0000
vt 0.5000 0.8000 1.0000
vt 0.5556 0.7000 1.0000
vt 0.5833 0.7000 1.0000
vt 0.5833 0.8000 1.0000
vt 0.5556 0.8000 1.0000
vt 0.6111 0.7000 1.0000
vt 0.6389 0.7000 1.0000
vt 0.6389 0.8000 1.0000
vt 0.6111 0.8000 1.0000
vt 0.6667 0.7000 1.0000
vt 0.6944 0.7000 1.0000
vt 0.6944 0.8000 1.0000
vt 0.6667 0.8000 1.0000
vt 0.7222 0.7000 1.0000
vt 0.7222 0.8000 1.0000
vt 0.7778 0.9000 1.0000
vt 0.7500 0.9000 1.0000
vt 0.8056 0.9000 1.0000
vt 0.7765 0.9556 0.9020
vt 0.7193 0.9750 0.7795
vt 0.7271 0.9556 0.9020
vt 0.8333 0.9000 1.0000
vt 0.8611 0.9000 1.0000
vt 0.8259 0.9556 0.9020
vt 0.7610 0.9750 0.7795
vt 0.8889 0.9000 1.0000
vt 0.9167 0.9000 1.0000
vt 0.8752 0.9556 0.9020
vt 0.8026 0.9750 0.7795
vt 0.9444 0.9000 1.0000
vt 0.9722 0.9000 1.0000
vt 0.9722 1.0000 1.0000
vt 0.8443 0.9750 0.7795
vt 0.0000 0.9000 1.0000
vt -0.0278 0.9000 1.0000
vt 0.0278 0.9000 1.0000
vt 0.0278 1.0000 1.0000
vt 0.0000 1.0000 1.0000
vt -0.0278 1.0000 1.0000
vt 0.0556 0.9000 1.0000
vt 0.0833 0.9000 1.0000
vt 0.0833 1.0000 1.0000
vt 0.0556 1.0000 1.0000
vt 0.1111 0.9000 1.0000
vt 0.1389 0.9000 1.0000
vt 0.1389 1.0000 1.0000
vt 0.1111 1.0000 1.0000
vt 0.1667 0.9000 1.0000
vt 0.1944 0.9000 1.0000
vt 0.1944 1.0000 1.0000
vt 0.1667 1.0000 1.0000
vt 0.2222 0.9000 1.0000
vt 0.2500 0.9000 1.0000
vt 0.2500 1.0000 1.0000
vt 0.2222 1.0000 1.0000
vt 0.2778 0.9000 1.0000
vt 0.3056 0.9000 1.0000
vt 0.3056 1.0000 1.0000
vt 0.2778 1.0000 1.0000
vt 0.3333 0.9000 1.0000
vt 0.3611 0.9000 1.0000
vt 0.3611 1.0000 1.0000
vt 0.3333 1.0000 1.0000
vt 0.3889 0.9000 1.0000
vt 0.4167 0.9000 1.0000
vt 0.4167 1.0000 1.0000
vt 0.3889 1.0000 1.0000
vt 0.4444 0.9000 1.0000
vt 0.4722 0.9000 1.0000
vt 0.4722 1.0000 1.0000
vt 0.4444 1.0000 1.0000
vt 0.5000 0.9000 1.0000
vt 0.5278 0.9000 1.0000
vt 0.5278 1.0000 1.0000
vt 0.5000 1.0000 1.0000
vt 0.5556 0.9000 1.0000
vt 0.5833 0.9000 1.0000
vt 0.5833 1.0000 1.0000
vt 0.5556 1.0000 1.0000
vt 0.6111 0.9000 1.0000
vt 0.6389 0.9000 1.0000
vt 0.6389 1.0000 1.0000
vt 0.6111 1.0000 1.0000
vt 0.6667 0.9000 1.0000
vt 0.6944 0.9000 1.0000
vt 0.6777 0.9556 0.9020
vt 0.6667 1.0000 1.0000
vt 0.7222 0.9000 1.0000
vt 0.6776 0.9750 0.7795
vt 0.5438 1.0000 0.1178
vt 0.4449 1.0000 0.3264
vt 0.9715 1.0000 0.9397
vt 0.9708 1.0000 0.8794
vt 0.9417 1.0000 0.7660
vt 0.9126 1.0000 0.6527
vt 0.8587 1.0000 0.5000
vt 0.8047 1.0000 0.3473
vt 0.7323 1.0000 0.1736
vt 0.6600 1.0000 0.0000
vt 0.5780 1.0000 -0.1736
vt 0.4960 1.0000 -0.3473
vt 0.4142 1.0000 -0.5000
vt 0.3325 1.0000 -0.6527
vt 0.2608 1.0000 -0.7660
vt 0.1891 1.0000 -0.8794
vt 0.1362 1.0000 -0.9397
vt 0.0833 1.0000 -1.0000
vt 0.0556 1.0000 -1.0000
vt 0.0278 1.0000 -1.0000
vt 0.0285 1.0000 -0.9397
vt 0.0292 1.0000 -0.8794
vt 0.0583 1.0000 -0.7660
vt 0.0874 1.0000 -0.6527
vt 0.1413 1.0000 -0.5000
vt 0.1953 1.0000 -0.3473
# 461 texture coords

o Cylinder001
g Cylinder001
usemtl wire_211209008
s 1
f 1/1/1 2/2/2 3/3/3 4/4/4 
f 5/5/5 6/6/6 3/3/3 2/2/2 
f 7/7/7 8/8/8 3/3/3 6/6/6 
f 9/9/9 10/10/10 3/3/3 8/8/8 
f 11/11/11 12/12/12 3/3/3 10/10/10 
f 13/13/13 14/14/14 3/3/3 12/12/12 
f 15/15/15 16/16/16 3/3/3 14/14/14 
f 17/17/17 18/18/18 3/3/3 16/16/16 
f 19/19/19 20/20/20 3/3/3 18/18/18 
f 21/21/21 22/22/22 3/3/3 20/20/20 
f 23/23/23 24/24/24 3/3/3 22/22/22 
f 25/25/25 26/26/26 3/3/3 24/24/24 
f 27/27/27 28/28/28 3/3/3 26/26/26 
f 29/29/29 30/30/30 3/3/3 28/28/28 
f 31/31/31 32/32/32 3/3/3 30/30/30 
f 33/33/33 34/34/34 3/3/3 32/32/32 
f 35/35/35 36/36/36 3/3/3 34/34/34 
f 37/37/37 4/4/4 3/3/3 36/36/36 
s 8
f 37/37/37 36/36/36 38/38/38 39/39/39 
f 35/35/35 40/40/40 38/38/38 36/36/36 
f 41/41/41 42/42/42 38/38/38 40/40/40 
f 43/43/43 39/39/39 38/38/38 42/42/42 
f 35/35/35 34/34/34 44/44/44 40/40/40 
f 33/33/33 45/45/45 44/44/44 34/34/34 
f 46/46/46 47/47/47 44/44/44 45/45/45 
f 41/41/41 40/40/40 44/44/44 47/47/47 
f 33/33/33 32/32/32 48/48/48 45/45/45 
f 31/31/31 49/49/49 48/48/48 32/32/32 
f 50/50/50 51/51/51 48/48/48 49/49/49 
f 46/46/46 45/45/45 48/48/48 51/51/51 
f 31/31/31 30/30/30 52/52/52 49/49/49 
f 29/29/29 53/53/53 52/52/52 30/30/30 
f 54/54/54 55/55/55 52/52/52 53/53/53 
f 50/50/50 49/49/49 52/52/52 55/55/55 
f 29/56/29 28/57/28 56/58/56 53/59/53 
f 27/60/27 57/61/57 56/58/56 28/57/28 
f 58/62/58 59/63/59 56/58/56 57/61/57 
f 54/64/54 53/59/53 56/58/56 59/63/59 
f 27/60/27 26/65/26 60/66/60 57/61/57 
f 25/67/25 61/68/61 60/66/60 26/65/26 
f 62/69/62 63/70/63 60/66/60 61/68/61 
f 58/62/58 57/61/57 60/66/60 63/70/63 
f 25/67/25 24/71/24 64/72/64 61/68/61 
f 23/73/23 65/74/65 64/72/64 24/71/24 
f 66/75/66 67/76/67 64/72/64 65/74/65 
f 62/69/62 61/68/61 64/72/64 67/76/67 
f 23/73/23 22/77/22 68/78/68 65/74/65 
f 21/79/21 69/80/69 68/78/68 22/77/22 
f 70/81/70 71/82/71 68/78/68 69/80/69 
f 66/75/66 65/74/65 68/78/68 71/82/71 
f 21/79/21 20/83/20 72/84/72 69/80/69 
f 19/85/19 73/86/73 72/84/72 20/83/20 
f 74/87/74 75/88/75 72/84/72 73/86/73 
f 70/81/70 69/80/69 72/84/72 75/88/75 
f 19/85/19 18/89/18 76/90/76 73/86/73 
f 17/91/17 77/92/77 76/90/76 18/89/18 
f 78/93/78 79/94/79 76/90/76 77/92/77 
f 74/87/74 73/86/73 76/90/76 79/94/79 
f 17/91/17 16/95/16 80/96/80 77/92/77 
f 15/97/15 81/98/81 80/96/80 16/95/16 
f 82/99/82 83/100/83 80/96/80 81/98/81 
f 78/93/78 77/92/77 80/96/80 83/100/83 
f 15/97/15 14/101/14 84/102/84 81/98/81 
f 13/103/13 85/104/85 84/102/84 14/101/14 
f 86/105/86 87/106/87 84/102/84 85/104/85 
f 82/99/82 81/98/81 84/102/84 87/106/87 
f 13/103/13 12/107/12 88/108/88 85/104/85 
f 11/109/11 89/110/89 88/108/88 12/107/12 
f 90/111/90 91/112/91 88/108/88 89/110/89 
f 86/105/86 85/104/85 88/108/88 91/112/91 
f 11/109/11 10/113/10 92/114/92 89/110/89 
f 9/115/9 93/116/93 92/114/92 10/113/10 
f 94/117/94 95/118/95 92/114/92 93/116/93 
f 90/111/90 89/110/89 92/114/92 95/118/95 
f 9/115/9 8/119/8 96/120/96 93/116/93 
f 7/121/7 97/122/97 96/120/96 8/119/8 
f 98/123/98 99/124/99 96/120/96 97/122/97 
f 94/117/94 93/116/93 96/120/96 99/124/99 
f 7/121/7 6/125/6 100/126/100 97/122/97 
f 5/127/5 101/128/101 100/126/100 6/125/6 
f 102/129/102 103/130/103 100/126/100 101/128/101 
f 98/123/98 97/122/97 100/126/100 103/130/103 
f 5/127/5 2/131/2 104/132/104 101/128/101 
f 1/133/1 105/134/105 104/132/104 2/131/2 
f 106/135/106 107/136/107 104/132/104 105/134/105 
f 102/129/102 101/128/101 104/132/104 107/136/107 
f 1/133/1 4/137/4 108/138/108 105/134/105 
f 37/37/37 39/39/39 108/138/108 4/137/4 
f 43/43/43 109/139/109 108/138/108 39/39/39 
f 106/135/106 105/134/105 108/138/108 109/139/109 
f 43/43/43 42/42/42 110/140/110 111/141/43 
f 41/41/41 112/142/41 110/140/110 42/42/42 
f 113/143/111 114/144/110 110/140/110 112/142/41 
f 115/145/43 111/141/43 110/140/110 114/144/110 
f 41/41/41 47/47/47 116/146/47 112/142/41 
f 46/46/46 117/147/46 116/146/47 47/47/47 
f 118/148/112 119/149/47 116/146/47 117/147/46 
f 113/143/111 112/142/41 116/146/47 119/149/47 
f 46/46/46 51/51/51 120/150/113 117/147/46 
f 50/50/50 121/151/50 120/150/113 51/51/51 
f 122/152/50 123/153/113 120/150/113 121/151/50 
f 118/148/112 117/147/46 120/150/113 123/153/113 
f 50/50/50 55/55/55 124/154/55 121/151/50 
f 54/54/54 125/155/54 124/154/55 55/55/55 
f 126/156/114 127/157/55 124/154/55 125/155/54 
f 122/152/50 121/151/50 124/154/55 127/157/55 
f 54/64/54 59/63/59 128/158/115 125/159/54 
f 58/62/58 129/160/116 128/158/115 59/63/59 
f 130/161/116 131/162/117 128/158/115 129/160/116 
f 126/163/114 125/159/54 128/158/115 131/162/117 
f 58/62/58 63/70/63 132/164/118 129/160/116 
f 62/69/62 133/165/62 132/164/118 63/70/63 
f 134/166/119 135/167/118 132/164/118 133/165/62 
f 130/161/116 129/160/116 132/164/118 135/167/118 
f 62/69/62 67/76/67 136/168/67 133/165/62 
f 66/75/66 137/169/66 136/168/67 67/76/67 
f 138/170/66 139/171/67 136/168/67 137/169/66 
f 134/166/119 133/165/62 136/168/67 139/171/67 
f 66/75/66 71/82/71 140/172/71 137/169/66 
f 70/81/70 141/173/70 140/172/71 71/82/71 
f 142/174/120 143/175/71 140/172/71 141/173/70 
f 138/170/66 137/169/66 140/172/71 143/175/71 
f 70/81/70 75/88/75 144/176/75 141/173/70 
f 74/87/74 145/177/74 144/176/75 75/88/75 
f 146/178/121 147/179/75 144/176/75 145/177/74 
f 142/174/120 141/173/70 144/176/75 147/179/75 
f 74/87/74 79/94/79 148/180/79 145/177/74 
f 78/93/78 149/181/78 148/180/79 79/94/79 
f 150/182/78 151/183/79 148/180/79 149/181/78 
f 146/178/121 145/177/74 148/180/79 151/183/79 
f 78/93/78 83/100/83 152/184/83 149/181/78 
f 82/99/82 153/185/82 152/184/83 83/100/83 
f 154/186/82 155/187/83 152/184/83 153/185/82 
f 150/182/78 149/181/78 152/184/83 155/187/83 
f 82/99/82 87/106/87 156/188/87 153/185/82 
f 86/105/86 157/189/86 156/188/87 87/106/87 
f 158/190/86 159/191/87 156/188/87 157/189/86 
f 154/186/82 153/185/82 156/188/87 159/191/87 
f 86/105/86 91/112/91 160/192/91 157/189/86 
f 90/111/90 161/193/90 160/192/91 91/112/91 
f 162/194/122 163/195/91 160/192/91 161/193/90 
f 158/190/86 157/189/86 160/192/91 163/195/91 
f 90/111/90 95/118/95 164/196/123 161/193/90 
f 94/117/94 165/197/94 164/196/123 95/118/95 
f 166/198/94 167/199/123 164/196/123 165/197/94 
f 162/194/122 161/193/90 164/196/123 167/199/123 
f 94/117/94 99/124/99 168/200/99 165/197/94 
f 98/123/98 169/201/98 168/200/99 99/124/99 
f 170/202/98 171/203/99 168/200/99 169/201/98 
f 166/198/94 165/197/94 168/200/99 171/203/99 
f 98/123/98 103/130/103 172/204/124 169/201/98 
f 102/129/102 173/205/102 172/204/124 103/130/103 
f 174/206/102 175/207/124 172/204/124 173/205/102 
f 170/202/98 169/201/98 172/204/124 175/207/124 
f 102/129/102 107/136/107 176/208/107 173/205/102 
f 106/135/106 177/209/106 176/208/107 107/136/107 
f 178/210/106 179/211/107 176/208/107 177/209/106 
f 174/206/102 173/205/102 176/208/107 179/211/107 
f 106/135/106 109/139/109 180/212/109 177/209/106 
f 43/43/43 111/141/43 180/212/109 109/139/109 
f 115/145/43 181/213/109 180/212/109 111/141/43 
f 178/210/106 177/209/106 180/212/109 181/213/109 
f 115/145/43 114/144/110 182/214/125 183/215/43 
f 113/143/111 184/216/111 182/214/125 114/144/110 
f 185/217/111 186/218/110 182/214/125 184/216/111 
f 187/219/43 183/215/43 182/214/125 186/218/110 
f 113/143/111 119/149/47 188/220/47 184/216/111 
f 118/148/112 189/221/112 188/220/47 119/149/47 
f 190/222/112 191/223/47 188/220/47 189/221/112 
f 185/217/111 184/216/111 188/220/47 191/223/47 
f 118/148/112 123/153/113 192/224/113 189/221/112 
f 122/152/50 193/225/50 192/224/113 123/153/113 
f 194/226/50 195/227/113 192/224/113 193/225/50 
f 190/222/112 189/221/112 192/224/113 195/227/113 
f 122/152/50 127/157/55 196/228/55 193/225/50 
f 126/156/114 197/229/114 196/228/55 127/157/55 
f 198/230/114 199/231/55 196/228/55 197/229/114 
f 194/226/50 193/225/50 196/228/55 199/231/55 
f 126/163/114 131/162/117 200/232/117 197/233/114 
f 130/161/116 201/234/116 200/232/117 131/162/117 
f 202/235/116 203/236/59 200/232/117 201/234/116 
f 198/237/114 197/233/114 200/232/117 203/236/59 
f 130/161/116 135/167/118 204/238/118 201/234/116 
f 134/166/119 205/239/62 204/238/118 135/167/118 
f 206/240/62 207/241/118 204/238/118 205/239/62 
f 202/235/116 201/234/116 204/238/118 207/241/118 
f 134/166/119 139/171/67 208/242/67 205/239/62 
f 138/170/66 209/243/66 208/242/67 139/171/67 
f 210/244/66 211/245/67 208/242/67 209/243/66 
f 206/240/62 205/239/62 208/242/67 211/245/67 
f 138/170/66 143/175/71 212/246/71 209/243/66 
f 142/174/120 213/247/120 212/246/71 143/175/71 
f 214/248/120 215/249/71 212/246/71 213/247/120 
f 210/244/66 209/243/66 212/246/71 215/249/71 
f 142/174/120 147/179/75 216/250/126 213/247/120 
f 146/178/121 217/251/121 216/250/126 147/179/75 
f 218/252/127 219/253/75 216/250/126 217/251/121 
f 214/248/120 213/247/120 216/250/126 219/253/75 
f 146/178/121 151/183/79 220/254/79 217/251/121 
f 150/182/78 221/255/78 220/254/79 151/183/79 
f 222/256/78 223/257/79 220/254/79 221/255/78 
f 218/252/127 217/251/121 220/254/79 223/257/79 
f 150/182/78 155/187/83 224/258/83 221/255/78 
f 154/186/82 225/259/128 224/258/83 155/187/83 
f 226/260/128 227/261/83 224/258/83 225/259/128 
f 222/256/78 221/255/78 224/258/83 227/261/83 
f 154/186/82 159/191/87 228/262/87 225/259/128 
f 158/190/86 229/263/86 228/262/87 159/191/87 
f 230/264/86 231/265/87 228/262/87 229/263/86 
f 226/260/128 225/259/128 228/262/87 231/265/87 
f 158/190/86 163/195/91 232/266/91 229/263/86 
f 162/194/122 233/267/122 232/266/91 163/195/91 
f 234/268/122 235/269/91 232/266/91 233/267/122 
f 230/264/86 229/263/86 232/266/91 235/269/91 
f 162/194/122 167/199/123 236/270/123 233/267/122 
f 166/198/94 237/271/129 236/270/123 167/199/123 
f 238/272/130 239/273/95 236/270/123 237/271/129 
f 234/268/122 233/267/122 236/270/123 239/273/95 
f 166/198/94 171/203/99 240/274/99 237/271/129 
f 170/202/98 241/275/98 240/274/99 171/203/99 
f 242/276/131 243/277/99 240/274/99 241/275/98 
f 238/272/130 237/271/129 240/274/99 243/277/99 
f 170/202/98 175/207/124 244/278/124 241/275/98 
f 174/206/102 245/279/102 244/278/124 175/207/124 
f 246/280/102 247/281/124 244/278/124 245/279/102 
f 242/276/131 241/275/98 244/278/124 247/281/124 
f 174/206/102 179/211/107 248/282/107 245/279/102 
f 178/210/106 249/283/132 248/282/107 179/211/107 
f 250/284/132 251/285/107 248/282/107 249/283/132 
f 246/280/102 245/279/102 248/282/107 251/285/107 
f 178/210/106 181/213/109 252/286/109 249/283/132 
f 115/145/43 183/215/43 252/286/109 181/213/109 
f 187/219/43 253/287/109 252/286/109 183/215/43 
f 250/284/132 249/283/132 252/286/109 253/287/109 
f 187/219/43 186/218/110 254/288/125 255/289/43 
f 185/217/111 256/290/111 254/288/125 186/218/110 
f 257/291/111 258/292/110 254/288/125 256/290/111 
f 259/293/43 255/289/43 254/288/125 258/292/110 
f 185/217/111 191/223/47 260/294/47 256/290/111 
f 190/222/112 261/295/133 260/294/47 191/223/47 
f 262/296/112 263/297/47 260/294/47 261/295/133 
f 257/291/111 256/290/111 260/294/47 263/297/47 
f 190/222/112 195/227/113 264/298/113 261/295/133 
f 194/226/50 265/299/50 264/298/113 195/227/113 
f 266/300/50 267/301/113 264/298/113 265/299/50 
f 262/296/112 261/295/133 264/298/113 267/301/113 
f 194/226/50 199/231/55 268/302/55 265/299/50 
f 198/230/114 269/303/114 268/302/55 199/231/55 
f 270/304/114 271/305/55 268/302/55 269/303/114 
f 266/300/50 265/299/50 268/302/55 271/305/55 
f 198/237/114 203/236/59 272/306/59 269/307/114 
f 202/235/116 273/308/116 272/306/59 203/236/59 
f 274/309/116 275/310/59 272/306/59 273/308/116 
f 270/311/114 269/307/114 272/306/59 275/310/59 
f 202/235/116 207/241/118 276/312/118 273/308/116 
f 206/240/62 277/313/62 276/312/118 207/241/118 
f 278/314/62 279/315/118 276/312/118 277/313/62 
f 274/309/116 273/308/116 276/312/118 279/315/118 
f 206/240/62 211/245/67 280/316/67 277/313/62 
f 210/244/66 281/317/66 280/316/67 211/245/67 
f 282/318/66 283/319/67 280/316/67 281/317/66 
f 278/314/62 277/313/62 280/316/67 283/319/67 
f 210/244/66 215/249/71 284/320/71 281/317/66 
f 214/248/120 285/321/120 284/320/71 215/249/71 
f 286/322/120 287/323/71 284/320/71 285/321/120 
f 282/318/66 281/317/66 284/320/71 287/323/71 
f 214/248/120 219/253/75 288/324/126 285/321/120 
f 218/252/127 289/325/121 288/324/126 219/253/75 
f 290/326/127 291/327/75 288/324/126 289/325/121 
f 286/322/120 285/321/120 288/324/126 291/327/75 
f 218/252/127 223/257/79 292/328/79 289/325/121 
f 222/256/78 293/329/78 292/328/79 223/257/79 
f 294/330/78 295/331/79 292/328/79 293/329/78 
f 290/326/127 289/325/121 292/328/79 295/331/79 
f 222/256/78 227/261/83 296/332/83 293/329/78 
f 226/260/128 297/333/128 296/332/83 227/261/83 
f 298/334/128 299/335/83 296/332/83 297/333/128 
f 294/330/78 293/329/78 296/332/83 299/335/83 
f 226/260/128 231/265/87 300/336/87 297/333/128 
f 230/264/86 301/337/86 300/336/87 231/265/87 
f 302/338/86 303/339/87 300/336/87 301/337/86 
f 298/334/128 297/333/128 300/336/87 303/339/87 
f 230/264/86 235/269/91 304/340/91 301/337/86 
f 234/268/122 305/341/122 304/340/91 235/269/91 
f 306/342/122 307/343/91 304/340/91 305/341/122 
f 302/338/86 301/337/86 304/340/91 307/343/91 
f 234/268/122 239/273/95 308/344/95 305/341/122 
f 238/272/130 309/345/129 308/344/95 239/273/95 
f 310/346/130 311/347/95 308/344/95 309/345/129 
f 306/342/122 305/341/122 308/344/95 311/347/95 
f 238/272/130 243/277/99 312/348/99 309/345/129 
f 242/276/131 313/349/131 312/348/99 243/277/99 
f 314/350/131 315/351/99 312/348/99 313/349/131 
f 310/346/130 309/345/129 312/348/99 315/351/99 
f 242/276/131 247/281/124 316/352/124 313/349/131 
f 246/280/102 317/353/102 316/352/124 247/281/124 
f 318/354/102 319/355/124 316/352/124 317/353/102 
f 314/350/131 313/349/131 316/352/124 319/355/124 
f 246/280/102 251/285/107 320/356/107 317/353/102 
f 250/284/132 321/357/132 320/356/107 251/285/107 
f 322/358/132 323/359/107 320/356/107 321/357/132 
f 318/354/102 317/353/102 320/356/107 323/359/107 
f 250/284/132 253/287/109 324/360/109 321/357/132 
f 187/219/43 255/289/43 324/360/109 253/287/109 
f 259/293/43 325/361/109 324/360/109 255/289/43 
f 322/358/132 321/357/132 324/360/109 325/361/109 
f 259/293/43 258/292/110 326/362/134 327/363/135 
f 257/291/111 328/364/136 326/362/134 258/292/110 
f 329/365/137 330/366/138 326/362/134 328/364/136 
f 331/367/139 327/363/135 326/362/134 330/366/138 
f 257/291/111 263/297/47 332/368/140 328/364/136 
f 262/296/112 333/369/141 332/368/140 263/297/47 
f 334/370/142 335/371/143 332/368/140 333/369/141 
f 329/365/137 328/364/136 332/368/140 335/371/143 
f 262/296/112 267/301/113 336/372/144 333/369/141 
f 266/300/50 337/373/145 336/372/144 267/301/113 
f 338/374/146 339/375/147 336/372/144 337/373/145 
f 334/370/142 333/369/141 336/372/144 339/375/147 
f 266/300/50 271/305/55 340/376/148 337/373/145 
f 270/304/114 341/377/149 340/376/148 271/305/55 
f 342/378/150 343/379/151 340/376/148 341/377/149 
f 338/374/146 337/373/145 340/376/148 343/379/151 
f 270/311/114 275/310/59 344/380/152 341/381/149 
f 274/309/116 345/382/153 344/380/152 275/310/59 
f 346/383/154 347/384/155 344/380/152 345/382/153 
f 342/385/150 341/381/149 344/380/152 347/384/155 
f 274/309/116 279/315/118 348/386/156 345/382/153 
f 278/314/62 349/387/157 348/386/156 279/315/118 
f 350/388/158 351/389/159 348/386/156 349/387/157 
f 346/383/154 345/382/153 348/386/156 351/389/159 
f 278/314/62 283/319/67 352/390/160 349/387/157 
f 282/318/66 353/391/161 352/390/160 283/319/67 
f 354/392/162 355/393/163 352/390/160 353/391/161 
f 350/388/158 349/387/157 352/390/160 355/393/163 
f 282/318/66 287/323/71 356/394/164 353/391/161 
f 286/322/120 357/395/165 356/394/164 287/323/71 
f 358/396/166 359/397/167 356/394/164 357/395/165 
f 354/392/162 353/391/161 356/394/164 359/397/167 
f 286/322/120 291/327/75 360/398/168 357/395/165 
f 290/326/127 361/399/169 360/398/168 291/327/75 
f 362/400/170 363/401/171 360/398/168 361/399/169 
f 358/396/166 357/395/165 360/398/168 363/401/171 
f 290/326/127 295/331/79 364/402/172 361/399/169 
f 294/330/78 365/403/173 364/402/172 295/331/79 
f 366/404/174 367/405/175 364/402/172 365/403/173 
f 362/400/170 361/399/169 364/402/172 367/405/175 
f 294/330/78 299/335/83 368/406/176 365/403/173 
f 298/334/128 369/407/177 368/406/176 299/335/83 
f 370/408/178 371/409/179 368/406/176 369/407/177 
f 366/404/174 365/403/173 368/406/176 371/409/179 
f 298/334/128 303/339/87 372/410/180 369/407/177 
f 302/338/86 373/411/181 372/410/180 303/339/87 
f 374/412/182 375/413/183 372/410/180 373/411/181 
f 370/408/178 369/407/177 372/410/180 375/413/183 
f 302/338/86 307/343/91 376/414/184 373/411/181 
f 306/342/122 377/415/185 376/414/184 307/343/91 
f 378/416/186 379/417/187 376/414/184 377/415/185 
f 374/412/182 373/411/181 376/414/184 379/417/187 
f 306/342/122 311/347/95 380/418/188 377/415/185 
f 310/346/130 381/419/189 380/418/188 311/347/95 
f 382/420/190 383/421/191 380/418/188 381/419/189 
f 378/416/186 377/415/185 380/418/188 383/421/191 
f 310/346/130 315/351/99 384/422/192 381/419/189 
f 314/350/131 385/423/193 384/422/192 315/351/99 
f 386/424/194 387/425/195 384/422/192 385/423/193 
f 382/420/190 381/419/189 384/422/192 387/425/195 
f 314/350/131 319/355/124 388/426/196 385/423/193 
f 318/354/102 389/427/197 388/426/196 319/355/124 
f 390/428/198 391/429/199 388/426/196 389/427/197 
f 386/424/194 385/423/193 388/426/196 391/429/199 
f 318/354/102 323/359/107 392/430/200 389/427/197 
f 322/358/132 393/431/201 392/430/200 323/359/107 
f 394/432/202 395/433/203 392/430/200 393/431/201 
f 390/428/198 389/427/197 392/430/200 395/433/203 
f 322/358/132 325/361/109 396/434/204 393/431/201 
f 259/293/43 327/363/135 396/434/204 325/361/109 
f 331/367/139 397/435/205 396/434/204 327/363/135 
f 394/432/202 393/431/201 396/434/204 397/435/205 
s 1
f 394/432/202 397/435/205 398/436/206 395/437/203 
f 331/367/139 330/366/138 398/436/206 397/435/205 
f 329/365/137 335/371/143 398/436/206 330/366/138 
f 334/370/142 339/375/147 398/436/206 335/371/143 
f 338/374/146 343/379/151 398/436/206 339/375/147 
f 342/378/150 347/438/155 398/436/206 343/379/151 
f 346/439/154 351/440/159 398/436/206 347/438/155 
f 350/441/158 355/442/163 398/436/206 351/440/159 
f 354/443/162 359/444/167 398/436/206 355/442/163 
f 358/445/166 363/446/171 398/436/206 359/444/167 
f 362/447/170 367/448/175 398/436/206 363/446/171 
f 366/449/174 371/450/179 398/436/206 367/448/175 
f 370/451/178 375/452/183 398/436/206 371/450/179 
f 374/453/182 379/454/187 398/436/206 375/452/183 
f 378/455/186 383/456/191 398/436/206 379/454/187 
f 382/457/190 387/458/195 398/436/206 383/456/191 
f 386/459/194 391/460/199 398/436/206 387/458/195 
f 390/461/198 395/437/203 398/436/206 391/460/199 
# 396 polygons

#
# object Cylinder002
#

v  3.5684 -0.2516 1.2988
v  2.7959 -0.2588 1.6142
v  -0.0000 -0.2679 0.0000
v  3.1794 -0.2588 0.5606
v  2.9090 -0.2516 2.4410
v  2.0752 -0.2588 2.4731
v  1.8987 -0.2516 3.2887
v  1.1042 -0.2588 3.0337
v  0.6594 -0.2516 3.7398
v  -0.0000 -0.2588 3.2284
v  -0.6594 -0.2516 3.7398
v  -1.1042 -0.2588 3.0337
v  -1.8987 -0.2516 3.2887
v  -2.0752 -0.2588 2.4731
v  -2.9090 -0.2516 2.4410
v  -2.7959 -0.2588 1.6142
v  -3.5684 -0.2516 1.2988
v  -3.1794 -0.2588 0.5606
v  -3.7974 -0.2516 -0.0000
v  -3.1794 -0.2588 -0.5606
v  -3.5684 -0.2516 -1.2988
v  -2.7959 -0.2588 -1.6142
v  -2.9090 -0.2516 -2.4410
v  -2.0752 -0.2588 -2.4731
v  -1.8987 -0.2516 -3.2887
v  -1.1042 -0.2588 -3.0337
v  -0.6594 -0.2516 -3.7398
v  -0.0000 -0.2588 -3.2284
v  0.6594 -0.2516 -3.7398
v  1.1042 -0.2588 -3.0337
v  1.8987 -0.2516 -3.2887
v  2.0752 -0.2588 -2.4731
v  2.9090 -0.2516 -2.4410
v  2.7959 -0.2588 -1.6142
v  3.5684 -0.2516 -1.2988
v  3.1794 -0.2588 -0.5606
v  3.7974 -0.2516 0.0000
v  4.2392 -0.2313 -0.7475
v  4.3051 -0.2313 0.0000
v  4.0454 -0.2313 -1.4724
v  4.0455 -0.1946 -1.4724
v  4.2392 -0.1946 -0.7475
v  4.3051 -0.1946 0.0000
v  3.7279 -0.2313 -2.1523
v  3.2979 -0.2313 -2.7673
v  3.2979 -0.1946 -2.7673
v  3.7279 -0.1946 -2.1523
v  2.7669 -0.2313 -3.2975
v  2.1525 -0.2313 -3.7283
v  2.1525 -0.1946 -3.7283
v  2.7669 -0.1946 -3.2975
v  1.4723 -0.2313 -4.0450
v  0.7476 -0.2313 -4.2397
v  0.7476 -0.1946 -4.2397
v  1.4723 -0.1946 -4.0450
v  -0.0000 -0.2313 -4.3046
v  -0.7476 -0.2313 -4.2397
v  -0.7476 -0.1946 -4.2397
v  -0.0000 -0.1946 -4.3046
v  -1.4723 -0.2313 -4.0450
v  -2.1525 -0.2313 -3.7283
v  -2.1525 -0.1946 -3.7283
v  -1.4723 -0.1946 -4.0450
v  -2.7669 -0.2313 -3.2975
v  -3.2979 -0.2313 -2.7673
v  -3.2979 -0.1946 -2.7673
v  -2.7669 -0.1946 -3.2975
v  -3.7279 -0.2313 -2.1523
v  -4.0454 -0.2313 -1.4724
v  -4.0455 -0.1946 -1.4724
v  -3.7279 -0.1946 -2.1523
v  -4.2392 -0.2313 -0.7475
v  -4.3051 -0.2313 -0.0000
v  -4.3051 -0.1946 -0.0000
v  -4.2392 -0.1946 -0.7475
v  -4.2392 -0.2313 0.7475
v  -4.0455 -0.2313 1.4724
v  -4.0455 -0.1946 1.4724
v  -4.2392 -0.1946 0.7475
v  -3.7279 -0.2313 2.1523
v  -3.2979 -0.2313 2.7672
v  -3.2979 -0.1946 2.7672
v  -3.7279 -0.1946 2.1523
v  -2.7669 -0.2313 3.2975
v  -2.1525 -0.2313 3.7283
v  -2.1525 -0.1946 3.7283
v  -2.7669 -0.1946 3.2975
v  -1.4723 -0.2313 4.0450
v  -0.7476 -0.2313 4.2397
v  -0.7476 -0.1946 4.2397
v  -1.4723 -0.1946 4.0450
v  -0.0000 -0.2313 4.3046
v  0.7476 -0.2313 4.2397
v  0.7476 -0.1946 4.2397
v  -0.0000 -0.1946 4.3046
v  1.4722 -0.2313 4.0450
v  2.1525 -0.2313 3.7283
v  2.1525 -0.1946 3.7283
v  1.4722 -0.1946 4.0450
v  2.7669 -0.2313 3.2975
v  3.2979 -0.2313 2.7673
v  3.2979 -0.1946 2.7673
v  2.7669 -0.1946 3.2975
v  3.7279 -0.2313 2.1523
v  4.0454 -0.2313 1.4724
v  4.0454 -0.1946 1.4724
v  3.7279 -0.1946 2.1523
v  4.2392 -0.2313 0.7475
v  4.2392 -0.1946 0.7475
v  4.2392 -0.1579 -0.7475
v  4.3051 -0.1579 0.0000
v  4.0454 -0.1579 -1.4724
v  4.0455 -0.1212 -1.4724
v  4.2392 -0.1212 -0.7475
v  4.3051 -0.1212 0.0000
v  3.7279 -0.1579 -2.1523
v  3.2979 -0.1579 -2.7673
v  3.2979 -0.1212 -2.7673
v  3.7279 -0.1212 -2.1523
v  2.7669 -0.1579 -3.2975
v  2.1525 -0.1579 -3.7283
v  2.1525 -0.1212 -3.7283
v  2.7669 -0.1212 -3.2975
v  1.4723 -0.1579 -4.0450
v  0.7476 -0.1579 -4.2397
v  0.7476 -0.1212 -4.2397
v  1.4723 -0.1212 -4.0450
v  -0.0000 -0.1579 -4.3046
v  -0.7476 -0.1579 -4.2397
v  -0.7476 -0.1212 -4.2397
v  -0.0000 -0.1212 -4.3046
v  -1.4723 -0.1579 -4.0450
v  -2.1525 -0.1579 -3.7283
v  -2.1525 -0.1212 -3.7283
v  -1.4723 -0.1212 -4.0450
v  -2.7669 -0.1579 -3.2975
v  -3.2979 -0.1579 -2.7673
v  -3.2979 -0.1212 -2.7673
v  -2.7669 -0.1212 -3.2975
v  -3.7279 -0.1579 -2.1523
v  -4.0454 -0.1579 -1.4724
v  -4.0455 -0.1212 -1.4724
v  -3.7279 -0.1212 -2.1523
v  -4.2392 -0.1579 -0.7475
v  -4.3051 -0.1579 -0.0000
v  -4.3051 -0.1212 -0.0000
v  -4.2392 -0.1212 -0.7475
v  -4.2392 -0.1579 0.7475
v  -4.0455 -0.1579 1.4724
v  -4.0455 -0.1212 1.4724
v  -4.2392 -0.1212 0.7475
v  -3.7279 -0.1579 2.1523
v  -3.2979 -0.1579 2.7672
v  -3.2979 -0.1212 2.7672
v  -3.7279 -0.1212 2.1523
v  -2.7669 -0.1579 3.2975
v  -2.1525 -0.1579 3.7283
v  -2.1525 -0.1212 3.7283
v  -2.7669 -0.1212 3.2975
v  -1.4723 -0.1579 4.0450
v  -0.7476 -0.1579 4.2397
v  -0.7476 -0.1212 4.2397
v  -1.4723 -0.1212 4.0450
v  -0.0000 -0.1579 4.3046
v  0.7476 -0.1579 4.2397
v  0.7476 -0.1212 4.2397
v  -0.0000 -0.1212 4.3046
v  1.4722 -0.1579 4.0450
v  2.1525 -0.1579 3.7283
v  2.1525 -0.1212 3.7283
v  1.4722 -0.1212 4.0450
v  2.7669 -0.1579 3.2975
v  3.2979 -0.1579 2.7673
v  3.2979 -0.1212 2.7673
v  2.7669 -0.1212 3.2975
v  3.7279 -0.1579 2.1523
v  4.0454 -0.1579 1.4724
v  4.0454 -0.1212 1.4724
v  3.7279 -0.1212 2.1523
v  4.2392 -0.1579 0.7475
v  4.2392 -0.1212 0.7475
v  4.2392 -0.0845 -0.7475
v  4.3051 -0.0845 0.0000
v  4.0454 -0.0845 -1.4724
v  4.0455 -0.0479 -1.4724
v  4.2392 -0.0479 -0.7475
v  4.3051 -0.0479 0.0000
v  3.7279 -0.0845 -2.1523
v  3.2979 -0.0845 -2.7673
v  3.2979 -0.0479 -2.7673
v  3.7279 -0.0479 -2.1523
v  2.7669 -0.0845 -3.2975
v  2.1525 -0.0845 -3.7283
v  2.1525 -0.0479 -3.7283
v  2.7669 -0.0479 -3.2975
v  1.4723 -0.0845 -4.0450
v  0.7476 -0.0845 -4.2397
v  0.7476 -0.0479 -4.2397
v  1.4723 -0.0479 -4.0450
v  -0.0000 -0.0845 -4.3046
v  -0.7476 -0.0845 -4.2397
v  -0.7476 -0.0479 -4.2397
v  -0.0000 -0.0479 -4.3046
v  -1.4723 -0.0845 -4.0450
v  -2.1525 -0.0845 -3.7283
v  -2.1525 -0.0479 -3.7283
v  -1.4723 -0.0479 -4.0450
v  -2.7669 -0.0845 -3.2975
v  -3.2979 -0.0845 -2.7673
v  -3.2979 -0.0479 -2.7673
v  -2.7669 -0.0479 -3.2975
v  -3.7279 -0.0845 -2.1523
v  -4.0454 -0.0845 -1.4724
v  -4.0455 -0.0479 -1.4724
v  -3.7279 -0.0479 -2.1523
v  -4.2392 -0.0845 -0.7475
v  -4.3051 -0.0845 -0.0000
v  -4.3051 -0.0479 -0.0000
v  -4.2392 -0.0479 -0.7475
v  -4.2392 -0.0845 0.7475
v  -4.0455 -0.0845 1.4724
v  -4.0455 -0.0479 1.4724
v  -4.2392 -0.0479 0.7475
v  -3.7279 -0.0845 2.1523
v  -3.2979 -0.0845 2.7672
v  -3.2979 -0.0479 2.7672
v  -3.7279 -0.0479 2.1523
v  -2.7669 -0.0845 3.2975
v  -2.1525 -0.0845 3.7283
v  -2.1525 -0.0479 3.7283
v  -2.7669 -0.0479 3.2975
v  -1.4723 -0.0845 4.0450
v  -0.7476 -0.0845 4.2397
v  -0.7476 -0.0479 4.2397
v  -1.4723 -0.0479 4.0450
v  -0.0000 -0.0845 4.3046
v  0.7476 -0.0845 4.2397
v  0.7476 -0.0479 4.2397
v  -0.0000 -0.0479 4.3046
v  1.4722 -0.0845 4.0450
v  2.1525 -0.0845 3.7283
v  2.1525 -0.0479 3.7283
v  1.4722 -0.0479 4.0450
v  2.7669 -0.0845 3.2975
v  3.2979 -0.0845 2.7673
v  3.2979 -0.0479 2.7673
v  2.7669 -0.0479 3.2975
v  3.7279 -0.0845 2.1523
v  4.0454 -0.0845 1.4724
v  4.0454 -0.0479 1.4724
v  3.7279 -0.0479 2.1523
v  4.2392 -0.0845 0.7475
v  4.2392 -0.0479 0.7475
v  4.2392 -0.0112 -0.7475
v  4.3051 -0.0112 0.0000
v  4.0454 -0.0112 -1.4724
v  4.0455 0.0255 -1.4724
v  4.2392 0.0255 -0.7475
v  4.3051 0.0255 0.0000
v  3.7279 -0.0112 -2.1523
v  3.2979 -0.0112 -2.7673
v  3.2979 0.0255 -2.7673
v  3.7279 0.0255 -2.1523
v  2.7669 -0.0112 -3.2975
v  2.1525 -0.0112 -3.7283
v  2.1525 0.0255 -3.7283
v  2.7669 0.0255 -3.2975
v  1.4723 -0.0112 -4.0450
v  0.7476 -0.0112 -4.2397
v  0.7476 0.0255 -4.2397
v  1.4723 0.0255 -4.0450
v  -0.0000 -0.0112 -4.3046
v  -0.7476 -0.0112 -4.2397
v  -0.7476 0.0255 -4.2397
v  -0.0000 0.0255 -4.3046
v  -1.4723 -0.0112 -4.0450
v  -2.1525 -0.0112 -3.7283
v  -2.1525 0.0255 -3.7283
v  -1.4723 0.0255 -4.0450
v  -2.7669 -0.0112 -3.2975
v  -3.2979 -0.0112 -2.7673
v  -3.2979 0.0255 -2.7673
v  -2.7669 0.0255 -3.2975
v  -3.7279 -0.0112 -2.1523
v  -4.0454 -0.0112 -1.4724
v  -4.0455 0.0255 -1.4724
v  -3.7279 0.0255 -2.1523
v  -4.2392 -0.0112 -0.7475
v  -4.3051 -0.0112 -0.0000
v  -4.3051 0.0255 -0.0000
v  -4.2392 0.0255 -0.7475
v  -4.2392 -0.0112 0.7475
v  -4.0455 -0.0112 1.4724
v  -4.0455 0.0255 1.4724
v  -4.2392 0.0255 0.7475
v  -3.7279 -0.0112 2.1523
v  -3.2979 -0.0112 2.7672
v  -3.2979 0.0255 2.7672
v  -3.7279 0.0255 2.1523
v  -2.7669 -0.0112 3.2975
v  -2.1525 -0.0112 3.7283
v  -2.1525 0.0255 3.7283
v  -2.7669 0.0255 3.2975
v  -1.4723 -0.0112 4.0450
v  -0.7476 -0.0112 4.2397
v  -0.7476 0.0255 4.2397
v  -1.4723 0.0255 4.0450
v  -0.0000 -0.0112 4.3046
v  0.7476 -0.0112 4.2397
v  0.7476 0.0255 4.2397
v  -0.0000 0.0255 4.3046
v  1.4722 -0.0112 4.0450
v  2.1525 -0.0112 3.7283
v  2.1525 0.0255 3.7283
v  1.4722 0.0255 4.0450
v  2.7669 -0.0112 3.2975
v  3.2979 -0.0112 2.7673
v  3.2979 0.0255 2.7673
v  2.7669 0.0255 3.2975
v  3.7279 -0.0112 2.1523
v  4.0454 -0.0112 1.4724
v  4.0454 0.0255 1.4724
v  3.7279 0.0255 2.1523
v  4.2392 -0.0112 0.7475
v  4.2392 0.0255 0.7475
v  4.2392 0.0622 -0.7475
v  4.3051 0.0622 0.0000
v  4.0454 0.0622 -1.4724
v  3.5684 0.0825 -1.2988
v  3.1794 0.0897 -0.5606
v  3.7974 0.0825 0.0000
v  3.7279 0.0622 -2.1523
v  3.2979 0.0622 -2.7673
v  2.9090 0.0825 -2.4410
v  2.7959 0.0897 -1.6142
v  2.7669 0.0622 -3.2975
v  2.1525 0.0622 -3.7283
v  1.8987 0.0825 -3.2887
v  2.0752 0.0897 -2.4731
v  1.4723 0.0622 -4.0450
v  0.7476 0.0622 -4.2397
v  0.6594 0.0825 -3.7398
v  1.1042 0.0897 -3.0337
v  -0.0000 0.0622 -4.3046
v  -0.7476 0.0622 -4.2397
v  -0.6594 0.0825 -3.7398
v  -0.0000 0.0897 -3.2284
v  -1.4723 0.0622 -4.0450
v  -2.1525 0.0622 -3.7283
v  -1.8987 0.0825 -3.2887
v  -1.1042 0.0897 -3.0337
v  -2.7669 0.0622 -3.2975
v  -3.2979 0.0622 -2.7673
v  -2.9090 0.0825 -2.4410
v  -2.0752 0.0897 -2.4731
v  -3.7279 0.0622 -2.1523
v  -4.0454 0.0622 -1.4724
v  -3.5684 0.0825 -1.2988
v  -2.7959 0.0897 -1.6142
v  -4.2392 0.0622 -0.7475
v  -4.3051 0.0622 -0.0000
v  -3.7974 0.0825 -0.0000
v  -3.1794 0.0897 -0.5606
v  -4.2392 0.0622 0.7475
v  -4.0455 0.0622 1.4724
v  -3.5684 0.0825 1.2988
v  -3.1794 0.0897 0.5606
v  -3.7279 0.0622 2.1523
v  -3.2979 0.0622 2.7672
v  -2.9090 0.0825 2.4410
v  -2.7959 0.0897 1.6142
v  -2.7669 0.0622 3.2975
v  -2.1525 0.0622 3.7283
v  -1.8987 0.0825 3.2887
v  -2.0752 0.0897 2.4731
v  -1.4723 0.0622 4.0450
v  -0.7476 0.0622 4.2397
v  -0.6594 0.0825 3.7398
v  -1.1042 0.0897 3.0337
v  -0.0000 0.0622 4.3046
v  0.7476 0.0622 4.2397
v  0.6594 0.0825 3.7398
v  -0.0000 0.0897 3.2284
v  1.4722 0.0622 4.0450
v  2.1525 0.0622 3.7283
v  1.8987 0.0825 3.2887
v  1.1042 0.0897 3.0337
v  2.7669 0.0622 3.2975
v  3.2979 0.0622 2.7673
v  2.9090 0.0825 2.4410
v  2.0752 0.0897 2.4731
v  3.7279 0.0622 2.1523
v  4.0454 0.0622 1.4724
v  3.5684 0.0825 1.2988
v  2.7959 0.0897 1.6142
v  4.2392 0.0622 0.7475
v  3.1794 0.0897 0.5606
v  -0.0000 0.0988 0.0000
# 398 vertices

vn 0.0208 -0.9998 0.0076
vn 0.0054 -1.0000 0.0031
vn -0.0000 -1.0000 0.0000
vn 0.0061 -1.0000 0.0011
vn 0.0169 -0.9998 0.0142
vn 0.0040 -1.0000 0.0048
vn 0.0111 -0.9998 0.0191
vn 0.0021 -1.0000 0.0059
vn 0.0038 -0.9998 0.0218
vn -0.0000 -1.0000 0.0062
vn -0.0038 -0.9998 0.0218
vn -0.0021 -1.0000 0.0059
vn -0.0111 -0.9998 0.0191
vn -0.0040 -1.0000 0.0048
vn -0.0169 -0.9998 0.0142
vn -0.0054 -1.0000 0.0031
vn -0.0208 -0.9998 0.0076
vn -0.0061 -1.0000 0.0011
vn -0.0221 -0.9998 -0.0000
vn -0.0061 -1.0000 -0.0011
vn -0.0208 -0.9998 -0.0076
vn -0.0054 -1.0000 -0.0031
vn -0.0169 -0.9998 -0.0142
vn -0.0040 -1.0000 -0.0048
vn -0.0111 -0.9998 -0.0191
vn -0.0021 -1.0000 -0.0059
vn -0.0038 -0.9998 -0.0218
vn -0.0000 -1.0000 -0.0062
vn 0.0038 -0.9998 -0.0218
vn 0.0021 -1.0000 -0.0059
vn 0.0111 -0.9998 -0.0191
vn 0.0040 -1.0000 -0.0048
vn 0.0169 -0.9998 -0.0142
vn 0.0054 -1.0000 -0.0031
vn 0.0208 -0.9998 -0.0076
vn 0.0061 -1.0000 -0.0011
vn 0.0221 -0.9998 0.0000
vn 0.7199 -0.6824 -0.1269
vn 0.7344 -0.6788 0.0000
vn 0.6901 -0.6787 -0.2512
vn 0.9397 0.0000 -0.3420
vn 0.9848 0.0000 -0.1737
vn 1.0000 0.0000 0.0000
vn 0.6331 -0.6823 -0.3655
vn 0.5626 -0.6787 -0.4721
vn 0.7660 0.0000 -0.6428
vn 0.8660 0.0000 -0.5000
vn 0.4699 -0.6823 -0.5600
vn 0.3672 -0.6787 -0.6360
vn 0.5000 -0.0000 -0.8660
vn 0.6428 0.0000 -0.7660
vn 0.2500 -0.6824 -0.6869
vn 0.1275 -0.6787 -0.7232
vn 0.1737 0.0000 -0.9848
vn 0.3420 0.0000 -0.9397
vn -0.0000 -0.6823 -0.7311
vn -0.1275 -0.6787 -0.7233
vn -0.1736 -0.0000 -0.9848
vn -0.0000 0.0000 -1.0000
vn -0.2500 -0.6824 -0.6869
vn -0.3672 -0.6787 -0.6360
vn -0.5000 -0.0000 -0.8660
vn -0.3420 0.0000 -0.9397
vn -0.4699 -0.6823 -0.5600
vn -0.5626 -0.6787 -0.4721
vn -0.7660 -0.0000 -0.6428
vn -0.6428 -0.0000 -0.7660
vn -0.6331 -0.6823 -0.3655
vn -0.6901 -0.6787 -0.2512
vn -0.9397 0.0000 -0.3420
vn -0.8660 0.0000 -0.5000
vn -0.7199 -0.6824 -0.1269
vn -0.7344 -0.6788 -0.0000
vn -1.0000 -0.0000 -0.0000
vn -0.9848 0.0000 -0.1737
vn -0.7199 -0.6824 0.1269
vn -0.6901 -0.6787 0.2512
vn -0.9397 0.0000 0.3420
vn -0.9848 0.0000 0.1737
vn -0.6331 -0.6823 0.3655
vn -0.5626 -0.6787 0.4721
vn -0.7660 0.0000 0.6428
vn -0.8660 0.0000 0.5000
vn -0.4699 -0.6823 0.5600
vn -0.3672 -0.6787 0.6360
vn -0.5000 -0.0000 0.8660
vn -0.6428 0.0000 0.7660
vn -0.2500 -0.6824 0.6869
vn -0.1275 -0.6787 0.7233
vn -0.1736 -0.0000 0.9848
vn -0.3420 0.0000 0.9397
vn -0.0000 -0.6823 0.7311
vn 0.1275 -0.6787 0.7232
vn 0.1736 -0.0000 0.9848
vn -0.0000 0.0000 1.0000
vn 0.2500 -0.6824 0.6869
vn 0.3672 -0.6787 0.6360
vn 0.5000 -0.0000 0.8660
vn 0.3420 0.0000 0.9397
vn 0.4699 -0.6823 0.5600
vn 0.5626 -0.6787 0.4721
vn 0.7660 -0.0000 0.6428
vn 0.6428 0.0000 0.7660
vn 0.6331 -0.6824 0.3655
vn 0.6902 -0.6787 0.2512
vn 0.9397 0.0000 0.3420
vn 0.8660 0.0000 0.5000
vn 0.7199 -0.6824 0.1269
vn 0.9848 0.0000 0.1737
vn 0.9397 -0.0000 -0.3420
vn 0.9848 0.0000 -0.1736
vn 0.7660 -0.0000 -0.6428
vn 0.5000 0.0000 -0.8660
vn 0.1736 0.0000 -0.9848
vn 0.1737 -0.0000 -0.9848
vn -0.1737 0.0000 -0.9848
vn -0.1736 0.0000 -0.9848
vn -0.5000 0.0000 -0.8660
vn -0.7660 0.0000 -0.6428
vn -0.6428 0.0000 -0.7660
vn -0.9397 -0.0000 -0.3420
vn -1.0000 0.0000 -0.0000
vn -0.9848 0.0000 -0.1736
vn -0.9848 0.0000 0.1736
vn -0.5000 0.0000 0.8660
vn -0.1737 0.0000 0.9848
vn -0.1736 0.0000 0.9848
vn 0.1736 0.0000 0.9848
vn 0.5000 0.0000 0.8660
vn 0.7660 0.0000 0.6428
vn 0.9397 -0.0000 0.3420
vn 0.9848 0.0000 0.1736
vn 0.1736 -0.0000 -0.9848
vn -0.1737 -0.0000 -0.9848
vn -0.1737 -0.0000 0.9848
vn 0.7200 0.6823 -0.1269
vn 0.7344 0.6788 0.0000
vn 0.6901 0.6787 -0.2512
vn 0.0208 0.9998 -0.0076
vn 0.0061 1.0000 -0.0011
vn 0.0221 0.9998 0.0000
vn 0.6331 0.6823 -0.3655
vn 0.5626 0.6787 -0.4721
vn 0.0169 0.9998 -0.0142
vn 0.0054 1.0000 -0.0031
vn 0.4699 0.6823 -0.5600
vn 0.3672 0.6787 -0.6360
vn 0.0111 0.9998 -0.0191
vn 0.0040 1.0000 -0.0048
vn 0.2500 0.6823 -0.6870
vn 0.1275 0.6787 -0.7232
vn 0.0038 0.9998 -0.0218
vn 0.0021 1.0000 -0.0059
vn -0.0000 0.6823 -0.7311
vn -0.1275 0.6787 -0.7233
vn -0.0038 0.9998 -0.0218
vn -0.0000 1.0000 -0.0062
vn -0.2500 0.6823 -0.6870
vn -0.3672 0.6787 -0.6360
vn -0.0111 0.9998 -0.0191
vn -0.0021 1.0000 -0.0059
vn -0.4699 0.6823 -0.5600
vn -0.5626 0.6787 -0.4721
vn -0.0169 0.9998 -0.0142
vn -0.0040 1.0000 -0.0048
vn -0.6331 0.6823 -0.3655
vn -0.6901 0.6787 -0.2512
vn -0.0208 0.9998 -0.0076
vn -0.0054 1.0000 -0.0031
vn -0.7200 0.6823 -0.1269
vn -0.7344 0.6788 -0.0000
vn -0.0221 0.9998 -0.0000
vn -0.0061 1.0000 -0.0011
vn -0.7200 0.6823 0.1269
vn -0.6901 0.6787 0.2512
vn -0.0208 0.9998 0.0076
vn -0.0061 1.0000 0.0011
vn -0.6331 0.6823 0.3655
vn -0.5626 0.6787 0.4721
vn -0.0169 0.9998 0.0142
vn -0.0054 1.0000 0.0031
vn -0.4699 0.6823 0.5600
vn -0.3672 0.6787 0.6360
vn -0.0111 0.9998 0.0191
vn -0.0040 1.0000 0.0048
vn -0.2500 0.6823 0.6870
vn -0.1275 0.6787 0.7233
vn -0.0038 0.9998 0.0218
vn -0.0021 1.0000 0.0059
vn -0.0000 0.6823 0.7311
vn 0.1275 0.6787 0.7232
vn 0.0038 0.9998 0.0218
vn -0.0000 1.0000 0.0062
vn 0.2500 0.6823 0.6870
vn 0.3672 0.6787 0.6360
vn 0.0111 0.9998 0.0191
vn 0.0021 1.0000 0.0059
vn 0.4699 0.6823 0.5600
vn 0.5626 0.6787 0.4721
vn 0.0169 0.9998 0.0142
vn 0.0040 1.0000 0.0048
vn 0.6331 0.6823 0.3655
vn 0.6902 0.6787 0.2512
vn 0.0208 0.9998 0.0076
vn 0.0054 1.0000 0.0031
vn 0.7200 0.6823 0.1269
vn 0.0061 1.0000 0.0011
vn -0.0000 1.0000 0.0000
# 208 vertex normals

vt 0.3400 0.0000 -0.0000
vt 0.2677 0.0000 -0.1737
vt 0.5241 0.0000 0.0623
vt 0.5450 0.0000 0.5000
vt 0.1953 0.0000 -0.3473
vt 0.1413 0.0000 -0.5000
vt 0.0874 0.0000 -0.6527
vt 0.0583 0.0000 -0.7660
vt 0.0292 0.0000 -0.8794
vt 0.0285 0.0000 -0.9397
vt 0.0278 0.0000 -1.0000
vt 0.0556 0.0000 -1.0000
vt 0.0833 0.0000 -1.0000
vt 0.1362 0.0000 -0.9397
vt 0.1891 0.0000 -0.8794
vt 0.2608 0.0000 -0.7660
vt 0.3325 0.0000 -0.6527
vt 0.4142 0.0000 -0.5000
vt 0.4960 0.0000 -0.3473
vt 0.5780 0.0000 -0.1736
vt 0.6600 0.0000 0.0000
vt 0.7323 0.0000 0.1736
vt 0.8047 0.0000 0.3473
vt 0.8587 0.0000 0.5000
vt 0.9126 0.0000 0.6527
vt 0.9417 0.0000 0.7660
vt 0.9708 0.0000 0.8794
vt 0.9715 0.0000 0.9397
vt 0.9722 0.0000 1.0000
vt 0.8394 0.0250 0.7656
vt 0.8731 0.0444 0.8958
vt 0.7977 0.0250 0.7656
vt 0.8237 0.0444 0.8958
vt 0.7560 0.0250 0.7656
vt 0.7743 0.0444 0.8958
vt 0.7144 0.0250 0.7656
vt 0.6855 0.0444 0.7847
vt 0.7778 0.1000 1.0000
vt 0.7500 0.1000 1.0000
vt 0.8056 0.1000 1.0000
vt 0.8056 0.2000 1.0000
vt 0.7778 0.2000 1.0000
vt 0.7500 0.2000 1.0000
vt 0.8333 0.1000 1.0000
vt 0.8611 0.1000 1.0000
vt 0.8611 0.2000 1.0000
vt 0.8333 0.2000 1.0000
vt 0.8889 0.1000 1.0000
vt 0.9167 0.1000 1.0000
vt 0.9167 0.2000 1.0000
vt 0.8889 0.2000 1.0000
vt 0.9444 0.1000 1.0000
vt 0.9722 0.1000 1.0000
vt 0.9722 0.2000 1.0000
vt 0.9444 0.2000 1.0000
vt -0.0278 0.0000 1.0000
vt 0.0000 0.0000 1.0000
vt 0.0000 0.1000 1.0000
vt -0.0278 0.1000 1.0000
vt 0.0278 0.0000 1.0000
vt 0.0278 0.1000 1.0000
vt 0.0278 0.2000 1.0000
vt 0.0000 0.2000 1.0000
vt -0.0278 0.2000 1.0000
vt 0.0556 0.0000 1.0000
vt 0.0556 0.1000 1.0000
vt 0.0833 0.0000 1.0000
vt 0.0833 0.1000 1.0000
vt 0.0833 0.2000 1.0000
vt 0.0556 0.2000 1.0000
vt 0.1111 0.0000 1.0000
vt 0.1111 0.1000 1.0000
vt 0.1389 0.0000 1.0000
vt 0.1389 0.1000 1.0000
vt 0.1389 0.2000 1.0000
vt 0.1111 0.2000 1.0000
vt 0.1667 0.0000 1.0000
vt 0.1667 0.1000 1.0000
vt 0.1944 0.0000 1.0000
vt 0.1944 0.1000 1.0000
vt 0.1944 0.2000 1.0000
vt 0.1667 0.2000 1.0000
vt 0.2222 0.0000 1.0000
vt 0.2222 0.1000 1.0000
vt 0.2500 0.0000 1.0000
vt 0.2500 0.1000 1.0000
vt 0.2500 0.2000 1.0000
vt 0.2222 0.2000 1.0000
vt 0.2778 0.0000 1.0000
vt 0.2778 0.1000 1.0000
vt 0.3056 0.0000 1.0000
vt 0.3056 0.1000 1.0000
vt 0.3056 0.2000 1.0000
vt 0.2778 0.2000 1.0000
vt 0.3333 0.0000 1.0000
vt 0.3333 0.1000 1.0000
vt 0.3611 0.0000 1.0000
vt 0.3611 0.1000 1.0000
vt 0.3611 0.2000 1.0000
vt 0.3333 0.2000 1.0000
vt 0.3889 0.0000 1.0000
vt 0.3889 0.1000 1.0000
vt 0.4167 0.0000 1.0000
vt 0.4167 0.1000 1.0000
vt 0.4167 0.2000 1.0000
vt 0.3889 0.2000 1.0000
vt 0.4444 0.0000 1.0000
vt 0.4444 0.1000 1.0000
vt 0.4722 0.0000 1.0000
vt 0.4722 0.1000 1.0000
vt 0.4722 0.2000 1.0000
vt 0.4444 0.2000 1.0000
vt 0.5000 0.0000 1.0000
vt 0.5000 0.1000 1.0000
vt 0.5278 0.0000 1.0000
vt 0.5278 0.1000 1.0000
vt 0.5278 0.2000 1.0000
vt 0.5000 0.2000 1.0000
vt 0.5556 0.0000 1.0000
vt 0.5556 0.1000 1.0000
vt 0.5833 0.0000 1.0000
vt 0.5833 0.1000 1.0000
vt 0.5833 0.2000 1.0000
vt 0.5556 0.2000 1.0000
vt 0.6111 0.0000 1.0000
vt 0.6111 0.1000 1.0000
vt 0.6389 0.0000 1.0000
vt 0.6389 0.1000 1.0000
vt 0.6389 0.2000 1.0000
vt 0.6111 0.2000 1.0000
vt 0.6667 0.0000 1.0000
vt 0.6667 0.1000 1.0000
vt 0.6944 0.0000 1.0000
vt 0.6944 0.1000 1.0000
vt 0.6944 0.2000 1.0000
vt 0.6667 0.2000 1.0000
vt 0.7222 0.0000 1.0000
vt 0.7222 0.1000 1.0000
vt 0.7222 0.2000 1.0000
vt 0.7778 0.3000 1.0000
vt 0.7500 0.3000 1.0000
vt 0.8056 0.3000 1.0000
vt 0.8056 0.4000 1.0000
vt 0.7778 0.4000 1.0000
vt 0.7500 0.4000 1.0000
vt 0.8333 0.3000 1.0000
vt 0.8611 0.3000 1.0000
vt 0.8611 0.4000 1.0000
vt 0.8333 0.4000 1.0000
vt 0.8889 0.3000 1.0000
vt 0.9167 0.3000 1.0000
vt 0.9167 0.4000 1.0000
vt 0.8889 0.4000 1.0000
vt 0.9444 0.3000 1.0000
vt 0.9722 0.3000 1.0000
vt 0.9722 0.4000 1.0000
vt 0.9444 0.4000 1.0000
vt 0.0000 0.3000 1.0000
vt -0.0278 0.3000 1.0000
vt 0.0278 0.3000 1.0000
vt 0.0278 0.4000 1.0000
vt 0.0000 0.4000 1.0000
vt -0.0278 0.4000 1.0000
vt 0.0556 0.3000 1.0000
vt 0.0833 0.3000 1.0000
vt 0.0833 0.4000 1.0000
vt 0.0556 0.4000 1.0000
vt 0.1111 0.3000 1.0000
vt 0.1389 0.3000 1.0000
vt 0.1389 0.4000 1.0000
vt 0.1111 0.4000 1.0000
vt 0.1667 0.3000 1.0000
vt 0.1944 0.3000 1.0000
vt 0.1944 0.4000 1.0000
vt 0.1667 0.4000 1.0000
vt 0.2222 0.3000 1.0000
vt 0.2500 0.3000 1.0000
vt 0.2500 0.4000 1.0000
vt 0.2222 0.4000 1.0000
vt 0.2778 0.3000 1.0000
vt 0.3056 0.3000 1.0000
vt 0.3056 0.4000 1.0000
vt 0.2778 0.4000 1.0000
vt 0.3333 0.3000 1.0000
vt 0.3611 0.3000 1.0000
vt 0.3611 0.4000 1.0000
vt 0.3333 0.4000 1.0000
vt 0.3889 0.3000 1.0000
vt 0.4167 0.3000 1.0000
vt 0.4167 0.4000 1.0000
vt 0.3889 0.4000 1.0000
vt 0.4444 0.3000 1.0000
vt 0.4722 0.3000 1.0000
vt 0.4722 0.4000 1.0000
vt 0.4444 0.4000 1.0000
vt 0.5000 0.3000 1.0000
vt 0.5278 0.3000 1.0000
vt 0.5278 0.4000 1.0000
vt 0.5000 0.4000 1.0000
vt 0.5556 0.3000 1.0000
vt 0.5833 0.3000 1.0000
vt 0.5833 0.4000 1.0000
vt 0.5556 0.4000 1.0000
vt 0.6111 0.3000 1.0000
vt 0.6389 0.3000 1.0000
vt 0.6389 0.4000 1.0000
vt 0.6111 0.4000 1.0000
vt 0.6667 0.3000 1.0000
vt 0.6944 0.3000 1.0000
vt 0.6944 0.4000 1.0000
vt 0.6667 0.4000 1.0000
vt 0.7222 0.3000 1.0000
vt 0.7222 0.4000 1.0000
vt 0.7778 0.5000 1.0000
vt 0.7500 0.5000 1.0000
vt 0.8056 0.5000 1.0000
vt 0.8056 0.6000 1.0000
vt 0.7778 0.6000 1.0000
vt 0.7500 0.6000 1.0000
vt 0.8333 0.5000 1.0000
vt 0.8611 0.5000 1.0000
vt 0.8611 0.6000 1.0000
vt 0.8333 0.6000 1.0000
vt 0.8889 0.5000 1.0000
vt 0.9167 0.5000 1.0000
vt 0.9167 0.6000 1.0000
vt 0.8889 0.6000 1.0000
vt 0.9444 0.5000 1.0000
vt 0.9722 0.5000 1.0000
vt 0.9722 0.6000 1.0000
vt 0.9444 0.6000 1.0000
vt 0.0000 0.5000 1.0000
vt -0.0278 0.5000 1.0000
vt 0.0278 0.5000 1.0000
vt 0.0278 0.6000 1.0000
vt 0.0000 0.6000 1.0000
vt -0.0278 0.6000 1.0000
vt 0.0556 0.5000 1.0000
vt 0.0833 0.5000 1.0000
vt 0.0833 0.6000 1.0000
vt 0.0556 0.6000 1.0000
vt 0.1111 0.5000 1.0000
vt 0.1389 0.5000 1.0000
vt 0.1389 0.6000 1.0000
vt 0.1111 0.6000 1.0000
vt 0.1667 0.5000 1.0000
vt 0.1944 0.5000 1.0000
vt 0.1944 0.6000 1.0000
vt 0.1667 0.6000 1.0000
vt 0.2222 0.5000 1.0000
vt 0.2500 0.5000 1.0000
vt 0.2500 0.6000 1.0000
vt 0.2222 0.6000 1.0000
vt 0.2778 0.5000 1.0000
vt 0.3056 0.5000 1.0000
vt 0.3056 0.6000 1.0000
vt 0.2778 0.6000 1.0000
vt 0.3333 0.5000 1.0000
vt 0.3611 0.5000 1.0000
vt 0.3611 0.6000 1.0000
vt 0.3333 0.6000 1.0000
vt 0.3889 0.5000 1.0000
vt 0.4167 0.5000 1.0000
vt 0.4167 0.6000 1.0000
vt 0.3889 0.6000 1.0000
vt 0.4444 0.5000 1.0000
vt 0.4722 0.5000 1.0000
vt 0.4722 0.6000 1.0000
vt 0.4444 0.6000 1.0000
vt 0.5000 0.5000 1.0000
vt 0.5278 0.5000 1.0000
vt 0.5278 0.6000 1.0000
vt 0.5000 0.6000 1.0000
vt 0.5556 0.5000 1.0000
vt 0.5833 0.5000 1.0000
vt 0.5833 0.6000 1.0000
vt 0.5556 0.6000 1.0000
vt 0.6111 0.5000 1.0000
vt 0.6389 0.5000 1.0000
vt 0.6389 0.6000 1.0000
vt 0.6111 0.6000 1.0000
vt 0.6667 0.5000 1.0000
vt 0.6944 0.5000 1.0000
vt 0.6944 0.6000 1.0000
vt 0.6667 0.6000 1.0000
vt 0.7222 0.5000 1.0000
vt 0.7222 0.6000 1.0000
vt 0.7778 0.7000 1.0000
vt 0.7500 0.7000 1.0000
vt 0.8056 0.7000 1.0000
vt 0.8056 0.8000 1.0000
vt 0.7778 0.8000 1.0000
vt 0.7500 0.8000 1.0000
vt 0.8333 0.7000 1.0000
vt 0.8611 0.7000 1.0000
vt 0.8611 0.8000 1.0000
vt 0.8333 0.8000 1.0000
vt 0.8889 0.7000 1.0000
vt 0.9167 0.7000 1.0000
vt 0.9167 0.8000 1.0000
vt 0.8889 0.8000 1.0000
vt 0.9444 0.7000 1.0000
vt 0.9722 0.7000 1.0000
vt 0.9722 0.8000 1.0000
vt 0.9444 0.8000 1.0000
vt 0.0000 0.7000 1.0000
vt -0.0278 0.7000 1.0000
vt 0.0278 0.7000 1.0000
vt 0.0278 0.8000 1.0000
vt 0.0000 0.8000 1.0000
vt -0.0278 0.8000 1.0000
vt 0.0556 0.7000 1.0000
vt 0.0833 0.7000 1.0000
vt 0.0833 0.8000 1.0000
vt 0.0556 0.8000 1.0000
vt 0.1111 0.7000 1.0000
vt 0.1389 0.7000 1.0000
vt 0.1389 0.8000 1.0000
vt 0.1111 0.8000 1.0000
vt 0.1667 0.7000 1.0000
vt 0.1944 0.7000 1.0000
vt 0.1944 0.8000 1.0000
vt 0.1667 0.8000 1.0000
vt 0.2222 0.7000 1.0000
vt 0.2500 0.7000 1.0000
vt 0.2500 0.8000 1.0000
vt 0.2222 0.8000 1.0000
vt 0.2778 0.7000 1.0000
vt 0.3056 0.7000 1.0000
vt 0.3056 0.8000 1.0000
vt 0.2778 0.8000 1.0000
vt 0.3333 0.7000 1.0000
vt 0.3611 0.7000 1.0000
vt 0.3611 0.8000 1.0000
vt 0.3333 0.8000 1.0000
vt 0.3889 0.7000 1.0000
vt 0.4167 0.7000 1.0000
vt 0.4167 0.8000 1.0000
vt 0.3889 0.8000 1.0000
vt 0.4444 0.7000 1.0000
vt 0.4722 0.7000 1.0000
vt 0.4722 0.8000 1.0000
vt 0.4444 0.8000 1.0000
vt 0.5000 0.7000 1.0000
vt 0.5278 0.7000 1.0000
vt 0.5278 0.8000 1.0000
vt 0.5000 0.8000 1.0000
vt 0.5556 0.7000 1.0000
vt 0.5833 0.7000 1.0000
vt 0.5833 0.8000 1.0000
vt 0.5556 0.8000 1.0000
vt 0.6111 0.7000 1.0000
vt 0.6389 0.7000 1.0000
vt 0.6389 0.8000 1.0000
vt 0.6111 0.8000 1.0000
vt 0.6667 0.7000 1.0000
vt 0.6944 0.7000 1.0000
vt 0.6944 0.8000 1.0000
vt 0.6667 0.8000 1.0000
vt 0.7222 0.7000 1.0000
vt 0.7222 0.8000 1.0000
vt 0.7778 0.9000 1.0000
vt 0.7500 0.9000 1.0000
vt 0.8056 0.9000 1.0000
vt 0.7765 0.9556 0.9020
vt 0.7193 0.9750 0.7795
vt 0.7271 0.9556 0.9020
vt 0.8333 0.9000 1.0000
vt 0.8611 0.9000 1.0000
vt 0.8259 0.9556 0.9020
vt 0.7610 0.9750 0.7795
vt 0.8889 0.9000 1.0000
vt 0.9167 0.9000 1.0000
vt 0.8752 0.9556 0.9020
vt 0.8026 0.9750 0.7795
vt 0.9444 0.9000 1.0000
vt 0.9722 0.9000 1.0000
vt 0.9722 1.0000 1.0000
vt 0.8443 0.9750 0.7795
vt 0.0000 0.9000 1.0000
vt -0.0278 0.9000 1.0000
vt 0.0278 0.9000 1.0000
vt 0.0278 1.0000 1.0000
vt 0.0000 1.0000 1.0000
vt -0.0278 1.0000 1.0000
vt 0.0556 0.9000 1.0000
vt 0.0833 0.9000 1.0000
vt 0.0833 1.0000 1.0000
vt 0.0556 1.0000 1.0000
vt 0.1111 0.9000 1.0000
vt 0.1389 0.9000 1.0000
vt 0.1389 1.0000 1.0000
vt 0.1111 1.0000 1.0000
vt 0.1667 0.9000 1.0000
vt 0.1944 0.9000 1.0000
vt 0.1944 1.0000 1.0000
vt 0.1667 1.0000 1.0000
vt 0.2222 0.9000 1.0000
vt 0.2500 0.9000 1.0000
vt 0.2500 1.0000 1.0000
vt 0.2222 1.0000 1.0000
vt 0.2778 0.9000 1.0000
vt 0.3056 0.9000 1.0000
vt 0.3056 1.0000 1.0000
vt 0.2778 1.0000 1.0000
vt 0.3333 0.9000 1.0000
vt 0.3611 0.9000 1.0000
vt 0.3611 1.0000 1.0000
vt 0.3333 1.0000 1.0000
vt 0.3889 0.9000 1.0000
vt 0.4167 0.9000 1.0000
vt 0.4167 1.0000 1.0000
vt 0.3889 1.0000 1.0000
vt 0.4444 0.9000 1.0000
vt 0.4722 0.9000 1.0000
vt 0.4722 1.0000 1.0000
vt 0.4444 1.0000 1.0000
vt 0.5000 0.9000 1.0000
vt 0.5278 0.9000 1.0000
vt 0.5278 1.0000 1.0000
vt 0.5000 1.0000 1.0000
vt 0.5556 0.9000 1.0000
vt 0.5833 0.9000 1.0000
vt 0.5833 1.0000 1.0000
vt 0.5556 1.0000 1.0000
vt 0.6111 0.9000 1.0000
vt 0.6389 0.9000 1.0000
vt 0.6389 1.0000 1.0000
vt 0.6111 1.0000 1.0000
vt 0.6667 0.9000 1.0000
vt 0.6944 0.9000 1.0000
vt 0.6777 0.9556 0.9020
vt 0.6667 1.0000 1.0000
vt 0.7222 0.9000 1.0000
vt 0.6776 0.9750 0.7795
vt 0.5438 1.0000 0.1178
vt 0.4449 1.0000 0.3264
vt 0.9715 1.0000 0.9397
vt 0.9708 1.0000 0.8794
vt 0.9417 1.0000 0.7660
vt 0.9126 1.0000 0.6527
vt 0.8587 1.0000 0.5000
vt 0.8047 1.0000 0.3473
vt 0.7323 1.0000 0.1736
vt 0.6600 1.0000 0.0000
vt 0.5780 1.0000 -0.1736
vt 0.4960 1.0000 -0.3473
vt 0.4142 1.0000 -0.5000
vt 0.3325 1.0000 -0.6527
vt 0.2608 1.0000 -0.7660
vt 0.1891 1.0000 -0.8794
vt 0.1362 1.0000 -0.9397
vt 0.0833 1.0000 -1.0000
vt 0.0556 1.0000 -1.0000
vt 0.0278 1.0000 -1.0000
vt 0.0285 1.0000 -0.9397
vt 0.0292 1.0000 -0.8794
vt 0.0583 1.0000 -0.7660
vt 0.0874 1.0000 -0.6527
vt 0.1413 1.0000 -0.5000
vt 0.1953 1.0000 -0.3473
# 461 texture coords

o Cylinder002
g Cylinder002
usemtl wire_224086086
s 1
f 399/462/207 400/463/208 401/464/209 402/465/210 
f 403/466/211 404/467/212 401/464/209 400/463/208 
f 405/468/213 406/469/214 401/464/209 404/467/212 
f 407/470/215 408/471/216 401/464/209 406/469/214 
f 409/472/217 410/473/218 401/464/209 408/471/216 
f 411/474/219 412/475/220 401/464/209 410/473/218 
f 413/476/221 414/477/222 401/464/209 412/475/220 
f 415/478/223 416/479/224 401/464/209 414/477/222 
f 417/480/225 418/481/226 401/464/209 416/479/224 
f 419/482/227 420/483/228 401/464/209 418/481/226 
f 421/484/229 422/485/230 401/464/209 420/483/228 
f 423/486/231 424/487/232 401/464/209 422/485/230 
f 425/488/233 426/489/234 401/464/209 424/487/232 
f 427/490/235 428/491/236 401/464/209 426/489/234 
f 429/492/237 430/493/238 401/464/209 428/491/236 
f 431/494/239 432/495/240 401/464/209 430/493/238 
f 433/496/241 434/497/242 401/464/209 432/495/240 
f 435/498/243 402/465/210 401/464/209 434/497/242 
s 8
f 435/498/243 434/497/242 436/499/244 437/500/245 
f 433/496/241 438/501/246 436/499/244 434/497/242 
f 439/502/247 440/503/248 436/499/244 438/501/246 
f 441/504/249 437/500/245 436/499/244 440/503/248 
f 433/496/241 432/495/240 442/505/250 438/501/246 
f 431/494/239 443/506/251 442/505/250 432/495/240 
f 444/507/252 445/508/253 442/505/250 443/506/251 
f 439/502/247 438/501/246 442/505/250 445/508/253 
f 431/494/239 430/493/238 446/509/254 443/506/251 
f 429/492/237 447/510/255 446/509/254 430/493/238 
f 448/511/256 449/512/257 446/509/254 447/510/255 
f 444/507/252 443/506/251 446/509/254 449/512/257 
f 429/492/237 428/491/236 450/513/258 447/510/255 
f 427/490/235 451/514/259 450/513/258 428/491/236 
f 452/515/260 453/516/261 450/513/258 451/514/259 
f 448/511/256 447/510/255 450/513/258 453/516/261 
f 427/517/235 426/518/234 454/519/262 451/520/259 
f 425/521/233 455/522/263 454/519/262 426/518/234 
f 456/523/264 457/524/265 454/519/262 455/522/263 
f 452/525/260 451/520/259 454/519/262 457/524/265 
f 425/521/233 424/526/232 458/527/266 455/522/263 
f 423/528/231 459/529/267 458/527/266 424/526/232 
f 460/530/268 461/531/269 458/527/266 459/529/267 
f 456/523/264 455/522/263 458/527/266 461/531/269 
f 423/528/231 422/532/230 462/533/270 459/529/267 
f 421/534/229 463/535/271 462/533/270 422/532/230 
f 464/536/272 465/537/273 462/533/270 463/535/271 
f 460/530/268 459/529/267 462/533/270 465/537/273 
f 421/534/229 420/538/228 466/539/274 463/535/271 
f 419/540/227 467/541/275 466/539/274 420/538/228 
f 468/542/276 469/543/277 466/539/274 467/541/275 
f 464/536/272 463/535/271 466/539/274 469/543/277 
f 419/540/227 418/544/226 470/545/278 467/541/275 
f 417/546/225 471/547/279 470/545/278 418/544/226 
f 472/548/280 473/549/281 470/545/278 471/547/279 
f 468/542/276 467/541/275 470/545/278 473/549/281 
f 417/546/225 416/550/224 474/551/282 471/547/279 
f 415/552/223 475/553/283 474/551/282 416/550/224 
f 476/554/284 477/555/285 474/551/282 475/553/283 
f 472/548/280 471/547/279 474/551/282 477/555/285 
f 415/552/223 414/556/222 478/557/286 475/553/283 
f 413/558/221 479/559/287 478/557/286 414/556/222 
f 480/560/288 481/561/289 478/557/286 479/559/287 
f 476/554/284 475/553/283 478/557/286 481/561/289 
f 413/558/221 412/562/220 482/563/290 479/559/287 
f 411/564/219 483/565/291 482/563/290 412/562/220 
f 484/566/292 485/567/293 482/563/290 483/565/291 
f 480/560/288 479/559/287 482/563/290 485/567/293 
f 411/564/219 410/568/218 486/569/294 483/565/291 
f 409/570/217 487/571/295 486/569/294 410/568/218 
f 488/572/296 489/573/297 486/569/294 487/571/295 
f 484/566/292 483/565/291 486/569/294 489/573/297 
f 409/570/217 408/574/216 490/575/298 487/571/295 
f 407/576/215 491/577/299 490/575/298 408/574/216 
f 492/578/300 493/579/301 490/575/298 491/577/299 
f 488/572/296 487/571/295 490/575/298 493/579/301 
f 407/576/215 406/580/214 494/581/302 491/577/299 
f 405/582/213 495/583/303 494/581/302 406/580/214 
f 496/584/304 497/585/305 494/581/302 495/583/303 
f 492/578/300 491/577/299 494/581/302 497/585/305 
f 405/582/213 404/586/212 498/587/306 495/583/303 
f 403/588/211 499/589/307 498/587/306 404/586/212 
f 500/590/308 501/591/309 498/587/306 499/589/307 
f 496/584/304 495/583/303 498/587/306 501/591/309 
f 403/588/211 400/592/208 502/593/310 499/589/307 
f 399/594/207 503/595/311 502/593/310 400/592/208 
f 504/596/312 505/597/313 502/593/310 503/595/311 
f 500/590/308 499/589/307 502/593/310 505/597/313 
f 399/594/207 402/598/210 506/599/314 503/595/311 
f 435/498/243 437/500/245 506/599/314 402/598/210 
f 441/504/249 507/600/315 506/599/314 437/500/245 
f 504/596/312 503/595/311 506/599/314 507/600/315 
f 441/504/249 440/503/248 508/601/248 509/602/249 
f 439/502/247 510/603/247 508/601/248 440/503/248 
f 511/604/316 512/605/317 508/601/248 510/603/247 
f 513/606/249 509/602/249 508/601/248 512/605/317 
f 439/502/247 445/508/253 514/607/253 510/603/247 
f 444/507/252 515/608/252 514/607/253 445/508/253 
f 516/609/318 517/610/253 514/607/253 515/608/252 
f 511/604/316 510/603/247 514/607/253 517/610/253 
f 444/507/252 449/512/257 518/611/257 515/608/252 
f 448/511/256 519/612/319 518/611/257 449/512/257 
f 520/613/319 521/614/257 518/611/257 519/612/319 
f 516/609/318 515/608/252 518/611/257 521/614/257 
f 448/511/256 453/516/261 522/615/261 519/612/319 
f 452/515/260 523/616/320 522/615/261 453/516/261 
f 524/617/321 525/618/261 522/615/261 523/616/320 
f 520/613/319 519/612/319 522/615/261 525/618/261 
f 452/525/260 457/524/265 526/619/265 523/620/320 
f 456/523/264 527/621/322 526/619/265 457/524/265 
f 528/622/323 529/623/265 526/619/265 527/621/322 
f 524/624/321 523/620/320 526/619/265 529/623/265 
f 456/523/264 461/531/269 530/625/269 527/621/322 
f 460/530/268 531/626/324 530/625/269 461/531/269 
f 532/627/324 533/628/269 530/625/269 531/626/324 
f 528/622/323 527/621/322 530/625/269 533/628/269 
f 460/530/268 465/537/273 534/629/273 531/626/324 
f 464/536/272 535/630/325 534/629/273 465/537/273 
f 536/631/325 537/632/326 534/629/273 535/630/325 
f 532/627/324 531/626/324 534/629/273 537/632/326 
f 464/536/272 469/543/277 538/633/277 535/630/325 
f 468/542/276 539/634/276 538/633/277 469/543/277 
f 540/635/327 541/636/277 538/633/277 539/634/276 
f 536/631/325 535/630/325 538/633/277 541/636/277 
f 468/542/276 473/549/281 542/637/281 539/634/276 
f 472/548/280 543/638/328 542/637/281 473/549/281 
f 544/639/328 545/640/329 542/637/281 543/638/328 
f 540/635/327 539/634/276 542/637/281 545/640/329 
f 472/548/280 477/555/285 546/641/285 543/638/328 
f 476/554/284 547/642/284 546/641/285 477/555/285 
f 548/643/284 549/644/330 546/641/285 547/642/284 
f 544/639/328 543/638/328 546/641/285 549/644/330 
f 476/554/284 481/561/289 550/645/289 547/642/284 
f 480/560/288 551/646/288 550/645/289 481/561/289 
f 552/647/288 553/648/289 550/645/289 551/646/288 
f 548/643/284 547/642/284 550/645/289 553/648/289 
f 480/560/288 485/567/293 554/649/293 551/646/288 
f 484/566/292 555/650/331 554/649/293 485/567/293 
f 556/651/331 557/652/293 554/649/293 555/650/331 
f 552/647/288 551/646/288 554/649/293 557/652/293 
f 484/566/292 489/573/297 558/653/297 555/650/331 
f 488/572/296 559/654/332 558/653/297 489/573/297 
f 560/655/333 561/656/297 558/653/297 559/654/332 
f 556/651/331 555/650/331 558/653/297 561/656/297 
f 488/572/296 493/579/301 562/657/301 559/654/332 
f 492/578/300 563/658/334 562/657/301 493/579/301 
f 564/659/334 565/660/301 562/657/301 563/658/334 
f 560/655/333 559/654/332 562/657/301 565/660/301 
f 492/578/300 497/585/305 566/661/305 563/658/334 
f 496/584/304 567/662/335 566/661/305 497/585/305 
f 568/663/335 569/664/305 566/661/305 567/662/335 
f 564/659/334 563/658/334 566/661/305 569/664/305 
f 496/584/304 501/591/309 570/665/309 567/662/335 
f 500/590/308 571/666/336 570/665/309 501/591/309 
f 572/667/336 573/668/309 570/665/309 571/666/336 
f 568/663/335 567/662/335 570/665/309 573/668/309 
f 500/590/308 505/597/313 574/669/313 571/666/336 
f 504/596/312 575/670/312 574/669/313 505/597/313 
f 576/671/337 577/672/313 574/669/313 575/670/312 
f 572/667/336 571/666/336 574/669/313 577/672/313 
f 504/596/312 507/600/315 578/673/315 575/670/312 
f 441/504/249 509/602/249 578/673/315 507/600/315 
f 513/606/249 579/674/338 578/673/315 509/602/249 
f 576/671/337 575/670/312 578/673/315 579/674/338 
f 513/606/249 512/605/317 580/675/248 581/676/249 
f 511/604/316 582/677/316 580/675/248 512/605/317 
f 583/678/247 584/679/317 580/675/248 582/677/316 
f 585/680/249 581/676/249 580/675/248 584/679/317 
f 511/604/316 517/610/253 586/681/253 582/677/316 
f 516/609/318 587/682/318 586/681/253 517/610/253 
f 588/683/252 589/684/253 586/681/253 587/682/318 
f 583/678/247 582/677/316 586/681/253 589/684/253 
f 516/609/318 521/614/257 590/685/257 587/682/318 
f 520/613/319 591/686/319 590/685/257 521/614/257 
f 592/687/256 593/688/257 590/685/257 591/686/319 
f 588/683/252 587/682/318 590/685/257 593/688/257 
f 520/613/319 525/618/261 594/689/261 591/686/319 
f 524/617/321 595/690/339 594/689/261 525/618/261 
f 596/691/260 597/692/261 594/689/261 595/690/339 
f 592/687/256 591/686/319 594/689/261 597/692/261 
f 524/624/321 529/623/265 598/693/265 595/694/339 
f 528/622/323 599/695/322 598/693/265 529/623/265 
f 600/696/264 601/697/265 598/693/265 599/695/322 
f 596/698/260 595/694/339 598/693/265 601/697/265 
f 528/622/323 533/628/269 602/699/269 599/695/322 
f 532/627/324 603/700/324 602/699/269 533/628/269 
f 604/701/268 605/702/269 602/699/269 603/700/324 
f 600/696/264 599/695/322 602/699/269 605/702/269 
f 532/627/324 537/632/326 606/703/326 603/700/324 
f 536/631/325 607/704/325 606/703/326 537/632/326 
f 608/705/272 609/706/326 606/703/326 607/704/325 
f 604/701/268 603/700/324 606/703/326 609/706/326 
f 536/631/325 541/636/277 610/707/277 607/704/325 
f 540/635/327 611/708/327 610/707/277 541/636/277 
f 612/709/276 613/710/277 610/707/277 611/708/327 
f 608/705/272 607/704/325 610/707/277 613/710/277 
f 540/635/327 545/640/329 614/711/281 611/708/327 
f 544/639/328 615/712/328 614/711/281 545/640/329 
f 616/713/280 617/714/329 614/711/281 615/712/328 
f 612/709/276 611/708/327 614/711/281 617/714/329 
f 544/639/328 549/644/330 618/715/285 615/712/328 
f 548/643/284 619/716/284 618/715/285 549/644/330 
f 620/717/284 621/718/330 618/715/285 619/716/284 
f 616/713/280 615/712/328 618/715/285 621/718/330 
f 548/643/284 553/648/289 622/719/289 619/716/284 
f 552/647/288 623/720/288 622/719/289 553/648/289 
f 624/721/288 625/722/289 622/719/289 623/720/288 
f 620/717/284 619/716/284 622/719/289 625/722/289 
f 552/647/288 557/652/293 626/723/293 623/720/288 
f 556/651/331 627/724/331 626/723/293 557/652/293 
f 628/725/292 629/726/293 626/723/293 627/724/331 
f 624/721/288 623/720/288 626/723/293 629/726/293 
f 556/651/331 561/656/297 630/727/297 627/724/331 
f 560/655/333 631/728/332 630/727/297 561/656/297 
f 632/729/296 633/730/297 630/727/297 631/728/332 
f 628/725/292 627/724/331 630/727/297 633/730/297 
f 560/655/333 565/660/301 634/731/301 631/728/332 
f 564/659/334 635/732/334 634/731/301 565/660/301 
f 636/733/300 637/734/301 634/731/301 635/732/334 
f 632/729/296 631/728/332 634/731/301 637/734/301 
f 564/659/334 569/664/305 638/735/305 635/732/334 
f 568/663/335 639/736/335 638/735/305 569/664/305 
f 640/737/304 641/738/305 638/735/305 639/736/335 
f 636/733/300 635/732/334 638/735/305 641/738/305 
f 568/663/335 573/668/309 642/739/309 639/736/335 
f 572/667/336 643/740/336 642/739/309 573/668/309 
f 644/741/308 645/742/309 642/739/309 643/740/336 
f 640/737/304 639/736/335 642/739/309 645/742/309 
f 572/667/336 577/672/313 646/743/313 643/740/336 
f 576/671/337 647/744/337 646/743/313 577/672/313 
f 648/745/312 649/746/313 646/743/313 647/744/337 
f 644/741/308 643/740/336 646/743/313 649/746/313 
f 576/671/337 579/674/338 650/747/315 647/744/337 
f 513/606/249 581/676/249 650/747/315 579/674/338 
f 585/680/249 651/748/338 650/747/315 581/676/249 
f 648/745/312 647/744/337 650/747/315 651/748/338 
f 585/680/249 584/679/317 652/749/248 653/750/249 
f 583/678/247 654/751/247 652/749/248 584/679/317 
f 655/752/247 656/753/317 652/749/248 654/751/247 
f 657/754/249 653/750/249 652/749/248 656/753/317 
f 583/678/247 589/684/253 658/755/253 654/751/247 
f 588/683/252 659/756/252 658/755/253 589/684/253 
f 660/757/252 661/758/253 658/755/253 659/756/252 
f 655/752/247 654/751/247 658/755/253 661/758/253 
f 588/683/252 593/688/257 662/759/257 659/756/252 
f 592/687/256 663/760/256 662/759/257 593/688/257 
f 664/761/256 665/762/257 662/759/257 663/760/256 
f 660/757/252 659/756/252 662/759/257 665/762/257 
f 592/687/256 597/692/261 666/763/261 663/760/256 
f 596/691/260 667/764/320 666/763/261 597/692/261 
f 668/765/260 669/766/261 666/763/261 667/764/320 
f 664/761/256 663/760/256 666/763/261 669/766/261 
f 596/698/260 601/697/265 670/767/265 667/768/320 
f 600/696/264 671/769/340 670/767/265 601/697/265 
f 672/770/264 673/771/265 670/767/265 671/769/340 
f 668/772/260 667/768/320 670/767/265 673/771/265 
f 600/696/264 605/702/269 674/773/269 671/769/340 
f 604/701/268 675/774/268 674/773/269 605/702/269 
f 676/775/268 677/776/269 674/773/269 675/774/268 
f 672/770/264 671/769/340 674/773/269 677/776/269 
f 604/701/268 609/706/326 678/777/326 675/774/268 
f 608/705/272 679/778/272 678/777/326 609/706/326 
f 680/779/272 681/780/273 678/777/326 679/778/272 
f 676/775/268 675/774/268 678/777/326 681/780/273 
f 608/705/272 613/710/277 682/781/277 679/778/272 
f 612/709/276 683/782/276 682/781/277 613/710/277 
f 684/783/276 685/784/277 682/781/277 683/782/276 
f 680/779/272 679/778/272 682/781/277 685/784/277 
f 612/709/276 617/714/329 686/785/281 683/782/276 
f 616/713/280 687/786/280 686/785/281 617/714/329 
f 688/787/280 689/788/329 686/785/281 687/786/280 
f 684/783/276 683/782/276 686/785/281 689/788/329 
f 616/713/280 621/718/330 690/789/285 687/786/280 
f 620/717/284 691/790/284 690/789/285 621/718/330 
f 692/791/284 693/792/330 690/789/285 691/790/284 
f 688/787/280 687/786/280 690/789/285 693/792/330 
f 620/717/284 625/722/289 694/793/289 691/790/284 
f 624/721/288 695/794/288 694/793/289 625/722/289 
f 696/795/288 697/796/289 694/793/289 695/794/288 
f 692/791/284 691/790/284 694/793/289 697/796/289 
f 624/721/288 629/726/293 698/797/293 695/794/288 
f 628/725/292 699/798/292 698/797/293 629/726/293 
f 700/799/292 701/800/293 698/797/293 699/798/292 
f 696/795/288 695/794/288 698/797/293 701/800/293 
f 628/725/292 633/730/297 702/801/297 699/798/292 
f 632/729/296 703/802/341 702/801/297 633/730/297 
f 704/803/296 705/804/297 702/801/297 703/802/341 
f 700/799/292 699/798/292 702/801/297 705/804/297 
f 632/729/296 637/734/301 706/805/301 703/802/341 
f 636/733/300 707/806/300 706/805/301 637/734/301 
f 708/807/300 709/808/301 706/805/301 707/806/300 
f 704/803/296 703/802/341 706/805/301 709/808/301 
f 636/733/300 641/738/305 710/809/305 707/806/300 
f 640/737/304 711/810/304 710/809/305 641/738/305 
f 712/811/304 713/812/305 710/809/305 711/810/304 
f 708/807/300 707/806/300 710/809/305 713/812/305 
f 640/737/304 645/742/309 714/813/309 711/810/304 
f 644/741/308 715/814/308 714/813/309 645/742/309 
f 716/815/308 717/816/309 714/813/309 715/814/308 
f 712/811/304 711/810/304 714/813/309 717/816/309 
f 644/741/308 649/746/313 718/817/313 715/814/308 
f 648/745/312 719/818/312 718/817/313 649/746/313 
f 720/819/312 721/820/313 718/817/313 719/818/312 
f 716/815/308 715/814/308 718/817/313 721/820/313 
f 648/745/312 651/748/338 722/821/315 719/818/312 
f 585/680/249 653/750/249 722/821/315 651/748/338 
f 657/754/249 723/822/338 722/821/315 653/750/249 
f 720/819/312 719/818/312 722/821/315 723/822/338 
f 657/754/249 656/753/317 724/823/342 725/824/343 
f 655/752/247 726/825/344 724/823/342 656/753/317 
f 727/826/345 728/827/346 724/823/342 726/825/344 
f 729/828/347 725/824/343 724/823/342 728/827/346 
f 655/752/247 661/758/253 730/829/348 726/825/344 
f 660/757/252 731/830/349 730/829/348 661/758/253 
f 732/831/350 733/832/351 730/829/348 731/830/349 
f 727/826/345 726/825/344 730/829/348 733/832/351 
f 660/757/252 665/762/257 734/833/352 731/830/349 
f 664/761/256 735/834/353 734/833/352 665/762/257 
f 736/835/354 737/836/355 734/833/352 735/834/353 
f 732/831/350 731/830/349 734/833/352 737/836/355 
f 664/761/256 669/766/261 738/837/356 735/834/353 
f 668/765/260 739/838/357 738/837/356 669/766/261 
f 740/839/358 741/840/359 738/837/356 739/838/357 
f 736/835/354 735/834/353 738/837/356 741/840/359 
f 668/772/260 673/771/265 742/841/360 739/842/357 
f 672/770/264 743/843/361 742/841/360 673/771/265 
f 744/844/362 745/845/363 742/841/360 743/843/361 
f 740/846/358 739/842/357 742/841/360 745/845/363 
f 672/770/264 677/776/269 746/847/364 743/843/361 
f 676/775/268 747/848/365 746/847/364 677/776/269 
f 748/849/366 749/850/367 746/847/364 747/848/365 
f 744/844/362 743/843/361 746/847/364 749/850/367 
f 676/775/268 681/780/273 750/851/368 747/848/365 
f 680/779/272 751/852/369 750/851/368 681/780/273 
f 752/853/370 753/854/371 750/851/368 751/852/369 
f 748/849/366 747/848/365 750/851/368 753/854/371 
f 680/779/272 685/784/277 754/855/372 751/852/369 
f 684/783/276 755/856/373 754/855/372 685/784/277 
f 756/857/374 757/858/375 754/855/372 755/856/373 
f 752/853/370 751/852/369 754/855/372 757/858/375 
f 684/783/276 689/788/329 758/859/376 755/856/373 
f 688/787/280 759/860/377 758/859/376 689/788/329 
f 760/861/378 761/862/379 758/859/376 759/860/377 
f 756/857/374 755/856/373 758/859/376 761/862/379 
f 688/787/280 693/792/330 762/863/380 759/860/377 
f 692/791/284 763/864/381 762/863/380 693/792/330 
f 764/865/382 765/866/383 762/863/380 763/864/381 
f 760/861/378 759/860/377 762/863/380 765/866/383 
f 692/791/284 697/796/289 766/867/384 763/864/381 
f 696/795/288 767/868/385 766/867/384 697/796/289 
f 768/869/386 769/870/387 766/867/384 767/868/385 
f 764/865/382 763/864/381 766/867/384 769/870/387 
f 696/795/288 701/800/293 770/871/388 767/868/385 
f 700/799/292 771/872/389 770/871/388 701/800/293 
f 772/873/390 773/874/391 770/871/388 771/872/389 
f 768/869/386 767/868/385 770/871/388 773/874/391 
f 700/799/292 705/804/297 774/875/392 771/872/389 
f 704/803/296 775/876/393 774/875/392 705/804/297 
f 776/877/394 777/878/395 774/875/392 775/876/393 
f 772/873/390 771/872/389 774/875/392 777/878/395 
f 704/803/296 709/808/301 778/879/396 775/876/393 
f 708/807/300 779/880/397 778/879/396 709/808/301 
f 780/881/398 781/882/399 778/879/396 779/880/397 
f 776/877/394 775/876/393 778/879/396 781/882/399 
f 708/807/300 713/812/305 782/883/400 779/880/397 
f 712/811/304 783/884/401 782/883/400 713/812/305 
f 784/885/402 785/886/403 782/883/400 783/884/401 
f 780/881/398 779/880/397 782/883/400 785/886/403 
f 712/811/304 717/816/309 786/887/404 783/884/401 
f 716/815/308 787/888/405 786/887/404 717/816/309 
f 788/889/406 789/890/407 786/887/404 787/888/405 
f 784/885/402 783/884/401 786/887/404 789/890/407 
f 716/815/308 721/820/313 790/891/408 787/888/405 
f 720/819/312 791/892/409 790/891/408 721/820/313 
f 792/893/410 793/894/411 790/891/408 791/892/409 
f 788/889/406 787/888/405 790/891/408 793/894/411 
f 720/819/312 723/822/338 794/895/412 791/892/409 
f 657/754/249 725/824/343 794/895/412 723/822/338 
f 729/828/347 795/896/413 794/895/412 725/824/343 
f 792/893/410 791/892/409 794/895/412 795/896/413 
s 1
f 792/893/410 795/896/413 796/897/414 793/898/411 
f 729/828/347 728/827/346 796/897/414 795/896/413 
f 727/826/345 733/832/351 796/897/414 728/827/346 
f 732/831/350 737/836/355 796/897/414 733/832/351 
f 736/835/354 741/840/359 796/897/414 737/836/355 
f 740/839/358 745/899/363 796/897/414 741/840/359 
f 744/900/362 749/901/367 796/897/414 745/899/363 
f 748/902/366 753/903/371 796/897/414 749/901/367 
f 752/904/370 757/905/375 796/897/414 753/903/371 
f 756/906/374 761/907/379 796/897/414 757/905/375 
f 760/908/378 765/909/383 796/897/414 761/907/379 
f 764/910/382 769/911/387 796/897/414 765/909/383 
f 768/912/386 773/913/391 796/897/414 769/911/387 
f 772/914/390 777/915/395 796/897/414 773/913/391 
f 776/916/394 781/917/399 796/897/414 777/915/395 
f 780/918/398 785/919/403 796/897/414 781/917/399 
f 784/920/402 789/921/407 796/897/414 785/919/403 
f 788/922/406 793/898/411 796/897/414 789/921/407 
# 396 polygons

