# 3ds Max Wavefront OBJ Exporter v0.97b - (c)2007 guruware
# 创建的文件:04.10.2021 16:36:18

mtllib 22.mtl

#
# object Cone001
#

v  0.5173 0.0000 0.1510
v  26.6585 0.0000 -14.9416
v  29.6740 0.0000 -7.6615
v  30.7025 0.0000 0.1510
v  15.6099 0.0000 -25.9902
v  21.8615 0.0000 -21.1932
v  0.5173 0.0000 -30.0342
v  8.3298 0.0000 -29.0057
v  -14.5753 0.0000 -25.9902
v  -7.2952 0.0000 -29.0057
v  -25.6238 0.0000 -14.9416
v  -20.8268 0.0000 -21.1932
v  -29.6678 0.0000 0.1510
v  -28.6393 0.0000 -7.6615
v  -25.6238 0.0000 15.2435
v  -28.6393 0.0000 7.9635
v  -14.5753 0.0000 26.2921
v  -20.8268 0.0000 21.4951
v  0.5173 0.0000 30.3361
v  -7.2952 0.0000 29.3076
v  15.6099 0.0000 26.2921
v  8.3298 0.0000 29.3076
v  26.6585 0.0000 15.2436
v  21.8615 0.0000 21.4951
v  29.6740 0.0000 7.9635
v  23.8427 9.6317 -6.0990
v  24.6655 9.6317 0.1510
v  21.4302 9.6317 -11.9231
v  17.5927 9.6317 -16.9244
v  12.5914 9.6317 -20.7619
v  6.7673 9.6317 -23.1744
v  0.5173 9.6317 -23.9972
v  -5.7327 9.6317 -23.1744
v  -11.5567 9.6317 -20.7619
v  -16.5580 9.6317 -16.9244
v  -20.3956 9.6317 -11.9231
v  -22.8080 9.6317 -6.0990
v  -23.6308 9.6317 0.1510
v  -22.8080 9.6317 6.4010
v  -20.3956 9.6317 12.2250
v  -16.5580 9.6317 17.2263
v  -11.5567 9.6317 21.0639
v  -5.7327 9.6317 23.4763
v  0.5173 9.6317 24.2991
v  6.7673 9.6317 23.4763
v  12.5914 9.6317 21.0639
v  17.5926 9.6317 17.2263
v  21.4302 9.6317 12.2250
v  23.8426 9.6317 6.4010
v  18.0113 19.2635 -4.5365
v  18.6284 19.2635 0.1510
v  16.2020 19.2635 -8.9046
v  13.3238 19.2635 -12.6555
v  9.5729 19.2635 -15.5337
v  5.2048 19.2635 -17.3430
v  0.5173 19.2635 -17.9601
v  -4.1702 19.2635 -17.3430
v  -8.5382 19.2635 -15.5337
v  -12.2892 19.2635 -12.6555
v  -15.1673 19.2635 -8.9046
v  -16.9767 19.2635 -4.5365
v  -17.5938 19.2635 0.1510
v  -16.9767 19.2635 4.8385
v  -15.1674 19.2635 9.2065
v  -12.2892 19.2635 12.9574
v  -8.5382 19.2635 15.8356
v  -4.1702 19.2635 17.6449
v  0.5173 19.2635 18.2621
v  5.2048 19.2635 17.6450
v  9.5729 19.2635 15.8356
v  13.3238 19.2635 12.9575
v  16.2020 19.2635 9.2065
v  18.0113 19.2635 4.8385
v  12.1800 28.8952 -2.9740
v  12.5914 28.8952 0.1510
v  10.9738 28.8952 -5.8861
v  9.0550 28.8952 -8.3867
v  6.5544 28.8952 -10.3055
v  3.6423 28.8952 -11.5117
v  0.5173 28.8952 -11.9231
v  -2.6077 28.8952 -11.5117
v  -5.5197 28.8952 -10.3055
v  -8.0203 28.8952 -8.3867
v  -9.9391 28.8952 -5.8861
v  -11.1453 28.8952 -2.9740
v  -11.5567 28.8952 0.1510
v  -11.1453 28.8952 3.2760
v  -9.9391 28.8952 6.1880
v  -8.0203 28.8952 8.6886
v  -5.5197 28.8952 10.6074
v  -2.6077 28.8952 11.8136
v  0.5173 28.8952 12.2250
v  3.6423 28.8952 11.8136
v  6.5544 28.8952 10.6074
v  9.0550 28.8952 8.6886
v  10.9738 28.8952 6.1880
v  12.1800 28.8952 3.2760
v  6.3487 38.5269 -1.4115
v  6.5544 38.5269 0.1510
v  5.7456 38.5269 -2.8676
v  4.7862 38.5269 -4.1179
v  3.5359 38.5269 -5.0773
v  2.0798 38.5269 -5.6804
v  0.5173 38.5269 -5.8861
v  -1.0452 38.5269 -5.6804
v  -2.5012 38.5269 -5.0773
v  -3.7515 38.5269 -4.1179
v  -4.7109 38.5269 -2.8676
v  -5.3140 38.5269 -1.4115
v  -5.5197 38.5269 0.1510
v  -5.3140 38.5269 1.7135
v  -4.7109 38.5269 3.1695
v  -3.7515 38.5269 4.4198
v  -2.5012 38.5269 5.3792
v  -1.0452 38.5269 5.9823
v  0.5173 38.5269 6.1880
v  2.0798 38.5269 5.9823
v  3.5358 38.5269 5.3792
v  4.7862 38.5269 4.4198
v  5.7456 38.5269 3.1695
v  6.3487 38.5269 1.7135
v  0.5173 48.1587 0.1510
# 122 vertices

vn 0.0000 -1.0000 -0.0000
vn 0.7708 -0.4558 -0.4450
vn 0.8598 -0.4558 -0.2304
vn 0.8901 -0.4558 0.0000
vn 0.4450 -0.4558 -0.7708
vn 0.6294 -0.4558 -0.6294
vn 0.0000 -0.4558 -0.8901
vn 0.2304 -0.4558 -0.8598
vn -0.4450 -0.4558 -0.7708
vn -0.2304 -0.4558 -0.8598
vn -0.7708 -0.4558 -0.4450
vn -0.6294 -0.4558 -0.6294
vn -0.8901 -0.4558 -0.0000
vn -0.8598 -0.4558 -0.2304
vn -0.7708 -0.4558 0.4450
vn -0.8598 -0.4558 0.2304
vn -0.4450 -0.4558 0.7708
vn -0.6294 -0.4558 0.6294
vn -0.0000 -0.4558 0.8901
vn -0.2304 -0.4558 0.8598
vn 0.4450 -0.4558 0.7708
vn 0.2304 -0.4558 0.8598
vn 0.7708 -0.4558 0.4450
vn 0.6294 -0.4558 0.6294
vn 0.8598 -0.4558 0.2304
vn 0.8184 0.5311 -0.2193
vn 0.8473 0.5311 0.0000
vn 0.7338 0.5311 -0.4237
vn 0.5991 0.5311 -0.5991
vn 0.4237 0.5311 -0.7338
vn 0.2193 0.5311 -0.8184
vn 0.0000 0.5311 -0.8473
vn -0.2193 0.5311 -0.8184
vn -0.4237 0.5311 -0.7338
vn -0.5991 0.5311 -0.5991
vn -0.7338 0.5311 -0.4237
vn -0.8184 0.5311 -0.2193
vn -0.8473 0.5311 -0.0000
vn -0.8184 0.5311 0.2193
vn -0.7338 0.5311 0.4237
vn -0.5991 0.5311 0.5991
vn -0.4237 0.5311 0.7338
vn -0.2193 0.5311 0.8184
vn -0.0000 0.5311 0.8473
vn 0.2193 0.5311 0.8184
vn 0.4237 0.5311 0.7338
vn 0.5991 0.5311 0.5991
vn 0.7338 0.5311 0.4237
vn 0.8184 0.5311 0.2193
vn 1.0000 0.0000 -0.0000
# 50 vertex normals

vt 0.5000 0.0000 0.0000
vt 0.8333 0.0000 1.0000
vt 0.7917 0.0000 1.0000
vt 0.7500 0.0000 1.0000
vt 0.9167 0.0000 1.0000
vt 0.8750 0.0000 1.0000
vt 1.0000 0.0000 1.0000
vt 0.9583 0.0000 1.0000
vt 0.0833 0.0000 1.0000
vt 0.0417 0.0000 1.0000
vt 0.0000 0.0000 1.0000
vt 0.1667 0.0000 1.0000
vt 0.1250 0.0000 1.0000
vt 0.2500 0.0000 1.0000
vt 0.2083 0.0000 1.0000
vt 0.3333 0.0000 1.0000
vt 0.2917 0.0000 1.0000
vt 0.4167 0.0000 1.0000
vt 0.3750 0.0000 1.0000
vt 0.5000 0.0000 1.0000
vt 0.4583 0.0000 1.0000
vt 0.5833 0.0000 1.0000
vt 0.5417 0.0000 1.0000
vt 0.6667 0.0000 1.0000
vt 0.6250 0.0000 1.0000
vt 0.7083 0.0000 1.0000
vt 0.7917 0.2000 0.8000
vt 0.7500 0.2000 0.8000
vt 0.8333 0.2000 0.8000
vt 0.8750 0.2000 0.8000
vt 0.9167 0.2000 0.8000
vt 0.9583 0.2000 0.8000
vt 1.0000 0.2000 0.8000
vt 0.0417 0.2000 0.8000
vt 0.0000 0.2000 0.8000
vt 0.0833 0.2000 0.8000
vt 0.1250 0.2000 0.8000
vt 0.1667 0.2000 0.8000
vt 0.2083 0.2000 0.8000
vt 0.2500 0.2000 0.8000
vt 0.2917 0.2000 0.8000
vt 0.3333 0.2000 0.8000
vt 0.3750 0.2000 0.8000
vt 0.4167 0.2000 0.8000
vt 0.4583 0.2000 0.8000
vt 0.5000 0.2000 0.8000
vt 0.5417 0.2000 0.8000
vt 0.5833 0.2000 0.8000
vt 0.6250 0.2000 0.8000
vt 0.6667 0.2000 0.8000
vt 0.7083 0.2000 0.8000
vt 0.7917 0.4000 0.6000
vt 0.7500 0.4000 0.6000
vt 0.8333 0.4000 0.6000
vt 0.8750 0.4000 0.6000
vt 0.9167 0.4000 0.6000
vt 0.9583 0.4000 0.6000
vt 1.0000 0.4000 0.6000
vt 0.0417 0.4000 0.6000
vt 0.0000 0.4000 0.6000
vt 0.0833 0.4000 0.6000
vt 0.1250 0.4000 0.6000
vt 0.1667 0.4000 0.6000
vt 0.2083 0.4000 0.6000
vt 0.2500 0.4000 0.6000
vt 0.2917 0.4000 0.6000
vt 0.3333 0.4000 0.6000
vt 0.3750 0.4000 0.6000
vt 0.4167 0.4000 0.6000
vt 0.4583 0.4000 0.6000
vt 0.5000 0.4000 0.6000
vt 0.5417 0.4000 0.6000
vt 0.5833 0.4000 0.6000
vt 0.6250 0.4000 0.6000
vt 0.6667 0.4000 0.6000
vt 0.7083 0.4000 0.6000
vt 0.7917 0.6000 0.4000
vt 0.7500 0.6000 0.4000
vt 0.8333 0.6000 0.4000
vt 0.8750 0.6000 0.4000
vt 0.9167 0.6000 0.4000
vt 0.9583 0.6000 0.4000
vt 1.0000 0.6000 0.4000
vt 0.0417 0.6000 0.4000
vt 0.0000 0.6000 0.4000
vt 0.0833 0.6000 0.4000
vt 0.1250 0.6000 0.4000
vt 0.1667 0.6000 0.4000
vt 0.2083 0.6000 0.4000
vt 0.2500 0.6000 0.4000
vt 0.2917 0.6000 0.4000
vt 0.3333 0.6000 0.4000
vt 0.3750 0.6000 0.4000
vt 0.4167 0.6000 0.4000
vt 0.4583 0.6000 0.4000
vt 0.5000 0.6000 0.4000
vt 0.5417 0.6000 0.4000
vt 0.5833 0.6000 0.4000
vt 0.6250 0.6000 0.4000
vt 0.6667 0.6000 0.4000
vt 0.7083 0.6000 0.4000
vt 0.7917 0.8000 0.2000
vt 0.7500 0.8000 0.2000
vt 0.8333 0.8000 0.2000
vt 0.8750 0.8000 0.2000
vt 0.9167 0.8000 0.2000
vt 0.9583 0.8000 0.2000
vt 1.0000 0.8000 0.2000
vt 0.0417 0.8000 0.2000
vt 0.0000 0.8000 0.2000
vt 0.0833 0.8000 0.2000
vt 0.1250 0.8000 0.2000
vt 0.1667 0.8000 0.2000
vt 0.2083 0.8000 0.2000
vt 0.2500 0.8000 0.2000
vt 0.2917 0.8000 0.2000
vt 0.3333 0.8000 0.2000
vt 0.3750 0.8000 0.2000
vt 0.4167 0.8000 0.2000
vt 0.4583 0.8000 0.2000
vt 0.5000 0.8000 0.2000
vt 0.5417 0.8000 0.2000
vt 0.5833 0.8000 0.2000
vt 0.6250 0.8000 0.2000
vt 0.6667 0.8000 0.2000
vt 0.7083 0.8000 0.2000
vt 0.5000 1.0000 0.0000
# 127 texture coords

o Cone001
g Cone001
usemtl Material__44
s 1
f 1/1/1 2/2/2 3/3/3 4/4/4 
f 1/1/1 5/5/5 6/6/6 2/2/2 
f 1/1/1 7/7/7 8/8/8 5/5/5 
f 1/1/1 9/9/9 10/10/10 7/11/7 
f 1/1/1 11/12/11 12/13/12 9/9/9 
f 1/1/1 13/14/13 14/15/14 11/12/11 
f 1/1/1 15/16/15 16/17/16 13/14/13 
f 1/1/1 17/18/17 18/19/18 15/16/15 
f 1/1/1 19/20/19 20/21/20 17/18/17 
f 1/1/1 21/22/21 22/23/22 19/20/19 
f 1/1/1 23/24/23 24/25/24 21/22/21 
f 1/1/1 4/4/4 25/26/25 23/24/23 
s 8
f 4/4/4 3/3/3 26/27/26 27/28/27 
f 3/3/3 2/2/2 28/29/28 26/27/26 
f 2/2/2 6/6/6 29/30/29 28/29/28 
f 6/6/6 5/5/5 30/31/30 29/30/29 
f 5/5/5 8/8/8 31/32/31 30/31/30 
f 8/8/8 7/7/7 32/33/32 31/32/31 
f 7/11/7 10/10/10 33/34/33 32/35/32 
f 10/10/10 9/9/9 34/36/34 33/34/33 
f 9/9/9 12/13/12 35/37/35 34/36/34 
f 12/13/12 11/12/11 36/38/36 35/37/35 
f 11/12/11 14/15/14 37/39/37 36/38/36 
f 14/15/14 13/14/13 38/40/38 37/39/37 
f 13/14/13 16/17/16 39/41/39 38/40/38 
f 16/17/16 15/16/15 40/42/40 39/41/39 
f 15/16/15 18/19/18 41/43/41 40/42/40 
f 18/19/18 17/18/17 42/44/42 41/43/41 
f 17/18/17 20/21/20 43/45/43 42/44/42 
f 20/21/20 19/20/19 44/46/44 43/45/43 
f 19/20/19 22/23/22 45/47/45 44/46/44 
f 22/23/22 21/22/21 46/48/46 45/47/45 
f 21/22/21 24/25/24 47/49/47 46/48/46 
f 24/25/24 23/24/23 48/50/48 47/49/47 
f 23/24/23 25/26/25 49/51/49 48/50/48 
f 25/26/25 4/4/4 27/28/27 49/51/49 
f 27/28/27 26/27/26 50/52/26 51/53/27 
f 26/27/26 28/29/28 52/54/28 50/52/26 
f 28/29/28 29/30/29 53/55/29 52/54/28 
f 29/30/29 30/31/30 54/56/30 53/55/29 
f 30/31/30 31/32/31 55/57/31 54/56/30 
f 31/32/31 32/33/32 56/58/32 55/57/31 
f 32/35/32 33/34/33 57/59/33 56/60/32 
f 33/34/33 34/36/34 58/61/34 57/59/33 
f 34/36/34 35/37/35 59/62/35 58/61/34 
f 35/37/35 36/38/36 60/63/36 59/62/35 
f 36/38/36 37/39/37 61/64/37 60/63/36 
f 37/39/37 38/40/38 62/65/38 61/64/37 
f 38/40/38 39/41/39 63/66/39 62/65/38 
f 39/41/39 40/42/40 64/67/40 63/66/39 
f 40/42/40 41/43/41 65/68/41 64/67/40 
f 41/43/41 42/44/42 66/69/42 65/68/41 
f 42/44/42 43/45/43 67/70/43 66/69/42 
f 43/45/43 44/46/44 68/71/44 67/70/43 
f 44/46/44 45/47/45 69/72/45 68/71/44 
f 45/47/45 46/48/46 70/73/46 69/72/45 
f 46/48/46 47/49/47 71/74/47 70/73/46 
f 47/49/47 48/50/48 72/75/48 71/74/47 
f 48/50/48 49/51/49 73/76/49 72/75/48 
f 49/51/49 27/28/27 51/53/27 73/76/49 
f 51/53/27 50/52/26 74/77/26 75/78/27 
f 50/52/26 52/54/28 76/79/28 74/77/26 
f 52/54/28 53/55/29 77/80/29 76/79/28 
f 53/55/29 54/56/30 78/81/30 77/80/29 
f 54/56/30 55/57/31 79/82/31 78/81/30 
f 55/57/31 56/58/32 80/83/32 79/82/31 
f 56/60/32 57/59/33 81/84/33 80/85/32 
f 57/59/33 58/61/34 82/86/34 81/84/33 
f 58/61/34 59/62/35 83/87/35 82/86/34 
f 59/62/35 60/63/36 84/88/36 83/87/35 
f 60/63/36 61/64/37 85/89/37 84/88/36 
f 61/64/37 62/65/38 86/90/38 85/89/37 
f 62/65/38 63/66/39 87/91/39 86/90/38 
f 63/66/39 64/67/40 88/92/40 87/91/39 
f 64/67/40 65/68/41 89/93/41 88/92/40 
f 65/68/41 66/69/42 90/94/42 89/93/41 
f 66/69/42 67/70/43 91/95/43 90/94/42 
f 67/70/43 68/71/44 92/96/44 91/95/43 
f 68/71/44 69/72/45 93/97/45 92/96/44 
f 69/72/45 70/73/46 94/98/46 93/97/45 
f 70/73/46 71/74/47 95/99/47 94/98/46 
f 71/74/47 72/75/48 96/100/48 95/99/47 
f 72/75/48 73/76/49 97/101/49 96/100/48 
f 73/76/49 51/53/27 75/78/27 97/101/49 
f 75/78/27 74/77/26 98/102/26 99/103/27 
f 74/77/26 76/79/28 100/104/28 98/102/26 
f 76/79/28 77/80/29 101/105/29 100/104/28 
f 77/80/29 78/81/30 102/106/30 101/105/29 
f 78/81/30 79/82/31 103/107/31 102/106/30 
f 79/82/31 80/83/32 104/108/32 103/107/31 
f 80/85/32 81/84/33 105/109/33 104/110/32 
f 81/84/33 82/86/34 106/111/34 105/109/33 
f 82/86/34 83/87/35 107/112/35 106/111/34 
f 83/87/35 84/88/36 108/113/36 107/112/35 
f 84/88/36 85/89/37 109/114/37 108/113/36 
f 85/89/37 86/90/38 110/115/38 109/114/37 
f 86/90/38 87/91/39 111/116/39 110/115/38 
f 87/91/39 88/92/40 112/117/40 111/116/39 
f 88/92/40 89/93/41 113/118/41 112/117/40 
f 89/93/41 90/94/42 114/119/42 113/118/41 
f 90/94/42 91/95/43 115/120/43 114/119/42 
f 91/95/43 92/96/44 116/121/44 115/120/43 
f 92/96/44 93/97/45 117/122/45 116/121/44 
f 93/97/45 94/98/46 118/123/46 117/122/45 
f 94/98/46 95/99/47 119/124/47 118/123/46 
f 95/99/47 96/100/48 120/125/48 119/124/47 
f 96/100/48 97/101/49 121/126/49 120/125/48 
f 97/101/49 75/78/27 99/103/27 121/126/49 
f 99/103/27 98/102/26 122/127/50 122/127/50 
f 98/102/26 100/104/28 122/127/50 122/127/50 
f 100/104/28 101/105/29 122/127/50 122/127/50 
f 101/105/29 102/106/30 122/127/50 122/127/50 
f 102/106/30 103/107/31 122/127/50 122/127/50 
f 103/107/31 104/108/32 122/127/50 122/127/50 
f 104/110/32 105/109/33 122/127/50 122/127/50 
f 105/109/33 106/111/34 122/127/50 122/127/50 
f 106/111/34 107/112/35 122/127/50 122/127/50 
f 107/112/35 108/113/36 122/127/50 122/127/50 
f 108/113/36 109/114/37 122/127/50 122/127/50 
f 109/114/37 110/115/38 122/127/50 122/127/50 
f 110/115/38 111/116/39 122/127/50 122/127/50 
f 111/116/39 112/117/40 122/127/50 122/127/50 
f 112/117/40 113/118/41 122/127/50 122/127/50 
f 113/118/41 114/119/42 122/127/50 122/127/50 
f 114/119/42 115/120/43 122/127/50 122/127/50 
f 115/120/43 116/121/44 122/127/50 122/127/50 
f 116/121/44 117/122/45 122/127/50 122/127/50 
f 117/122/45 118/123/46 122/127/50 122/127/50 
f 118/123/46 119/124/47 122/127/50 122/127/50 
f 119/124/47 120/125/48 122/127/50 122/127/50 
f 120/125/48 121/126/49 122/127/50 122/127/50 
f 121/126/49 99/103/27 122/127/50 122/127/50 
s 1
f 122/127/50 122/127/50 122/127/50 122/127/50 
f 122/127/50 122/127/50 122/127/50 122/127/50 
f 122/127/50 122/127/50 122/127/50 122/127/50 
f 122/127/50 122/127/50 122/127/50 122/127/50 
f 122/127/50 122/127/50 122/127/50 122/127/50 
f 122/127/50 122/127/50 122/127/50 122/127/50 
f 122/127/50 122/127/50 122/127/50 122/127/50 
f 122/127/50 122/127/50 122/127/50 122/127/50 
f 122/127/50 122/127/50 122/127/50 122/127/50 
f 122/127/50 122/127/50 122/127/50 122/127/50 
f 122/127/50 122/127/50 122/127/50 122/127/50 
f 122/127/50 122/127/50 122/127/50 122/127/50 
# 144 polygons

