# 3ds Max Wavefront OBJ Exporter v0.97b - (c)2007 guruware
# 创建的文件:04.10.2021 17:02:28

mtllib 33.mtl

#
# object Cylinder001
#

v  19.9023 0.0000 13.7447
v  17.7681 0.0000 17.4413
v  14.4983 0.0000 20.1850
v  -1.0619 0.0000 1.6411
v  11.2285 0.0000 22.9286
v  7.2175 0.0000 24.3885
v  3.2065 0.0000 25.8484
v  -1.0619 0.0000 25.8484
v  -5.3303 0.0000 25.8484
v  -9.3413 0.0000 24.3885
v  -13.3522 0.0000 22.9286
v  -16.6220 0.0000 20.1849
v  -19.8918 0.0000 17.4413
v  -22.0260 0.0000 13.7447
v  -24.1602 0.0000 10.0482
v  -24.9014 0.0000 5.8446
v  -25.6426 0.0000 1.6411
v  -24.9014 0.0000 -2.5625
v  -24.1602 0.0000 -6.7660
v  -22.0260 0.0000 -10.4626
v  -19.8918 0.0000 -14.1591
v  -16.6220 0.0000 -16.9028
v  -13.3522 0.0000 -19.6465
v  -9.3413 0.0000 -21.1063
v  -5.3303 0.0000 -22.5662
v  -1.0619 0.0000 -22.5662
v  3.2065 0.0000 -22.5662
v  7.2175 0.0000 -21.1063
v  11.2285 0.0000 -19.6465
v  14.4983 0.0000 -16.9028
v  17.7681 0.0000 -14.1591
v  19.9023 0.0000 -10.4626
v  22.0365 0.0000 -6.7660
v  22.7777 0.0000 -2.5625
v  23.5189 0.0000 1.6411
v  22.7777 0.0000 5.8446
v  22.0365 0.0000 10.0482
v  22.0365 4.5795 -6.7660
v  22.7777 4.5795 -2.5625
v  22.0365 9.1590 -6.7660
v  22.7777 9.1590 -2.5625
v  23.5189 9.1590 1.6411
v  23.5189 4.5795 1.6411
v  17.7681 4.5795 -14.1591
v  19.9023 4.5795 -10.4626
v  17.7681 9.1590 -14.1591
v  19.9023 9.1590 -10.4626
v  11.2285 4.5795 -19.6465
v  14.4983 4.5795 -16.9028
v  11.2285 9.1590 -19.6465
v  14.4983 9.1590 -16.9028
v  3.2065 4.5795 -22.5662
v  7.2175 4.5795 -21.1063
v  3.2065 9.1590 -22.5662
v  7.2175 9.1590 -21.1063
v  -5.3303 4.5795 -22.5662
v  -1.0619 4.5795 -22.5662
v  -5.3303 9.1590 -22.5662
v  -1.0619 9.1590 -22.5662
v  -13.3522 4.5795 -19.6465
v  -9.3413 4.5795 -21.1063
v  -13.3522 9.1590 -19.6465
v  -9.3413 9.1590 -21.1063
v  -19.8918 4.5795 -14.1591
v  -16.6220 4.5795 -16.9028
v  -19.8918 9.1590 -14.1591
v  -16.6220 9.1590 -16.9028
v  -24.1602 4.5795 -6.7660
v  -22.0260 4.5795 -10.4626
v  -24.1602 9.1590 -6.7660
v  -22.0260 9.1590 -10.4626
v  -25.6426 4.5795 1.6411
v  -24.9014 4.5795 -2.5625
v  -25.6426 9.1590 1.6411
v  -24.9014 9.1590 -2.5625
v  -24.1602 4.5795 10.0482
v  -24.9014 4.5795 5.8446
v  -24.1602 9.1590 10.0482
v  -24.9014 9.1590 5.8446
v  -19.8918 4.5795 17.4413
v  -22.0260 4.5795 13.7447
v  -19.8918 9.1590 17.4413
v  -22.0260 9.1590 13.7447
v  -13.3522 4.5795 22.9286
v  -16.6220 4.5795 20.1849
v  -13.3522 9.1590 22.9286
v  -16.6220 9.1590 20.1849
v  -5.3303 4.5795 25.8484
v  -9.3413 4.5795 24.3885
v  -5.3303 9.1590 25.8484
v  -9.3413 9.1590 24.3885
v  3.2065 4.5795 25.8484
v  -1.0619 4.5795 25.8484
v  3.2065 9.1590 25.8484
v  -1.0619 9.1590 25.8484
v  11.2285 4.5795 22.9286
v  7.2175 4.5795 24.3885
v  11.2285 9.1590 22.9286
v  7.2175 9.1590 24.3885
v  17.7681 4.5795 17.4413
v  14.4983 4.5795 20.1850
v  17.7681 9.1590 17.4413
v  14.4983 9.1590 20.1850
v  22.0365 4.5795 10.0482
v  19.9023 4.5795 13.7447
v  22.0365 9.1590 10.0482
v  19.9023 9.1590 13.7447
v  22.7777 4.5795 5.8446
v  22.7777 9.1590 5.8446
v  22.0365 13.7385 -6.7660
v  22.7777 13.7385 -2.5625
v  23.5189 13.7385 1.6411
v  17.7681 13.7385 -14.1591
v  19.9023 13.7385 -10.4626
v  11.2285 13.7385 -19.6465
v  14.4983 13.7385 -16.9028
v  3.2065 13.7385 -22.5662
v  7.2175 13.7385 -21.1064
v  -5.3303 13.7385 -22.5662
v  -1.0619 13.7385 -22.5662
v  -13.3522 13.7385 -19.6465
v  -9.3413 13.7385 -21.1063
v  -19.8918 13.7385 -14.1591
v  -16.6220 13.7385 -16.9028
v  -24.1602 13.7385 -6.7660
v  -22.0260 13.7385 -10.4626
v  -25.6426 13.7385 1.6411
v  -24.9014 13.7385 -2.5625
v  -24.1602 13.7385 10.0482
v  -24.9014 13.7385 5.8446
v  -19.8918 13.7385 17.4413
v  -22.0260 13.7385 13.7447
v  -13.3522 13.7385 22.9286
v  -16.6220 13.7385 20.1849
v  -5.3303 13.7385 25.8484
v  -9.3413 13.7385 24.3885
v  3.2065 13.7385 25.8484
v  -1.0619 13.7385 25.8484
v  11.2285 13.7385 22.9286
v  7.2175 13.7385 24.3885
v  17.7681 13.7385 17.4413
v  14.4983 13.7385 20.1850
v  22.0365 13.7385 10.0482
v  19.9023 13.7385 13.7447
v  22.7777 13.7385 5.8446
v  22.0365 32.0565 -6.7660
v  22.0365 36.6360 -6.7660
v  22.7777 36.6360 -2.5625
v  22.7777 32.0565 -2.5625
v  23.5189 36.6360 1.6411
v  23.5189 32.0565 1.6411
v  17.7681 32.0565 -14.1591
v  17.7681 36.6360 -14.1591
v  19.9023 36.6360 -10.4626
v  19.9023 32.0565 -10.4626
v  11.2285 32.0565 -19.6465
v  11.2285 36.6360 -19.6465
v  14.4983 36.6360 -16.9028
v  14.4983 32.0565 -16.9028
v  3.2065 32.0565 -22.5662
v  3.2065 36.6360 -22.5662
v  7.2175 36.6360 -21.1063
v  7.2175 32.0565 -21.1063
v  -5.3303 32.0565 -22.5662
v  -5.3303 36.6360 -22.5662
v  -1.0619 36.6360 -22.5662
v  -1.0619 32.0565 -22.5662
v  -13.3522 32.0565 -19.6465
v  -13.3522 36.6360 -19.6465
v  -9.3413 36.6360 -21.1063
v  -9.3413 32.0565 -21.1063
v  -19.8918 32.0565 -14.1591
v  -19.8918 36.6360 -14.1591
v  -16.6220 36.6360 -16.9028
v  -16.6220 32.0565 -16.9028
v  -24.1602 32.0565 -6.7660
v  -24.1602 36.6360 -6.7660
v  -22.0260 36.6360 -10.4626
v  -22.0260 32.0565 -10.4626
v  -25.6426 32.0565 1.6411
v  -25.6426 36.6360 1.6411
v  -24.9014 36.6360 -2.5625
v  -24.9014 32.0565 -2.5625
v  -24.1602 32.0565 10.0482
v  -24.1602 36.6360 10.0482
v  -24.9014 36.6360 5.8446
v  -24.9014 32.0565 5.8446
v  -19.8918 32.0565 17.4413
v  -19.8918 36.6360 17.4413
v  -22.0260 36.6360 13.7447
v  -22.0260 32.0565 13.7447
v  -13.3522 32.0565 22.9286
v  -13.3522 36.6360 22.9286
v  -16.6220 36.6360 20.1849
v  -16.6220 32.0565 20.1849
v  -5.3303 32.0565 25.8484
v  -5.3303 36.6360 25.8484
v  -9.3413 36.6360 24.3885
v  -9.3413 32.0565 24.3885
v  3.2065 32.0565 25.8484
v  3.2065 36.6360 25.8484
v  -1.0619 36.6360 25.8484
v  -1.0619 32.0565 25.8484
v  11.2285 32.0565 22.9286
v  11.2285 36.6360 22.9286
v  7.2175 36.6360 24.3885
v  7.2175 32.0565 24.3885
v  17.7681 32.0565 17.4413
v  17.7681 36.6360 17.4413
v  14.4983 36.6360 20.1850
v  14.4983 32.0565 20.1850
v  22.0365 32.0565 10.0482
v  22.0365 36.6360 10.0482
v  19.9023 36.6360 13.7447
v  19.9023 32.0565 13.7447
v  22.7777 36.6360 5.8446
v  22.7777 32.0565 5.8446
v  22.0365 41.2155 -6.7660
v  22.7777 41.2155 -2.5625
v  22.0365 45.7950 -6.7660
v  22.7777 45.7950 -2.5625
v  23.5189 45.7950 1.6411
v  23.5189 41.2155 1.6411
v  17.7681 41.2155 -14.1591
v  19.9023 41.2155 -10.4626
v  17.7681 45.7950 -14.1591
v  19.9023 45.7950 -10.4626
v  11.2285 41.2155 -19.6465
v  14.4983 41.2155 -16.9028
v  11.2285 45.7950 -19.6465
v  14.4983 45.7950 -16.9028
v  3.2065 41.2155 -22.5662
v  7.2175 41.2155 -21.1063
v  3.2065 45.7950 -22.5662
v  7.2175 45.7950 -21.1063
v  -5.3303 41.2155 -22.5662
v  -1.0619 41.2155 -22.5662
v  -5.3303 45.7950 -22.5662
v  -1.0619 45.7950 -22.5662
v  -13.3522 41.2155 -19.6465
v  -9.3413 41.2155 -21.1063
v  -13.3522 45.7950 -19.6465
v  -9.3413 45.7950 -21.1063
v  -19.8918 41.2155 -14.1591
v  -16.6220 41.2155 -16.9028
v  -19.8918 45.7950 -14.1591
v  -16.6220 45.7950 -16.9028
v  -24.1602 41.2155 -6.7660
v  -22.0260 41.2155 -10.4626
v  -24.1602 45.7950 -6.7660
v  -22.0260 45.7950 -10.4626
v  -25.6426 41.2155 1.6411
v  -24.9014 41.2155 -2.5625
v  -25.6426 45.7950 1.6411
v  -24.9014 45.7950 -2.5625
v  -24.1602 41.2155 10.0482
v  -24.9014 41.2155 5.8446
v  -24.1602 45.7950 10.0482
v  -24.9014 45.7950 5.8446
v  -19.8918 41.2155 17.4413
v  -22.0260 41.2155 13.7447
v  -19.8918 45.7950 17.4413
v  -22.0260 45.7950 13.7447
v  -13.3522 41.2155 22.9286
v  -16.6220 41.2155 20.1849
v  -13.3522 45.7950 22.9286
v  -16.6220 45.7950 20.1849
v  -5.3303 41.2155 25.8484
v  -9.3413 41.2155 24.3885
v  -5.3303 45.7950 25.8484
v  -9.3413 45.7950 24.3885
v  3.2065 41.2155 25.8484
v  -1.0619 41.2155 25.8484
v  3.2065 45.7950 25.8484
v  -1.0619 45.7950 25.8484
v  11.2285 41.2155 22.9286
v  7.2175 41.2155 24.3885
v  11.2285 45.7950 22.9286
v  7.2175 45.7950 24.3885
v  17.7681 41.2155 17.4413
v  14.4983 41.2155 20.1850
v  17.7681 45.7950 17.4413
v  14.4983 45.7950 20.1850
v  22.0365 41.2155 10.0482
v  19.9023 41.2155 13.7447
v  22.0365 45.7950 10.0482
v  19.9023 45.7950 13.7447
v  22.7777 41.2155 5.8446
v  22.7777 45.7950 5.8446
v  -1.0619 45.7950 1.6411
# 290 vertices

vn 0.6123 -0.7071 0.3535
vn 0.5687 -0.6700 0.4772
vn 0.4545 -0.7071 0.5417
vn 0.0000 -1.0000 -0.0000
vn 0.3712 -0.6700 0.6429
vn 0.2418 -0.7071 0.6645
vn 0.1289 -0.6700 0.7311
vn -0.0000 -0.7071 0.7071
vn -0.1289 -0.6700 0.7311
vn -0.2418 -0.7071 0.6645
vn -0.3712 -0.6700 0.6429
vn -0.4545 -0.7071 0.5417
vn -0.5687 -0.6700 0.4772
vn -0.6124 -0.7071 0.3536
vn -0.6976 -0.6700 0.2539
vn -0.6964 -0.7071 0.1228
vn -0.7424 -0.6700 -0.0000
vn -0.6963 -0.7071 -0.1228
vn -0.6975 -0.6701 -0.2539
vn -0.6123 -0.7071 -0.3535
vn -0.5687 -0.6700 -0.4772
vn -0.4545 -0.7071 -0.5417
vn -0.3712 -0.6700 -0.6429
vn -0.2418 -0.7071 -0.6645
vn -0.1289 -0.6700 -0.7311
vn -0.0000 -0.7071 -0.7071
vn 0.1289 -0.6700 -0.7311
vn 0.2419 -0.7070 -0.6645
vn 0.3712 -0.6700 -0.6429
vn 0.4545 -0.7071 -0.5417
vn 0.5687 -0.6700 -0.4772
vn 0.6124 -0.7071 -0.3536
vn 0.6976 -0.6700 -0.2539
vn 0.6963 -0.7072 -0.1228
vn 0.7424 -0.6699 0.0000
vn 0.6964 -0.7071 0.1228
vn 0.6976 -0.6699 0.2539
vn 0.9397 -0.0000 -0.3420
vn 0.9848 -0.0000 -0.1736
vn 1.0000 0.0000 -0.0000
vn 1.0000 -0.0000 0.0000
vn 0.7660 -0.0000 -0.6428
vn 0.8660 -0.0000 -0.5000
vn 0.5000 -0.0000 -0.8660
vn 0.6428 -0.0000 -0.7660
vn 0.1736 -0.0000 -0.9848
vn 0.3420 -0.0000 -0.9397
vn 0.1736 0.0000 -0.9848
vn -0.1736 -0.0000 -0.9848
vn -0.0000 -0.0000 -1.0000
vn -0.5000 -0.0000 -0.8660
vn -0.3420 -0.0000 -0.9397
vn -0.3420 0.0000 -0.9397
vn -0.7661 -0.0000 -0.6428
vn -0.6428 -0.0000 -0.7660
vn -0.7660 -0.0000 -0.6428
vn -0.9397 -0.0000 -0.3420
vn -0.8660 -0.0000 -0.5000
vn -1.0000 -0.0000 -0.0000
vn -0.9848 -0.0000 -0.1736
vn -1.0000 0.0000 -0.0000
vn -0.9397 -0.0000 0.3420
vn -0.9848 -0.0000 0.1736
vn -0.9397 0.0000 0.3420
vn -0.7660 -0.0000 0.6428
vn -0.8660 -0.0000 0.5000
vn -0.5000 -0.0000 0.8660
vn -0.6428 -0.0000 0.7660
vn -0.1736 -0.0000 0.9848
vn -0.3420 -0.0000 0.9397
vn 0.1736 -0.0000 0.9848
vn -0.0000 -0.0000 1.0000
vn -0.0000 0.0000 1.0000
vn 0.5000 -0.0000 0.8660
vn 0.3420 -0.0000 0.9397
vn 0.7660 -0.0000 0.6428
vn 0.6428 -0.0000 0.7660
vn 0.6428 0.0000 0.7660
vn 0.9397 -0.0000 0.3420
vn 0.8660 -0.0000 0.5000
vn 0.9397 0.0000 0.3420
vn 0.9848 -0.0000 0.1736
vn 0.9397 0.0000 -0.3420
vn 0.9848 0.0000 -0.1736
vn 0.7660 0.0000 -0.6428
vn 0.8660 0.0000 -0.5000
vn 0.5000 0.0000 -0.8660
vn 0.6428 0.0000 -0.7660
vn -0.1736 0.0000 -0.9848
vn -0.0000 0.0000 -1.0000
vn -0.5000 0.0000 -0.8660
vn -0.7660 0.0000 -0.6428
vn -0.9397 0.0000 -0.3420
vn -0.9848 0.0000 -0.1736
vn -0.9848 0.0000 0.1736
vn -0.7660 0.0000 0.6428
vn -0.8660 0.0000 0.5000
vn -0.5000 0.0000 0.8660
vn -0.6428 0.0000 0.7660
vn -0.1736 0.0000 0.9848
vn -0.3420 0.0000 0.9397
vn 0.1736 0.0000 0.9848
vn 0.5000 0.0000 0.8660
vn 0.3420 0.0000 0.9397
vn 0.7660 0.0000 0.6428
vn 0.8660 0.0000 0.5000
vn 0.9848 0.0000 0.1736
vn 1.0000 0.0000 0.0000
vn 0.7661 0.0000 -0.6428
vn 0.3420 0.0000 -0.9397
vn -0.7661 0.0000 -0.6428
vn -0.6428 0.0000 -0.7660
vn -0.8660 0.0000 -0.5000
vn -1.0000 0.0000 0.0000
vn 0.6976 0.6700 -0.2539
vn 0.6963 0.7072 -0.1228
vn 0.7423 0.6701 0.0000
vn 0.5686 0.6701 -0.4771
vn 0.6124 0.7071 -0.3536
vn 0.3711 0.6701 -0.6429
vn 0.4545 0.7072 -0.5416
vn 0.1289 0.6701 -0.7310
vn 0.2418 0.7071 -0.6644
vn -0.1289 0.6700 -0.7311
vn -0.0000 0.7071 -0.7071
vn -0.3712 0.6700 -0.6429
vn -0.2418 0.7071 -0.6645
vn -0.5687 0.6700 -0.4772
vn -0.4545 0.7071 -0.5417
vn -0.6975 0.6701 -0.2539
vn -0.6123 0.7071 -0.3535
vn -0.7423 0.6701 0.0000
vn -0.6963 0.7071 -0.1228
vn -0.6976 0.6700 0.2539
vn -0.6964 0.7071 0.1228
vn -0.5687 0.6700 0.4772
vn -0.6124 0.7071 0.3536
vn -0.3712 0.6700 0.6429
vn -0.4545 0.7071 0.5417
vn -0.1289 0.6700 0.7311
vn -0.2418 0.7071 0.6645
vn 0.1289 0.6700 0.7311
vn -0.0000 0.7071 0.7071
vn 0.3712 0.6700 0.6429
vn 0.2418 0.7071 0.6645
vn 0.5687 0.6700 0.4772
vn 0.4545 0.7071 0.5417
vn 0.6975 0.6701 0.2539
vn 0.6123 0.7071 0.3535
vn 0.6963 0.7072 0.1228
vn -0.0000 1.0000 -0.0000
# 151 vertex normals

vt 0.2677 0.0000 -0.1736
vt 0.1953 0.0000 -0.3473
vt 0.1414 0.0000 -0.5000
vt 0.5226 0.0000 0.0542
vt 0.0874 0.0000 -0.6527
vt 0.0583 0.0000 -0.7660
vt 0.0292 0.0000 -0.8794
vt 0.0285 0.0000 -0.9397
vt 0.0278 0.0000 -1.0000
vt 0.0556 0.0000 -1.0000
vt 0.0833 0.0000 -1.0000
vt 0.1362 0.0000 -0.9397
vt 0.1891 0.0000 -0.8794
vt 0.2608 0.0000 -0.7660
vt 0.3325 0.0000 -0.6527
vt 0.4142 0.0000 -0.5000
vt 0.4960 0.0000 -0.3473
vt 0.5780 0.0000 -0.1736
vt 0.6600 0.0000 -0.0000
vt 0.7323 0.0000 0.1736
vt 0.8047 0.0000 0.3473
vt 0.8587 0.0000 0.5000
vt 0.9126 0.0000 0.6527
vt 0.9417 0.0000 0.7660
vt 0.9708 0.0000 0.8794
vt 0.9715 0.0000 0.9397
vt 0.9722 0.0000 1.0000
vt 0.9444 0.0000 1.0000
vt 0.9167 0.0000 1.0000
vt 0.8889 0.0000 1.0000
vt 0.8611 0.0000 1.0000
vt 0.8333 0.0000 1.0000
vt 0.8056 0.0000 1.0000
vt 0.7778 0.0000 1.0000
vt 0.7500 0.0000 1.0000
vt 0.5450 0.0000 0.5000
vt 0.3400 0.0000 0.0000
vt 0.8056 0.1000 1.0000
vt 0.7778 0.1000 1.0000
vt 0.8056 0.2000 1.0000
vt 0.7778 0.2000 1.0000
vt 0.7500 0.2000 1.0000
vt 0.7500 0.1000 1.0000
vt 0.8611 0.1000 1.0000
vt 0.8333 0.1000 1.0000
vt 0.8611 0.2000 1.0000
vt 0.8333 0.2000 1.0000
vt 0.9167 0.1000 1.0000
vt 0.8889 0.1000 1.0000
vt 0.9167 0.2000 1.0000
vt 0.8889 0.2000 1.0000
vt 0.9722 0.1000 1.0000
vt 0.9444 0.1000 1.0000
vt 0.9722 0.2000 1.0000
vt 0.9444 0.2000 1.0000
vt 0.0000 0.0000 1.0000
vt 0.0278 0.0000 1.0000
vt 0.0278 0.1000 1.0000
vt 0.0000 0.1000 1.0000
vt 0.0278 0.2000 1.0000
vt 0.0000 0.2000 1.0000
vt -0.0278 0.2000 1.0000
vt -0.0278 0.1000 1.0000
vt -0.0278 0.0000 1.0000
vt 0.0556 0.0000 1.0000
vt 0.0833 0.0000 1.0000
vt 0.0833 0.1000 1.0000
vt 0.0556 0.1000 1.0000
vt 0.0833 0.2000 1.0000
vt 0.0556 0.2000 1.0000
vt 0.1111 0.0000 1.0000
vt 0.1389 0.0000 1.0000
vt 0.1389 0.1000 1.0000
vt 0.1111 0.1000 1.0000
vt 0.1389 0.2000 1.0000
vt 0.1111 0.2000 1.0000
vt 0.1667 0.0000 1.0000
vt 0.1944 0.0000 1.0000
vt 0.1944 0.1000 1.0000
vt 0.1667 0.1000 1.0000
vt 0.1944 0.2000 1.0000
vt 0.1667 0.2000 1.0000
vt 0.2222 0.0000 1.0000
vt 0.2500 0.0000 1.0000
vt 0.2500 0.1000 1.0000
vt 0.2222 0.1000 1.0000
vt 0.2500 0.2000 1.0000
vt 0.2222 0.2000 1.0000
vt 0.2778 0.0000 1.0000
vt 0.3056 0.0000 1.0000
vt 0.3056 0.1000 1.0000
vt 0.2778 0.1000 1.0000
vt 0.3056 0.2000 1.0000
vt 0.2778 0.2000 1.0000
vt 0.3333 0.0000 1.0000
vt 0.3611 0.0000 1.0000
vt 0.3611 0.1000 1.0000
vt 0.3333 0.1000 1.0000
vt 0.3611 0.2000 1.0000
vt 0.3333 0.2000 1.0000
vt 0.3889 0.0000 1.0000
vt 0.4167 0.0000 1.0000
vt 0.4167 0.1000 1.0000
vt 0.3889 0.1000 1.0000
vt 0.4167 0.2000 1.0000
vt 0.3889 0.2000 1.0000
vt 0.4444 0.0000 1.0000
vt 0.4722 0.0000 1.0000
vt 0.4722 0.1000 1.0000
vt 0.4444 0.1000 1.0000
vt 0.4722 0.2000 1.0000
vt 0.4444 0.2000 1.0000
vt 0.5000 0.0000 1.0000
vt 0.5278 0.0000 1.0000
vt 0.5278 0.1000 1.0000
vt 0.5000 0.1000 1.0000
vt 0.5278 0.2000 1.0000
vt 0.5000 0.2000 1.0000
vt 0.5556 0.0000 1.0000
vt 0.5833 0.0000 1.0000
vt 0.5833 0.1000 1.0000
vt 0.5556 0.1000 1.0000
vt 0.5833 0.2000 1.0000
vt 0.5556 0.2000 1.0000
vt 0.6111 0.0000 1.0000
vt 0.6389 0.0000 1.0000
vt 0.6389 0.1000 1.0000
vt 0.6111 0.1000 1.0000
vt 0.6389 0.2000 1.0000
vt 0.6111 0.2000 1.0000
vt 0.6667 0.0000 1.0000
vt 0.6944 0.0000 1.0000
vt 0.6944 0.1000 1.0000
vt 0.6667 0.1000 1.0000
vt 0.6944 0.2000 1.0000
vt 0.6667 0.2000 1.0000
vt 0.7222 0.0000 1.0000
vt 0.7222 0.1000 1.0000
vt 0.7222 0.2000 1.0000
vt 0.8056 0.3000 1.0000
vt 0.7778 0.3000 1.0000
vt 0.7500 0.3000 1.0000
vt 0.8611 0.3000 1.0000
vt 0.8333 0.3000 1.0000
vt 0.9167 0.3000 1.0000
vt 0.8889 0.3000 1.0000
vt 0.9722 0.3000 1.0000
vt 0.9444 0.3000 1.0000
vt 0.0278 0.3000 1.0000
vt 0.0000 0.3000 1.0000
vt -0.0278 0.3000 1.0000
vt 0.0833 0.3000 1.0000
vt 0.0556 0.3000 1.0000
vt 0.1389 0.3000 1.0000
vt 0.1111 0.3000 1.0000
vt 0.1944 0.3000 1.0000
vt 0.1667 0.3000 1.0000
vt 0.2500 0.3000 1.0000
vt 0.2222 0.3000 1.0000
vt 0.3056 0.3000 1.0000
vt 0.2778 0.3000 1.0000
vt 0.3611 0.3000 1.0000
vt 0.3333 0.3000 1.0000
vt 0.4167 0.3000 1.0000
vt 0.3889 0.3000 1.0000
vt 0.4722 0.3000 1.0000
vt 0.4444 0.3000 1.0000
vt 0.5278 0.3000 1.0000
vt 0.5000 0.3000 1.0000
vt 0.5833 0.3000 1.0000
vt 0.5556 0.3000 1.0000
vt 0.6389 0.3000 1.0000
vt 0.6111 0.3000 1.0000
vt 0.6944 0.3000 1.0000
vt 0.6667 0.3000 1.0000
vt 0.7222 0.3000 1.0000
vt 0.8056 0.7000 1.0000
vt 0.8056 0.8000 1.0000
vt 0.7778 0.8000 1.0000
vt 0.7778 0.7000 1.0000
vt 0.7500 0.8000 1.0000
vt 0.7500 0.7000 1.0000
vt 0.8611 0.7000 1.0000
vt 0.8611 0.8000 1.0000
vt 0.8333 0.8000 1.0000
vt 0.8333 0.7000 1.0000
vt 0.9167 0.7000 1.0000
vt 0.9167 0.8000 1.0000
vt 0.8889 0.8000 1.0000
vt 0.8889 0.7000 1.0000
vt 0.9722 0.7000 1.0000
vt 0.9722 0.8000 1.0000
vt 0.9444 0.8000 1.0000
vt 0.9444 0.7000 1.0000
vt 0.0278 0.7000 1.0000
vt 0.0278 0.8000 1.0000
vt 0.0000 0.8000 1.0000
vt 0.0000 0.7000 1.0000
vt -0.0278 0.8000 1.0000
vt -0.0278 0.7000 1.0000
vt 0.0833 0.7000 1.0000
vt 0.0833 0.8000 1.0000
vt 0.0556 0.8000 1.0000
vt 0.0556 0.7000 1.0000
vt 0.1389 0.7000 1.0000
vt 0.1389 0.8000 1.0000
vt 0.1111 0.8000 1.0000
vt 0.1111 0.7000 1.0000
vt 0.1944 0.7000 1.0000
vt 0.1944 0.8000 1.0000
vt 0.1667 0.8000 1.0000
vt 0.1667 0.7000 1.0000
vt 0.2500 0.7000 1.0000
vt 0.2500 0.8000 1.0000
vt 0.2222 0.8000 1.0000
vt 0.2222 0.7000 1.0000
vt 0.3056 0.7000 1.0000
vt 0.3056 0.8000 1.0000
vt 0.2778 0.8000 1.0000
vt 0.2778 0.7000 1.0000
vt 0.3611 0.7000 1.0000
vt 0.3611 0.8000 1.0000
vt 0.3333 0.8000 1.0000
vt 0.3333 0.7000 1.0000
vt 0.4167 0.7000 1.0000
vt 0.4167 0.8000 1.0000
vt 0.3889 0.8000 1.0000
vt 0.3889 0.7000 1.0000
vt 0.4722 0.7000 1.0000
vt 0.4722 0.8000 1.0000
vt 0.4444 0.8000 1.0000
vt 0.4444 0.7000 1.0000
vt 0.5278 0.7000 1.0000
vt 0.5278 0.8000 1.0000
vt 0.5000 0.8000 1.0000
vt 0.5000 0.7000 1.0000
vt 0.5833 0.7000 1.0000
vt 0.5833 0.8000 1.0000
vt 0.5556 0.8000 1.0000
vt 0.5556 0.7000 1.0000
vt 0.6389 0.7000 1.0000
vt 0.6389 0.8000 1.0000
vt 0.6111 0.8000 1.0000
vt 0.6111 0.7000 1.0000
vt 0.6944 0.7000 1.0000
vt 0.6944 0.8000 1.0000
vt 0.6667 0.8000 1.0000
vt 0.6667 0.7000 1.0000
vt 0.7222 0.8000 1.0000
vt 0.7222 0.7000 1.0000
vt 0.8056 0.9000 1.0000
vt 0.7778 0.9000 1.0000
vt 0.8056 1.0000 1.0000
vt 0.7778 1.0000 1.0000
vt 0.7500 1.0000 1.0000
vt 0.7500 0.9000 1.0000
vt 0.8611 0.9000 1.0000
vt 0.8333 0.9000 1.0000
vt 0.8611 1.0000 1.0000
vt 0.8333 1.0000 1.0000
vt 0.9167 0.9000 1.0000
vt 0.8889 0.9000 1.0000
vt 0.9167 1.0000 1.0000
vt 0.8889 1.0000 1.0000
vt 0.9722 0.9000 1.0000
vt 0.9444 0.9000 1.0000
vt 0.9722 1.0000 1.0000
vt 0.9444 1.0000 1.0000
vt 0.0278 0.9000 1.0000
vt 0.0000 0.9000 1.0000
vt 0.0278 1.0000 1.0000
vt 0.0000 1.0000 1.0000
vt -0.0278 1.0000 1.0000
vt -0.0278 0.9000 1.0000
vt 0.0833 0.9000 1.0000
vt 0.0556 0.9000 1.0000
vt 0.0833 1.0000 1.0000
vt 0.0556 1.0000 1.0000
vt 0.1389 0.9000 1.0000
vt 0.1111 0.9000 1.0000
vt 0.1389 1.0000 1.0000
vt 0.1111 1.0000 1.0000
vt 0.1944 0.9000 1.0000
vt 0.1667 0.9000 1.0000
vt 0.1944 1.0000 1.0000
vt 0.1667 1.0000 1.0000
vt 0.2500 0.9000 1.0000
vt 0.2222 0.9000 1.0000
vt 0.2500 1.0000 1.0000
vt 0.2222 1.0000 1.0000
vt 0.3056 0.9000 1.0000
vt 0.2778 0.9000 1.0000
vt 0.3056 1.0000 1.0000
vt 0.2778 1.0000 1.0000
vt 0.3611 0.9000 1.0000
vt 0.3333 0.9000 1.0000
vt 0.3611 1.0000 1.0000
vt 0.3333 1.0000 1.0000
vt 0.4167 0.9000 1.0000
vt 0.3889 0.9000 1.0000
vt 0.4167 1.0000 1.0000
vt 0.3889 1.0000 1.0000
vt 0.4722 0.9000 1.0000
vt 0.4444 0.9000 1.0000
vt 0.4722 1.0000 1.0000
vt 0.4444 1.0000 1.0000
vt 0.5278 0.9000 1.0000
vt 0.5000 0.9000 1.0000
vt 0.5278 1.0000 1.0000
vt 0.5000 1.0000 1.0000
vt 0.5833 0.9000 1.0000
vt 0.5556 0.9000 1.0000
vt 0.5833 1.0000 1.0000
vt 0.5556 1.0000 1.0000
vt 0.6389 0.9000 1.0000
vt 0.6111 0.9000 1.0000
vt 0.6389 1.0000 1.0000
vt 0.6111 1.0000 1.0000
vt 0.6944 0.9000 1.0000
vt 0.6667 0.9000 1.0000
vt 0.6944 1.0000 1.0000
vt 0.6667 1.0000 1.0000
vt 0.7222 0.9000 1.0000
vt 0.7222 1.0000 1.0000
vt 0.5078 1.0000 0.0188
vt 0.9715 1.0000 0.9397
vt 0.9708 1.0000 0.8794
vt 0.9417 1.0000 0.7660
vt 0.9126 1.0000 0.6527
vt 0.8587 1.0000 0.5000
vt 0.8047 1.0000 0.3473
vt 0.7323 1.0000 0.1736
vt 0.6600 1.0000 0.0000
vt 0.5780 1.0000 -0.1736
vt 0.4960 1.0000 -0.3473
vt 0.4142 1.0000 -0.5000
vt 0.3325 1.0000 -0.6527
vt 0.2608 1.0000 -0.7660
vt 0.1891 1.0000 -0.8794
vt 0.1362 1.0000 -0.9397
vt 0.0833 1.0000 -1.0000
vt 0.0556 1.0000 -1.0000
vt 0.0278 1.0000 -1.0000
vt 0.0285 1.0000 -0.9397
vt 0.0292 1.0000 -0.8794
vt 0.0583 1.0000 -0.7660
vt 0.0874 1.0000 -0.6527
vt 0.1413 1.0000 -0.5000
vt 0.1953 1.0000 -0.3473
vt 0.4449 1.0000 0.3264
# 350 texture coords

o Cylinder001
g Cylinder001
usemtl wire_135006006
s 1
f 1/1/1 2/2/2 3/3/3 4/4/4 
f 3/3/3 5/5/5 6/6/6 4/4/4 
f 6/6/6 7/7/7 8/8/8 4/4/4 
f 8/8/8 9/9/9 10/10/10 4/4/4 
f 10/10/10 11/11/11 12/12/12 4/4/4 
f 12/12/12 13/13/13 14/14/14 4/4/4 
f 14/14/14 15/15/15 16/16/16 4/4/4 
f 16/16/16 17/17/17 18/18/18 4/4/4 
f 18/18/18 19/19/19 20/20/20 4/4/4 
f 20/20/20 21/21/21 22/22/22 4/4/4 
f 22/22/22 23/23/23 24/24/24 4/4/4 
f 24/24/24 25/25/25 26/26/26 4/4/4 
f 26/26/26 27/27/27 28/28/28 4/4/4 
f 28/28/28 29/29/29 30/30/30 4/4/4 
f 30/30/30 31/31/31 32/32/32 4/4/4 
f 32/32/32 33/33/33 34/34/34 4/4/4 
f 34/34/34 35/35/35 36/36/36 4/4/4 
f 36/36/36 37/37/37 1/1/1 4/4/4 
s 8
f 34/34/34 33/33/33 38/38/38 39/39/39 
f 38/38/38 40/40/38 41/41/39 39/39/39 
f 41/41/39 42/42/40 43/43/41 39/39/39 
f 43/43/41 35/35/35 34/34/34 39/39/39 
f 32/32/32 31/31/31 44/44/42 45/45/43 
f 44/44/42 46/46/42 47/47/43 45/45/43 
f 47/47/43 40/40/38 38/38/38 45/45/43 
f 38/38/38 33/33/33 32/32/32 45/45/43 
f 30/30/30 29/29/29 48/48/44 49/49/45 
f 48/48/44 50/50/44 51/51/45 49/49/45 
f 51/51/45 46/46/42 44/44/42 49/49/45 
f 44/44/42 31/31/31 30/30/30 49/49/45 
f 28/28/28 27/27/27 52/52/46 53/53/47 
f 52/52/46 54/54/48 55/55/47 53/53/47 
f 55/55/47 50/50/44 48/48/44 53/53/47 
f 48/48/44 29/29/29 28/28/28 53/53/47 
f 26/56/26 25/57/25 56/58/49 57/59/50 
f 56/58/49 58/60/49 59/61/50 57/59/50 
f 59/61/50 54/62/48 52/63/46 57/59/50 
f 52/63/46 27/64/27 26/56/26 57/59/50 
f 24/65/24 23/66/23 60/67/51 61/68/52 
f 60/67/51 62/69/51 63/70/53 61/68/52 
f 63/70/53 58/60/49 56/58/49 61/68/52 
f 56/58/49 25/57/25 24/65/24 61/68/52 
f 22/71/22 21/72/21 64/73/54 65/74/55 
f 64/73/54 66/75/56 67/76/55 65/74/55 
f 67/76/55 62/69/51 60/67/51 65/74/55 
f 60/67/51 23/66/23 22/71/22 65/74/55 
f 20/77/20 19/78/19 68/79/57 69/80/58 
f 68/79/57 70/81/57 71/82/58 69/80/58 
f 71/82/58 66/75/56 64/73/54 69/80/58 
f 64/73/54 21/72/21 20/77/20 69/80/58 
f 18/83/18 17/84/17 72/85/59 73/86/60 
f 72/85/59 74/87/61 75/88/60 73/86/60 
f 75/88/60 70/81/57 68/79/57 73/86/60 
f 68/79/57 19/78/19 18/83/18 73/86/60 
f 16/89/16 15/90/15 76/91/62 77/92/63 
f 76/91/62 78/93/64 79/94/63 77/92/63 
f 79/94/63 74/87/61 72/85/59 77/92/63 
f 72/85/59 17/84/17 16/89/16 77/92/63 
f 14/95/14 13/96/13 80/97/65 81/98/66 
f 80/97/65 82/99/65 83/100/66 81/98/66 
f 83/100/66 78/93/64 76/91/62 81/98/66 
f 76/91/62 15/90/15 14/95/14 81/98/66 
f 12/101/12 11/102/11 84/103/67 85/104/68 
f 84/103/67 86/105/67 87/106/68 85/104/68 
f 87/106/68 82/99/65 80/97/65 85/104/68 
f 80/97/65 13/96/13 12/101/12 85/104/68 
f 10/107/10 9/108/9 88/109/69 89/110/70 
f 88/109/69 90/111/69 91/112/70 89/110/70 
f 91/112/70 86/105/67 84/103/67 89/110/70 
f 84/103/67 11/102/11 10/107/10 89/110/70 
f 8/113/8 7/114/7 92/115/71 93/116/72 
f 92/115/71 94/117/71 95/118/73 93/116/72 
f 95/118/73 90/111/69 88/109/69 93/116/72 
f 88/109/69 9/108/9 8/113/8 93/116/72 
f 6/119/6 5/120/5 96/121/74 97/122/75 
f 96/121/74 98/123/74 99/124/75 97/122/75 
f 99/124/75 94/117/71 92/115/71 97/122/75 
f 92/115/71 7/114/7 6/119/6 97/122/75 
f 3/125/3 2/126/2 100/127/76 101/128/77 
f 100/127/76 102/129/76 103/130/78 101/128/77 
f 103/130/78 98/123/74 96/121/74 101/128/77 
f 96/121/74 5/120/5 3/125/3 101/128/77 
f 1/131/1 37/132/37 104/133/79 105/134/80 
f 104/133/79 106/135/81 107/136/80 105/134/80 
f 107/136/80 102/129/76 100/127/76 105/134/80 
f 100/127/76 2/126/2 1/131/1 105/134/80 
f 36/137/36 35/35/35 43/43/41 108/138/82 
f 43/43/41 42/42/40 109/139/82 108/138/82 
f 109/139/82 106/135/81 104/133/79 108/138/82 
f 104/133/79 37/132/37 36/137/36 108/138/82 
f 41/41/39 40/40/38 110/140/83 111/141/84 
f 112/142/40 42/42/40 41/41/39 111/141/84 
f 47/47/43 46/46/42 113/143/85 114/144/86 
f 110/140/83 40/40/38 47/47/43 114/144/86 
f 51/51/45 50/50/44 115/145/87 116/146/88 
f 113/143/85 46/46/42 51/51/45 116/146/88 
f 55/55/47 54/54/48 117/147/48 118/148/47 
f 115/145/87 50/50/44 55/55/47 118/148/47 
f 59/61/50 58/60/49 119/149/89 120/150/90 
f 117/151/48 54/62/48 59/61/50 120/150/90 
f 63/70/53 62/69/51 121/152/91 122/153/53 
f 119/149/89 58/60/49 63/70/53 122/153/53 
f 67/76/55 66/75/56 123/154/92 124/155/55 
f 121/152/91 62/69/51 67/76/55 124/155/55 
f 71/82/58 70/81/57 125/156/93 126/157/58 
f 123/154/92 66/75/56 71/82/58 126/157/58 
f 75/88/60 74/87/61 127/158/61 128/159/94 
f 125/156/93 70/81/57 75/88/60 128/159/94 
f 79/94/63 78/93/64 129/160/64 130/161/95 
f 127/158/61 74/87/61 79/94/63 130/161/95 
f 83/100/66 82/99/65 131/162/96 132/163/97 
f 129/160/64 78/93/64 83/100/66 132/163/97 
f 87/106/68 86/105/67 133/164/98 134/165/99 
f 131/162/96 82/99/65 87/106/68 134/165/99 
f 91/112/70 90/111/69 135/166/100 136/167/101 
f 133/164/98 86/105/67 91/112/70 136/167/101 
f 95/118/73 94/117/71 137/168/102 138/169/73 
f 135/166/100 90/111/69 95/118/73 138/169/73 
f 99/124/75 98/123/74 139/170/103 140/171/104 
f 137/168/102 94/117/71 99/124/75 140/171/104 
f 103/130/78 102/129/76 141/172/105 142/173/78 
f 139/170/103 98/123/74 103/130/78 142/173/78 
f 107/136/80 106/135/81 143/174/81 144/175/106 
f 141/172/105 102/129/76 107/136/80 144/175/106 
f 109/139/82 42/42/40 112/142/40 145/176/107 
f 143/174/81 106/135/81 109/139/82 145/176/107 
f 146/177/83 147/178/83 148/179/39 149/180/84 
f 148/179/39 150/181/108 151/182/40 149/180/84 
f 152/183/109 153/184/109 154/185/86 155/186/86 
f 154/185/86 147/178/83 146/177/83 155/186/86 
f 156/187/87 157/188/87 158/189/88 159/190/88 
f 158/189/88 153/184/109 152/183/109 159/190/88 
f 160/191/48 161/192/48 162/193/110 163/194/110 
f 162/193/110 157/188/87 156/187/87 163/194/110 
f 164/195/89 165/196/89 166/197/90 167/198/90 
f 166/197/90 161/199/48 160/200/48 167/198/90 
f 168/201/91 169/202/91 170/203/52 171/204/53 
f 170/203/52 165/196/89 164/195/89 171/204/53 
f 172/205/111 173/206/92 174/207/112 175/208/55 
f 174/207/112 169/202/91 168/201/91 175/208/55 
f 176/209/93 177/210/93 178/211/113 179/212/113 
f 178/211/113 173/206/92 172/205/111 179/212/113 
f 180/213/114 181/214/114 182/215/94 183/216/94 
f 182/215/94 177/210/93 176/209/93 183/216/94 
f 184/217/64 185/218/64 186/219/95 187/220/95 
f 186/219/95 181/214/114 180/213/114 187/220/95 
f 188/221/96 189/222/96 190/223/97 191/224/97 
f 190/223/97 185/218/64 184/217/64 191/224/97 
f 192/225/98 193/226/98 194/227/99 195/228/99 
f 194/227/99 189/222/96 188/221/96 195/228/99 
f 196/229/100 197/230/100 198/231/101 199/232/101 
f 198/231/101 193/226/98 192/225/98 199/232/101 
f 200/233/102 201/234/102 202/235/72 203/236/73 
f 202/235/72 197/230/100 196/229/100 203/236/73 
f 204/237/103 205/238/103 206/239/104 207/240/104 
f 206/239/104 201/234/102 200/233/102 207/240/104 
f 208/241/105 209/242/105 210/243/77 211/244/78 
f 210/243/77 205/238/103 204/237/103 211/244/78 
f 212/245/81 213/246/81 214/247/106 215/248/106 
f 214/247/106 209/242/105 208/241/105 215/248/106 
f 151/182/40 150/181/108 216/249/107 217/250/107 
f 216/249/107 213/246/81 212/245/81 217/250/107 
f 148/179/39 147/178/83 218/251/83 219/252/39 
f 218/251/83 220/253/115 221/254/116 219/252/39 
f 221/254/116 222/255/117 223/256/108 219/252/39 
f 223/256/108 150/181/108 148/179/39 219/252/39 
f 154/185/86 153/184/109 224/257/85 225/258/86 
f 224/257/85 226/259/118 227/260/119 225/258/86 
f 227/260/119 220/253/115 218/251/83 225/258/86 
f 218/251/83 147/178/83 154/185/86 225/258/86 
f 158/189/88 157/188/87 228/261/87 229/262/88 
f 228/261/87 230/263/120 231/264/121 229/262/88 
f 231/264/121 226/259/118 224/257/85 229/262/88 
f 224/257/85 153/184/109 158/189/88 229/262/88 
f 162/193/110 161/192/48 232/265/48 233/266/110 
f 232/265/48 234/267/122 235/268/123 233/266/110 
f 235/268/123 230/263/120 228/261/87 233/266/110 
f 228/261/87 157/188/87 162/193/110 233/266/110 
f 166/197/90 165/196/89 236/269/89 237/270/90 
f 236/269/89 238/271/124 239/272/125 237/270/90 
f 239/272/125 234/273/122 232/274/48 237/270/90 
f 232/274/48 161/199/48 166/197/90 237/270/90 
f 170/203/52 169/202/91 240/275/91 241/276/52 
f 240/275/91 242/277/126 243/278/127 241/276/52 
f 243/278/127 238/271/124 236/269/89 241/276/52 
f 236/269/89 165/196/89 170/203/52 241/276/52 
f 174/207/112 173/206/92 244/279/92 245/280/112 
f 244/279/92 246/281/128 247/282/129 245/280/112 
f 247/282/129 242/277/126 240/275/91 245/280/112 
f 240/275/91 169/202/91 174/207/112 245/280/112 
f 178/211/113 177/210/93 248/283/93 249/284/113 
f 248/283/93 250/285/130 251/286/131 249/284/113 
f 251/286/131 246/281/128 244/279/92 249/284/113 
f 244/279/92 173/206/92 178/211/113 249/284/113 
f 182/215/94 181/214/114 252/287/61 253/288/94 
f 252/287/61 254/289/132 255/290/133 253/288/94 
f 255/290/133 250/285/130 248/283/93 253/288/94 
f 248/283/93 177/210/93 182/215/94 253/288/94 
f 186/219/95 185/218/64 256/291/64 257/292/95 
f 256/291/64 258/293/134 259/294/135 257/292/95 
f 259/294/135 254/289/132 252/287/61 257/292/95 
f 252/287/61 181/214/114 186/219/95 257/292/95 
f 190/223/97 189/222/96 260/295/96 261/296/97 
f 260/295/96 262/297/136 263/298/137 261/296/97 
f 263/298/137 258/293/134 256/291/64 261/296/97 
f 256/291/64 185/218/64 190/223/97 261/296/97 
f 194/227/99 193/226/98 264/299/98 265/300/99 
f 264/299/98 266/301/138 267/302/139 265/300/99 
f 267/302/139 262/297/136 260/295/96 265/300/99 
f 260/295/96 189/222/96 194/227/99 265/300/99 
f 198/231/101 197/230/100 268/303/100 269/304/101 
f 268/303/100 270/305/140 271/306/141 269/304/101 
f 271/306/141 266/301/138 264/299/98 269/304/101 
f 264/299/98 193/226/98 198/231/101 269/304/101 
f 202/235/72 201/234/102 272/307/102 273/308/72 
f 272/307/102 274/309/142 275/310/143 273/308/72 
f 275/310/143 270/305/140 268/303/100 273/308/72 
f 268/303/100 197/230/100 202/235/72 273/308/72 
f 206/239/104 205/238/103 276/311/103 277/312/104 
f 276/311/103 278/313/144 279/314/145 277/312/104 
f 279/314/145 274/309/142 272/307/102 277/312/104 
f 272/307/102 201/234/102 206/239/104 277/312/104 
f 210/243/77 209/242/105 280/315/105 281/316/77 
f 280/315/105 282/317/146 283/318/147 281/316/77 
f 283/318/147 278/313/144 276/311/103 281/316/77 
f 276/311/103 205/238/103 210/243/77 281/316/77 
f 214/247/106 213/246/81 284/319/81 285/320/106 
f 284/319/81 286/321/148 287/322/149 285/320/106 
f 287/322/149 282/317/146 280/315/105 285/320/106 
f 280/315/105 209/242/105 214/247/106 285/320/106 
f 216/249/107 150/181/108 223/256/108 288/323/107 
f 223/256/108 222/255/117 289/324/150 288/323/107 
f 289/324/150 286/321/148 284/319/81 288/323/107 
f 284/319/81 213/246/81 216/249/107 288/323/107 
s 1
f 289/324/150 222/255/117 221/254/116 290/325/151 
f 221/254/116 220/253/115 227/260/119 290/325/151 
f 227/260/119 226/259/118 231/264/121 290/325/151 
f 231/264/121 230/263/120 235/268/123 290/325/151 
f 235/268/123 234/267/122 239/326/125 290/325/151 
f 239/326/125 238/327/124 243/328/127 290/325/151 
f 243/328/127 242/329/126 247/330/129 290/325/151 
f 247/330/129 246/331/128 251/332/131 290/325/151 
f 251/332/131 250/333/130 255/334/133 290/325/151 
f 255/334/133 254/335/132 259/336/135 290/325/151 
f 259/336/135 258/337/134 263/338/137 290/325/151 
f 263/338/137 262/339/136 267/340/139 290/325/151 
f 267/340/139 266/341/138 271/342/141 290/325/151 
f 271/342/141 270/343/140 275/344/143 290/325/151 
f 275/344/143 274/345/142 279/346/145 290/325/151 
f 279/346/145 278/347/144 283/348/147 290/325/151 
f 283/348/147 282/349/146 287/350/149 290/325/151 
f 287/350/149 286/321/148 289/324/150 290/325/151 
# 252 polygons

#
# object 对象001
#

v  22.0365 13.7385 -6.7660
v  22.0365 18.3180 -6.7660
v  22.7777 18.3180 -2.5625
v  22.7777 13.7385 -2.5625
v  23.5189 18.3180 1.6411
v  23.5189 13.7385 1.6411
v  17.7681 13.7385 -14.1591
v  17.7681 18.3180 -14.1591
v  19.9023 18.3180 -10.4626
v  19.9023 13.7385 -10.4626
v  11.2285 13.7385 -19.6465
v  11.2285 18.3180 -19.6465
v  14.4983 18.3180 -16.9028
v  14.4983 13.7385 -16.9028
v  3.2065 13.7385 -22.5662
v  3.2065 18.3180 -22.5662
v  7.2175 18.3180 -21.1063
v  7.2175 13.7385 -21.1064
v  -5.3303 13.7385 -22.5662
v  -5.3303 18.3180 -22.5662
v  -1.0619 18.3180 -22.5662
v  -1.0619 13.7385 -22.5662
v  -13.3522 13.7385 -19.6465
v  -13.3522 18.3180 -19.6465
v  -9.3413 18.3180 -21.1063
v  -9.3413 13.7385 -21.1063
v  -19.8918 13.7385 -14.1591
v  -19.8918 18.3180 -14.1591
v  -16.6220 18.3180 -16.9028
v  -16.6220 13.7385 -16.9028
v  -24.1602 13.7385 -6.7660
v  -24.1602 18.3180 -6.7660
v  -22.0260 18.3180 -10.4626
v  -22.0260 13.7385 -10.4626
v  -25.6426 13.7385 1.6411
v  -25.6426 18.3180 1.6411
v  -24.9014 18.3180 -2.5625
v  -24.9014 13.7385 -2.5625
v  -24.1602 13.7385 10.0482
v  -24.1602 18.3180 10.0482
v  -24.9014 18.3180 5.8446
v  -24.9014 13.7385 5.8446
v  -19.8918 13.7385 17.4413
v  -19.8918 18.3180 17.4413
v  -22.0260 18.3180 13.7447
v  -22.0260 13.7385 13.7447
v  -13.3522 13.7385 22.9286
v  -13.3522 18.3180 22.9286
v  -16.6220 18.3180 20.1849
v  -16.6220 13.7385 20.1849
v  -5.3303 13.7385 25.8484
v  -5.3303 18.3180 25.8484
v  -9.3413 18.3180 24.3885
v  -9.3413 13.7385 24.3885
v  3.2065 13.7385 25.8484
v  3.2065 18.3180 25.8484
v  -1.0619 18.3180 25.8484
v  -1.0619 13.7385 25.8484
v  11.2285 13.7385 22.9286
v  11.2285 18.3180 22.9286
v  7.2175 18.3180 24.3885
v  7.2175 13.7385 24.3885
v  17.7681 13.7385 17.4413
v  17.7681 18.3180 17.4413
v  14.4983 18.3180 20.1850
v  14.4983 13.7385 20.1850
v  22.0365 13.7385 10.0482
v  22.0365 18.3180 10.0482
v  19.9023 18.3180 13.7447
v  19.9023 13.7385 13.7447
v  22.7777 18.3180 5.8446
v  22.7777 13.7385 5.8446
v  22.0365 22.8975 -6.7660
v  22.7777 22.8975 -2.5625
v  22.0365 27.4770 -6.7660
v  22.7777 27.4770 -2.5625
v  23.5189 27.4770 1.6411
v  23.5189 22.8975 1.6411
v  17.7681 22.8975 -14.1591
v  19.9023 22.8975 -10.4626
v  17.7681 27.4770 -14.1591
v  19.9023 27.4770 -10.4626
v  11.2285 22.8975 -19.6465
v  14.4983 22.8975 -16.9028
v  11.2285 27.4770 -19.6465
v  14.4983 27.4770 -16.9028
v  3.2065 22.8975 -22.5662
v  7.2175 22.8975 -21.1063
v  3.2065 27.4770 -22.5662
v  7.2175 27.4770 -21.1063
v  -5.3303 22.8975 -22.5662
v  -1.0619 22.8975 -22.5662
v  -5.3303 27.4770 -22.5662
v  -1.0619 27.4770 -22.5662
v  -13.3522 22.8975 -19.6465
v  -9.3413 22.8975 -21.1063
v  -13.3522 27.4770 -19.6465
v  -9.3413 27.4770 -21.1063
v  -19.8918 22.8975 -14.1591
v  -16.6220 22.8975 -16.9028
v  -19.8918 27.4770 -14.1591
v  -16.6220 27.4770 -16.9028
v  -24.1602 22.8975 -6.7660
v  -22.0260 22.8975 -10.4626
v  -24.1602 27.4770 -6.7660
v  -22.0260 27.4770 -10.4626
v  -25.6426 22.8975 1.6411
v  -24.9014 22.8975 -2.5625
v  -25.6426 27.4770 1.6411
v  -24.9014 27.4770 -2.5625
v  -24.1602 22.8975 10.0482
v  -24.9014 22.8975 5.8446
v  -24.1602 27.4770 10.0482
v  -24.9014 27.4770 5.8446
v  -19.8918 22.8975 17.4413
v  -22.0260 22.8975 13.7447
v  -19.8918 27.4770 17.4413
v  -22.0260 27.4770 13.7447
v  -13.3522 22.8975 22.9286
v  -16.6220 22.8975 20.1849
v  -13.3522 27.4770 22.9286
v  -16.6220 27.4770 20.1849
v  -5.3303 22.8975 25.8484
v  -9.3413 22.8975 24.3885
v  -5.3303 27.4770 25.8484
v  -9.3413 27.4770 24.3885
v  3.2065 22.8975 25.8484
v  -1.0619 22.8975 25.8484
v  3.2065 27.4770 25.8484
v  -1.0619 27.4770 25.8484
v  11.2285 22.8975 22.9286
v  7.2175 22.8975 24.3885
v  11.2285 27.4770 22.9286
v  7.2175 27.4770 24.3885
v  17.7681 22.8975 17.4413
v  14.4983 22.8975 20.1850
v  17.7681 27.4770 17.4413
v  14.4983 27.4770 20.1850
v  22.0365 22.8975 10.0482
v  19.9023 22.8975 13.7447
v  22.0365 27.4770 10.0482
v  19.9023 27.4770 13.7447
v  22.7777 22.8975 5.8446
v  22.7777 27.4770 5.8446
v  22.0365 32.0565 -6.7660
v  22.7777 32.0565 -2.5625
v  23.5189 32.0565 1.6411
v  17.7681 32.0565 -14.1591
v  19.9023 32.0565 -10.4626
v  11.2285 32.0565 -19.6465
v  14.4983 32.0565 -16.9028
v  3.2065 32.0565 -22.5662
v  7.2175 32.0565 -21.1063
v  -5.3303 32.0565 -22.5662
v  -1.0619 32.0565 -22.5662
v  -13.3522 32.0565 -19.6465
v  -9.3413 32.0565 -21.1063
v  -19.8918 32.0565 -14.1591
v  -16.6220 32.0565 -16.9028
v  -24.1602 32.0565 -6.7660
v  -22.0260 32.0565 -10.4626
v  -25.6426 32.0565 1.6411
v  -24.9014 32.0565 -2.5625
v  -24.1602 32.0565 10.0482
v  -24.9014 32.0565 5.8446
v  -19.8918 32.0565 17.4413
v  -22.0260 32.0565 13.7447
v  -13.3522 32.0565 22.9286
v  -16.6220 32.0565 20.1849
v  -5.3303 32.0565 25.8484
v  -9.3413 32.0565 24.3885
v  3.2065 32.0565 25.8484
v  -1.0619 32.0565 25.8484
v  11.2285 32.0565 22.9286
v  7.2175 32.0565 24.3885
v  17.7681 32.0565 17.4413
v  14.4983 32.0565 20.1850
v  22.0365 32.0565 10.0482
v  19.9023 32.0565 13.7447
v  22.7777 32.0565 5.8446
# 180 vertices

vn 0.9397 0.0000 -0.3420
vn 0.9848 0.0000 -0.1736
vn 1.0000 0.0000 -0.0000
vn 0.7660 0.0000 -0.6428
vn 0.8660 0.0000 -0.5000
vn 0.5000 0.0000 -0.8660
vn 0.6428 0.0000 -0.7660
vn 0.1736 0.0000 -0.9848
vn 0.3420 0.0000 -0.9397
vn -0.1736 0.0000 -0.9848
vn -0.0000 0.0000 -1.0000
vn -0.5000 0.0000 -0.8660
vn -0.3420 0.0000 -0.9397
vn -0.7660 0.0000 -0.6428
vn -0.6428 0.0000 -0.7660
vn -0.9397 0.0000 -0.3420
vn -0.8660 0.0000 -0.5000
vn -1.0000 0.0000 -0.0000
vn -0.9848 0.0000 -0.1736
vn -0.9397 0.0000 0.3420
vn -0.9848 0.0000 0.1736
vn -0.7660 0.0000 0.6428
vn -0.8660 0.0000 0.5000
vn -0.5000 0.0000 0.8660
vn -0.6428 0.0000 0.7660
vn -0.1736 0.0000 0.9848
vn -0.3420 0.0000 0.9397
vn 0.1736 0.0000 0.9848
vn -0.0000 0.0000 1.0000
vn 0.5000 0.0000 0.8660
vn 0.3420 0.0000 0.9397
vn 0.7660 0.0000 0.6428
vn 0.6428 0.0000 0.7660
vn 0.9397 0.0000 0.3420
vn 0.8660 0.0000 0.5000
vn 0.9848 0.0000 0.1736
vn 0.9848 -0.0000 -0.1736
vn 1.0000 0.0000 0.0000
vn -0.3420 -0.0000 -0.9397
vn -0.0000 -0.0000 1.0000
vn 0.6428 -0.0000 0.7660
vn 0.7661 0.0000 -0.6428
vn -0.7661 0.0000 -0.6428
vn -1.0000 0.0000 0.0000
# 44 vertex normals

vt 0.8056 0.3000 1.0000
vt 0.8056 0.4000 1.0000
vt 0.7778 0.4000 1.0000
vt 0.7778 0.3000 1.0000
vt 0.7500 0.4000 1.0000
vt 0.7500 0.3000 1.0000
vt 0.8611 0.3000 1.0000
vt 0.8611 0.4000 1.0000
vt 0.8333 0.4000 1.0000
vt 0.8333 0.3000 1.0000
vt 0.9167 0.3000 1.0000
vt 0.9167 0.4000 1.0000
vt 0.8889 0.4000 1.0000
vt 0.8889 0.3000 1.0000
vt 0.9722 0.3000 1.0000
vt 0.9722 0.4000 1.0000
vt 0.9444 0.4000 1.0000
vt 0.9444 0.3000 1.0000
vt 0.0278 0.3000 1.0000
vt 0.0278 0.4000 1.0000
vt 0.0000 0.4000 1.0000
vt 0.0000 0.3000 1.0000
vt -0.0278 0.4000 1.0000
vt -0.0278 0.3000 1.0000
vt 0.0833 0.3000 1.0000
vt 0.0833 0.4000 1.0000
vt 0.0556 0.4000 1.0000
vt 0.0556 0.3000 1.0000
vt 0.1389 0.3000 1.0000
vt 0.1389 0.4000 1.0000
vt 0.1111 0.4000 1.0000
vt 0.1111 0.3000 1.0000
vt 0.1944 0.3000 1.0000
vt 0.1944 0.4000 1.0000
vt 0.1667 0.4000 1.0000
vt 0.1667 0.3000 1.0000
vt 0.2500 0.3000 1.0000
vt 0.2500 0.4000 1.0000
vt 0.2222 0.4000 1.0000
vt 0.2222 0.3000 1.0000
vt 0.3056 0.3000 1.0000
vt 0.3056 0.4000 1.0000
vt 0.2778 0.4000 1.0000
vt 0.2778 0.3000 1.0000
vt 0.3611 0.3000 1.0000
vt 0.3611 0.4000 1.0000
vt 0.3333 0.4000 1.0000
vt 0.3333 0.3000 1.0000
vt 0.4167 0.3000 1.0000
vt 0.4167 0.4000 1.0000
vt 0.3889 0.4000 1.0000
vt 0.3889 0.3000 1.0000
vt 0.4722 0.3000 1.0000
vt 0.4722 0.4000 1.0000
vt 0.4444 0.4000 1.0000
vt 0.4444 0.3000 1.0000
vt 0.5278 0.3000 1.0000
vt 0.5278 0.4000 1.0000
vt 0.5000 0.4000 1.0000
vt 0.5000 0.3000 1.0000
vt 0.5833 0.3000 1.0000
vt 0.5833 0.4000 1.0000
vt 0.5556 0.4000 1.0000
vt 0.5556 0.3000 1.0000
vt 0.6389 0.3000 1.0000
vt 0.6389 0.4000 1.0000
vt 0.6111 0.4000 1.0000
vt 0.6111 0.3000 1.0000
vt 0.6944 0.3000 1.0000
vt 0.6944 0.4000 1.0000
vt 0.6667 0.4000 1.0000
vt 0.6667 0.3000 1.0000
vt 0.7222 0.4000 1.0000
vt 0.7222 0.3000 1.0000
vt 0.8056 0.5000 1.0000
vt 0.7778 0.5000 1.0000
vt 0.8056 0.6000 1.0000
vt 0.7778 0.6000 1.0000
vt 0.7500 0.6000 1.0000
vt 0.7500 0.5000 1.0000
vt 0.8611 0.5000 1.0000
vt 0.8333 0.5000 1.0000
vt 0.8611 0.6000 1.0000
vt 0.8333 0.6000 1.0000
vt 0.9167 0.5000 1.0000
vt 0.8889 0.5000 1.0000
vt 0.9167 0.6000 1.0000
vt 0.8889 0.6000 1.0000
vt 0.9722 0.5000 1.0000
vt 0.9444 0.5000 1.0000
vt 0.9722 0.6000 1.0000
vt 0.9444 0.6000 1.0000
vt 0.0278 0.5000 1.0000
vt 0.0000 0.5000 1.0000
vt 0.0278 0.6000 1.0000
vt 0.0000 0.6000 1.0000
vt -0.0278 0.6000 1.0000
vt -0.0278 0.5000 1.0000
vt 0.0833 0.5000 1.0000
vt 0.0556 0.5000 1.0000
vt 0.0833 0.6000 1.0000
vt 0.0556 0.6000 1.0000
vt 0.1389 0.5000 1.0000
vt 0.1111 0.5000 1.0000
vt 0.1389 0.6000 1.0000
vt 0.1111 0.6000 1.0000
vt 0.1944 0.5000 1.0000
vt 0.1667 0.5000 1.0000
vt 0.1944 0.6000 1.0000
vt 0.1667 0.6000 1.0000
vt 0.2500 0.5000 1.0000
vt 0.2222 0.5000 1.0000
vt 0.2500 0.6000 1.0000
vt 0.2222 0.6000 1.0000
vt 0.3056 0.5000 1.0000
vt 0.2778 0.5000 1.0000
vt 0.3056 0.6000 1.0000
vt 0.2778 0.6000 1.0000
vt 0.3611 0.5000 1.0000
vt 0.3333 0.5000 1.0000
vt 0.3611 0.6000 1.0000
vt 0.3333 0.6000 1.0000
vt 0.4167 0.5000 1.0000
vt 0.3889 0.5000 1.0000
vt 0.4167 0.6000 1.0000
vt 0.3889 0.6000 1.0000
vt 0.4722 0.5000 1.0000
vt 0.4444 0.5000 1.0000
vt 0.4722 0.6000 1.0000
vt 0.4444 0.6000 1.0000
vt 0.5278 0.5000 1.0000
vt 0.5000 0.5000 1.0000
vt 0.5278 0.6000 1.0000
vt 0.5000 0.6000 1.0000
vt 0.5833 0.5000 1.0000
vt 0.5556 0.5000 1.0000
vt 0.5833 0.6000 1.0000
vt 0.5556 0.6000 1.0000
vt 0.6389 0.5000 1.0000
vt 0.6111 0.5000 1.0000
vt 0.6389 0.6000 1.0000
vt 0.6111 0.6000 1.0000
vt 0.6944 0.5000 1.0000
vt 0.6667 0.5000 1.0000
vt 0.6944 0.6000 1.0000
vt 0.6667 0.6000 1.0000
vt 0.7222 0.5000 1.0000
vt 0.7222 0.6000 1.0000
vt 0.8056 0.7000 1.0000
vt 0.7778 0.7000 1.0000
vt 0.7500 0.7000 1.0000
vt 0.8611 0.7000 1.0000
vt 0.8333 0.7000 1.0000
vt 0.9167 0.7000 1.0000
vt 0.8889 0.7000 1.0000
vt 0.9722 0.7000 1.0000
vt 0.9444 0.7000 1.0000
vt 0.0278 0.7000 1.0000
vt 0.0000 0.7000 1.0000
vt -0.0278 0.7000 1.0000
vt 0.0833 0.7000 1.0000
vt 0.0556 0.7000 1.0000
vt 0.1389 0.7000 1.0000
vt 0.1111 0.7000 1.0000
vt 0.1944 0.7000 1.0000
vt 0.1667 0.7000 1.0000
vt 0.2500 0.7000 1.0000
vt 0.2222 0.7000 1.0000
vt 0.3056 0.7000 1.0000
vt 0.2778 0.7000 1.0000
vt 0.3611 0.7000 1.0000
vt 0.3333 0.7000 1.0000
vt 0.4167 0.7000 1.0000
vt 0.3889 0.7000 1.0000
vt 0.4722 0.7000 1.0000
vt 0.4444 0.7000 1.0000
vt 0.5278 0.7000 1.0000
vt 0.5000 0.7000 1.0000
vt 0.5833 0.7000 1.0000
vt 0.5556 0.7000 1.0000
vt 0.6389 0.7000 1.0000
vt 0.6111 0.7000 1.0000
vt 0.6944 0.7000 1.0000
vt 0.6667 0.7000 1.0000
vt 0.7222 0.7000 1.0000
# 185 texture coords

o 对象001
g 对象001
usemtl wire_006135006
s 8
f 291/351/152 292/352/152 293/353/153 294/354/153 
f 293/353/153 295/355/154 296/356/154 294/354/153 
f 297/357/155 298/358/155 299/359/156 300/360/156 
f 299/359/156 292/352/152 291/351/152 300/360/156 
f 301/361/157 302/362/157 303/363/158 304/364/158 
f 303/363/158 298/358/155 297/357/155 304/364/158 
f 305/365/159 306/366/159 307/367/160 308/368/160 
f 307/367/160 302/362/157 301/361/157 308/368/160 
f 309/369/161 310/370/161 311/371/162 312/372/162 
f 311/371/162 306/373/159 305/374/159 312/372/162 
f 313/375/163 314/376/163 315/377/164 316/378/164 
f 315/377/164 310/370/161 309/369/161 316/378/164 
f 317/379/165 318/380/165 319/381/166 320/382/166 
f 319/381/166 314/376/163 313/375/163 320/382/166 
f 321/383/167 322/384/167 323/385/168 324/386/168 
f 323/385/168 318/380/165 317/379/165 324/386/168 
f 325/387/169 326/388/169 327/389/170 328/390/170 
f 327/389/170 322/384/167 321/383/167 328/390/170 
f 329/391/171 330/392/171 331/393/172 332/394/172 
f 331/393/172 326/388/169 325/387/169 332/394/172 
f 333/395/173 334/396/173 335/397/174 336/398/174 
f 335/397/174 330/392/171 329/391/171 336/398/174 
f 337/399/175 338/400/175 339/401/176 340/402/176 
f 339/401/176 334/396/173 333/395/173 340/402/176 
f 341/403/177 342/404/177 343/405/178 344/406/178 
f 343/405/178 338/400/175 337/399/175 344/406/178 
f 345/407/179 346/408/179 347/409/180 348/410/180 
f 347/409/180 342/404/177 341/403/177 348/410/180 
f 349/411/181 350/412/181 351/413/182 352/414/182 
f 351/413/182 346/408/179 345/407/179 352/414/182 
f 353/415/183 354/416/183 355/417/184 356/418/184 
f 355/417/184 350/412/181 349/411/181 356/418/184 
f 357/419/185 358/420/185 359/421/186 360/422/186 
f 359/421/186 354/416/183 353/415/183 360/422/186 
f 296/356/154 295/355/154 361/423/187 362/424/187 
f 361/423/187 358/420/185 357/419/185 362/424/187 
f 293/353/153 292/352/152 363/425/152 364/426/153 
f 363/425/152 365/427/152 366/428/188 364/426/153 
f 366/428/188 367/429/189 368/430/189 364/426/153 
f 368/430/189 295/355/154 293/353/153 364/426/153 
f 299/359/156 298/358/155 369/431/155 370/432/156 
f 369/431/155 371/433/155 372/434/156 370/432/156 
f 372/434/156 365/427/152 363/425/152 370/432/156 
f 363/425/152 292/352/152 299/359/156 370/432/156 
f 303/363/158 302/362/157 373/435/157 374/436/158 
f 373/435/157 375/437/157 376/438/158 374/436/158 
f 376/438/158 371/433/155 369/431/155 374/436/158 
f 369/431/155 298/358/155 303/363/158 374/436/158 
f 307/367/160 306/366/159 377/439/159 378/440/160 
f 377/439/159 379/441/159 380/442/160 378/440/160 
f 380/442/160 375/437/157 373/435/157 378/440/160 
f 373/435/157 302/362/157 307/367/160 378/440/160 
f 311/371/162 310/370/161 381/443/161 382/444/162 
f 381/443/161 383/445/161 384/446/162 382/444/162 
f 384/446/162 379/447/159 377/448/159 382/444/162 
f 377/448/159 306/373/159 311/371/162 382/444/162 
f 315/377/164 314/376/163 385/449/163 386/450/164 
f 385/449/163 387/451/163 388/452/190 386/450/164 
f 388/452/190 383/445/161 381/443/161 386/450/164 
f 381/443/161 310/370/161 315/377/164 386/450/164 
f 319/381/166 318/380/165 389/453/165 390/454/166 
f 389/453/165 391/455/165 392/456/166 390/454/166 
f 392/456/166 387/451/163 385/449/163 390/454/166 
f 385/449/163 314/376/163 319/381/166 390/454/166 
f 323/385/168 322/384/167 393/457/167 394/458/168 
f 393/457/167 395/459/167 396/460/168 394/458/168 
f 396/460/168 391/455/165 389/453/165 394/458/168 
f 389/453/165 318/380/165 323/385/168 394/458/168 
f 327/389/170 326/388/169 397/461/169 398/462/170 
f 397/461/169 399/463/169 400/464/170 398/462/170 
f 400/464/170 395/459/167 393/457/167 398/462/170 
f 393/457/167 322/384/167 327/389/170 398/462/170 
f 331/393/172 330/392/171 401/465/171 402/466/172 
f 401/465/171 403/467/171 404/468/172 402/466/172 
f 404/468/172 399/463/169 397/461/169 402/466/172 
f 397/461/169 326/388/169 331/393/172 402/466/172 
f 335/397/174 334/396/173 405/469/173 406/470/174 
f 405/469/173 407/471/173 408/472/174 406/470/174 
f 408/472/174 403/467/171 401/465/171 406/470/174 
f 401/465/171 330/392/171 335/397/174 406/470/174 
f 339/401/176 338/400/175 409/473/175 410/474/176 
f 409/473/175 411/475/175 412/476/176 410/474/176 
f 412/476/176 407/471/173 405/469/173 410/474/176 
f 405/469/173 334/396/173 339/401/176 410/474/176 
f 343/405/178 342/404/177 413/477/177 414/478/178 
f 413/477/177 415/479/177 416/480/178 414/478/178 
f 416/480/178 411/475/175 409/473/175 414/478/178 
f 409/473/175 338/400/175 343/405/178 414/478/178 
f 347/409/180 346/408/179 417/481/179 418/482/180 
f 417/481/179 419/483/179 420/484/191 418/482/180 
f 420/484/191 415/479/177 413/477/177 418/482/180 
f 413/477/177 342/404/177 347/409/180 418/482/180 
f 351/413/182 350/412/181 421/485/181 422/486/182 
f 421/485/181 423/487/181 424/488/182 422/486/182 
f 424/488/182 419/483/179 417/481/179 422/486/182 
f 417/481/179 346/408/179 351/413/182 422/486/182 
f 355/417/184 354/416/183 425/489/183 426/490/184 
f 425/489/183 427/491/183 428/492/192 426/490/184 
f 428/492/192 423/487/181 421/485/181 426/490/184 
f 421/485/181 350/412/181 355/417/184 426/490/184 
f 359/421/186 358/420/185 429/493/185 430/494/186 
f 429/493/185 431/495/185 432/496/186 430/494/186 
f 432/496/186 427/491/183 425/489/183 430/494/186 
f 425/489/183 354/416/183 359/421/186 430/494/186 
f 361/423/187 295/355/154 368/430/189 433/497/187 
f 368/430/189 367/429/189 434/498/187 433/497/187 
f 434/498/187 431/495/185 429/493/185 433/497/187 
f 429/493/185 358/420/185 361/423/187 433/497/187 
f 366/428/188 365/427/152 435/499/152 436/500/188 
f 437/501/154 367/429/189 366/428/188 436/500/188 
f 372/434/156 371/433/155 438/502/193 439/503/156 
f 435/499/152 365/427/152 372/434/156 439/503/156 
f 376/438/158 375/437/157 440/504/157 441/505/158 
f 438/502/193 371/433/155 376/438/158 441/505/158 
f 380/442/160 379/441/159 442/506/159 443/507/160 
f 440/504/157 375/437/157 380/442/160 443/507/160 
f 384/446/162 383/445/161 444/508/161 445/509/162 
f 442/510/159 379/447/159 384/446/162 445/509/162 
f 388/452/190 387/451/163 446/511/163 447/512/190 
f 444/508/161 383/445/161 388/452/190 447/512/190 
f 392/456/166 391/455/165 448/513/194 449/514/166 
f 446/511/163 387/451/163 392/456/166 449/514/166 
f 396/460/168 395/459/167 450/515/167 451/516/168 
f 448/513/194 391/455/165 396/460/168 451/516/168 
f 400/464/170 399/463/169 452/517/195 453/518/170 
f 450/515/167 395/459/167 400/464/170 453/518/170 
f 404/468/172 403/467/171 454/519/171 455/520/172 
f 452/517/195 399/463/169 404/468/172 455/520/172 
f 408/472/174 407/471/173 456/521/173 457/522/174 
f 454/519/171 403/467/171 408/472/174 457/522/174 
f 412/476/176 411/475/175 458/523/175 459/524/176 
f 456/521/173 407/471/173 412/476/176 459/524/176 
f 416/480/178 415/479/177 460/525/177 461/526/178 
f 458/523/175 411/475/175 416/480/178 461/526/178 
f 420/484/191 419/483/179 462/527/179 463/528/191 
f 460/525/177 415/479/177 420/484/191 463/528/191 
f 424/488/182 423/487/181 464/529/181 465/530/182 
f 462/527/179 419/483/179 424/488/182 465/530/182 
f 428/492/192 427/491/183 466/531/183 467/532/192 
f 464/529/181 423/487/181 428/492/192 467/532/192 
f 432/496/186 431/495/185 468/533/185 469/534/186 
f 466/531/183 427/491/183 432/496/186 469/534/186 
f 434/498/187 367/429/189 437/501/154 470/535/187 
f 468/533/185 431/495/185 434/498/187 470/535/187 
# 144 polygons

