# 3ds Max Wavefront OBJ Exporter v0.97b - (c)2007 guruware
# 创建的文件:04.10.2021 16:58:15

mtllib 44.mtl

#
# object Cone001
#

v  26.2396 0.0000 7.1732
v  23.5459 0.0000 13.6764
v  19.2608 0.0000 19.2608
v  13.6764 0.0000 23.5459
v  7.1732 0.0000 26.2396
v  0.1943 0.0000 27.1584
v  -6.7845 0.0000 26.2396
v  -13.2877 0.0000 23.5459
v  -18.8721 0.0000 19.2608
v  -23.1572 0.0000 13.6764
v  -25.8509 0.0000 7.1731
v  -26.7697 0.0000 0.1943
v  -25.8509 0.0000 -6.7845
v  -23.1572 0.0000 -13.2877
v  -18.8721 0.0000 -18.8721
v  -13.2877 0.0000 -23.1572
v  -6.7844 0.0000 -25.8509
v  0.1944 0.0000 -26.7697
v  7.1732 0.0000 -25.8509
v  13.6764 0.0000 -23.1572
v  19.2608 0.0000 -18.8721
v  23.5459 0.0000 -13.2877
v  26.2396 0.0000 -6.7845
v  27.1584 0.0000 0.1944
v  21.0306 9.2173 -5.3887
v  21.7656 9.2173 0.1944
v  18.8756 9.2173 -10.5913
v  15.4475 9.2173 -15.0588
v  10.9800 9.2173 -18.4869
v  5.7774 9.2173 -20.6419
v  0.1944 9.2173 -21.3769
v  -5.3887 9.2173 -20.6419
v  -10.5913 9.2173 -18.4869
v  -15.0588 9.2173 -15.0588
v  -18.4869 9.2173 -10.5913
v  -20.6418 9.2173 -5.3887
v  -21.3769 9.2173 0.1943
v  -20.6419 9.2173 5.7774
v  -18.4869 9.2173 10.9800
v  -15.0588 9.2173 15.4475
v  -10.5913 9.2173 18.8756
v  -5.3887 9.2173 21.0306
v  0.1944 9.2173 21.7656
v  5.7774 9.2173 21.0306
v  10.9800 9.2173 18.8756
v  15.4475 9.2173 15.4475
v  18.8756 9.2173 10.9800
v  21.0306 9.2173 5.7774
v  10.9800 27.6520 0.1944
v  10.6125 27.6520 -2.5972
v  5.4034 36.8694 -1.2014
v  5.5872 36.8694 0.1944
v  9.5350 27.6520 -5.1985
v  4.8647 36.8694 -2.5021
v  7.8209 27.6520 -7.4322
v  4.0077 36.8694 -3.6189
v  5.5872 27.6520 -9.1463
v  2.8908 36.8694 -4.4760
v  2.9859 27.6520 -10.2238
v  1.5901 36.8694 -5.0147
v  0.1944 27.6520 -10.5913
v  0.1944 36.8694 -5.1985
v  -2.5972 27.6520 -10.2238
v  -1.2014 36.8694 -5.0147
v  -5.1984 27.6520 -9.1463
v  -2.5020 36.8694 -4.4760
v  -7.4322 27.6520 -7.4322
v  -3.6189 36.8694 -3.6189
v  -9.1463 27.6520 -5.1985
v  -4.4759 36.8694 -2.5021
v  -10.2237 27.6520 -2.5972
v  -5.0147 36.8694 -1.2014
v  -10.5913 27.6520 0.1943
v  -5.1984 36.8694 0.1943
v  -10.2237 27.6520 2.9859
v  -5.0147 36.8694 1.5901
v  -9.1463 27.6520 5.5872
v  -4.4759 36.8694 2.8908
v  -7.4322 27.6520 7.8209
v  -3.6189 36.8694 4.0076
v  -5.1985 27.6520 9.5350
v  -2.5020 36.8694 4.8647
v  -2.5972 27.6520 10.6125
v  -1.2014 36.8694 5.4034
v  0.1944 27.6520 10.9800
v  0.1944 36.8694 5.5872
v  2.9859 27.6520 10.6125
v  1.5901 36.8694 5.4034
v  5.5872 27.6520 9.5350
v  2.8908 36.8694 4.8647
v  7.8209 27.6520 7.8209
v  4.0076 36.8694 4.0076
v  9.5350 27.6520 5.5872
v  4.8647 36.8694 2.8908
v  10.6125 27.6520 2.9859
v  5.4034 36.8694 1.5901
v  0.1944 46.0867 0.1944
# 97 vertices

vn 0.8532 -0.4687 0.2286
vn 0.7650 -0.4687 0.4417
vn 0.6246 -0.4687 0.6246
vn 0.4417 -0.4687 0.7650
vn 0.2286 -0.4687 0.8532
vn -0.0000 -0.4687 0.8833
vn -0.2286 -0.4687 0.8532
vn -0.4417 -0.4687 0.7650
vn -0.6246 -0.4687 0.6246
vn -0.7650 -0.4687 0.4417
vn -0.8532 -0.4687 0.2286
vn -0.8833 -0.4687 -0.0000
vn -0.8532 -0.4687 -0.2286
vn -0.7650 -0.4687 -0.4417
vn -0.6246 -0.4687 -0.6246
vn -0.4417 -0.4687 -0.7650
vn -0.2286 -0.4687 -0.8532
vn 0.0000 -0.4687 -0.8833
vn 0.2286 -0.4687 -0.8532
vn 0.4417 -0.4687 -0.7650
vn 0.6246 -0.4687 -0.6246
vn 0.7650 -0.4687 -0.4417
vn 0.8532 -0.4687 -0.2286
vn 0.8833 -0.4687 0.0000
vn 0.8337 0.5050 -0.2234
vn 0.8631 0.5050 0.0000
vn 0.7475 0.5050 -0.4316
vn 0.6103 0.5050 -0.6103
vn 0.4316 0.5050 -0.7475
vn 0.2234 0.5050 -0.8337
vn -0.0000 0.5050 -0.8631
vn -0.2234 0.5050 -0.8337
vn -0.4316 0.5050 -0.7475
vn -0.6103 0.5050 -0.6103
vn -0.7475 0.5050 -0.4316
vn -0.8337 0.5050 -0.2234
vn -0.8631 0.5050 -0.0000
vn -0.8337 0.5050 0.2234
vn -0.7475 0.5050 0.4316
vn -0.6103 0.5050 0.6103
vn -0.4316 0.5050 0.7475
vn -0.2234 0.5050 0.8337
vn -0.0000 0.5050 0.8631
vn 0.2234 0.5050 0.8337
vn 0.4316 0.5050 0.7475
vn 0.6103 0.5050 0.6103
vn 0.7475 0.5050 0.4316
vn 0.8337 0.5050 0.2234
vn 1.0000 0.0000 -0.0000
# 49 vertex normals

vt 0.2787 0.0000 -0.1317
vt 0.1676 0.0000 -0.3860
vt 0.0792 0.0000 -0.6140
vt 0.0194 0.0000 -0.8002
vt -0.0076 0.0000 -0.9319
vt -0.0000 0.0000 -1.0000
vt 0.0417 0.0000 -1.0000
vt 0.1146 0.0000 -0.9319
vt 0.2137 0.0000 -0.8002
vt 0.3324 0.0000 -0.6140
vt 0.4625 0.0000 -0.3860
vt 0.5952 0.0000 -0.1317
vt 0.7213 0.0000 0.1317
vt 0.8324 0.0000 0.3860
vt 0.9208 0.0000 0.6140
vt 0.9806 0.0000 0.8002
vt 1.0076 0.0000 0.9319
vt 1.0000 0.0000 1.0000
vt 0.9583 0.0000 1.0000
vt 0.9167 0.0000 1.0000
vt 0.8750 0.0000 1.0000
vt 0.8333 0.0000 1.0000
vt 0.7917 0.0000 1.0000
vt 0.7500 0.0000 1.0000
vt 0.7917 0.2000 0.8000
vt 0.7500 0.2000 0.8000
vt 0.8333 0.2000 0.8000
vt 0.8750 0.2000 0.8000
vt 0.9167 0.2000 0.8000
vt 0.9583 0.2000 0.8000
vt 1.0000 0.2000 0.8000
vt 0.0000 0.0000 1.0000
vt 0.0417 0.0000 1.0000
vt 0.0417 0.2000 0.8000
vt 0.0000 0.2000 0.8000
vt 0.0833 0.0000 1.0000
vt 0.0833 0.2000 0.8000
vt 0.1250 0.0000 1.0000
vt 0.1250 0.2000 0.8000
vt 0.1667 0.0000 1.0000
vt 0.1667 0.2000 0.8000
vt 0.2083 0.0000 1.0000
vt 0.2083 0.2000 0.8000
vt 0.2500 0.0000 1.0000
vt 0.2500 0.2000 0.8000
vt 0.2917 0.0000 1.0000
vt 0.2917 0.2000 0.8000
vt 0.3333 0.0000 1.0000
vt 0.3333 0.2000 0.8000
vt 0.3750 0.0000 1.0000
vt 0.3750 0.2000 0.8000
vt 0.4167 0.0000 1.0000
vt 0.4167 0.2000 0.8000
vt 0.4583 0.0000 1.0000
vt 0.4583 0.2000 0.8000
vt 0.5000 0.0000 1.0000
vt 0.5000 0.2000 0.8000
vt 0.5417 0.0000 1.0000
vt 0.5417 0.2000 0.8000
vt 0.5833 0.0000 1.0000
vt 0.5833 0.2000 0.8000
vt 0.6250 0.0000 1.0000
vt 0.6250 0.2000 0.8000
vt 0.6667 0.0000 1.0000
vt 0.6667 0.2000 0.8000
vt 0.7083 0.0000 1.0000
vt 0.7083 0.2000 0.8000
vt 0.7500 0.6000 0.4000
vt 0.7917 0.6000 0.4000
vt 0.7917 0.8000 0.2000
vt 0.7500 0.8000 0.2000
vt 0.8333 0.6000 0.4000
vt 0.8333 0.8000 0.2000
vt 0.8750 0.6000 0.4000
vt 0.8750 0.8000 0.2000
vt 0.9167 0.6000 0.4000
vt 0.9167 0.8000 0.2000
vt 0.9583 0.6000 0.4000
vt 0.9583 0.8000 0.2000
vt 1.0000 0.6000 0.4000
vt 1.0000 0.8000 0.2000
vt 0.0000 0.6000 0.4000
vt 0.0417 0.6000 0.4000
vt 0.0417 0.8000 0.2000
vt 0.0000 0.8000 0.2000
vt 0.0833 0.6000 0.4000
vt 0.0833 0.8000 0.2000
vt 0.1250 0.6000 0.4000
vt 0.1250 0.8000 0.2000
vt 0.1667 0.6000 0.4000
vt 0.1667 0.8000 0.2000
vt 0.2083 0.6000 0.4000
vt 0.2083 0.8000 0.2000
vt 0.2500 0.6000 0.4000
vt 0.2500 0.8000 0.2000
vt 0.2917 0.6000 0.4000
vt 0.2917 0.8000 0.2000
vt 0.3333 0.6000 0.4000
vt 0.3333 0.8000 0.2000
vt 0.3750 0.6000 0.4000
vt 0.3750 0.8000 0.2000
vt 0.4167 0.6000 0.4000
vt 0.4167 0.8000 0.2000
vt 0.4583 0.6000 0.4000
vt 0.4583 0.8000 0.2000
vt 0.5000 0.6000 0.4000
vt 0.5000 0.8000 0.2000
vt 0.5417 0.6000 0.4000
vt 0.5417 0.8000 0.2000
vt 0.5833 0.6000 0.4000
vt 0.5833 0.8000 0.2000
vt 0.6250 0.6000 0.4000
vt 0.6250 0.8000 0.2000
vt 0.6667 0.6000 0.4000
vt 0.6667 0.8000 0.2000
vt 0.7083 0.6000 0.4000
vt 0.7083 0.8000 0.2000
vt 0.5000 1.0000 0.0000
# 118 texture coords

o Cone001
g Cone001
usemtl wire_006135006
s 1
f 1/1/1 2/2/2 3/3/3 4/4/4 5/5/5 6/6/6 7/7/7 8/8/8 9/9/9 10/10/10 11/11/11 12/12/12 13/13/13 14/14/14 15/15/15 16/16/16 17/17/17 18/18/18 19/19/19 20/20/20 21/21/21 22/22/22 23/23/23 24/24/24 
s 8
f 24/24/24 23/23/23 25/25/25 26/26/26 
f 23/23/23 22/22/22 27/27/27 25/25/25 
f 22/22/22 21/21/21 28/28/28 27/27/27 
f 21/21/21 20/20/20 29/29/29 28/28/28 
f 20/20/20 19/19/19 30/30/30 29/29/29 
f 19/19/19 18/18/18 31/31/31 30/30/30 
f 18/32/18 17/33/17 32/34/32 31/35/31 
f 17/33/17 16/36/16 33/37/33 32/34/32 
f 16/36/16 15/38/15 34/39/34 33/37/33 
f 15/38/15 14/40/14 35/41/35 34/39/34 
f 14/40/14 13/42/13 36/43/36 35/41/35 
f 13/42/13 12/44/12 37/45/37 36/43/36 
f 12/44/12 11/46/11 38/47/38 37/45/37 
f 11/46/11 10/48/10 39/49/39 38/47/38 
f 10/48/10 9/50/9 40/51/40 39/49/39 
f 9/50/9 8/52/8 41/53/41 40/51/40 
f 8/52/8 7/54/7 42/55/42 41/53/41 
f 7/54/7 6/56/6 43/57/43 42/55/42 
f 6/56/6 5/58/5 44/59/44 43/57/43 
f 5/58/5 4/60/4 45/61/45 44/59/44 
f 4/60/4 3/62/3 46/63/46 45/61/45 
f 3/62/3 2/64/2 47/65/47 46/63/46 
f 2/64/2 1/66/1 48/67/48 47/65/47 
f 1/66/1 24/24/24 26/26/26 48/67/48 
f 49/68/26 50/69/25 51/70/25 52/71/26 
f 50/69/25 53/72/27 54/73/27 51/70/25 
f 53/72/27 55/74/28 56/75/28 54/73/27 
f 55/74/28 57/76/29 58/77/29 56/75/28 
f 57/76/29 59/78/30 60/79/30 58/77/29 
f 59/78/30 61/80/31 62/81/31 60/79/30 
f 61/82/31 63/83/32 64/84/32 62/85/31 
f 63/83/32 65/86/33 66/87/33 64/84/32 
f 65/86/33 67/88/34 68/89/34 66/87/33 
f 67/88/34 69/90/35 70/91/35 68/89/34 
f 69/90/35 71/92/36 72/93/36 70/91/35 
f 71/92/36 73/94/37 74/95/37 72/93/36 
f 73/94/37 75/96/38 76/97/38 74/95/37 
f 75/96/38 77/98/39 78/99/39 76/97/38 
f 77/98/39 79/100/40 80/101/40 78/99/39 
f 79/100/40 81/102/41 82/103/41 80/101/40 
f 81/102/41 83/104/42 84/105/42 82/103/41 
f 83/104/42 85/106/43 86/107/43 84/105/42 
f 85/106/43 87/108/44 88/109/44 86/107/43 
f 87/108/44 89/110/45 90/111/45 88/109/44 
f 89/110/45 91/112/46 92/113/46 90/111/45 
f 91/112/46 93/114/47 94/115/47 92/113/46 
f 93/114/47 95/116/48 96/117/48 94/115/47 
f 95/116/48 49/68/26 52/71/26 96/117/48 
f 52/71/26 51/70/25 97/118/49 97/118/49 
f 51/70/25 54/73/27 97/118/49 97/118/49 
f 54/73/27 56/75/28 97/118/49 97/118/49 
f 56/75/28 58/77/29 97/118/49 97/118/49 
f 58/77/29 60/79/30 97/118/49 97/118/49 
f 60/79/30 62/81/31 97/118/49 97/118/49 
f 62/85/31 64/84/32 97/118/49 97/118/49 
f 64/84/32 66/87/33 97/118/49 97/118/49 
f 66/87/33 68/89/34 97/118/49 97/118/49 
f 68/89/34 70/91/35 97/118/49 97/118/49 
f 70/91/35 72/93/36 97/118/49 97/118/49 
f 72/93/36 74/95/37 97/118/49 97/118/49 
f 74/95/37 76/97/38 97/118/49 97/118/49 
f 76/97/38 78/99/39 97/118/49 97/118/49 
f 78/99/39 80/101/40 97/118/49 97/118/49 
f 80/101/40 82/103/41 97/118/49 97/118/49 
f 82/103/41 84/105/42 97/118/49 97/118/49 
f 84/105/42 86/107/43 97/118/49 97/118/49 
f 86/107/43 88/109/44 97/118/49 97/118/49 
f 88/109/44 90/111/45 97/118/49 97/118/49 
f 90/111/45 92/113/46 97/118/49 97/118/49 
f 92/113/46 94/115/47 97/118/49 97/118/49 
f 94/115/47 96/117/48 97/118/49 97/118/49 
f 96/117/48 52/71/26 97/118/49 97/118/49 
s 1
f 97/118/49 97/118/49 97/118/49 97/118/49 97/118/49 97/118/49 97/118/49 97/118/49 97/118/49 97/118/49 97/118/49 97/118/49 97/118/49 97/118/49 97/118/49 97/118/49 97/118/49 97/118/49 97/118/49 97/118/49 97/118/49 97/118/49 97/118/49 97/118/49 
# 74 polygons

#
# object 对象001
#

v  21.7656 9.2173 0.1944
v  21.0306 9.2173 -5.3887
v  15.8215 18.4347 -3.9929
v  16.3728 18.4347 0.1944
v  18.8756 9.2173 -10.5913
v  14.2053 18.4347 -7.8949
v  15.4475 9.2173 -15.0588
v  11.6342 18.4347 -11.2455
v  10.9800 9.2173 -18.4869
v  8.2836 18.4347 -13.8166
v  5.7774 9.2173 -20.6419
v  4.3816 18.4347 -15.4328
v  0.1944 9.2173 -21.3769
v  0.1944 18.4347 -15.9841
v  -5.3887 9.2173 -20.6419
v  -3.9929 18.4347 -15.4328
v  -10.5913 9.2173 -18.4869
v  -7.8948 18.4347 -13.8166
v  -15.0588 9.2173 -15.0588
v  -11.2455 18.4347 -11.2455
v  -18.4869 9.2173 -10.5913
v  -13.8166 18.4347 -7.8949
v  -20.6418 9.2173 -5.3887
v  -15.4328 18.4347 -3.9929
v  -21.3769 9.2173 0.1943
v  -15.9841 18.4347 0.1943
v  -20.6419 9.2173 5.7774
v  -15.4328 18.4347 4.3816
v  -18.4869 9.2173 10.9800
v  -13.8166 18.4347 8.2836
v  -15.0588 9.2173 15.4475
v  -11.2455 18.4347 11.6342
v  -10.5913 9.2173 18.8756
v  -7.8949 18.4347 14.2053
v  -5.3887 9.2173 21.0306
v  -3.9929 18.4347 15.8215
v  0.1944 9.2173 21.7656
v  0.1944 18.4347 16.3728
v  5.7774 9.2173 21.0306
v  4.3816 18.4347 15.8215
v  10.9800 9.2173 18.8756
v  8.2836 18.4347 14.2053
v  15.4475 9.2173 15.4475
v  11.6342 18.4347 11.6342
v  18.8756 9.2173 10.9800
v  14.2053 18.4347 8.2836
v  21.0306 9.2173 5.7774
v  15.8215 18.4347 4.3816
v  10.6125 27.6520 -2.5972
v  10.9800 27.6520 0.1944
v  9.5350 27.6520 -5.1985
v  7.8209 27.6520 -7.4322
v  5.5872 27.6520 -9.1463
v  2.9859 27.6520 -10.2238
v  0.1944 27.6520 -10.5913
v  -2.5972 27.6520 -10.2238
v  -5.1984 27.6520 -9.1463
v  -7.4322 27.6520 -7.4322
v  -9.1463 27.6520 -5.1985
v  -10.2237 27.6520 -2.5972
v  -10.5913 27.6520 0.1943
v  -10.2237 27.6520 2.9859
v  -9.1463 27.6520 5.5872
v  -7.4322 27.6520 7.8209
v  -5.1985 27.6520 9.5350
v  -2.5972 27.6520 10.6125
v  0.1944 27.6520 10.9800
v  2.9859 27.6520 10.6125
v  5.5872 27.6520 9.5350
v  7.8209 27.6520 7.8209
v  9.5350 27.6520 5.5872
v  10.6125 27.6520 2.9859
# 72 vertices

vn 0.8631 0.5050 0.0000
vn 0.8337 0.5050 -0.2234
vn 0.7475 0.5050 -0.4316
vn 0.6103 0.5050 -0.6103
vn 0.4316 0.5050 -0.7475
vn 0.2234 0.5050 -0.8337
vn -0.0000 0.5050 -0.8631
vn 0.0000 0.5050 -0.8631
vn -0.2234 0.5050 -0.8337
vn -0.4316 0.5050 -0.7475
vn -0.6103 0.5050 -0.6103
vn -0.7475 0.5050 -0.4316
vn -0.8337 0.5050 -0.2234
vn -0.8631 0.5050 -0.0000
vn -0.8337 0.5050 0.2234
vn -0.7475 0.5050 0.4316
vn -0.6103 0.5050 0.6103
vn -0.4316 0.5050 0.7475
vn -0.2234 0.5050 0.8337
vn -0.0000 0.5050 0.8631
vn 0.2234 0.5050 0.8337
vn 0.4316 0.5050 0.7475
vn 0.6103 0.5050 0.6103
vn 0.7475 0.5050 0.4316
vn 0.8337 0.5050 0.2234
# 25 vertex normals

vt 0.7500 0.2000 0.8000
vt 0.7917 0.2000 0.8000
vt 0.7917 0.4000 0.6000
vt 0.7500 0.4000 0.6000
vt 0.8333 0.2000 0.8000
vt 0.8333 0.4000 0.6000
vt 0.8750 0.2000 0.8000
vt 0.8750 0.4000 0.6000
vt 0.9167 0.2000 0.8000
vt 0.9167 0.4000 0.6000
vt 0.9583 0.2000 0.8000
vt 0.9583 0.4000 0.6000
vt 1.0000 0.2000 0.8000
vt 1.0000 0.4000 0.6000
vt 0.0000 0.2000 0.8000
vt 0.0417 0.2000 0.8000
vt 0.0417 0.4000 0.6000
vt 0.0000 0.4000 0.6000
vt 0.0833 0.2000 0.8000
vt 0.0833 0.4000 0.6000
vt 0.1250 0.2000 0.8000
vt 0.1250 0.4000 0.6000
vt 0.1667 0.2000 0.8000
vt 0.1667 0.4000 0.6000
vt 0.2083 0.2000 0.8000
vt 0.2083 0.4000 0.6000
vt 0.2500 0.2000 0.8000
vt 0.2500 0.4000 0.6000
vt 0.2917 0.2000 0.8000
vt 0.2917 0.4000 0.6000
vt 0.3333 0.2000 0.8000
vt 0.3333 0.4000 0.6000
vt 0.3750 0.2000 0.8000
vt 0.3750 0.4000 0.6000
vt 0.4167 0.2000 0.8000
vt 0.4167 0.4000 0.6000
vt 0.4583 0.2000 0.8000
vt 0.4583 0.4000 0.6000
vt 0.5000 0.2000 0.8000
vt 0.5000 0.4000 0.6000
vt 0.5417 0.2000 0.8000
vt 0.5417 0.4000 0.6000
vt 0.5833 0.2000 0.8000
vt 0.5833 0.4000 0.6000
vt 0.6250 0.2000 0.8000
vt 0.6250 0.4000 0.6000
vt 0.6667 0.2000 0.8000
vt 0.6667 0.4000 0.6000
vt 0.7083 0.2000 0.8000
vt 0.7083 0.4000 0.6000
vt 0.7917 0.6000 0.4000
vt 0.7500 0.6000 0.4000
vt 0.8333 0.6000 0.4000
vt 0.8750 0.6000 0.4000
vt 0.9167 0.6000 0.4000
vt 0.9583 0.6000 0.4000
vt 1.0000 0.6000 0.4000
vt 0.0417 0.6000 0.4000
vt 0.0000 0.6000 0.4000
vt 0.0833 0.6000 0.4000
vt 0.1250 0.6000 0.4000
vt 0.1667 0.6000 0.4000
vt 0.2083 0.6000 0.4000
vt 0.2500 0.6000 0.4000
vt 0.2917 0.6000 0.4000
vt 0.3333 0.6000 0.4000
vt 0.3750 0.6000 0.4000
vt 0.4167 0.6000 0.4000
vt 0.4583 0.6000 0.4000
vt 0.5000 0.6000 0.4000
vt 0.5417 0.6000 0.4000
vt 0.5833 0.6000 0.4000
vt 0.6250 0.6000 0.4000
vt 0.6667 0.6000 0.4000
vt 0.7083 0.6000 0.4000
# 75 texture coords

o 对象001
g 对象001
usemtl wire_135006006
s 8
f 98/119/50 99/120/51 100/121/51 101/122/50 
f 99/120/51 102/123/52 103/124/52 100/121/51 
f 102/123/52 104/125/53 105/126/53 103/124/52 
f 104/125/53 106/127/54 107/128/54 105/126/53 
f 106/127/54 108/129/55 109/130/55 107/128/54 
f 108/129/55 110/131/56 111/132/57 109/130/55 
f 110/133/56 112/134/58 113/135/58 111/136/57 
f 112/134/58 114/137/59 115/138/59 113/135/58 
f 114/137/59 116/139/60 117/140/60 115/138/59 
f 116/139/60 118/141/61 119/142/61 117/140/60 
f 118/141/61 120/143/62 121/144/62 119/142/61 
f 120/143/62 122/145/63 123/146/63 121/144/62 
f 122/145/63 124/147/64 125/148/64 123/146/63 
f 124/147/64 126/149/65 127/150/65 125/148/64 
f 126/149/65 128/151/66 129/152/66 127/150/65 
f 128/151/66 130/153/67 131/154/67 129/152/66 
f 130/153/67 132/155/68 133/156/68 131/154/67 
f 132/155/68 134/157/69 135/158/69 133/156/68 
f 134/157/69 136/159/70 137/160/70 135/158/69 
f 136/159/70 138/161/71 139/162/71 137/160/70 
f 138/161/71 140/163/72 141/164/72 139/162/71 
f 140/163/72 142/165/73 143/166/73 141/164/72 
f 142/165/73 144/167/74 145/168/74 143/166/73 
f 144/167/74 98/119/50 101/122/50 145/168/74 
f 101/122/50 100/121/51 146/169/51 147/170/50 
f 100/121/51 103/124/52 148/171/52 146/169/51 
f 103/124/52 105/126/53 149/172/53 148/171/52 
f 105/126/53 107/128/54 150/173/54 149/172/53 
f 107/128/54 109/130/55 151/174/55 150/173/54 
f 109/130/55 111/132/57 152/175/56 151/174/55 
f 111/136/57 113/135/58 153/176/58 152/177/56 
f 113/135/58 115/138/59 154/178/59 153/176/58 
f 115/138/59 117/140/60 155/179/60 154/178/59 
f 117/140/60 119/142/61 156/180/61 155/179/60 
f 119/142/61 121/144/62 157/181/62 156/180/61 
f 121/144/62 123/146/63 158/182/63 157/181/62 
f 123/146/63 125/148/64 159/183/64 158/182/63 
f 125/148/64 127/150/65 160/184/65 159/183/64 
f 127/150/65 129/152/66 161/185/66 160/184/65 
f 129/152/66 131/154/67 162/186/67 161/185/66 
f 131/154/67 133/156/68 163/187/68 162/186/67 
f 133/156/68 135/158/69 164/188/69 163/187/68 
f 135/158/69 137/160/70 165/189/70 164/188/69 
f 137/160/70 139/162/71 166/190/71 165/189/70 
f 139/162/71 141/164/72 167/191/72 166/190/71 
f 141/164/72 143/166/73 168/192/73 167/191/72 
f 143/166/73 145/168/74 169/193/74 168/192/73 
f 145/168/74 101/122/50 147/170/50 169/193/74 
# 48 polygons

