# 3ds Max Wavefront OBJ Exporter v0.97b - (c)2007 guruware
# 创建的文件:04.10.2021 19:37:55

mtllib 55.mtl

#
# object Cone001
#

v  0.0000 0.0000 -0.0000
v  52.7191 0.0000 -30.4374
v  58.8005 0.0000 -15.7555
v  60.8748 0.0000 -0.0000
v  30.4374 0.0000 -52.7191
v  43.0450 0.0000 -43.0450
v  0.0000 0.0000 -60.8748
v  15.7555 0.0000 -58.8005
v  -30.4374 0.0000 -52.7191
v  -15.7555 0.0000 -58.8005
v  -52.7191 0.0000 -30.4374
v  -43.0449 0.0000 -43.0450
v  -60.8748 0.0000 -0.0000
v  -58.8005 0.0000 -15.7556
v  -52.7191 0.0000 30.4374
v  -58.8005 0.0000 15.7555
v  -30.4374 0.0000 52.7191
v  -43.0450 0.0000 43.0449
v  -0.0000 0.0000 60.8748
v  -15.7556 0.0000 58.8005
v  30.4373 0.0000 52.7191
v  15.7555 0.0000 58.8005
v  52.7191 0.0000 30.4374
v  43.0449 0.0000 43.0450
v  58.8005 0.0000 15.7556
v  54.7745 7.5917 -14.6768
v  56.7068 7.5917 -0.0000
v  49.1095 7.5917 -28.3534
v  40.0977 7.5917 -40.0977
v  28.3534 7.5917 -49.1095
v  14.6768 7.5917 -54.7745
v  0.0000 7.5917 -56.7068
v  -14.6768 7.5917 -54.7745
v  -28.3534 7.5917 -49.1095
v  -40.0977 7.5917 -40.0977
v  -49.1095 7.5917 -28.3534
v  -54.7745 7.5917 -14.6768
v  -56.7068 7.5917 -0.0000
v  -54.7745 7.5917 14.6768
v  -49.1095 7.5917 28.3534
v  -40.0978 7.5917 40.0977
v  -28.3534 7.5917 49.1095
v  -14.6768 7.5917 54.7745
v  -0.0000 7.5917 56.7068
v  14.6768 7.5917 54.7745
v  28.3533 7.5917 49.1095
v  40.0977 7.5917 40.0978
v  49.1095 7.5917 28.3534
v  54.7745 7.5917 14.6768
v  50.7485 15.1835 -13.5980
v  52.5387 15.1835 -0.0000
v  45.4999 15.1835 -26.2694
v  37.1505 15.1835 -37.1505
v  26.2694 15.1835 -45.4999
v  13.5980 15.1835 -50.7485
v  0.0000 15.1835 -52.5387
v  -13.5980 15.1835 -50.7485
v  -26.2694 15.1835 -45.4999
v  -37.1505 15.1835 -37.1505
v  -45.4999 15.1835 -26.2694
v  -50.7485 15.1835 -13.5980
v  -52.5387 15.1835 -0.0000
v  -50.7485 15.1835 13.5980
v  -45.4999 15.1835 26.2694
v  -37.1505 15.1835 37.1505
v  -26.2694 15.1835 45.4999
v  -13.5980 15.1835 50.7485
v  -0.0000 15.1835 52.5387
v  13.5980 15.1835 50.7485
v  26.2693 15.1835 45.4999
v  37.1505 15.1835 37.1505
v  45.4999 15.1835 26.2694
v  50.7485 15.1835 13.5981
v  46.7225 22.7752 -12.5193
v  48.3707 22.7752 -0.0000
v  41.8903 22.7752 -24.1854
v  34.2033 22.7752 -34.2033
v  24.1854 22.7752 -41.8903
v  12.5193 22.7752 -46.7225
v  0.0000 22.7752 -48.3707
v  -12.5193 22.7752 -46.7226
v  -24.1854 22.7752 -41.8903
v  -34.2033 22.7752 -34.2033
v  -41.8903 22.7752 -24.1854
v  -46.7225 22.7752 -12.5193
v  -48.3707 22.7752 -0.0000
v  -46.7226 22.7752 12.5192
v  -41.8903 22.7752 24.1854
v  -34.2033 22.7752 34.2033
v  -24.1854 22.7752 41.8903
v  -12.5193 22.7752 46.7225
v  -0.0000 22.7752 48.3707
v  12.5192 22.7752 46.7226
v  24.1853 22.7752 41.8903
v  34.2033 22.7752 34.2033
v  41.8903 22.7752 24.1854
v  46.7225 22.7752 12.5193
v  42.6966 30.3669 -11.4405
v  44.2027 30.3669 -0.0000
v  38.2807 30.3669 -22.1014
v  31.2561 30.3669 -31.2561
v  22.1014 30.3669 -38.2807
v  11.4405 30.3669 -42.6966
v  0.0000 30.3669 -44.2027
v  -11.4405 30.3669 -42.6966
v  -22.1014 30.3669 -38.2807
v  -31.2560 30.3669 -31.2561
v  -38.2807 30.3669 -22.1014
v  -42.6966 30.3669 -11.4405
v  -44.2027 30.3669 -0.0000
v  -42.6966 30.3669 11.4405
v  -38.2807 30.3669 22.1013
v  -31.2561 30.3669 31.2560
v  -22.1014 30.3669 38.2807
v  -11.4405 30.3669 42.6966
v  -0.0000 30.3669 44.2027
v  11.4405 30.3669 42.6966
v  22.1013 30.3669 38.2807
v  31.2560 30.3669 31.2561
v  38.2807 30.3669 22.1014
v  42.6966 30.3669 11.4405
v  38.6706 37.9586 -10.3618
v  40.0347 37.9586 -0.0000
v  34.6711 37.9586 -20.0174
v  28.3088 37.9586 -28.3088
v  20.0174 37.9586 -34.6711
v  10.3618 37.9586 -38.6706
v  0.0000 37.9586 -40.0347
v  -10.3617 37.9586 -38.6706
v  -20.0174 37.9586 -34.6711
v  -28.3088 37.9586 -28.3088
v  -34.6711 37.9586 -20.0174
v  -38.6706 37.9586 -10.3618
v  -40.0347 37.9586 -0.0000
v  -38.6706 37.9586 10.3617
v  -34.6711 37.9586 20.0173
v  -28.3088 37.9586 28.3088
v  -20.0174 37.9586 34.6711
v  -10.3618 37.9586 38.6706
v  -0.0000 37.9586 40.0347
v  10.3617 37.9586 38.6706
v  20.0173 37.9586 34.6711
v  28.3088 37.9586 28.3088
v  34.6711 37.9586 20.0174
v  38.6706 37.9586 10.3618
v  0.0000 37.9586 -0.0000
# 146 vertices

vn 0.0000 -1.0000 -0.0000
vn 0.7596 -0.4803 -0.4386
vn 0.8472 -0.4803 -0.2270
vn 0.8771 -0.4803 0.0000
vn 0.4386 -0.4803 -0.7596
vn 0.6202 -0.4803 -0.6202
vn 0.0000 -0.4803 -0.8771
vn 0.2270 -0.4803 -0.8472
vn -0.4386 -0.4803 -0.7596
vn -0.2270 -0.4803 -0.8472
vn -0.7596 -0.4803 -0.4386
vn -0.6202 -0.4803 -0.6202
vn -0.8771 -0.4803 -0.0000
vn -0.8472 -0.4803 -0.2270
vn -0.7596 -0.4803 0.4386
vn -0.8472 -0.4803 0.2270
vn -0.4386 -0.4803 0.7596
vn -0.6202 -0.4803 0.6202
vn -0.0000 -0.4803 0.8771
vn -0.2270 -0.4803 0.8472
vn 0.4386 -0.4803 0.7596
vn 0.2270 -0.4803 0.8472
vn 0.7596 -0.4803 0.4386
vn 0.6202 -0.4803 0.6202
vn 0.8472 -0.4803 0.2270
vn 0.8467 0.4813 -0.2269
vn 0.8766 0.4813 0.0000
vn 0.7591 0.4813 -0.4383
vn 0.6198 0.4813 -0.6198
vn 0.4383 0.4813 -0.7591
vn 0.2269 0.4813 -0.8467
vn 0.0000 0.4813 -0.8766
vn -0.2269 0.4813 -0.8467
vn -0.4383 0.4813 -0.7591
vn -0.6198 0.4813 -0.6198
vn -0.7591 0.4813 -0.4383
vn -0.8467 0.4813 -0.2269
vn -0.8766 0.4813 -0.0000
vn -0.8467 0.4813 0.2269
vn -0.7591 0.4813 0.4383
vn -0.6198 0.4813 0.6198
vn -0.4383 0.4813 0.7591
vn -0.2269 0.4813 0.8467
vn -0.0000 0.4813 0.8766
vn 0.2269 0.4813 0.8467
vn 0.4383 0.4813 0.7591
vn 0.6198 0.4813 0.6198
vn 0.7591 0.4813 0.4383
vn 0.8467 0.4813 0.2269
vn 0.5210 0.8421 -0.1396
vn 0.5394 0.8421 0.0000
vn 0.4671 0.8421 -0.2697
vn 0.3814 0.8421 -0.3814
vn 0.2697 0.8421 -0.4671
vn 0.1396 0.8421 -0.5210
vn 0.0000 0.8421 -0.5394
vn -0.1396 0.8421 -0.5210
vn -0.2697 0.8421 -0.4671
vn -0.3814 0.8421 -0.3814
vn -0.4671 0.8421 -0.2697
vn -0.5210 0.8421 -0.1396
vn -0.5394 0.8421 -0.0000
vn -0.5210 0.8421 0.1396
vn -0.4671 0.8421 0.2697
vn -0.3814 0.8421 0.3814
vn -0.2697 0.8421 0.4671
vn -0.1396 0.8421 0.5210
vn -0.0000 0.8421 0.5394
vn 0.1396 0.8421 0.5210
vn 0.2697 0.8421 0.4671
vn 0.3814 0.8421 0.3814
vn 0.4671 0.8421 0.2697
vn 0.5210 0.8421 0.1396
vn 0.0000 1.0000 -0.0000
# 74 vertex normals

vt 0.5000 0.0000 0.0000
vt 0.8333 0.0000 1.0000
vt 0.7917 0.0000 1.0000
vt 0.7500 0.0000 1.0000
vt 0.9167 0.0000 1.0000
vt 0.8750 0.0000 1.0000
vt 1.0000 0.0000 1.0000
vt 0.9583 0.0000 1.0000
vt 0.0833 0.0000 1.0000
vt 0.0417 0.0000 1.0000
vt 0.0000 0.0000 1.0000
vt 0.1667 0.0000 1.0000
vt 0.1250 0.0000 1.0000
vt 0.2500 0.0000 1.0000
vt 0.2083 0.0000 1.0000
vt 0.3333 0.0000 1.0000
vt 0.2917 0.0000 1.0000
vt 0.4167 0.0000 1.0000
vt 0.3750 0.0000 1.0000
vt 0.5000 0.0000 1.0000
vt 0.4583 0.0000 1.0000
vt 0.5833 0.0000 1.0000
vt 0.5417 0.0000 1.0000
vt 0.6667 0.0000 1.0000
vt 0.6250 0.0000 1.0000
vt 0.7083 0.0000 1.0000
vt 0.7917 0.2000 0.9315
vt 0.7500 0.2000 0.9315
vt 0.8333 0.2000 0.9315
vt 0.8750 0.2000 0.9315
vt 0.9167 0.2000 0.9315
vt 0.9583 0.2000 0.9315
vt 1.0000 0.2000 0.9315
vt 0.0417 0.2000 0.9315
vt 0.0000 0.2000 0.9315
vt 0.0833 0.2000 0.9315
vt 0.1250 0.2000 0.9315
vt 0.1667 0.2000 0.9315
vt 0.2083 0.2000 0.9315
vt 0.2500 0.2000 0.9315
vt 0.2917 0.2000 0.9315
vt 0.3333 0.2000 0.9315
vt 0.3750 0.2000 0.9315
vt 0.4167 0.2000 0.9315
vt 0.4583 0.2000 0.9315
vt 0.5000 0.2000 0.9315
vt 0.5417 0.2000 0.9315
vt 0.5833 0.2000 0.9315
vt 0.6250 0.2000 0.9315
vt 0.6667 0.2000 0.9315
vt 0.7083 0.2000 0.9315
vt 0.7917 0.4000 0.8631
vt 0.7500 0.4000 0.8631
vt 0.8333 0.4000 0.8631
vt 0.8750 0.4000 0.8631
vt 0.9167 0.4000 0.8631
vt 0.9583 0.4000 0.8631
vt 1.0000 0.4000 0.8631
vt 0.0417 0.4000 0.8631
vt 0.0000 0.4000 0.8631
vt 0.0833 0.4000 0.8631
vt 0.1250 0.4000 0.8631
vt 0.1667 0.4000 0.8631
vt 0.2083 0.4000 0.8631
vt 0.2500 0.4000 0.8631
vt 0.2917 0.4000 0.8631
vt 0.3333 0.4000 0.8631
vt 0.3750 0.4000 0.8631
vt 0.4167 0.4000 0.8631
vt 0.4583 0.4000 0.8631
vt 0.5000 0.4000 0.8631
vt 0.5417 0.4000 0.8631
vt 0.5833 0.4000 0.8631
vt 0.6250 0.4000 0.8631
vt 0.6667 0.4000 0.8631
vt 0.7083 0.4000 0.8631
vt 0.7917 0.6000 0.7946
vt 0.7500 0.6000 0.7946
vt 0.8333 0.6000 0.7946
vt 0.8750 0.6000 0.7946
vt 0.9167 0.6000 0.7946
vt 0.9583 0.6000 0.7946
vt 1.0000 0.6000 0.7946
vt 0.0417 0.6000 0.7946
vt 0.0000 0.6000 0.7946
vt 0.0833 0.6000 0.7946
vt 0.1250 0.6000 0.7946
vt 0.1667 0.6000 0.7946
vt 0.2083 0.6000 0.7946
vt 0.2500 0.6000 0.7946
vt 0.2917 0.6000 0.7946
vt 0.3333 0.6000 0.7946
vt 0.3750 0.6000 0.7946
vt 0.4167 0.6000 0.7946
vt 0.4583 0.6000 0.7946
vt 0.5000 0.6000 0.7946
vt 0.5417 0.6000 0.7946
vt 0.5833 0.6000 0.7946
vt 0.6250 0.6000 0.7946
vt 0.6667 0.6000 0.7946
vt 0.7083 0.6000 0.7946
vt 0.7917 0.8000 0.7261
vt 0.7500 0.8000 0.7261
vt 0.8333 0.8000 0.7261
vt 0.8750 0.8000 0.7261
vt 0.9167 0.8000 0.7261
vt 0.9583 0.8000 0.7261
vt 1.0000 0.8000 0.7261
vt 0.0417 0.8000 0.7261
vt 0.0000 0.8000 0.7261
vt 0.0833 0.8000 0.7261
vt 0.1250 0.8000 0.7261
vt 0.1667 0.8000 0.7261
vt 0.2083 0.8000 0.7261
vt 0.2500 0.8000 0.7261
vt 0.2917 0.8000 0.7261
vt 0.3333 0.8000 0.7261
vt 0.3750 0.8000 0.7261
vt 0.4167 0.8000 0.7261
vt 0.4583 0.8000 0.7261
vt 0.5000 0.8000 0.7261
vt 0.5417 0.8000 0.7261
vt 0.5833 0.8000 0.7261
vt 0.6250 0.8000 0.7261
vt 0.6667 0.8000 0.7261
vt 0.7083 0.8000 0.7261
vt 0.7917 1.0000 0.6577
vt 0.7500 1.0000 0.6577
vt 0.8333 1.0000 0.6577
vt 0.8750 1.0000 0.6577
vt 0.9167 1.0000 0.6577
vt 0.9583 1.0000 0.6577
vt 1.0000 1.0000 0.6577
vt 0.0417 1.0000 0.6577
vt 0.0000 1.0000 0.6577
vt 0.0833 1.0000 0.6577
vt 0.1250 1.0000 0.6577
vt 0.1667 1.0000 0.6577
vt 0.2083 1.0000 0.6577
vt 0.2500 1.0000 0.6577
vt 0.2917 1.0000 0.6577
vt 0.3333 1.0000 0.6577
vt 0.3750 1.0000 0.6577
vt 0.4167 1.0000 0.6577
vt 0.4583 1.0000 0.6577
vt 0.5000 1.0000 0.6577
vt 0.5417 1.0000 0.6577
vt 0.5833 1.0000 0.6577
vt 0.6250 1.0000 0.6577
vt 0.6667 1.0000 0.6577
vt 0.7083 1.0000 0.6577
vt 0.5000 1.0000 0.0000
vt 1.0076 1.0000 0.6128
# 153 texture coords

o Cone001
g Cone001
usemtl wire_135110008
s 1
f 1/1/1 2/2/2 3/3/3 4/4/4 
f 1/1/1 5/5/5 6/6/6 2/2/2 
f 1/1/1 7/7/7 8/8/8 5/5/5 
f 1/1/1 9/9/9 10/10/10 7/11/7 
f 1/1/1 11/12/11 12/13/12 9/9/9 
f 1/1/1 13/14/13 14/15/14 11/12/11 
f 1/1/1 15/16/15 16/17/16 13/14/13 
f 1/1/1 17/18/17 18/19/18 15/16/15 
f 1/1/1 19/20/19 20/21/20 17/18/17 
f 1/1/1 21/22/21 22/23/22 19/20/19 
f 1/1/1 23/24/23 24/25/24 21/22/21 
f 1/1/1 4/4/4 25/26/25 23/24/23 
s 8
f 4/4/4 3/3/3 26/27/26 27/28/27 
f 3/3/3 2/2/2 28/29/28 26/27/26 
f 2/2/2 6/6/6 29/30/29 28/29/28 
f 6/6/6 5/5/5 30/31/30 29/30/29 
f 5/5/5 8/8/8 31/32/31 30/31/30 
f 8/8/8 7/7/7 32/33/32 31/32/31 
f 7/11/7 10/10/10 33/34/33 32/35/32 
f 10/10/10 9/9/9 34/36/34 33/34/33 
f 9/9/9 12/13/12 35/37/35 34/36/34 
f 12/13/12 11/12/11 36/38/36 35/37/35 
f 11/12/11 14/15/14 37/39/37 36/38/36 
f 14/15/14 13/14/13 38/40/38 37/39/37 
f 13/14/13 16/17/16 39/41/39 38/40/38 
f 16/17/16 15/16/15 40/42/40 39/41/39 
f 15/16/15 18/19/18 41/43/41 40/42/40 
f 18/19/18 17/18/17 42/44/42 41/43/41 
f 17/18/17 20/21/20 43/45/43 42/44/42 
f 20/21/20 19/20/19 44/46/44 43/45/43 
f 19/20/19 22/23/22 45/47/45 44/46/44 
f 22/23/22 21/22/21 46/48/46 45/47/45 
f 21/22/21 24/25/24 47/49/47 46/48/46 
f 24/25/24 23/24/23 48/50/48 47/49/47 
f 23/24/23 25/26/25 49/51/49 48/50/48 
f 25/26/25 4/4/4 27/28/27 49/51/49 
f 27/28/27 26/27/26 50/52/26 51/53/27 
f 26/27/26 28/29/28 52/54/28 50/52/26 
f 28/29/28 29/30/29 53/55/29 52/54/28 
f 29/30/29 30/31/30 54/56/30 53/55/29 
f 30/31/30 31/32/31 55/57/31 54/56/30 
f 31/32/31 32/33/32 56/58/32 55/57/31 
f 32/35/32 33/34/33 57/59/33 56/60/32 
f 33/34/33 34/36/34 58/61/34 57/59/33 
f 34/36/34 35/37/35 59/62/35 58/61/34 
f 35/37/35 36/38/36 60/63/36 59/62/35 
f 36/38/36 37/39/37 61/64/37 60/63/36 
f 37/39/37 38/40/38 62/65/38 61/64/37 
f 38/40/38 39/41/39 63/66/39 62/65/38 
f 39/41/39 40/42/40 64/67/40 63/66/39 
f 40/42/40 41/43/41 65/68/41 64/67/40 
f 41/43/41 42/44/42 66/69/42 65/68/41 
f 42/44/42 43/45/43 67/70/43 66/69/42 
f 43/45/43 44/46/44 68/71/44 67/70/43 
f 44/46/44 45/47/45 69/72/45 68/71/44 
f 45/47/45 46/48/46 70/73/46 69/72/45 
f 46/48/46 47/49/47 71/74/47 70/73/46 
f 47/49/47 48/50/48 72/75/48 71/74/47 
f 48/50/48 49/51/49 73/76/49 72/75/48 
f 49/51/49 27/28/27 51/53/27 73/76/49 
f 51/53/27 50/52/26 74/77/26 75/78/27 
f 50/52/26 52/54/28 76/79/28 74/77/26 
f 52/54/28 53/55/29 77/80/29 76/79/28 
f 53/55/29 54/56/30 78/81/30 77/80/29 
f 54/56/30 55/57/31 79/82/31 78/81/30 
f 55/57/31 56/58/32 80/83/32 79/82/31 
f 56/60/32 57/59/33 81/84/33 80/85/32 
f 57/59/33 58/61/34 82/86/34 81/84/33 
f 58/61/34 59/62/35 83/87/35 82/86/34 
f 59/62/35 60/63/36 84/88/36 83/87/35 
f 60/63/36 61/64/37 85/89/37 84/88/36 
f 61/64/37 62/65/38 86/90/38 85/89/37 
f 62/65/38 63/66/39 87/91/39 86/90/38 
f 63/66/39 64/67/40 88/92/40 87/91/39 
f 64/67/40 65/68/41 89/93/41 88/92/40 
f 65/68/41 66/69/42 90/94/42 89/93/41 
f 66/69/42 67/70/43 91/95/43 90/94/42 
f 67/70/43 68/71/44 92/96/44 91/95/43 
f 68/71/44 69/72/45 93/97/45 92/96/44 
f 69/72/45 70/73/46 94/98/46 93/97/45 
f 70/73/46 71/74/47 95/99/47 94/98/46 
f 71/74/47 72/75/48 96/100/48 95/99/47 
f 72/75/48 73/76/49 97/101/49 96/100/48 
f 73/76/49 51/53/27 75/78/27 97/101/49 
f 75/78/27 74/77/26 98/102/26 99/103/27 
f 74/77/26 76/79/28 100/104/28 98/102/26 
f 76/79/28 77/80/29 101/105/29 100/104/28 
f 77/80/29 78/81/30 102/106/30 101/105/29 
f 78/81/30 79/82/31 103/107/31 102/106/30 
f 79/82/31 80/83/32 104/108/32 103/107/31 
f 80/85/32 81/84/33 105/109/33 104/110/32 
f 81/84/33 82/86/34 106/111/34 105/109/33 
f 82/86/34 83/87/35 107/112/35 106/111/34 
f 83/87/35 84/88/36 108/113/36 107/112/35 
f 84/88/36 85/89/37 109/114/37 108/113/36 
f 85/89/37 86/90/38 110/115/38 109/114/37 
f 86/90/38 87/91/39 111/116/39 110/115/38 
f 87/91/39 88/92/40 112/117/40 111/116/39 
f 88/92/40 89/93/41 113/118/41 112/117/40 
f 89/93/41 90/94/42 114/119/42 113/118/41 
f 90/94/42 91/95/43 115/120/43 114/119/42 
f 91/95/43 92/96/44 116/121/44 115/120/43 
f 92/96/44 93/97/45 117/122/45 116/121/44 
f 93/97/45 94/98/46 118/123/46 117/122/45 
f 94/98/46 95/99/47 119/124/47 118/123/46 
f 95/99/47 96/100/48 120/125/48 119/124/47 
f 96/100/48 97/101/49 121/126/49 120/125/48 
f 97/101/49 75/78/27 99/103/27 121/126/49 
f 99/103/27 98/102/26 122/127/50 123/128/51 
f 98/102/26 100/104/28 124/129/52 122/127/50 
f 100/104/28 101/105/29 125/130/53 124/129/52 
f 101/105/29 102/106/30 126/131/54 125/130/53 
f 102/106/30 103/107/31 127/132/55 126/131/54 
f 103/107/31 104/108/32 128/133/56 127/132/55 
f 104/110/32 105/109/33 129/134/57 128/135/56 
f 105/109/33 106/111/34 130/136/58 129/134/57 
f 106/111/34 107/112/35 131/137/59 130/136/58 
f 107/112/35 108/113/36 132/138/60 131/137/59 
f 108/113/36 109/114/37 133/139/61 132/138/60 
f 109/114/37 110/115/38 134/140/62 133/139/61 
f 110/115/38 111/116/39 135/141/63 134/140/62 
f 111/116/39 112/117/40 136/142/64 135/141/63 
f 112/117/40 113/118/41 137/143/65 136/142/64 
f 113/118/41 114/119/42 138/144/66 137/143/65 
f 114/119/42 115/120/43 139/145/67 138/144/66 
f 115/120/43 116/121/44 140/146/68 139/145/67 
f 116/121/44 117/122/45 141/147/69 140/146/68 
f 117/122/45 118/123/46 142/148/70 141/147/69 
f 118/123/46 119/124/47 143/149/71 142/148/70 
f 119/124/47 120/125/48 144/150/72 143/149/71 
f 120/125/48 121/126/49 145/151/73 144/150/72 
f 121/126/49 99/103/27 123/128/51 145/151/73 
s 1
f 146/152/74 145/151/73 123/128/51 122/127/50 
f 146/152/74 122/127/50 124/129/52 125/130/53 
f 146/152/74 125/130/53 126/131/54 127/132/55 
f 146/152/74 127/132/55 128/133/56 129/153/57 
f 146/152/74 129/134/57 130/136/58 131/137/59 
f 146/152/74 131/137/59 132/138/60 133/139/61 
f 146/152/74 133/139/61 134/140/62 135/141/63 
f 146/152/74 135/141/63 136/142/64 137/143/65 
f 146/152/74 137/143/65 138/144/66 139/145/67 
f 146/152/74 139/145/67 140/146/68 141/147/69 
f 146/152/74 141/147/69 142/148/70 143/149/71 
f 146/152/74 143/149/71 144/150/72 145/151/73 
# 144 polygons

#
# object Cone002
#

v  0.0000 20.0000 -0.0000
v  25.3342 20.0000 -14.6267
v  28.2567 20.0000 -7.5714
v  29.2535 20.0000 -0.0000
v  14.6267 20.0000 -25.3342
v  20.6853 20.0000 -20.6853
v  0.0000 20.0000 -29.2535
v  7.5714 20.0000 -28.2567
v  -14.6267 20.0000 -25.3343
v  -7.5714 20.0000 -28.2567
v  -25.3342 20.0000 -14.6267
v  -20.6853 20.0000 -20.6853
v  -29.2535 20.0000 -0.0000
v  -28.2567 20.0000 -7.5714
v  -25.3343 20.0000 14.6267
v  -28.2567 20.0000 7.5713
v  -14.6267 20.0000 25.3342
v  -20.6853 20.0000 20.6853
v  -0.0000 20.0000 29.2535
v  -7.5714 20.0000 28.2567
v  14.6267 20.0000 25.3343
v  7.5713 20.0000 28.2567
v  25.3342 20.0000 14.6268
v  20.6853 20.0000 20.6853
v  28.2567 20.0000 7.5714
v  24.7879 48.0951 -6.6419
v  25.6624 48.0951 -0.0000
v  22.2243 48.0951 -12.8312
v  18.1460 48.0951 -18.1460
v  12.8312 48.0951 -22.2243
v  6.6419 48.0951 -24.7879
v  0.0000 48.0951 -25.6624
v  -6.6419 48.0951 -24.7880
v  -12.8312 48.0951 -22.2243
v  -18.1460 48.0951 -18.1460
v  -22.2243 48.0951 -12.8312
v  -24.7879 48.0951 -6.6419
v  -25.6624 48.0951 -0.0000
v  -24.7880 48.0951 6.6419
v  -22.2243 48.0951 12.8312
v  -18.1460 48.0951 18.1460
v  -12.8312 48.0951 22.2243
v  -6.6419 48.0951 24.7879
v  -0.0000 48.0951 25.6624
v  6.6419 48.0951 24.7880
v  12.8312 48.0951 22.2243
v  18.1460 48.0951 18.1460
v  22.2243 48.0951 12.8312
v  24.7879 48.0951 6.6419
v  21.3192 76.1901 -5.7125
v  22.0713 76.1901 -0.0000
v  19.1143 76.1901 -11.0356
v  15.6067 76.1901 -15.6067
v  11.0356 76.1901 -19.1143
v  5.7125 76.1901 -21.3192
v  0.0000 76.1901 -22.0713
v  -5.7125 76.1901 -21.3192
v  -11.0356 76.1901 -19.1143
v  -15.6067 76.1901 -15.6068
v  -19.1143 76.1901 -11.0356
v  -21.3192 76.1901 -5.7125
v  -22.0713 76.1901 -0.0000
v  -21.3192 76.1901 5.7125
v  -19.1143 76.1901 11.0356
v  -15.6068 76.1901 15.6067
v  -11.0356 76.1901 19.1143
v  -5.7125 76.1901 21.3192
v  -0.0000 76.1901 22.0713
v  5.7125 76.1901 21.3192
v  11.0356 76.1901 19.1143
v  15.6067 76.1901 15.6068
v  19.1143 76.1901 11.0357
v  21.3192 76.1901 5.7125
v  17.8505 104.2852 -4.7830
v  18.4802 104.2852 -0.0000
v  16.0043 104.2852 -9.2401
v  13.0675 104.2852 -13.0675
v  9.2401 104.2852 -16.0043
v  4.7830 104.2852 -17.8505
v  0.0000 104.2852 -18.4802
v  -4.7830 104.2852 -17.8505
v  -9.2401 104.2852 -16.0043
v  -13.0675 104.2852 -13.0675
v  -16.0043 104.2852 -9.2401
v  -17.8505 104.2852 -4.7830
v  -18.4802 104.2852 -0.0000
v  -17.8505 104.2852 4.7830
v  -16.0043 104.2852 9.2401
v  -13.0675 104.2852 13.0675
v  -9.2401 104.2852 16.0043
v  -4.7830 104.2852 17.8505
v  -0.0000 104.2852 18.4802
v  4.7830 104.2852 17.8505
v  9.2401 104.2852 16.0043
v  13.0674 104.2852 13.0675
v  16.0043 104.2852 9.2401
v  17.8505 104.2852 4.7830
v  14.3817 132.3802 -3.8536
v  14.8891 132.3802 -0.0000
v  12.8943 132.3802 -7.4445
v  10.5282 132.3802 -10.5282
v  7.4445 132.3802 -12.8943
v  3.8536 132.3802 -14.3817
v  0.0000 132.3802 -14.8891
v  -3.8536 132.3802 -14.3817
v  -7.4445 132.3802 -12.8943
v  -10.5282 132.3802 -10.5282
v  -12.8943 132.3802 -7.4445
v  -14.3817 132.3802 -3.8536
v  -14.8891 132.3802 -0.0000
v  -14.3817 132.3802 3.8536
v  -12.8943 132.3802 7.4445
v  -10.5282 132.3802 10.5282
v  -7.4445 132.3802 12.8943
v  -3.8536 132.3802 14.3817
v  -0.0000 132.3802 14.8891
v  3.8536 132.3802 14.3817
v  7.4445 132.3802 12.8943
v  10.5282 132.3802 10.5282
v  12.8943 132.3802 7.4445
v  14.3817 132.3802 3.8536
v  10.9130 160.4753 -2.9241
v  11.2980 160.4753 -0.0000
v  9.7843 160.4753 -5.6490
v  7.9889 160.4753 -7.9889
v  5.6490 160.4753 -9.7843
v  2.9241 160.4753 -10.9130
v  0.0000 160.4753 -11.2980
v  -2.9241 160.4753 -10.9130
v  -5.6490 160.4753 -9.7843
v  -7.9889 160.4753 -7.9889
v  -9.7843 160.4753 -5.6490
v  -10.9130 160.4753 -2.9241
v  -11.2980 160.4753 -0.0000
v  -10.9130 160.4753 2.9241
v  -9.7843 160.4753 5.6490
v  -7.9889 160.4753 7.9889
v  -5.6490 160.4753 9.7843
v  -2.9241 160.4753 10.9130
v  -0.0000 160.4753 11.2980
v  2.9241 160.4753 10.9130
v  5.6490 160.4753 9.7843
v  7.9889 160.4753 7.9889
v  9.7843 160.4753 5.6490
v  10.9130 160.4753 2.9241
v  0.0000 160.4753 -0.0000
# 146 vertices

vn 0.0000 -1.0000 -0.0000
vn 0.6716 -0.6313 -0.3878
vn 0.7491 -0.6313 -0.2007
vn 0.7755 -0.6313 0.0000
vn 0.3878 -0.6313 -0.6716
vn 0.5484 -0.6313 -0.5484
vn -0.0000 -0.6313 -0.7755
vn 0.2007 -0.6313 -0.7491
vn -0.3878 -0.6313 -0.6716
vn -0.2007 -0.6313 -0.7491
vn -0.6716 -0.6313 -0.3878
vn -0.5484 -0.6313 -0.5484
vn -0.7755 -0.6313 -0.0000
vn -0.7491 -0.6313 -0.2007
vn -0.6716 -0.6313 0.3878
vn -0.7491 -0.6313 0.2007
vn -0.3878 -0.6313 0.6716
vn -0.5484 -0.6313 0.5484
vn -0.0000 -0.6313 0.7755
vn -0.2007 -0.6313 0.7491
vn 0.3878 -0.6313 0.6716
vn 0.2007 -0.6313 0.7491
vn 0.6716 -0.6313 0.3878
vn 0.5484 -0.6313 0.5484
vn 0.7491 -0.6313 0.2007
vn 0.9581 0.1268 -0.2567
vn 0.9919 0.1268 0.0000
vn 0.8590 0.1268 -0.4960
vn 0.7014 0.1268 -0.7014
vn 0.4960 0.1268 -0.8590
vn 0.2567 0.1268 -0.9581
vn 0.0000 0.1268 -0.9919
vn -0.2567 0.1268 -0.9581
vn -0.4960 0.1268 -0.8590
vn -0.7014 0.1268 -0.7014
vn -0.8590 0.1268 -0.4960
vn -0.9581 0.1268 -0.2567
vn -0.9919 0.1268 -0.0000
vn -0.9581 0.1268 0.2567
vn -0.8590 0.1268 0.4960
vn -0.7014 0.1268 0.7014
vn -0.4960 0.1268 0.8590
vn -0.2567 0.1268 0.9581
vn -0.0000 0.1268 0.9919
vn 0.2567 0.1268 0.9581
vn 0.4960 0.1268 0.8590
vn 0.7014 0.1268 0.7014
vn 0.8590 0.1268 0.4960
vn 0.9581 0.1268 0.2567
vn -0.0000 0.1268 -0.9919
vn 0.6661 0.7242 -0.1785
vn 0.6896 0.7242 -0.0000
vn 0.5972 0.7242 -0.3448
vn 0.4876 0.7242 -0.4876
vn 0.3448 0.7242 -0.5972
vn 0.1785 0.7242 -0.6661
vn 0.0000 0.7242 -0.6896
vn -0.1785 0.7242 -0.6661
vn -0.3448 0.7242 -0.5972
vn -0.4876 0.7242 -0.4876
vn -0.5972 0.7242 -0.3448
vn -0.6661 0.7242 -0.1785
vn -0.6896 0.7242 -0.0000
vn -0.6661 0.7242 0.1785
vn -0.5972 0.7242 0.3448
vn -0.4876 0.7242 0.4876
vn -0.3448 0.7242 0.5972
vn -0.1785 0.7242 0.6661
vn -0.0000 0.7242 0.6896
vn 0.1785 0.7242 0.6661
vn 0.3448 0.7242 0.5972
vn 0.4876 0.7242 0.4876
vn 0.5972 0.7242 0.3448
vn 0.6661 0.7242 0.1785
vn 0.0000 1.0000 -0.0000
# 75 vertex normals

vt 0.5000 0.0000 0.0000
vt 0.8333 0.0000 1.0000
vt 0.7917 0.0000 1.0000
vt 0.7500 0.0000 1.0000
vt 0.9167 0.0000 1.0000
vt 0.8750 0.0000 1.0000
vt 1.0000 0.0000 1.0000
vt 0.9583 0.0000 1.0000
vt 0.0833 0.0000 1.0000
vt 0.0417 0.0000 1.0000
vt 0.0000 0.0000 1.0000
vt 0.1667 0.0000 1.0000
vt 0.1250 0.0000 1.0000
vt 0.2500 0.0000 1.0000
vt 0.2083 0.0000 1.0000
vt 0.3333 0.0000 1.0000
vt 0.2917 0.0000 1.0000
vt 0.4167 0.0000 1.0000
vt 0.3750 0.0000 1.0000
vt 0.5000 0.0000 1.0000
vt 0.4583 0.0000 1.0000
vt 0.5833 0.0000 1.0000
vt 0.5417 0.0000 1.0000
vt 0.6667 0.0000 1.0000
vt 0.6250 0.0000 1.0000
vt 0.7083 0.0000 1.0000
vt 0.7917 0.2000 0.8772
vt 0.7500 0.2000 0.8772
vt 0.8333 0.2000 0.8772
vt 0.8750 0.2000 0.8772
vt 0.9167 0.2000 0.8772
vt 0.9583 0.2000 0.8772
vt 1.0000 0.2000 0.8772
vt 0.0417 0.2000 0.8772
vt 0.0000 0.2000 0.8772
vt 0.0833 0.2000 0.8772
vt 0.1250 0.2000 0.8772
vt 0.1667 0.2000 0.8772
vt 0.2083 0.2000 0.8772
vt 0.2500 0.2000 0.8772
vt 0.2917 0.2000 0.8772
vt 0.3333 0.2000 0.8772
vt 0.3750 0.2000 0.8772
vt 0.4167 0.2000 0.8772
vt 0.4583 0.2000 0.8772
vt 0.5000 0.2000 0.8772
vt 0.5417 0.2000 0.8772
vt 0.5833 0.2000 0.8772
vt 0.6250 0.2000 0.8772
vt 0.6667 0.2000 0.8772
vt 0.7083 0.2000 0.8772
vt 0.7917 0.4000 0.7545
vt 0.7500 0.4000 0.7545
vt 0.8333 0.4000 0.7545
vt 0.8750 0.4000 0.7545
vt 0.9167 0.4000 0.7545
vt 0.9583 0.4000 0.7545
vt 1.0000 0.4000 0.7545
vt 0.0417 0.4000 0.7545
vt 0.0000 0.4000 0.7545
vt 0.0833 0.4000 0.7545
vt 0.1250 0.4000 0.7545
vt 0.1667 0.4000 0.7545
vt 0.2083 0.4000 0.7545
vt 0.2500 0.4000 0.7545
vt 0.2917 0.4000 0.7545
vt 0.3333 0.4000 0.7545
vt 0.3750 0.4000 0.7545
vt 0.4167 0.4000 0.7545
vt 0.4583 0.4000 0.7545
vt 0.5000 0.4000 0.7545
vt 0.5417 0.4000 0.7545
vt 0.5833 0.4000 0.7545
vt 0.6250 0.4000 0.7545
vt 0.6667 0.4000 0.7545
vt 0.7083 0.4000 0.7545
vt 0.7917 0.6000 0.6317
vt 0.7500 0.6000 0.6317
vt 0.8333 0.6000 0.6317
vt 0.8750 0.6000 0.6317
vt 0.9167 0.6000 0.6317
vt 0.9583 0.6000 0.6317
vt 1.0000 0.6000 0.6317
vt 0.0417 0.6000 0.6317
vt 0.0000 0.6000 0.6317
vt 0.0833 0.6000 0.6317
vt 0.1250 0.6000 0.6317
vt 0.1667 0.6000 0.6317
vt 0.2083 0.6000 0.6317
vt 0.2500 0.6000 0.6317
vt 0.2917 0.6000 0.6317
vt 0.3333 0.6000 0.6317
vt 0.3750 0.6000 0.6317
vt 0.4167 0.6000 0.6317
vt 0.4583 0.6000 0.6317
vt 0.5000 0.6000 0.6317
vt 0.5417 0.6000 0.6317
vt 0.5833 0.6000 0.6317
vt 0.6250 0.6000 0.6317
vt 0.6667 0.6000 0.6317
vt 0.7083 0.6000 0.6317
vt 0.7917 0.8000 0.5090
vt 0.7500 0.8000 0.5090
vt 0.8333 0.8000 0.5090
vt 0.8750 0.8000 0.5090
vt 0.9167 0.8000 0.5090
vt 0.9583 0.8000 0.5090
vt 1.0000 0.8000 0.5090
vt 0.0417 0.8000 0.5090
vt 0.0000 0.8000 0.5090
vt 0.0833 0.8000 0.5090
vt 0.1250 0.8000 0.5090
vt 0.1667 0.8000 0.5090
vt 0.2083 0.8000 0.5090
vt 0.2500 0.8000 0.5090
vt 0.2917 0.8000 0.5090
vt 0.3333 0.8000 0.5090
vt 0.3750 0.8000 0.5090
vt 0.4167 0.8000 0.5090
vt 0.4583 0.8000 0.5090
vt 0.5000 0.8000 0.5090
vt 0.5417 0.8000 0.5090
vt 0.5833 0.8000 0.5090
vt 0.6250 0.8000 0.5090
vt 0.6667 0.8000 0.5090
vt 0.7083 0.8000 0.5090
vt 0.7917 1.0000 0.3862
vt 0.7500 1.0000 0.3862
vt 0.8333 1.0000 0.3862
vt 0.8750 1.0000 0.3862
vt 0.9167 1.0000 0.3862
vt 0.9583 1.0000 0.3862
vt 1.0000 1.0000 0.3862
vt 0.0417 1.0000 0.3862
vt 0.0000 1.0000 0.3862
vt 0.0833 1.0000 0.3862
vt 0.1250 1.0000 0.3862
vt 0.1667 1.0000 0.3862
vt 0.2083 1.0000 0.3862
vt 0.2500 1.0000 0.3862
vt 0.2917 1.0000 0.3862
vt 0.3333 1.0000 0.3862
vt 0.3750 1.0000 0.3862
vt 0.4167 1.0000 0.3862
vt 0.4583 1.0000 0.3862
vt 0.5000 1.0000 0.3862
vt 0.5417 1.0000 0.3862
vt 0.5833 1.0000 0.3862
vt 0.6250 1.0000 0.3862
vt 0.6667 1.0000 0.3862
vt 0.7083 1.0000 0.3862
vt 0.5000 1.0000 0.0000
vt 1.0076 1.0000 0.3599
# 153 texture coords

o Cone002
g Cone002
usemtl wire_000000000
s 1
f 147/154/75 148/155/76 149/156/77 150/157/78 
f 147/154/75 151/158/79 152/159/80 148/155/76 
f 147/154/75 153/160/81 154/161/82 151/158/79 
f 147/154/75 155/162/83 156/163/84 153/164/81 
f 147/154/75 157/165/85 158/166/86 155/162/83 
f 147/154/75 159/167/87 160/168/88 157/165/85 
f 147/154/75 161/169/89 162/170/90 159/167/87 
f 147/154/75 163/171/91 164/172/92 161/169/89 
f 147/154/75 165/173/93 166/174/94 163/171/91 
f 147/154/75 167/175/95 168/176/96 165/173/93 
f 147/154/75 169/177/97 170/178/98 167/175/95 
f 147/154/75 150/157/78 171/179/99 169/177/97 
s 8
f 150/157/78 149/156/77 172/180/100 173/181/101 
f 149/156/77 148/155/76 174/182/102 172/180/100 
f 148/155/76 152/159/80 175/183/103 174/182/102 
f 152/159/80 151/158/79 176/184/104 175/183/103 
f 151/158/79 154/161/82 177/185/105 176/184/104 
f 154/161/82 153/160/81 178/186/106 177/185/105 
f 153/164/81 156/163/84 179/187/107 178/188/106 
f 156/163/84 155/162/83 180/189/108 179/187/107 
f 155/162/83 158/166/86 181/190/109 180/189/108 
f 158/166/86 157/165/85 182/191/110 181/190/109 
f 157/165/85 160/168/88 183/192/111 182/191/110 
f 160/168/88 159/167/87 184/193/112 183/192/111 
f 159/167/87 162/170/90 185/194/113 184/193/112 
f 162/170/90 161/169/89 186/195/114 185/194/113 
f 161/169/89 164/172/92 187/196/115 186/195/114 
f 164/172/92 163/171/91 188/197/116 187/196/115 
f 163/171/91 166/174/94 189/198/117 188/197/116 
f 166/174/94 165/173/93 190/199/118 189/198/117 
f 165/173/93 168/176/96 191/200/119 190/199/118 
f 168/176/96 167/175/95 192/201/120 191/200/119 
f 167/175/95 170/178/98 193/202/121 192/201/120 
f 170/178/98 169/177/97 194/203/122 193/202/121 
f 169/177/97 171/179/99 195/204/123 194/203/122 
f 171/179/99 150/157/78 173/181/101 195/204/123 
f 173/181/101 172/180/100 196/205/100 197/206/101 
f 172/180/100 174/182/102 198/207/102 196/205/100 
f 174/182/102 175/183/103 199/208/103 198/207/102 
f 175/183/103 176/184/104 200/209/104 199/208/103 
f 176/184/104 177/185/105 201/210/105 200/209/104 
f 177/185/105 178/186/106 202/211/124 201/210/105 
f 178/188/106 179/187/107 203/212/107 202/213/124 
f 179/187/107 180/189/108 204/214/108 203/212/107 
f 180/189/108 181/190/109 205/215/109 204/214/108 
f 181/190/109 182/191/110 206/216/110 205/215/109 
f 182/191/110 183/192/111 207/217/111 206/216/110 
f 183/192/111 184/193/112 208/218/112 207/217/111 
f 184/193/112 185/194/113 209/219/113 208/218/112 
f 185/194/113 186/195/114 210/220/114 209/219/113 
f 186/195/114 187/196/115 211/221/115 210/220/114 
f 187/196/115 188/197/116 212/222/116 211/221/115 
f 188/197/116 189/198/117 213/223/117 212/222/116 
f 189/198/117 190/199/118 214/224/118 213/223/117 
f 190/199/118 191/200/119 215/225/119 214/224/118 
f 191/200/119 192/201/120 216/226/120 215/225/119 
f 192/201/120 193/202/121 217/227/121 216/226/120 
f 193/202/121 194/203/122 218/228/122 217/227/121 
f 194/203/122 195/204/123 219/229/123 218/228/122 
f 195/204/123 173/181/101 197/206/101 219/229/123 
f 197/206/101 196/205/100 220/230/100 221/231/101 
f 196/205/100 198/207/102 222/232/102 220/230/100 
f 198/207/102 199/208/103 223/233/103 222/232/102 
f 199/208/103 200/209/104 224/234/104 223/233/103 
f 200/209/104 201/210/105 225/235/105 224/234/104 
f 201/210/105 202/211/124 226/236/106 225/235/105 
f 202/213/124 203/212/107 227/237/107 226/238/106 
f 203/212/107 204/214/108 228/239/108 227/237/107 
f 204/214/108 205/215/109 229/240/109 228/239/108 
f 205/215/109 206/216/110 230/241/110 229/240/109 
f 206/216/110 207/217/111 231/242/111 230/241/110 
f 207/217/111 208/218/112 232/243/112 231/242/111 
f 208/218/112 209/219/113 233/244/113 232/243/112 
f 209/219/113 210/220/114 234/245/114 233/244/113 
f 210/220/114 211/221/115 235/246/115 234/245/114 
f 211/221/115 212/222/116 236/247/116 235/246/115 
f 212/222/116 213/223/117 237/248/117 236/247/116 
f 213/223/117 214/224/118 238/249/118 237/248/117 
f 214/224/118 215/225/119 239/250/119 238/249/118 
f 215/225/119 216/226/120 240/251/120 239/250/119 
f 216/226/120 217/227/121 241/252/121 240/251/120 
f 217/227/121 218/228/122 242/253/122 241/252/121 
f 218/228/122 219/229/123 243/254/123 242/253/122 
f 219/229/123 197/206/101 221/231/101 243/254/123 
f 221/231/101 220/230/100 244/255/100 245/256/101 
f 220/230/100 222/232/102 246/257/102 244/255/100 
f 222/232/102 223/233/103 247/258/103 246/257/102 
f 223/233/103 224/234/104 248/259/104 247/258/103 
f 224/234/104 225/235/105 249/260/105 248/259/104 
f 225/235/105 226/236/106 250/261/106 249/260/105 
f 226/238/106 227/237/107 251/262/107 250/263/106 
f 227/237/107 228/239/108 252/264/108 251/262/107 
f 228/239/108 229/240/109 253/265/109 252/264/108 
f 229/240/109 230/241/110 254/266/110 253/265/109 
f 230/241/110 231/242/111 255/267/111 254/266/110 
f 231/242/111 232/243/112 256/268/112 255/267/111 
f 232/243/112 233/244/113 257/269/113 256/268/112 
f 233/244/113 234/245/114 258/270/114 257/269/113 
f 234/245/114 235/246/115 259/271/115 258/270/114 
f 235/246/115 236/247/116 260/272/116 259/271/115 
f 236/247/116 237/248/117 261/273/117 260/272/116 
f 237/248/117 238/249/118 262/274/118 261/273/117 
f 238/249/118 239/250/119 263/275/119 262/274/118 
f 239/250/119 240/251/120 264/276/120 263/275/119 
f 240/251/120 241/252/121 265/277/121 264/276/120 
f 241/252/121 242/253/122 266/278/122 265/277/121 
f 242/253/122 243/254/123 267/279/123 266/278/122 
f 243/254/123 221/231/101 245/256/101 267/279/123 
f 245/256/101 244/255/100 268/280/125 269/281/126 
f 244/255/100 246/257/102 270/282/127 268/280/125 
f 246/257/102 247/258/103 271/283/128 270/282/127 
f 247/258/103 248/259/104 272/284/129 271/283/128 
f 248/259/104 249/260/105 273/285/130 272/284/129 
f 249/260/105 250/261/106 274/286/131 273/285/130 
f 250/263/106 251/262/107 275/287/132 274/288/131 
f 251/262/107 252/264/108 276/289/133 275/287/132 
f 252/264/108 253/265/109 277/290/134 276/289/133 
f 253/265/109 254/266/110 278/291/135 277/290/134 
f 254/266/110 255/267/111 279/292/136 278/291/135 
f 255/267/111 256/268/112 280/293/137 279/292/136 
f 256/268/112 257/269/113 281/294/138 280/293/137 
f 257/269/113 258/270/114 282/295/139 281/294/138 
f 258/270/114 259/271/115 283/296/140 282/295/139 
f 259/271/115 260/272/116 284/297/141 283/296/140 
f 260/272/116 261/273/117 285/298/142 284/297/141 
f 261/273/117 262/274/118 286/299/143 285/298/142 
f 262/274/118 263/275/119 287/300/144 286/299/143 
f 263/275/119 264/276/120 288/301/145 287/300/144 
f 264/276/120 265/277/121 289/302/146 288/301/145 
f 265/277/121 266/278/122 290/303/147 289/302/146 
f 266/278/122 267/279/123 291/304/148 290/303/147 
f 267/279/123 245/256/101 269/281/126 291/304/148 
s 1
f 292/305/149 291/304/148 269/281/126 268/280/125 
f 292/305/149 268/280/125 270/282/127 271/283/128 
f 292/305/149 271/283/128 272/284/129 273/285/130 
f 292/305/149 273/285/130 274/286/131 275/306/132 
f 292/305/149 275/287/132 276/289/133 277/290/134 
f 292/305/149 277/290/134 278/291/135 279/292/136 
f 292/305/149 279/292/136 280/293/137 281/294/138 
f 292/305/149 281/294/138 282/295/139 283/296/140 
f 292/305/149 283/296/140 284/297/141 285/298/142 
f 292/305/149 285/298/142 286/299/143 287/300/144 
f 292/305/149 287/300/144 288/301/145 289/302/146 
f 292/305/149 289/302/146 290/303/147 291/304/148 
# 144 polygons

#
# object Cylinder001
#

v  0.0000 160.0000 -0.0000
v  2.8858 160.0000 -2.4215
v  3.5399 160.0000 -1.2884
v  3.7671 160.0000 -0.0000
v  0.6542 160.0000 -3.7099
v  1.8836 160.0000 -3.2624
v  -1.8836 160.0000 -3.2624
v  -0.6542 160.0000 -3.7099
v  -3.5399 160.0000 -1.2884
v  -2.8858 160.0000 -2.4215
v  -3.5399 160.0000 1.2884
v  -3.7671 160.0000 -0.0000
v  -1.8836 160.0000 3.2624
v  -2.8858 160.0000 2.4215
v  0.6542 160.0000 3.7099
v  -0.6542 160.0000 3.7099
v  2.8858 160.0000 2.4215
v  1.8836 160.0000 3.2624
v  3.5399 160.0000 1.2884
v  3.5399 175.5849 -1.2884
v  3.7671 175.5849 -0.0000
v  2.8858 175.5849 -2.4215
v  1.8836 175.5849 -3.2624
v  0.6542 175.5849 -3.7099
v  -0.6542 175.5849 -3.7099
v  -1.8836 175.5849 -3.2624
v  -2.8858 175.5849 -2.4215
v  -3.5399 175.5849 -1.2884
v  -3.7671 175.5849 -0.0000
v  -3.5399 175.5849 1.2884
v  -2.8858 175.5849 2.4215
v  -1.8836 175.5849 3.2624
v  -0.6542 175.5849 3.7099
v  0.6542 175.5849 3.7099
v  1.8836 175.5849 3.2624
v  2.8858 175.5849 2.4215
v  3.5399 175.5849 1.2884
v  3.5399 191.1698 -1.2884
v  3.7671 191.1698 -0.0000
v  2.8858 191.1698 -2.4215
v  1.8836 191.1698 -3.2624
v  0.6542 191.1698 -3.7099
v  -0.6542 191.1698 -3.7099
v  -1.8836 191.1698 -3.2624
v  -2.8858 191.1698 -2.4215
v  -3.5399 191.1698 -1.2884
v  -3.7671 191.1698 -0.0000
v  -3.5399 191.1698 1.2884
v  -2.8858 191.1698 2.4215
v  -1.8836 191.1698 3.2624
v  -0.6542 191.1698 3.7099
v  0.6542 191.1698 3.7099
v  1.8836 191.1698 3.2624
v  2.8858 191.1698 2.4215
v  3.5399 191.1698 1.2884
v  3.5399 206.7547 -1.2884
v  3.7671 206.7547 -0.0000
v  2.8858 206.7547 -2.4215
v  1.8836 206.7547 -3.2624
v  0.6542 206.7547 -3.7099
v  -0.6542 206.7547 -3.7099
v  -1.8836 206.7547 -3.2624
v  -2.8858 206.7547 -2.4215
v  -3.5399 206.7547 -1.2884
v  -3.7671 206.7547 -0.0000
v  -3.5399 206.7547 1.2884
v  -2.8858 206.7547 2.4215
v  -1.8836 206.7547 3.2624
v  -0.6542 206.7547 3.7099
v  0.6542 206.7547 3.7099
v  1.8836 206.7547 3.2624
v  2.8858 206.7547 2.4215
v  3.5399 206.7547 1.2884
v  3.5399 222.3396 -1.2884
v  3.7671 222.3396 -0.0000
v  2.8858 222.3396 -2.4215
v  1.8836 222.3396 -3.2624
v  0.6542 222.3396 -3.7099
v  -0.6542 222.3396 -3.7099
v  -1.8836 222.3396 -3.2624
v  -2.8858 222.3396 -2.4215
v  -3.5399 222.3396 -1.2884
v  -3.7671 222.3396 -0.0000
v  -3.5399 222.3396 1.2884
v  -2.8858 222.3396 2.4215
v  -1.8836 222.3396 3.2624
v  -0.6542 222.3396 3.7099
v  0.6542 222.3396 3.7099
v  1.8836 222.3396 3.2624
v  2.8858 222.3396 2.4215
v  3.5399 222.3396 1.2884
v  3.5399 237.9245 -1.2884
v  3.7671 237.9245 -0.0000
v  2.8858 237.9245 -2.4215
v  1.8836 237.9245 -3.2624
v  0.6542 237.9245 -3.7099
v  -0.6542 237.9245 -3.7099
v  -1.8836 237.9245 -3.2624
v  -2.8858 237.9245 -2.4215
v  -3.5399 237.9245 -1.2884
v  -3.7671 237.9245 -0.0000
v  -3.5399 237.9245 1.2884
v  -2.8858 237.9245 2.4215
v  -1.8836 237.9245 3.2624
v  -0.6542 237.9245 3.7099
v  0.6542 237.9245 3.7099
v  1.8836 237.9245 3.2624
v  2.8858 237.9245 2.4215
v  3.5399 237.9245 1.2884
v  0.0000 237.9245 -0.0000
# 110 vertices

vn 0.0000 -1.0000 -0.0000
vn 0.5687 -0.6700 -0.4772
vn 0.6975 -0.6701 -0.2539
vn 0.7423 -0.6701 0.0000
vn 0.1289 -0.6701 -0.7310
vn 0.3712 -0.6701 -0.6428
vn -0.3711 -0.6701 -0.6429
vn -0.1289 -0.6700 -0.7311
vn -0.6976 -0.6700 -0.2539
vn -0.5686 -0.6701 -0.4771
vn -0.6976 -0.6700 0.2539
vn -0.7423 -0.6700 -0.0000
vn -0.3712 -0.6700 0.6429
vn -0.5687 -0.6700 0.4772
vn 0.1289 -0.6700 0.7311
vn -0.1289 -0.6700 0.7311
vn 0.5687 -0.6700 0.4772
vn 0.3712 -0.6700 0.6429
vn 0.6976 -0.6700 0.2539
vn 0.9397 0.0000 -0.3420
vn 1.0000 0.0000 0.0000
vn 0.7660 0.0000 -0.6428
vn 0.5000 0.0000 -0.8660
vn 0.1736 0.0000 -0.9848
vn -0.1736 0.0000 -0.9848
vn -0.5000 0.0000 -0.8660
vn -0.7661 0.0000 -0.6428
vn -0.9397 0.0000 -0.3420
vn -1.0000 0.0000 -0.0000
vn -0.9397 0.0000 0.3420
vn -0.7660 0.0000 0.6428
vn -0.5000 0.0000 0.8660
vn -0.1736 0.0000 0.9848
vn 0.1736 0.0000 0.9848
vn 0.5000 0.0000 0.8660
vn 0.7660 0.0000 0.6428
vn 0.9397 0.0000 0.3420
vn 0.6975 0.6701 -0.2539
vn 0.7423 0.6701 0.0000
vn 0.5687 0.6700 -0.4772
vn 0.3712 0.6701 -0.6428
vn 0.1289 0.6701 -0.7310
vn -0.1289 0.6700 -0.7311
vn -0.3711 0.6701 -0.6429
vn -0.5686 0.6701 -0.4771
vn -0.6976 0.6700 -0.2539
vn -0.7423 0.6700 -0.0000
vn -0.6976 0.6700 0.2539
vn -0.5687 0.6700 0.4772
vn -0.3712 0.6700 0.6429
vn -0.1289 0.6700 0.7311
vn 0.1289 0.6700 0.7311
vn 0.3712 0.6700 0.6429
vn 0.5687 0.6700 0.4772
vn 0.6976 0.6700 0.2539
vn 0.0000 1.0000 -0.0000
# 56 vertex normals

vt 0.5000 0.0000 0.0000
vt 0.8611 0.0000 1.0000
vt 0.8056 0.0000 1.0000
vt 0.7500 0.0000 1.0000
vt 0.9722 0.0000 1.0000
vt 0.9167 0.0000 1.0000
vt 0.0833 0.0000 1.0000
vt 0.0278 0.0000 1.0000
vt -0.0278 0.0000 1.0000
vt 0.1944 0.0000 1.0000
vt 0.1389 0.0000 1.0000
vt 0.3056 0.0000 1.0000
vt 0.2500 0.0000 1.0000
vt 0.4167 0.0000 1.0000
vt 0.3611 0.0000 1.0000
vt 0.5278 0.0000 1.0000
vt 0.4722 0.0000 1.0000
vt 0.6389 0.0000 1.0000
vt 0.5833 0.0000 1.0000
vt 0.6944 0.0000 1.0000
vt 0.8056 0.2000 1.0000
vt 0.7500 0.2000 1.0000
vt 0.8611 0.2000 1.0000
vt 0.9167 0.2000 1.0000
vt 0.9722 0.2000 1.0000
vt 0.0278 0.2000 1.0000
vt -0.0278 0.2000 1.0000
vt 0.0833 0.2000 1.0000
vt 0.1389 0.2000 1.0000
vt 0.1944 0.2000 1.0000
vt 0.2500 0.2000 1.0000
vt 0.3056 0.2000 1.0000
vt 0.3611 0.2000 1.0000
vt 0.4167 0.2000 1.0000
vt 0.4722 0.2000 1.0000
vt 0.5278 0.2000 1.0000
vt 0.5833 0.2000 1.0000
vt 0.6389 0.2000 1.0000
vt 0.6944 0.2000 1.0000
vt 0.8056 0.4000 1.0000
vt 0.7500 0.4000 1.0000
vt 0.8611 0.4000 1.0000
vt 0.9167 0.4000 1.0000
vt 0.9722 0.4000 1.0000
vt 0.0278 0.4000 1.0000
vt -0.0278 0.4000 1.0000
vt 0.0833 0.4000 1.0000
vt 0.1389 0.4000 1.0000
vt 0.1944 0.4000 1.0000
vt 0.2500 0.4000 1.0000
vt 0.3056 0.4000 1.0000
vt 0.3611 0.4000 1.0000
vt 0.4167 0.4000 1.0000
vt 0.4722 0.4000 1.0000
vt 0.5278 0.4000 1.0000
vt 0.5833 0.4000 1.0000
vt 0.6389 0.4000 1.0000
vt 0.6944 0.4000 1.0000
vt 0.8056 0.6000 1.0000
vt 0.7500 0.6000 1.0000
vt 0.8611 0.6000 1.0000
vt 0.9167 0.6000 1.0000
vt 0.9722 0.6000 1.0000
vt 0.0278 0.6000 1.0000
vt -0.0278 0.6000 1.0000
vt 0.0833 0.6000 1.0000
vt 0.1389 0.6000 1.0000
vt 0.1944 0.6000 1.0000
vt 0.2500 0.6000 1.0000
vt 0.3056 0.6000 1.0000
vt 0.3611 0.6000 1.0000
vt 0.4167 0.6000 1.0000
vt 0.4722 0.6000 1.0000
vt 0.5278 0.6000 1.0000
vt 0.5833 0.6000 1.0000
vt 0.6389 0.6000 1.0000
vt 0.6944 0.6000 1.0000
vt 0.8056 0.8000 1.0000
vt 0.7500 0.8000 1.0000
vt 0.8611 0.8000 1.0000
vt 0.9167 0.8000 1.0000
vt 0.9722 0.8000 1.0000
vt 0.0278 0.8000 1.0000
vt -0.0278 0.8000 1.0000
vt 0.0833 0.8000 1.0000
vt 0.1389 0.8000 1.0000
vt 0.1944 0.8000 1.0000
vt 0.2500 0.8000 1.0000
vt 0.3056 0.8000 1.0000
vt 0.3611 0.8000 1.0000
vt 0.4167 0.8000 1.0000
vt 0.4722 0.8000 1.0000
vt 0.5278 0.8000 1.0000
vt 0.5833 0.8000 1.0000
vt 0.6389 0.8000 1.0000
vt 0.6944 0.8000 1.0000
vt 0.8056 1.0000 1.0000
vt 0.7500 1.0000 1.0000
vt 0.8611 1.0000 1.0000
vt 0.9167 1.0000 1.0000
vt 0.9722 1.0000 1.0000
vt 0.0278 1.0000 1.0000
vt -0.0278 1.0000 1.0000
vt 0.0833 1.0000 1.0000
vt 0.1389 1.0000 1.0000
vt 0.1944 1.0000 1.0000
vt 0.2500 1.0000 1.0000
vt 0.3056 1.0000 1.0000
vt 0.3611 1.0000 1.0000
vt 0.4167 1.0000 1.0000
vt 0.4722 1.0000 1.0000
vt 0.5278 1.0000 1.0000
vt 0.5833 1.0000 1.0000
vt 0.6389 1.0000 1.0000
vt 0.6944 1.0000 1.0000
vt 0.5000 1.0000 0.0000
vt 0.9708 1.0000 0.8794
# 117 texture coords

o Cylinder001
g Cylinder001
usemtl wire_000000000
s 1
f 293/307/150 294/308/151 295/309/152 296/310/153 
f 293/307/150 297/311/154 298/312/155 294/308/151 
f 293/307/150 299/313/156 300/314/157 297/315/154 
f 293/307/150 301/316/158 302/317/159 299/313/156 
f 293/307/150 303/318/160 304/319/161 301/316/158 
f 293/307/150 305/320/162 306/321/163 303/318/160 
f 293/307/150 307/322/164 308/323/165 305/320/162 
f 293/307/150 309/324/166 310/325/167 307/322/164 
f 293/307/150 296/310/153 311/326/168 309/324/166 
s 8
f 296/310/153 295/309/152 312/327/169 313/328/170 
f 295/309/152 294/308/151 314/329/171 312/327/169 
f 294/308/151 298/312/155 315/330/172 314/329/171 
f 298/312/155 297/311/154 316/331/173 315/330/172 
f 297/315/154 300/314/157 317/332/174 316/333/173 
f 300/314/157 299/313/156 318/334/175 317/332/174 
f 299/313/156 302/317/159 319/335/176 318/334/175 
f 302/317/159 301/316/158 320/336/177 319/335/176 
f 301/316/158 304/319/161 321/337/178 320/336/177 
f 304/319/161 303/318/160 322/338/179 321/337/178 
f 303/318/160 306/321/163 323/339/180 322/338/179 
f 306/321/163 305/320/162 324/340/181 323/339/180 
f 305/320/162 308/323/165 325/341/182 324/340/181 
f 308/323/165 307/322/164 326/342/183 325/341/182 
f 307/322/164 310/325/167 327/343/184 326/342/183 
f 310/325/167 309/324/166 328/344/185 327/343/184 
f 309/324/166 311/326/168 329/345/186 328/344/185 
f 311/326/168 296/310/153 313/328/170 329/345/186 
f 313/328/170 312/327/169 330/346/169 331/347/170 
f 312/327/169 314/329/171 332/348/171 330/346/169 
f 314/329/171 315/330/172 333/349/172 332/348/171 
f 315/330/172 316/331/173 334/350/173 333/349/172 
f 316/333/173 317/332/174 335/351/174 334/352/173 
f 317/332/174 318/334/175 336/353/175 335/351/174 
f 318/334/175 319/335/176 337/354/176 336/353/175 
f 319/335/176 320/336/177 338/355/177 337/354/176 
f 320/336/177 321/337/178 339/356/178 338/355/177 
f 321/337/178 322/338/179 340/357/179 339/356/178 
f 322/338/179 323/339/180 341/358/180 340/357/179 
f 323/339/180 324/340/181 342/359/181 341/358/180 
f 324/340/181 325/341/182 343/360/182 342/359/181 
f 325/341/182 326/342/183 344/361/183 343/360/182 
f 326/342/183 327/343/184 345/362/184 344/361/183 
f 327/343/184 328/344/185 346/363/185 345/362/184 
f 328/344/185 329/345/186 347/364/186 346/363/185 
f 329/345/186 313/328/170 331/347/170 347/364/186 
f 331/347/170 330/346/169 348/365/169 349/366/170 
f 330/346/169 332/348/171 350/367/171 348/365/169 
f 332/348/171 333/349/172 351/368/172 350/367/171 
f 333/349/172 334/350/173 352/369/173 351/368/172 
f 334/352/173 335/351/174 353/370/174 352/371/173 
f 335/351/174 336/353/175 354/372/175 353/370/174 
f 336/353/175 337/354/176 355/373/176 354/372/175 
f 337/354/176 338/355/177 356/374/177 355/373/176 
f 338/355/177 339/356/178 357/375/178 356/374/177 
f 339/356/178 340/357/179 358/376/179 357/375/178 
f 340/357/179 341/358/180 359/377/180 358/376/179 
f 341/358/180 342/359/181 360/378/181 359/377/180 
f 342/359/181 343/360/182 361/379/182 360/378/181 
f 343/360/182 344/361/183 362/380/183 361/379/182 
f 344/361/183 345/362/184 363/381/184 362/380/183 
f 345/362/184 346/363/185 364/382/185 363/381/184 
f 346/363/185 347/364/186 365/383/186 364/382/185 
f 347/364/186 331/347/170 349/366/170 365/383/186 
f 349/366/170 348/365/169 366/384/169 367/385/170 
f 348/365/169 350/367/171 368/386/171 366/384/169 
f 350/367/171 351/368/172 369/387/172 368/386/171 
f 351/368/172 352/369/173 370/388/173 369/387/172 
f 352/371/173 353/370/174 371/389/174 370/390/173 
f 353/370/174 354/372/175 372/391/175 371/389/174 
f 354/372/175 355/373/176 373/392/176 372/391/175 
f 355/373/176 356/374/177 374/393/177 373/392/176 
f 356/374/177 357/375/178 375/394/178 374/393/177 
f 357/375/178 358/376/179 376/395/179 375/394/178 
f 358/376/179 359/377/180 377/396/180 376/395/179 
f 359/377/180 360/378/181 378/397/181 377/396/180 
f 360/378/181 361/379/182 379/398/182 378/397/181 
f 361/379/182 362/380/183 380/399/183 379/398/182 
f 362/380/183 363/381/184 381/400/184 380/399/183 
f 363/381/184 364/382/185 382/401/185 381/400/184 
f 364/382/185 365/383/186 383/402/186 382/401/185 
f 365/383/186 349/366/170 367/385/170 383/402/186 
f 367/385/170 366/384/169 384/403/187 385/404/188 
f 366/384/169 368/386/171 386/405/189 384/403/187 
f 368/386/171 369/387/172 387/406/190 386/405/189 
f 369/387/172 370/388/173 388/407/191 387/406/190 
f 370/390/173 371/389/174 389/408/192 388/409/191 
f 371/389/174 372/391/175 390/410/193 389/408/192 
f 372/391/175 373/392/176 391/411/194 390/410/193 
f 373/392/176 374/393/177 392/412/195 391/411/194 
f 374/393/177 375/394/178 393/413/196 392/412/195 
f 375/394/178 376/395/179 394/414/197 393/413/196 
f 376/395/179 377/396/180 395/415/198 394/414/197 
f 377/396/180 378/397/181 396/416/199 395/415/198 
f 378/397/181 379/398/182 397/417/200 396/416/199 
f 379/398/182 380/399/183 398/418/201 397/417/200 
f 380/399/183 381/400/184 399/419/202 398/418/201 
f 381/400/184 382/401/185 400/420/203 399/419/202 
f 382/401/185 383/402/186 401/421/204 400/420/203 
f 383/402/186 367/385/170 385/404/188 401/421/204 
s 1
f 402/422/205 401/421/204 385/404/188 384/403/187 
f 402/422/205 384/403/187 386/405/189 387/406/190 
f 402/422/205 387/406/190 388/407/191 389/423/192 
f 402/422/205 389/408/192 390/410/193 391/411/194 
f 402/422/205 391/411/194 392/412/195 393/413/196 
f 402/422/205 393/413/196 394/414/197 395/415/198 
f 402/422/205 395/415/198 396/416/199 397/417/200 
f 402/422/205 397/417/200 398/418/201 399/419/202 
f 402/422/205 399/419/202 400/420/203 401/421/204 
# 108 polygons

#
# object Cone003
#

v  0.0000 180.0000 -0.0000
v  31.0331 180.0000 -17.9169
v  34.6129 180.0000 -9.2745
v  35.8339 180.0000 -0.0000
v  17.9169 180.0000 -31.0331
v  25.3384 180.0000 -25.3384
v  0.0000 180.0000 -35.8339
v  9.2745 180.0000 -34.6129
v  -17.9169 180.0000 -31.0331
v  -9.2745 180.0000 -34.6129
v  -31.0331 180.0000 -17.9170
v  -25.3384 180.0000 -25.3384
v  -35.8339 180.0000 -0.0000
v  -34.6129 180.0000 -9.2745
v  -31.0331 180.0000 17.9169
v  -34.6129 180.0000 9.2745
v  -17.9170 180.0000 31.0331
v  -25.3384 180.0000 25.3384
v  -0.0000 180.0000 35.8339
v  -9.2745 180.0000 34.6129
v  17.9169 180.0000 31.0331
v  9.2745 180.0000 34.6129
v  31.0330 180.0000 17.9170
v  25.3384 180.0000 25.3384
v  34.6129 180.0000 9.2745
v  27.6903 187.2005 -7.4196
v  28.6671 187.2005 -0.0000
v  24.8264 187.2005 -14.3336
v  20.2707 187.2005 -20.2707
v  14.3336 187.2005 -24.8264
v  7.4196 187.2005 -27.6903
v  0.0000 187.2005 -28.6671
v  -7.4196 187.2005 -27.6903
v  -14.3336 187.2005 -24.8265
v  -20.2707 187.2005 -20.2707
v  -24.8264 187.2005 -14.3336
v  -27.6903 187.2005 -7.4196
v  -28.6671 187.2005 -0.0000
v  -27.6903 187.2005 7.4196
v  -24.8265 187.2005 14.3335
v  -20.2707 187.2005 20.2707
v  -14.3336 187.2005 24.8264
v  -7.4196 187.2005 27.6903
v  -0.0000 187.2005 28.6671
v  7.4196 187.2005 27.6903
v  14.3335 187.2005 24.8265
v  20.2707 187.2005 20.2707
v  24.8264 187.2005 14.3336
v  27.6903 187.2005 7.4196
v  20.7677 194.4010 -5.5647
v  21.5003 194.4010 -0.0000
v  18.6198 194.4010 -10.7502
v  15.2030 194.4010 -15.2030
v  10.7502 194.4010 -18.6198
v  5.5647 194.4010 -20.7677
v  0.0000 194.4010 -21.5003
v  -5.5647 194.4010 -20.7677
v  -10.7502 194.4010 -18.6198
v  -15.2030 194.4010 -15.2030
v  -18.6198 194.4010 -10.7502
v  -20.7677 194.4010 -5.5647
v  -21.5003 194.4010 -0.0000
v  -20.7677 194.4010 5.5647
v  -18.6198 194.4010 10.7502
v  -15.2030 194.4010 15.2030
v  -10.7502 194.4010 18.6198
v  -5.5647 194.4010 20.7677
v  -0.0000 194.4010 21.5003
v  5.5647 194.4010 20.7677
v  10.7502 194.4010 18.6198
v  15.2030 194.4010 15.2030
v  18.6198 194.4010 10.7502
v  20.7677 194.4010 5.5647
v  13.8452 201.6015 -3.7098
v  14.3336 201.6015 -0.0000
v  12.4132 201.6015 -7.1668
v  10.1354 201.6015 -10.1354
v  7.1668 201.6015 -12.4132
v  3.7098 201.6015 -13.8452
v  0.0000 201.6015 -14.3336
v  -3.7098 201.6015 -13.8452
v  -7.1668 201.6015 -12.4132
v  -10.1354 201.6015 -10.1354
v  -12.4132 201.6015 -7.1668
v  -13.8451 201.6015 -3.7098
v  -14.3336 201.6015 -0.0000
v  -13.8452 201.6015 3.7098
v  -12.4132 201.6015 7.1668
v  -10.1354 201.6015 10.1353
v  -7.1668 201.6015 12.4132
v  -3.7098 201.6015 13.8451
v  -0.0000 201.6015 14.3336
v  3.7098 201.6015 13.8452
v  7.1668 201.6015 12.4132
v  10.1353 201.6015 10.1354
v  12.4132 201.6015 7.1668
v  13.8451 201.6015 3.7098
v  6.9226 208.8019 -1.8549
v  7.1668 208.8019 -0.0000
v  6.2066 208.8019 -3.5834
v  5.0677 208.8019 -5.0677
v  3.5834 208.8019 -6.2066
v  1.8549 208.8019 -6.9226
v  0.0000 208.8019 -7.1668
v  -1.8549 208.8019 -6.9226
v  -3.5834 208.8019 -6.2066
v  -5.0677 208.8019 -5.0677
v  -6.2066 208.8019 -3.5834
v  -6.9226 208.8019 -1.8549
v  -7.1668 208.8019 -0.0000
v  -6.9226 208.8019 1.8549
v  -6.2066 208.8019 3.5834
v  -5.0677 208.8019 5.0677
v  -3.5834 208.8019 6.2066
v  -1.8549 208.8019 6.9226
v  -0.0000 208.8019 7.1668
v  1.8549 208.8019 6.9226
v  3.5834 208.8019 6.2066
v  5.0677 208.8019 5.0677
v  6.2066 208.8019 3.5834
v  6.9226 208.8019 1.8549
v  0.0000 216.0024 -0.0000
# 122 vertices

vn 0.0000 -1.0000 -0.0000
vn 0.8083 -0.3590 -0.4667
vn 0.9015 -0.3590 -0.2416
vn 0.9333 -0.3590 0.0000
vn 0.4667 -0.3590 -0.8083
vn 0.6600 -0.3590 -0.6600
vn 0.0000 -0.3590 -0.9333
vn 0.2416 -0.3590 -0.9015
vn -0.4667 -0.3590 -0.8083
vn -0.2416 -0.3590 -0.9015
vn -0.8083 -0.3590 -0.4667
vn -0.6600 -0.3590 -0.6600
vn -0.9333 -0.3590 -0.0000
vn -0.9015 -0.3590 -0.2416
vn -0.8083 -0.3590 0.4667
vn -0.9015 -0.3590 0.2416
vn -0.4667 -0.3590 0.8083
vn -0.6600 -0.3590 0.6600
vn -0.0000 -0.3590 0.9333
vn -0.2416 -0.3590 0.9015
vn 0.4667 -0.3590 0.8083
vn 0.2416 -0.3590 0.9015
vn 0.8083 -0.3590 0.4667
vn 0.6600 -0.3590 0.6600
vn 0.9015 -0.3590 0.2416
vn 0.6846 0.7054 -0.1834
vn 0.7088 0.7054 0.0000
vn 0.6138 0.7054 -0.3544
vn 0.5012 0.7054 -0.5012
vn 0.3544 0.7054 -0.6138
vn 0.1834 0.7054 -0.6846
vn 0.0000 0.7054 -0.7088
vn -0.1834 0.7054 -0.6846
vn -0.3544 0.7054 -0.6138
vn -0.5012 0.7054 -0.5012
vn -0.6138 0.7054 -0.3544
vn -0.6846 0.7054 -0.1834
vn -0.7088 0.7054 -0.0000
vn -0.6846 0.7054 0.1834
vn -0.6138 0.7054 0.3544
vn -0.5012 0.7054 0.5012
vn -0.3544 0.7054 0.6138
vn -0.1834 0.7054 0.6846
vn -0.0000 0.7054 0.7088
vn 0.1834 0.7054 0.6846
vn 0.3544 0.7054 0.6138
vn 0.5012 0.7054 0.5012
vn 0.6138 0.7054 0.3544
vn 0.6846 0.7054 0.1834
vn 1.0000 0.0000 -0.0000
# 50 vertex normals

vt 0.5000 0.0000 0.0000
vt 0.8333 0.0000 1.0000
vt 0.7917 0.0000 1.0000
vt 0.7500 0.0000 1.0000
vt 0.9167 0.0000 1.0000
vt 0.8750 0.0000 1.0000
vt 1.0000 0.0000 1.0000
vt 0.9583 0.0000 1.0000
vt 0.0833 0.0000 1.0000
vt 0.0417 0.0000 1.0000
vt 0.0000 0.0000 1.0000
vt 0.1667 0.0000 1.0000
vt 0.1250 0.0000 1.0000
vt 0.2500 0.0000 1.0000
vt 0.2083 0.0000 1.0000
vt 0.3333 0.0000 1.0000
vt 0.2917 0.0000 1.0000
vt 0.4167 0.0000 1.0000
vt 0.3750 0.0000 1.0000
vt 0.5000 0.0000 1.0000
vt 0.4583 0.0000 1.0000
vt 0.5833 0.0000 1.0000
vt 0.5417 0.0000 1.0000
vt 0.6667 0.0000 1.0000
vt 0.6250 0.0000 1.0000
vt 0.7083 0.0000 1.0000
vt 0.7917 0.2000 0.8000
vt 0.7500 0.2000 0.8000
vt 0.8333 0.2000 0.8000
vt 0.8750 0.2000 0.8000
vt 0.9167 0.2000 0.8000
vt 0.9583 0.2000 0.8000
vt 1.0000 0.2000 0.8000
vt 0.0417 0.2000 0.8000
vt 0.0000 0.2000 0.8000
vt 0.0833 0.2000 0.8000
vt 0.1250 0.2000 0.8000
vt 0.1667 0.2000 0.8000
vt 0.2083 0.2000 0.8000
vt 0.2500 0.2000 0.8000
vt 0.2917 0.2000 0.8000
vt 0.3333 0.2000 0.8000
vt 0.3750 0.2000 0.8000
vt 0.4167 0.2000 0.8000
vt 0.4583 0.2000 0.8000
vt 0.5000 0.2000 0.8000
vt 0.5417 0.2000 0.8000
vt 0.5833 0.2000 0.8000
vt 0.6250 0.2000 0.8000
vt 0.6667 0.2000 0.8000
vt 0.7083 0.2000 0.8000
vt 0.7917 0.4000 0.6000
vt 0.7500 0.4000 0.6000
vt 0.8333 0.4000 0.6000
vt 0.8750 0.4000 0.6000
vt 0.9167 0.4000 0.6000
vt 0.9583 0.4000 0.6000
vt 1.0000 0.4000 0.6000
vt 0.0417 0.4000 0.6000
vt 0.0000 0.4000 0.6000
vt 0.0833 0.4000 0.6000
vt 0.1250 0.4000 0.6000
vt 0.1667 0.4000 0.6000
vt 0.2083 0.4000 0.6000
vt 0.2500 0.4000 0.6000
vt 0.2917 0.4000 0.6000
vt 0.3333 0.4000 0.6000
vt 0.3750 0.4000 0.6000
vt 0.4167 0.4000 0.6000
vt 0.4583 0.4000 0.6000
vt 0.5000 0.4000 0.6000
vt 0.5417 0.4000 0.6000
vt 0.5833 0.4000 0.6000
vt 0.6250 0.4000 0.6000
vt 0.6667 0.4000 0.6000
vt 0.7083 0.4000 0.6000
vt 0.7917 0.6000 0.4000
vt 0.7500 0.6000 0.4000
vt 0.8333 0.6000 0.4000
vt 0.8750 0.6000 0.4000
vt 0.9167 0.6000 0.4000
vt 0.9583 0.6000 0.4000
vt 1.0000 0.6000 0.4000
vt 0.0417 0.6000 0.4000
vt 0.0000 0.6000 0.4000
vt 0.0833 0.6000 0.4000
vt 0.1250 0.6000 0.4000
vt 0.1667 0.6000 0.4000
vt 0.2083 0.6000 0.4000
vt 0.2500 0.6000 0.4000
vt 0.2917 0.6000 0.4000
vt 0.3333 0.6000 0.4000
vt 0.3750 0.6000 0.4000
vt 0.4167 0.6000 0.4000
vt 0.4583 0.6000 0.4000
vt 0.5000 0.6000 0.4000
vt 0.5417 0.6000 0.4000
vt 0.5833 0.6000 0.4000
vt 0.6250 0.6000 0.4000
vt 0.6667 0.6000 0.4000
vt 0.7083 0.6000 0.4000
vt 0.7917 0.8000 0.2000
vt 0.7500 0.8000 0.2000
vt 0.8333 0.8000 0.2000
vt 0.8750 0.8000 0.2000
vt 0.9167 0.8000 0.2000
vt 0.9583 0.8000 0.2000
vt 1.0000 0.8000 0.2000
vt 0.0417 0.8000 0.2000
vt 0.0000 0.8000 0.2000
vt 0.0833 0.8000 0.2000
vt 0.1250 0.8000 0.2000
vt 0.1667 0.8000 0.2000
vt 0.2083 0.8000 0.2000
vt 0.2500 0.8000 0.2000
vt 0.2917 0.8000 0.2000
vt 0.3333 0.8000 0.2000
vt 0.3750 0.8000 0.2000
vt 0.4167 0.8000 0.2000
vt 0.4583 0.8000 0.2000
vt 0.5000 0.8000 0.2000
vt 0.5417 0.8000 0.2000
vt 0.5833 0.8000 0.2000
vt 0.6250 0.8000 0.2000
vt 0.6667 0.8000 0.2000
vt 0.7083 0.8000 0.2000
vt 0.5000 1.0000 0.0000
# 127 texture coords

o Cone003
g Cone003
usemtl wire_000000000
s 1
f 403/424/206 404/425/207 405/426/208 406/427/209 
f 403/424/206 407/428/210 408/429/211 404/425/207 
f 403/424/206 409/430/212 410/431/213 407/428/210 
f 403/424/206 411/432/214 412/433/215 409/434/212 
f 403/424/206 413/435/216 414/436/217 411/432/214 
f 403/424/206 415/437/218 416/438/219 413/435/216 
f 403/424/206 417/439/220 418/440/221 415/437/218 
f 403/424/206 419/441/222 420/442/223 417/439/220 
f 403/424/206 421/443/224 422/444/225 419/441/222 
f 403/424/206 423/445/226 424/446/227 421/443/224 
f 403/424/206 425/447/228 426/448/229 423/445/226 
f 403/424/206 406/427/209 427/449/230 425/447/228 
s 8
f 406/427/209 405/426/208 428/450/231 429/451/232 
f 405/426/208 404/425/207 430/452/233 428/450/231 
f 404/425/207 408/429/211 431/453/234 430/452/233 
f 408/429/211 407/428/210 432/454/235 431/453/234 
f 407/428/210 410/431/213 433/455/236 432/454/235 
f 410/431/213 409/430/212 434/456/237 433/455/236 
f 409/434/212 412/433/215 435/457/238 434/458/237 
f 412/433/215 411/432/214 436/459/239 435/457/238 
f 411/432/214 414/436/217 437/460/240 436/459/239 
f 414/436/217 413/435/216 438/461/241 437/460/240 
f 413/435/216 416/438/219 439/462/242 438/461/241 
f 416/438/219 415/437/218 440/463/243 439/462/242 
f 415/437/218 418/440/221 441/464/244 440/463/243 
f 418/440/221 417/439/220 442/465/245 441/464/244 
f 417/439/220 420/442/223 443/466/246 442/465/245 
f 420/442/223 419/441/222 444/467/247 443/466/246 
f 419/441/222 422/444/225 445/468/248 444/467/247 
f 422/444/225 421/443/224 446/469/249 445/468/248 
f 421/443/224 424/446/227 447/470/250 446/469/249 
f 424/446/227 423/445/226 448/471/251 447/470/250 
f 423/445/226 426/448/229 449/472/252 448/471/251 
f 426/448/229 425/447/228 450/473/253 449/472/252 
f 425/447/228 427/449/230 451/474/254 450/473/253 
f 427/449/230 406/427/209 429/451/232 451/474/254 
f 429/451/232 428/450/231 452/475/231 453/476/232 
f 428/450/231 430/452/233 454/477/233 452/475/231 
f 430/452/233 431/453/234 455/478/234 454/477/233 
f 431/453/234 432/454/235 456/479/235 455/478/234 
f 432/454/235 433/455/236 457/480/236 456/479/235 
f 433/455/236 434/456/237 458/481/237 457/480/236 
f 434/458/237 435/457/238 459/482/238 458/483/237 
f 435/457/238 436/459/239 460/484/239 459/482/238 
f 436/459/239 437/460/240 461/485/240 460/484/239 
f 437/460/240 438/461/241 462/486/241 461/485/240 
f 438/461/241 439/462/242 463/487/242 462/486/241 
f 439/462/242 440/463/243 464/488/243 463/487/242 
f 440/463/243 441/464/244 465/489/244 464/488/243 
f 441/464/244 442/465/245 466/490/245 465/489/244 
f 442/465/245 443/466/246 467/491/246 466/490/245 
f 443/466/246 444/467/247 468/492/247 467/491/246 
f 444/467/247 445/468/248 469/493/248 468/492/247 
f 445/468/248 446/469/249 470/494/249 469/493/248 
f 446/469/249 447/470/250 471/495/250 470/494/249 
f 447/470/250 448/471/251 472/496/251 471/495/250 
f 448/471/251 449/472/252 473/497/252 472/496/251 
f 449/472/252 450/473/253 474/498/253 473/497/252 
f 450/473/253 451/474/254 475/499/254 474/498/253 
f 451/474/254 429/451/232 453/476/232 475/499/254 
f 453/476/232 452/475/231 476/500/231 477/501/232 
f 452/475/231 454/477/233 478/502/233 476/500/231 
f 454/477/233 455/478/234 479/503/234 478/502/233 
f 455/478/234 456/479/235 480/504/235 479/503/234 
f 456/479/235 457/480/236 481/505/236 480/504/235 
f 457/480/236 458/481/237 482/506/237 481/505/236 
f 458/483/237 459/482/238 483/507/238 482/508/237 
f 459/482/238 460/484/239 484/509/239 483/507/238 
f 460/484/239 461/485/240 485/510/240 484/509/239 
f 461/485/240 462/486/241 486/511/241 485/510/240 
f 462/486/241 463/487/242 487/512/242 486/511/241 
f 463/487/242 464/488/243 488/513/243 487/512/242 
f 464/488/243 465/489/244 489/514/244 488/513/243 
f 465/489/244 466/490/245 490/515/245 489/514/244 
f 466/490/245 467/491/246 491/516/246 490/515/245 
f 467/491/246 468/492/247 492/517/247 491/516/246 
f 468/492/247 469/493/248 493/518/248 492/517/247 
f 469/493/248 470/494/249 494/519/249 493/518/248 
f 470/494/249 471/495/250 495/520/250 494/519/249 
f 471/495/250 472/496/251 496/521/251 495/520/250 
f 472/496/251 473/497/252 497/522/252 496/521/251 
f 473/497/252 474/498/253 498/523/253 497/522/252 
f 474/498/253 475/499/254 499/524/254 498/523/253 
f 475/499/254 453/476/232 477/501/232 499/524/254 
f 477/501/232 476/500/231 500/525/231 501/526/232 
f 476/500/231 478/502/233 502/527/233 500/525/231 
f 478/502/233 479/503/234 503/528/234 502/527/233 
f 479/503/234 480/504/235 504/529/235 503/528/234 
f 480/504/235 481/505/236 505/530/236 504/529/235 
f 481/505/236 482/506/237 506/531/237 505/530/236 
f 482/508/237 483/507/238 507/532/238 506/533/237 
f 483/507/238 484/509/239 508/534/239 507/532/238 
f 484/509/239 485/510/240 509/535/240 508/534/239 
f 485/510/240 486/511/241 510/536/241 509/535/240 
f 486/511/241 487/512/242 511/537/242 510/536/241 
f 487/512/242 488/513/243 512/538/243 511/537/242 
f 488/513/243 489/514/244 513/539/244 512/538/243 
f 489/514/244 490/515/245 514/540/245 513/539/244 
f 490/515/245 491/516/246 515/541/246 514/540/245 
f 491/516/246 492/517/247 516/542/247 515/541/246 
f 492/517/247 493/518/248 517/543/248 516/542/247 
f 493/518/248 494/519/249 518/544/249 517/543/248 
f 494/519/249 495/520/250 519/545/250 518/544/249 
f 495/520/250 496/521/251 520/546/251 519/545/250 
f 496/521/251 497/522/252 521/547/252 520/546/251 
f 497/522/252 498/523/253 522/548/253 521/547/252 
f 498/523/253 499/524/254 523/549/254 522/548/253 
f 499/524/254 477/501/232 501/526/232 523/549/254 
f 501/526/232 500/525/231 524/550/255 524/550/255 
f 500/525/231 502/527/233 524/550/255 524/550/255 
f 502/527/233 503/528/234 524/550/255 524/550/255 
f 503/528/234 504/529/235 524/550/255 524/550/255 
f 504/529/235 505/530/236 524/550/255 524/550/255 
f 505/530/236 506/531/237 524/550/255 524/550/255 
f 506/533/237 507/532/238 524/550/255 524/550/255 
f 507/532/238 508/534/239 524/550/255 524/550/255 
f 508/534/239 509/535/240 524/550/255 524/550/255 
f 509/535/240 510/536/241 524/550/255 524/550/255 
f 510/536/241 511/537/242 524/550/255 524/550/255 
f 511/537/242 512/538/243 524/550/255 524/550/255 
f 512/538/243 513/539/244 524/550/255 524/550/255 
f 513/539/244 514/540/245 524/550/255 524/550/255 
f 514/540/245 515/541/246 524/550/255 524/550/255 
f 515/541/246 516/542/247 524/550/255 524/550/255 
f 516/542/247 517/543/248 524/550/255 524/550/255 
f 517/543/248 518/544/249 524/550/255 524/550/255 
f 518/544/249 519/545/250 524/550/255 524/550/255 
f 519/545/250 520/546/251 524/550/255 524/550/255 
f 520/546/251 521/547/252 524/550/255 524/550/255 
f 521/547/252 522/548/253 524/550/255 524/550/255 
f 522/548/253 523/549/254 524/550/255 524/550/255 
f 523/549/254 501/526/232 524/550/255 524/550/255 
s 1
f 524/550/255 524/550/255 524/550/255 524/550/255 
f 524/550/255 524/550/255 524/550/255 524/550/255 
f 524/550/255 524/550/255 524/550/255 524/550/255 
f 524/550/255 524/550/255 524/550/255 524/550/255 
f 524/550/255 524/550/255 524/550/255 524/550/255 
f 524/550/255 524/550/255 524/550/255 524/550/255 
f 524/550/255 524/550/255 524/550/255 524/550/255 
f 524/550/255 524/550/255 524/550/255 524/550/255 
f 524/550/255 524/550/255 524/550/255 524/550/255 
f 524/550/255 524/550/255 524/550/255 524/550/255 
f 524/550/255 524/550/255 524/550/255 524/550/255 
f 524/550/255 524/550/255 524/550/255 524/550/255 
# 144 polygons

#
# object Cone004
#

v  0.0000 220.0000 -0.0000
v  31.0331 220.0000 -17.9169
v  34.6129 220.0000 -9.2745
v  35.8339 220.0000 -0.0000
v  17.9169 220.0000 -31.0331
v  25.3384 220.0000 -25.3384
v  0.0000 220.0000 -35.8339
v  9.2745 220.0000 -34.6129
v  -17.9169 220.0000 -31.0331
v  -9.2745 220.0000 -34.6129
v  -31.0331 220.0000 -17.9170
v  -25.3384 220.0000 -25.3384
v  -35.8339 220.0000 -0.0000
v  -34.6129 220.0000 -9.2745
v  -31.0331 220.0000 17.9169
v  -34.6129 220.0000 9.2745
v  -17.9170 220.0000 31.0331
v  -25.3384 220.0000 25.3384
v  -0.0000 220.0000 35.8339
v  -9.2745 220.0000 34.6129
v  17.9169 220.0000 31.0331
v  9.2745 220.0000 34.6129
v  31.0330 220.0000 17.9170
v  25.3384 220.0000 25.3384
v  34.6129 220.0000 9.2745
v  27.6903 227.2005 -7.4196
v  28.6671 227.2005 -0.0000
v  24.8264 227.2005 -14.3336
v  20.2707 227.2005 -20.2707
v  14.3336 227.2005 -24.8264
v  7.4196 227.2005 -27.6903
v  0.0000 227.2005 -28.6671
v  -7.4196 227.2005 -27.6903
v  -14.3336 227.2005 -24.8265
v  -20.2707 227.2005 -20.2707
v  -24.8264 227.2005 -14.3336
v  -27.6903 227.2005 -7.4196
v  -28.6671 227.2005 -0.0000
v  -27.6903 227.2005 7.4196
v  -24.8265 227.2005 14.3335
v  -20.2707 227.2005 20.2707
v  -14.3336 227.2005 24.8264
v  -7.4196 227.2005 27.6903
v  -0.0000 227.2005 28.6671
v  7.4196 227.2005 27.6903
v  14.3335 227.2005 24.8265
v  20.2707 227.2005 20.2707
v  24.8264 227.2005 14.3336
v  27.6903 227.2005 7.4196
v  20.7677 234.4010 -5.5647
v  21.5003 234.4010 -0.0000
v  18.6198 234.4010 -10.7502
v  15.2030 234.4010 -15.2030
v  10.7502 234.4010 -18.6198
v  5.5647 234.4010 -20.7677
v  0.0000 234.4010 -21.5003
v  -5.5647 234.4010 -20.7677
v  -10.7502 234.4010 -18.6198
v  -15.2030 234.4010 -15.2030
v  -18.6198 234.4010 -10.7502
v  -20.7677 234.4010 -5.5647
v  -21.5003 234.4010 -0.0000
v  -20.7677 234.4010 5.5647
v  -18.6198 234.4010 10.7502
v  -15.2030 234.4010 15.2030
v  -10.7502 234.4010 18.6198
v  -5.5647 234.4010 20.7677
v  -0.0000 234.4010 21.5003
v  5.5647 234.4010 20.7677
v  10.7502 234.4010 18.6198
v  15.2030 234.4010 15.2030
v  18.6198 234.4010 10.7502
v  20.7677 234.4010 5.5647
v  13.8452 241.6015 -3.7098
v  14.3336 241.6015 -0.0000
v  12.4132 241.6015 -7.1668
v  10.1354 241.6015 -10.1354
v  7.1668 241.6015 -12.4132
v  3.7098 241.6015 -13.8452
v  0.0000 241.6015 -14.3336
v  -3.7098 241.6015 -13.8452
v  -7.1668 241.6015 -12.4132
v  -10.1354 241.6015 -10.1354
v  -12.4132 241.6015 -7.1668
v  -13.8451 241.6015 -3.7098
v  -14.3336 241.6015 -0.0000
v  -13.8452 241.6015 3.7098
v  -12.4132 241.6015 7.1668
v  -10.1354 241.6015 10.1353
v  -7.1668 241.6015 12.4132
v  -3.7098 241.6015 13.8451
v  -0.0000 241.6015 14.3336
v  3.7098 241.6015 13.8452
v  7.1668 241.6015 12.4132
v  10.1353 241.6015 10.1354
v  12.4132 241.6015 7.1668
v  13.8451 241.6015 3.7098
v  6.9226 248.8019 -1.8549
v  7.1668 248.8019 -0.0000
v  6.2066 248.8019 -3.5834
v  5.0677 248.8019 -5.0677
v  3.5834 248.8019 -6.2066
v  1.8549 248.8019 -6.9226
v  0.0000 248.8019 -7.1668
v  -1.8549 248.8019 -6.9226
v  -3.5834 248.8019 -6.2066
v  -5.0677 248.8019 -5.0677
v  -6.2066 248.8019 -3.5834
v  -6.9226 248.8019 -1.8549
v  -7.1668 248.8019 -0.0000
v  -6.9226 248.8019 1.8549
v  -6.2066 248.8019 3.5834
v  -5.0677 248.8019 5.0677
v  -3.5834 248.8019 6.2066
v  -1.8549 248.8019 6.9226
v  -0.0000 248.8019 7.1668
v  1.8549 248.8019 6.9226
v  3.5834 248.8019 6.2066
v  5.0677 248.8019 5.0677
v  6.2066 248.8019 3.5834
v  6.9226 248.8019 1.8549
v  0.0000 256.0024 -0.0000
# 122 vertices

vn 0.0000 -1.0000 -0.0000
vn 0.8083 -0.3590 -0.4667
vn 0.9015 -0.3590 -0.2416
vn 0.9333 -0.3590 0.0000
vn 0.4667 -0.3590 -0.8083
vn 0.6600 -0.3590 -0.6600
vn 0.0000 -0.3590 -0.9333
vn 0.2416 -0.3590 -0.9015
vn -0.4667 -0.3590 -0.8083
vn -0.2416 -0.3590 -0.9015
vn -0.8083 -0.3590 -0.4667
vn -0.6600 -0.3590 -0.6600
vn -0.9333 -0.3590 -0.0000
vn -0.9015 -0.3590 -0.2416
vn -0.8083 -0.3590 0.4667
vn -0.9015 -0.3590 0.2416
vn -0.4667 -0.3590 0.8083
vn -0.6600 -0.3590 0.6600
vn -0.0000 -0.3590 0.9333
vn -0.2416 -0.3590 0.9015
vn 0.4667 -0.3590 0.8083
vn 0.2416 -0.3590 0.9015
vn 0.8083 -0.3590 0.4667
vn 0.6600 -0.3590 0.6600
vn 0.9015 -0.3590 0.2416
vn 0.6846 0.7054 -0.1834
vn 0.7088 0.7054 0.0000
vn 0.6138 0.7054 -0.3544
vn 0.5012 0.7054 -0.5012
vn 0.3544 0.7054 -0.6138
vn 0.1834 0.7054 -0.6846
vn 0.0000 0.7054 -0.7088
vn -0.1834 0.7054 -0.6846
vn -0.3544 0.7054 -0.6138
vn -0.5012 0.7054 -0.5012
vn -0.6138 0.7054 -0.3544
vn -0.6846 0.7054 -0.1834
vn -0.7088 0.7054 -0.0000
vn -0.6846 0.7054 0.1834
vn -0.6138 0.7054 0.3544
vn -0.5012 0.7054 0.5012
vn -0.3544 0.7054 0.6138
vn -0.1834 0.7054 0.6846
vn -0.0000 0.7054 0.7088
vn 0.1834 0.7054 0.6846
vn 0.3544 0.7054 0.6138
vn 0.5012 0.7054 0.5012
vn 0.6138 0.7054 0.3544
vn 0.6846 0.7054 0.1834
vn 1.0000 0.0000 -0.0000
# 50 vertex normals

vt 0.5000 0.0000 0.0000
vt 0.8333 0.0000 1.0000
vt 0.7917 0.0000 1.0000
vt 0.7500 0.0000 1.0000
vt 0.9167 0.0000 1.0000
vt 0.8750 0.0000 1.0000
vt 1.0000 0.0000 1.0000
vt 0.9583 0.0000 1.0000
vt 0.0833 0.0000 1.0000
vt 0.0417 0.0000 1.0000
vt 0.0000 0.0000 1.0000
vt 0.1667 0.0000 1.0000
vt 0.1250 0.0000 1.0000
vt 0.2500 0.0000 1.0000
vt 0.2083 0.0000 1.0000
vt 0.3333 0.0000 1.0000
vt 0.2917 0.0000 1.0000
vt 0.4167 0.0000 1.0000
vt 0.3750 0.0000 1.0000
vt 0.5000 0.0000 1.0000
vt 0.4583 0.0000 1.0000
vt 0.5833 0.0000 1.0000
vt 0.5417 0.0000 1.0000
vt 0.6667 0.0000 1.0000
vt 0.6250 0.0000 1.0000
vt 0.7083 0.0000 1.0000
vt 0.7917 0.2000 0.8000
vt 0.7500 0.2000 0.8000
vt 0.8333 0.2000 0.8000
vt 0.8750 0.2000 0.8000
vt 0.9167 0.2000 0.8000
vt 0.9583 0.2000 0.8000
vt 1.0000 0.2000 0.8000
vt 0.0417 0.2000 0.8000
vt 0.0000 0.2000 0.8000
vt 0.0833 0.2000 0.8000
vt 0.1250 0.2000 0.8000
vt 0.1667 0.2000 0.8000
vt 0.2083 0.2000 0.8000
vt 0.2500 0.2000 0.8000
vt 0.2917 0.2000 0.8000
vt 0.3333 0.2000 0.8000
vt 0.3750 0.2000 0.8000
vt 0.4167 0.2000 0.8000
vt 0.4583 0.2000 0.8000
vt 0.5000 0.2000 0.8000
vt 0.5417 0.2000 0.8000
vt 0.5833 0.2000 0.8000
vt 0.6250 0.2000 0.8000
vt 0.6667 0.2000 0.8000
vt 0.7083 0.2000 0.8000
vt 0.7917 0.4000 0.6000
vt 0.7500 0.4000 0.6000
vt 0.8333 0.4000 0.6000
vt 0.8750 0.4000 0.6000
vt 0.9167 0.4000 0.6000
vt 0.9583 0.4000 0.6000
vt 1.0000 0.4000 0.6000
vt 0.0417 0.4000 0.6000
vt 0.0000 0.4000 0.6000
vt 0.0833 0.4000 0.6000
vt 0.1250 0.4000 0.6000
vt 0.1667 0.4000 0.6000
vt 0.2083 0.4000 0.6000
vt 0.2500 0.4000 0.6000
vt 0.2917 0.4000 0.6000
vt 0.3333 0.4000 0.6000
vt 0.3750 0.4000 0.6000
vt 0.4167 0.4000 0.6000
vt 0.4583 0.4000 0.6000
vt 0.5000 0.4000 0.6000
vt 0.5417 0.4000 0.6000
vt 0.5833 0.4000 0.6000
vt 0.6250 0.4000 0.6000
vt 0.6667 0.4000 0.6000
vt 0.7083 0.4000 0.6000
vt 0.7917 0.6000 0.4000
vt 0.7500 0.6000 0.4000
vt 0.8333 0.6000 0.4000
vt 0.8750 0.6000 0.4000
vt 0.9167 0.6000 0.4000
vt 0.9583 0.6000 0.4000
vt 1.0000 0.6000 0.4000
vt 0.0417 0.6000 0.4000
vt 0.0000 0.6000 0.4000
vt 0.0833 0.6000 0.4000
vt 0.1250 0.6000 0.4000
vt 0.1667 0.6000 0.4000
vt 0.2083 0.6000 0.4000
vt 0.2500 0.6000 0.4000
vt 0.2917 0.6000 0.4000
vt 0.3333 0.6000 0.4000
vt 0.3750 0.6000 0.4000
vt 0.4167 0.6000 0.4000
vt 0.4583 0.6000 0.4000
vt 0.5000 0.6000 0.4000
vt 0.5417 0.6000 0.4000
vt 0.5833 0.6000 0.4000
vt 0.6250 0.6000 0.4000
vt 0.6667 0.6000 0.4000
vt 0.7083 0.6000 0.4000
vt 0.7917 0.8000 0.2000
vt 0.7500 0.8000 0.2000
vt 0.8333 0.8000 0.2000
vt 0.8750 0.8000 0.2000
vt 0.9167 0.8000 0.2000
vt 0.9583 0.8000 0.2000
vt 1.0000 0.8000 0.2000
vt 0.0417 0.8000 0.2000
vt 0.0000 0.8000 0.2000
vt 0.0833 0.8000 0.2000
vt 0.1250 0.8000 0.2000
vt 0.1667 0.8000 0.2000
vt 0.2083 0.8000 0.2000
vt 0.2500 0.8000 0.2000
vt 0.2917 0.8000 0.2000
vt 0.3333 0.8000 0.2000
vt 0.3750 0.8000 0.2000
vt 0.4167 0.8000 0.2000
vt 0.4583 0.8000 0.2000
vt 0.5000 0.8000 0.2000
vt 0.5417 0.8000 0.2000
vt 0.5833 0.8000 0.2000
vt 0.6250 0.8000 0.2000
vt 0.6667 0.8000 0.2000
vt 0.7083 0.8000 0.2000
vt 0.5000 1.0000 0.0000
# 127 texture coords

o Cone004
g Cone004
usemtl wire_000000000
s 1
f 525/551/256 526/552/257 527/553/258 528/554/259 
f 525/551/256 529/555/260 530/556/261 526/552/257 
f 525/551/256 531/557/262 532/558/263 529/555/260 
f 525/551/256 533/559/264 534/560/265 531/561/262 
f 525/551/256 535/562/266 536/563/267 533/559/264 
f 525/551/256 537/564/268 538/565/269 535/562/266 
f 525/551/256 539/566/270 540/567/271 537/564/268 
f 525/551/256 541/568/272 542/569/273 539/566/270 
f 525/551/256 543/570/274 544/571/275 541/568/272 
f 525/551/256 545/572/276 546/573/277 543/570/274 
f 525/551/256 547/574/278 548/575/279 545/572/276 
f 525/551/256 528/554/259 549/576/280 547/574/278 
s 8
f 528/554/259 527/553/258 550/577/281 551/578/282 
f 527/553/258 526/552/257 552/579/283 550/577/281 
f 526/552/257 530/556/261 553/580/284 552/579/283 
f 530/556/261 529/555/260 554/581/285 553/580/284 
f 529/555/260 532/558/263 555/582/286 554/581/285 
f 532/558/263 531/557/262 556/583/287 555/582/286 
f 531/561/262 534/560/265 557/584/288 556/585/287 
f 534/560/265 533/559/264 558/586/289 557/584/288 
f 533/559/264 536/563/267 559/587/290 558/586/289 
f 536/563/267 535/562/266 560/588/291 559/587/290 
f 535/562/266 538/565/269 561/589/292 560/588/291 
f 538/565/269 537/564/268 562/590/293 561/589/292 
f 537/564/268 540/567/271 563/591/294 562/590/293 
f 540/567/271 539/566/270 564/592/295 563/591/294 
f 539/566/270 542/569/273 565/593/296 564/592/295 
f 542/569/273 541/568/272 566/594/297 565/593/296 
f 541/568/272 544/571/275 567/595/298 566/594/297 
f 544/571/275 543/570/274 568/596/299 567/595/298 
f 543/570/274 546/573/277 569/597/300 568/596/299 
f 546/573/277 545/572/276 570/598/301 569/597/300 
f 545/572/276 548/575/279 571/599/302 570/598/301 
f 548/575/279 547/574/278 572/600/303 571/599/302 
f 547/574/278 549/576/280 573/601/304 572/600/303 
f 549/576/280 528/554/259 551/578/282 573/601/304 
f 551/578/282 550/577/281 574/602/281 575/603/282 
f 550/577/281 552/579/283 576/604/283 574/602/281 
f 552/579/283 553/580/284 577/605/284 576/604/283 
f 553/580/284 554/581/285 578/606/285 577/605/284 
f 554/581/285 555/582/286 579/607/286 578/606/285 
f 555/582/286 556/583/287 580/608/287 579/607/286 
f 556/585/287 557/584/288 581/609/288 580/610/287 
f 557/584/288 558/586/289 582/611/289 581/609/288 
f 558/586/289 559/587/290 583/612/290 582/611/289 
f 559/587/290 560/588/291 584/613/291 583/612/290 
f 560/588/291 561/589/292 585/614/292 584/613/291 
f 561/589/292 562/590/293 586/615/293 585/614/292 
f 562/590/293 563/591/294 587/616/294 586/615/293 
f 563/591/294 564/592/295 588/617/295 587/616/294 
f 564/592/295 565/593/296 589/618/296 588/617/295 
f 565/593/296 566/594/297 590/619/297 589/618/296 
f 566/594/297 567/595/298 591/620/298 590/619/297 
f 567/595/298 568/596/299 592/621/299 591/620/298 
f 568/596/299 569/597/300 593/622/300 592/621/299 
f 569/597/300 570/598/301 594/623/301 593/622/300 
f 570/598/301 571/599/302 595/624/302 594/623/301 
f 571/599/302 572/600/303 596/625/303 595/624/302 
f 572/600/303 573/601/304 597/626/304 596/625/303 
f 573/601/304 551/578/282 575/603/282 597/626/304 
f 575/603/282 574/602/281 598/627/281 599/628/282 
f 574/602/281 576/604/283 600/629/283 598/627/281 
f 576/604/283 577/605/284 601/630/284 600/629/283 
f 577/605/284 578/606/285 602/631/285 601/630/284 
f 578/606/285 579/607/286 603/632/286 602/631/285 
f 579/607/286 580/608/287 604/633/287 603/632/286 
f 580/610/287 581/609/288 605/634/288 604/635/287 
f 581/609/288 582/611/289 606/636/289 605/634/288 
f 582/611/289 583/612/290 607/637/290 606/636/289 
f 583/612/290 584/613/291 608/638/291 607/637/290 
f 584/613/291 585/614/292 609/639/292 608/638/291 
f 585/614/292 586/615/293 610/640/293 609/639/292 
f 586/615/293 587/616/294 611/641/294 610/640/293 
f 587/616/294 588/617/295 612/642/295 611/641/294 
f 588/617/295 589/618/296 613/643/296 612/642/295 
f 589/618/296 590/619/297 614/644/297 613/643/296 
f 590/619/297 591/620/298 615/645/298 614/644/297 
f 591/620/298 592/621/299 616/646/299 615/645/298 
f 592/621/299 593/622/300 617/647/300 616/646/299 
f 593/622/300 594/623/301 618/648/301 617/647/300 
f 594/623/301 595/624/302 619/649/302 618/648/301 
f 595/624/302 596/625/303 620/650/303 619/649/302 
f 596/625/303 597/626/304 621/651/304 620/650/303 
f 597/626/304 575/603/282 599/628/282 621/651/304 
f 599/628/282 598/627/281 622/652/281 623/653/282 
f 598/627/281 600/629/283 624/654/283 622/652/281 
f 600/629/283 601/630/284 625/655/284 624/654/283 
f 601/630/284 602/631/285 626/656/285 625/655/284 
f 602/631/285 603/632/286 627/657/286 626/656/285 
f 603/632/286 604/633/287 628/658/287 627/657/286 
f 604/635/287 605/634/288 629/659/288 628/660/287 
f 605/634/288 606/636/289 630/661/289 629/659/288 
f 606/636/289 607/637/290 631/662/290 630/661/289 
f 607/637/290 608/638/291 632/663/291 631/662/290 
f 608/638/291 609/639/292 633/664/292 632/663/291 
f 609/639/292 610/640/293 634/665/293 633/664/292 
f 610/640/293 611/641/294 635/666/294 634/665/293 
f 611/641/294 612/642/295 636/667/295 635/666/294 
f 612/642/295 613/643/296 637/668/296 636/667/295 
f 613/643/296 614/644/297 638/669/297 637/668/296 
f 614/644/297 615/645/298 639/670/298 638/669/297 
f 615/645/298 616/646/299 640/671/299 639/670/298 
f 616/646/299 617/647/300 641/672/300 640/671/299 
f 617/647/300 618/648/301 642/673/301 641/672/300 
f 618/648/301 619/649/302 643/674/302 642/673/301 
f 619/649/302 620/650/303 644/675/303 643/674/302 
f 620/650/303 621/651/304 645/676/304 644/675/303 
f 621/651/304 599/628/282 623/653/282 645/676/304 
f 623/653/282 622/652/281 646/677/305 646/677/305 
f 622/652/281 624/654/283 646/677/305 646/677/305 
f 624/654/283 625/655/284 646/677/305 646/677/305 
f 625/655/284 626/656/285 646/677/305 646/677/305 
f 626/656/285 627/657/286 646/677/305 646/677/305 
f 627/657/286 628/658/287 646/677/305 646/677/305 
f 628/660/287 629/659/288 646/677/305 646/677/305 
f 629/659/288 630/661/289 646/677/305 646/677/305 
f 630/661/289 631/662/290 646/677/305 646/677/305 
f 631/662/290 632/663/291 646/677/305 646/677/305 
f 632/663/291 633/664/292 646/677/305 646/677/305 
f 633/664/292 634/665/293 646/677/305 646/677/305 
f 634/665/293 635/666/294 646/677/305 646/677/305 
f 635/666/294 636/667/295 646/677/305 646/677/305 
f 636/667/295 637/668/296 646/677/305 646/677/305 
f 637/668/296 638/669/297 646/677/305 646/677/305 
f 638/669/297 639/670/298 646/677/305 646/677/305 
f 639/670/298 640/671/299 646/677/305 646/677/305 
f 640/671/299 641/672/300 646/677/305 646/677/305 
f 641/672/300 642/673/301 646/677/305 646/677/305 
f 642/673/301 643/674/302 646/677/305 646/677/305 
f 643/674/302 644/675/303 646/677/305 646/677/305 
f 644/675/303 645/676/304 646/677/305 646/677/305 
f 645/676/304 623/653/282 646/677/305 646/677/305 
s 1
f 646/677/305 646/677/305 646/677/305 646/677/305 
f 646/677/305 646/677/305 646/677/305 646/677/305 
f 646/677/305 646/677/305 646/677/305 646/677/305 
f 646/677/305 646/677/305 646/677/305 646/677/305 
f 646/677/305 646/677/305 646/677/305 646/677/305 
f 646/677/305 646/677/305 646/677/305 646/677/305 
f 646/677/305 646/677/305 646/677/305 646/677/305 
f 646/677/305 646/677/305 646/677/305 646/677/305 
f 646/677/305 646/677/305 646/677/305 646/677/305 
f 646/677/305 646/677/305 646/677/305 646/677/305 
f 646/677/305 646/677/305 646/677/305 646/677/305 
f 646/677/305 646/677/305 646/677/305 646/677/305 
# 144 polygons

