# 3ds Max Wavefront OBJ Exporter v0.97b - (c)2007 guruware
# 创建的文件:04.10.2021 19:51:10

mtllib 77.mtl

#
# object Cone001
#

v  0.0000 0.0000 -0.0000
v  52.7191 0.0000 -30.4374
v  58.8005 0.0000 -15.7555
v  60.8748 0.0000 -0.0000
v  30.4374 0.0000 -52.7191
v  43.0450 0.0000 -43.0450
v  0.0000 0.0000 -60.8748
v  15.7555 0.0000 -58.8005
v  -30.4374 0.0000 -52.7191
v  -15.7555 0.0000 -58.8005
v  -52.7191 0.0000 -30.4374
v  -43.0449 0.0000 -43.0450
v  -60.8748 0.0000 -0.0000
v  -58.8005 0.0000 -15.7556
v  -52.7191 0.0000 30.4374
v  -58.8005 0.0000 15.7555
v  -30.4374 0.0000 52.7191
v  -43.0450 0.0000 43.0449
v  -0.0000 0.0000 60.8748
v  -15.7556 0.0000 58.8005
v  30.4373 0.0000 52.7191
v  15.7555 0.0000 58.8005
v  52.7191 0.0000 30.4374
v  43.0449 0.0000 43.0450
v  58.8005 0.0000 15.7556
v  54.7745 7.5917 -14.6768
v  56.7068 7.5917 -0.0000
v  49.1095 7.5917 -28.3534
v  40.0977 7.5917 -40.0977
v  28.3534 7.5917 -49.1095
v  14.6768 7.5917 -54.7745
v  0.0000 7.5917 -56.7068
v  -14.6768 7.5917 -54.7745
v  -28.3534 7.5917 -49.1095
v  -40.0977 7.5917 -40.0977
v  -49.1095 7.5917 -28.3534
v  -54.7745 7.5917 -14.6768
v  -56.7068 7.5917 -0.0000
v  -54.7745 7.5917 14.6768
v  -49.1095 7.5917 28.3534
v  -40.0978 7.5917 40.0977
v  -28.3534 7.5917 49.1095
v  -14.6768 7.5917 54.7745
v  -0.0000 7.5917 56.7068
v  14.6768 7.5917 54.7745
v  28.3533 7.5917 49.1095
v  40.0977 7.5917 40.0978
v  49.1095 7.5917 28.3534
v  54.7745 7.5917 14.6768
v  50.7485 15.1835 -13.5980
v  52.5387 15.1835 -0.0000
v  45.4999 15.1835 -26.2694
v  37.1505 15.1835 -37.1505
v  26.2694 15.1835 -45.4999
v  13.5980 15.1835 -50.7485
v  0.0000 15.1835 -52.5387
v  -13.5980 15.1835 -50.7485
v  -26.2694 15.1835 -45.4999
v  -37.1505 15.1835 -37.1505
v  -45.4999 15.1835 -26.2694
v  -50.7485 15.1835 -13.5980
v  -52.5387 15.1835 -0.0000
v  -50.7485 15.1835 13.5980
v  -45.4999 15.1835 26.2694
v  -37.1505 15.1835 37.1505
v  -26.2694 15.1835 45.4999
v  -13.5980 15.1835 50.7485
v  -0.0000 15.1835 52.5387
v  13.5980 15.1835 50.7485
v  26.2693 15.1835 45.4999
v  37.1505 15.1835 37.1505
v  45.4999 15.1835 26.2694
v  50.7485 15.1835 13.5981
v  46.7225 22.7752 -12.5193
v  48.3707 22.7752 -0.0000
v  41.8903 22.7752 -24.1854
v  34.2033 22.7752 -34.2033
v  24.1854 22.7752 -41.8903
v  12.5193 22.7752 -46.7225
v  0.0000 22.7752 -48.3707
v  -12.5193 22.7752 -46.7226
v  -24.1854 22.7752 -41.8903
v  -34.2033 22.7752 -34.2033
v  -41.8903 22.7752 -24.1854
v  -46.7225 22.7752 -12.5193
v  -48.3707 22.7752 -0.0000
v  -46.7226 22.7752 12.5192
v  -41.8903 22.7752 24.1854
v  -34.2033 22.7752 34.2033
v  -24.1854 22.7752 41.8903
v  -12.5193 22.7752 46.7225
v  -0.0000 22.7752 48.3707
v  12.5192 22.7752 46.7226
v  24.1853 22.7752 41.8903
v  34.2033 22.7752 34.2033
v  41.8903 22.7752 24.1854
v  46.7225 22.7752 12.5193
v  42.6966 30.3669 -11.4405
v  44.2027 30.3669 -0.0000
v  38.2807 30.3669 -22.1014
v  31.2561 30.3669 -31.2561
v  22.1014 30.3669 -38.2807
v  11.4405 30.3669 -42.6966
v  0.0000 30.3669 -44.2027
v  -11.4405 30.3669 -42.6966
v  -22.1014 30.3669 -38.2807
v  -31.2560 30.3669 -31.2561
v  -38.2807 30.3669 -22.1014
v  -42.6966 30.3669 -11.4405
v  -44.2027 30.3669 -0.0000
v  -42.6966 30.3669 11.4405
v  -38.2807 30.3669 22.1013
v  -31.2561 30.3669 31.2560
v  -22.1014 30.3669 38.2807
v  -11.4405 30.3669 42.6966
v  -0.0000 30.3669 44.2027
v  11.4405 30.3669 42.6966
v  22.1013 30.3669 38.2807
v  31.2560 30.3669 31.2561
v  38.2807 30.3669 22.1014
v  42.6966 30.3669 11.4405
v  38.6706 37.9586 -10.3618
v  40.0347 37.9586 -0.0000
v  34.6711 37.9586 -20.0174
v  28.3088 37.9586 -28.3088
v  20.0174 37.9586 -34.6711
v  10.3618 37.9586 -38.6706
v  0.0000 37.9586 -40.0347
v  -10.3617 37.9586 -38.6706
v  -20.0174 37.9586 -34.6711
v  -28.3088 37.9586 -28.3088
v  -34.6711 37.9586 -20.0174
v  -38.6706 37.9586 -10.3618
v  -40.0347 37.9586 -0.0000
v  -38.6706 37.9586 10.3617
v  -34.6711 37.9586 20.0173
v  -28.3088 37.9586 28.3088
v  -20.0174 37.9586 34.6711
v  -10.3618 37.9586 38.6706
v  -0.0000 37.9586 40.0347
v  10.3617 37.9586 38.6706
v  20.0173 37.9586 34.6711
v  28.3088 37.9586 28.3088
v  34.6711 37.9586 20.0174
v  38.6706 37.9586 10.3618
v  0.0000 37.9586 -0.0000
# 146 vertices

vn 0.0000 -1.0000 -0.0000
vn 0.7596 -0.4803 -0.4386
vn 0.8472 -0.4803 -0.2270
vn 0.8771 -0.4803 0.0000
vn 0.4386 -0.4803 -0.7596
vn 0.6202 -0.4803 -0.6202
vn 0.0000 -0.4803 -0.8771
vn 0.2270 -0.4803 -0.8472
vn -0.4386 -0.4803 -0.7596
vn -0.2270 -0.4803 -0.8472
vn -0.7596 -0.4803 -0.4386
vn -0.6202 -0.4803 -0.6202
vn -0.8771 -0.4803 -0.0000
vn -0.8472 -0.4803 -0.2270
vn -0.7596 -0.4803 0.4386
vn -0.8472 -0.4803 0.2270
vn -0.4386 -0.4803 0.7596
vn -0.6202 -0.4803 0.6202
vn -0.0000 -0.4803 0.8771
vn -0.2270 -0.4803 0.8472
vn 0.4386 -0.4803 0.7596
vn 0.2270 -0.4803 0.8472
vn 0.7596 -0.4803 0.4386
vn 0.6202 -0.4803 0.6202
vn 0.8472 -0.4803 0.2270
vn 0.8467 0.4813 -0.2269
vn 0.8766 0.4813 0.0000
vn 0.7591 0.4813 -0.4383
vn 0.6198 0.4813 -0.6198
vn 0.4383 0.4813 -0.7591
vn 0.2269 0.4813 -0.8467
vn 0.0000 0.4813 -0.8766
vn -0.2269 0.4813 -0.8467
vn -0.4383 0.4813 -0.7591
vn -0.6198 0.4813 -0.6198
vn -0.7591 0.4813 -0.4383
vn -0.8467 0.4813 -0.2269
vn -0.8766 0.4813 -0.0000
vn -0.8467 0.4813 0.2269
vn -0.7591 0.4813 0.4383
vn -0.6198 0.4813 0.6198
vn -0.4383 0.4813 0.7591
vn -0.2269 0.4813 0.8467
vn -0.0000 0.4813 0.8766
vn 0.2269 0.4813 0.8467
vn 0.4383 0.4813 0.7591
vn 0.6198 0.4813 0.6198
vn 0.7591 0.4813 0.4383
vn 0.8467 0.4813 0.2269
vn 0.5210 0.8421 -0.1396
vn 0.5394 0.8421 0.0000
vn 0.4671 0.8421 -0.2697
vn 0.3814 0.8421 -0.3814
vn 0.2697 0.8421 -0.4671
vn 0.1396 0.8421 -0.5210
vn 0.0000 0.8421 -0.5394
vn -0.1396 0.8421 -0.5210
vn -0.2697 0.8421 -0.4671
vn -0.3814 0.8421 -0.3814
vn -0.4671 0.8421 -0.2697
vn -0.5210 0.8421 -0.1396
vn -0.5394 0.8421 -0.0000
vn -0.5210 0.8421 0.1396
vn -0.4671 0.8421 0.2697
vn -0.3814 0.8421 0.3814
vn -0.2697 0.8421 0.4671
vn -0.1396 0.8421 0.5210
vn -0.0000 0.8421 0.5394
vn 0.1396 0.8421 0.5210
vn 0.2697 0.8421 0.4671
vn 0.3814 0.8421 0.3814
vn 0.4671 0.8421 0.2697
vn 0.5210 0.8421 0.1396
vn 0.0000 1.0000 -0.0000
# 74 vertex normals

vt 0.5000 0.0000 0.0000
vt 0.8333 0.0000 1.0000
vt 0.7917 0.0000 1.0000
vt 0.7500 0.0000 1.0000
vt 0.9167 0.0000 1.0000
vt 0.8750 0.0000 1.0000
vt 1.0000 0.0000 1.0000
vt 0.9583 0.0000 1.0000
vt 0.0833 0.0000 1.0000
vt 0.0417 0.0000 1.0000
vt 0.0000 0.0000 1.0000
vt 0.1667 0.0000 1.0000
vt 0.1250 0.0000 1.0000
vt 0.2500 0.0000 1.0000
vt 0.2083 0.0000 1.0000
vt 0.3333 0.0000 1.0000
vt 0.2917 0.0000 1.0000
vt 0.4167 0.0000 1.0000
vt 0.3750 0.0000 1.0000
vt 0.5000 0.0000 1.0000
vt 0.4583 0.0000 1.0000
vt 0.5833 0.0000 1.0000
vt 0.5417 0.0000 1.0000
vt 0.6667 0.0000 1.0000
vt 0.6250 0.0000 1.0000
vt 0.7083 0.0000 1.0000
vt 0.7917 0.2000 0.9315
vt 0.7500 0.2000 0.9315
vt 0.8333 0.2000 0.9315
vt 0.8750 0.2000 0.9315
vt 0.9167 0.2000 0.9315
vt 0.9583 0.2000 0.9315
vt 1.0000 0.2000 0.9315
vt 0.0417 0.2000 0.9315
vt 0.0000 0.2000 0.9315
vt 0.0833 0.2000 0.9315
vt 0.1250 0.2000 0.9315
vt 0.1667 0.2000 0.9315
vt 0.2083 0.2000 0.9315
vt 0.2500 0.2000 0.9315
vt 0.2917 0.2000 0.9315
vt 0.3333 0.2000 0.9315
vt 0.3750 0.2000 0.9315
vt 0.4167 0.2000 0.9315
vt 0.4583 0.2000 0.9315
vt 0.5000 0.2000 0.9315
vt 0.5417 0.2000 0.9315
vt 0.5833 0.2000 0.9315
vt 0.6250 0.2000 0.9315
vt 0.6667 0.2000 0.9315
vt 0.7083 0.2000 0.9315
vt 0.7917 0.4000 0.8631
vt 0.7500 0.4000 0.8631
vt 0.8333 0.4000 0.8631
vt 0.8750 0.4000 0.8631
vt 0.9167 0.4000 0.8631
vt 0.9583 0.4000 0.8631
vt 1.0000 0.4000 0.8631
vt 0.0417 0.4000 0.8631
vt 0.0000 0.4000 0.8631
vt 0.0833 0.4000 0.8631
vt 0.1250 0.4000 0.8631
vt 0.1667 0.4000 0.8631
vt 0.2083 0.4000 0.8631
vt 0.2500 0.4000 0.8631
vt 0.2917 0.4000 0.8631
vt 0.3333 0.4000 0.8631
vt 0.3750 0.4000 0.8631
vt 0.4167 0.4000 0.8631
vt 0.4583 0.4000 0.8631
vt 0.5000 0.4000 0.8631
vt 0.5417 0.4000 0.8631
vt 0.5833 0.4000 0.8631
vt 0.6250 0.4000 0.8631
vt 0.6667 0.4000 0.8631
vt 0.7083 0.4000 0.8631
vt 0.7917 0.6000 0.7946
vt 0.7500 0.6000 0.7946
vt 0.8333 0.6000 0.7946
vt 0.8750 0.6000 0.7946
vt 0.9167 0.6000 0.7946
vt 0.9583 0.6000 0.7946
vt 1.0000 0.6000 0.7946
vt 0.0417 0.6000 0.7946
vt 0.0000 0.6000 0.7946
vt 0.0833 0.6000 0.7946
vt 0.1250 0.6000 0.7946
vt 0.1667 0.6000 0.7946
vt 0.2083 0.6000 0.7946
vt 0.2500 0.6000 0.7946
vt 0.2917 0.6000 0.7946
vt 0.3333 0.6000 0.7946
vt 0.3750 0.6000 0.7946
vt 0.4167 0.6000 0.7946
vt 0.4583 0.6000 0.7946
vt 0.5000 0.6000 0.7946
vt 0.5417 0.6000 0.7946
vt 0.5833 0.6000 0.7946
vt 0.6250 0.6000 0.7946
vt 0.6667 0.6000 0.7946
vt 0.7083 0.6000 0.7946
vt 0.7917 0.8000 0.7261
vt 0.7500 0.8000 0.7261
vt 0.8333 0.8000 0.7261
vt 0.8750 0.8000 0.7261
vt 0.9167 0.8000 0.7261
vt 0.9583 0.8000 0.7261
vt 1.0000 0.8000 0.7261
vt 0.0417 0.8000 0.7261
vt 0.0000 0.8000 0.7261
vt 0.0833 0.8000 0.7261
vt 0.1250 0.8000 0.7261
vt 0.1667 0.8000 0.7261
vt 0.2083 0.8000 0.7261
vt 0.2500 0.8000 0.7261
vt 0.2917 0.8000 0.7261
vt 0.3333 0.8000 0.7261
vt 0.3750 0.8000 0.7261
vt 0.4167 0.8000 0.7261
vt 0.4583 0.8000 0.7261
vt 0.5000 0.8000 0.7261
vt 0.5417 0.8000 0.7261
vt 0.5833 0.8000 0.7261
vt 0.6250 0.8000 0.7261
vt 0.6667 0.8000 0.7261
vt 0.7083 0.8000 0.7261
vt 0.7917 1.0000 0.6577
vt 0.7500 1.0000 0.6577
vt 0.8333 1.0000 0.6577
vt 0.8750 1.0000 0.6577
vt 0.9167 1.0000 0.6577
vt 0.9583 1.0000 0.6577
vt 1.0000 1.0000 0.6577
vt 0.0417 1.0000 0.6577
vt 0.0000 1.0000 0.6577
vt 0.0833 1.0000 0.6577
vt 0.1250 1.0000 0.6577
vt 0.1667 1.0000 0.6577
vt 0.2083 1.0000 0.6577
vt 0.2500 1.0000 0.6577
vt 0.2917 1.0000 0.6577
vt 0.3333 1.0000 0.6577
vt 0.3750 1.0000 0.6577
vt 0.4167 1.0000 0.6577
vt 0.4583 1.0000 0.6577
vt 0.5000 1.0000 0.6577
vt 0.5417 1.0000 0.6577
vt 0.5833 1.0000 0.6577
vt 0.6250 1.0000 0.6577
vt 0.6667 1.0000 0.6577
vt 0.7083 1.0000 0.6577
vt 0.5000 1.0000 0.0000
vt 1.0076 1.0000 0.6128
# 153 texture coords

o Cone001
g Cone001
usemtl wire_000000000
s 1
f 1/1/1 2/2/2 3/3/3 4/4/4 
f 1/1/1 5/5/5 6/6/6 2/2/2 
f 1/1/1 7/7/7 8/8/8 5/5/5 
f 1/1/1 9/9/9 10/10/10 7/11/7 
f 1/1/1 11/12/11 12/13/12 9/9/9 
f 1/1/1 13/14/13 14/15/14 11/12/11 
f 1/1/1 15/16/15 16/17/16 13/14/13 
f 1/1/1 17/18/17 18/19/18 15/16/15 
f 1/1/1 19/20/19 20/21/20 17/18/17 
f 1/1/1 21/22/21 22/23/22 19/20/19 
f 1/1/1 23/24/23 24/25/24 21/22/21 
f 1/1/1 4/4/4 25/26/25 23/24/23 
s 8
f 4/4/4 3/3/3 26/27/26 27/28/27 
f 3/3/3 2/2/2 28/29/28 26/27/26 
f 2/2/2 6/6/6 29/30/29 28/29/28 
f 6/6/6 5/5/5 30/31/30 29/30/29 
f 5/5/5 8/8/8 31/32/31 30/31/30 
f 8/8/8 7/7/7 32/33/32 31/32/31 
f 7/11/7 10/10/10 33/34/33 32/35/32 
f 10/10/10 9/9/9 34/36/34 33/34/33 
f 9/9/9 12/13/12 35/37/35 34/36/34 
f 12/13/12 11/12/11 36/38/36 35/37/35 
f 11/12/11 14/15/14 37/39/37 36/38/36 
f 14/15/14 13/14/13 38/40/38 37/39/37 
f 13/14/13 16/17/16 39/41/39 38/40/38 
f 16/17/16 15/16/15 40/42/40 39/41/39 
f 15/16/15 18/19/18 41/43/41 40/42/40 
f 18/19/18 17/18/17 42/44/42 41/43/41 
f 17/18/17 20/21/20 43/45/43 42/44/42 
f 20/21/20 19/20/19 44/46/44 43/45/43 
f 19/20/19 22/23/22 45/47/45 44/46/44 
f 22/23/22 21/22/21 46/48/46 45/47/45 
f 21/22/21 24/25/24 47/49/47 46/48/46 
f 24/25/24 23/24/23 48/50/48 47/49/47 
f 23/24/23 25/26/25 49/51/49 48/50/48 
f 25/26/25 4/4/4 27/28/27 49/51/49 
f 27/28/27 26/27/26 50/52/26 51/53/27 
f 26/27/26 28/29/28 52/54/28 50/52/26 
f 28/29/28 29/30/29 53/55/29 52/54/28 
f 29/30/29 30/31/30 54/56/30 53/55/29 
f 30/31/30 31/32/31 55/57/31 54/56/30 
f 31/32/31 32/33/32 56/58/32 55/57/31 
f 32/35/32 33/34/33 57/59/33 56/60/32 
f 33/34/33 34/36/34 58/61/34 57/59/33 
f 34/36/34 35/37/35 59/62/35 58/61/34 
f 35/37/35 36/38/36 60/63/36 59/62/35 
f 36/38/36 37/39/37 61/64/37 60/63/36 
f 37/39/37 38/40/38 62/65/38 61/64/37 
f 38/40/38 39/41/39 63/66/39 62/65/38 
f 39/41/39 40/42/40 64/67/40 63/66/39 
f 40/42/40 41/43/41 65/68/41 64/67/40 
f 41/43/41 42/44/42 66/69/42 65/68/41 
f 42/44/42 43/45/43 67/70/43 66/69/42 
f 43/45/43 44/46/44 68/71/44 67/70/43 
f 44/46/44 45/47/45 69/72/45 68/71/44 
f 45/47/45 46/48/46 70/73/46 69/72/45 
f 46/48/46 47/49/47 71/74/47 70/73/46 
f 47/49/47 48/50/48 72/75/48 71/74/47 
f 48/50/48 49/51/49 73/76/49 72/75/48 
f 49/51/49 27/28/27 51/53/27 73/76/49 
f 51/53/27 50/52/26 74/77/26 75/78/27 
f 50/52/26 52/54/28 76/79/28 74/77/26 
f 52/54/28 53/55/29 77/80/29 76/79/28 
f 53/55/29 54/56/30 78/81/30 77/80/29 
f 54/56/30 55/57/31 79/82/31 78/81/30 
f 55/57/31 56/58/32 80/83/32 79/82/31 
f 56/60/32 57/59/33 81/84/33 80/85/32 
f 57/59/33 58/61/34 82/86/34 81/84/33 
f 58/61/34 59/62/35 83/87/35 82/86/34 
f 59/62/35 60/63/36 84/88/36 83/87/35 
f 60/63/36 61/64/37 85/89/37 84/88/36 
f 61/64/37 62/65/38 86/90/38 85/89/37 
f 62/65/38 63/66/39 87/91/39 86/90/38 
f 63/66/39 64/67/40 88/92/40 87/91/39 
f 64/67/40 65/68/41 89/93/41 88/92/40 
f 65/68/41 66/69/42 90/94/42 89/93/41 
f 66/69/42 67/70/43 91/95/43 90/94/42 
f 67/70/43 68/71/44 92/96/44 91/95/43 
f 68/71/44 69/72/45 93/97/45 92/96/44 
f 69/72/45 70/73/46 94/98/46 93/97/45 
f 70/73/46 71/74/47 95/99/47 94/98/46 
f 71/74/47 72/75/48 96/100/48 95/99/47 
f 72/75/48 73/76/49 97/101/49 96/100/48 
f 73/76/49 51/53/27 75/78/27 97/101/49 
f 75/78/27 74/77/26 98/102/26 99/103/27 
f 74/77/26 76/79/28 100/104/28 98/102/26 
f 76/79/28 77/80/29 101/105/29 100/104/28 
f 77/80/29 78/81/30 102/106/30 101/105/29 
f 78/81/30 79/82/31 103/107/31 102/106/30 
f 79/82/31 80/83/32 104/108/32 103/107/31 
f 80/85/32 81/84/33 105/109/33 104/110/32 
f 81/84/33 82/86/34 106/111/34 105/109/33 
f 82/86/34 83/87/35 107/112/35 106/111/34 
f 83/87/35 84/88/36 108/113/36 107/112/35 
f 84/88/36 85/89/37 109/114/37 108/113/36 
f 85/89/37 86/90/38 110/115/38 109/114/37 
f 86/90/38 87/91/39 111/116/39 110/115/38 
f 87/91/39 88/92/40 112/117/40 111/116/39 
f 88/92/40 89/93/41 113/118/41 112/117/40 
f 89/93/41 90/94/42 114/119/42 113/118/41 
f 90/94/42 91/95/43 115/120/43 114/119/42 
f 91/95/43 92/96/44 116/121/44 115/120/43 
f 92/96/44 93/97/45 117/122/45 116/121/44 
f 93/97/45 94/98/46 118/123/46 117/122/45 
f 94/98/46 95/99/47 119/124/47 118/123/46 
f 95/99/47 96/100/48 120/125/48 119/124/47 
f 96/100/48 97/101/49 121/126/49 120/125/48 
f 97/101/49 75/78/27 99/103/27 121/126/49 
f 99/103/27 98/102/26 122/127/50 123/128/51 
f 98/102/26 100/104/28 124/129/52 122/127/50 
f 100/104/28 101/105/29 125/130/53 124/129/52 
f 101/105/29 102/106/30 126/131/54 125/130/53 
f 102/106/30 103/107/31 127/132/55 126/131/54 
f 103/107/31 104/108/32 128/133/56 127/132/55 
f 104/110/32 105/109/33 129/134/57 128/135/56 
f 105/109/33 106/111/34 130/136/58 129/134/57 
f 106/111/34 107/112/35 131/137/59 130/136/58 
f 107/112/35 108/113/36 132/138/60 131/137/59 
f 108/113/36 109/114/37 133/139/61 132/138/60 
f 109/114/37 110/115/38 134/140/62 133/139/61 
f 110/115/38 111/116/39 135/141/63 134/140/62 
f 111/116/39 112/117/40 136/142/64 135/141/63 
f 112/117/40 113/118/41 137/143/65 136/142/64 
f 113/118/41 114/119/42 138/144/66 137/143/65 
f 114/119/42 115/120/43 139/145/67 138/144/66 
f 115/120/43 116/121/44 140/146/68 139/145/67 
f 116/121/44 117/122/45 141/147/69 140/146/68 
f 117/122/45 118/123/46 142/148/70 141/147/69 
f 118/123/46 119/124/47 143/149/71 142/148/70 
f 119/124/47 120/125/48 144/150/72 143/149/71 
f 120/125/48 121/126/49 145/151/73 144/150/72 
f 121/126/49 99/103/27 123/128/51 145/151/73 
s 1
f 146/152/74 145/151/73 123/128/51 122/127/50 
f 146/152/74 122/127/50 124/129/52 125/130/53 
f 146/152/74 125/130/53 126/131/54 127/132/55 
f 146/152/74 127/132/55 128/133/56 129/153/57 
f 146/152/74 129/134/57 130/136/58 131/137/59 
f 146/152/74 131/137/59 132/138/60 133/139/61 
f 146/152/74 133/139/61 134/140/62 135/141/63 
f 146/152/74 135/141/63 136/142/64 137/143/65 
f 146/152/74 137/143/65 138/144/66 139/145/67 
f 146/152/74 139/145/67 140/146/68 141/147/69 
f 146/152/74 141/147/69 142/148/70 143/149/71 
f 146/152/74 143/149/71 144/150/72 145/151/73 
# 144 polygons

#
# object Cone003
#

v  28.2567 20.0000 7.5714
v  25.3342 20.0000 14.6268
v  20.6853 20.0000 20.6853
v  14.6267 20.0000 25.3343
v  7.5713 20.0000 28.2567
v  -0.0000 20.0000 29.2535
v  -7.5714 20.0000 28.2567
v  -14.6267 20.0000 25.3342
v  -20.6853 20.0000 20.6853
v  -25.3343 20.0000 14.6267
v  -28.2567 20.0000 7.5713
v  -29.2535 20.0000 -0.0000
v  -28.2567 20.0000 -7.5714
v  -25.3342 20.0000 -14.6267
v  -20.6853 20.0000 -20.6853
v  -14.6267 20.0000 -25.3343
v  -7.5714 20.0000 -28.2567
v  0.0000 20.0000 -29.2535
v  7.5714 20.0000 -28.2567
v  14.6267 20.0000 -25.3342
v  20.6853 20.0000 -20.6853
v  25.3342 20.0000 -14.6267
v  28.2567 20.0000 -7.5714
v  29.2535 20.0000 -0.0000
# 24 vertices

vn 0.0000 -1.0000 -0.0000
# 1 vertex normals

vt 0.2787 0.0000 -0.1317
vt 0.1676 0.0000 -0.3860
vt 0.0792 0.0000 -0.6140
vt 0.0194 0.0000 -0.8002
vt -0.0076 0.0000 -0.9319
vt -0.0000 0.0000 -1.0000
vt 0.0417 0.0000 -1.0000
vt 0.1146 0.0000 -0.9319
vt 0.2137 0.0000 -0.8002
vt 0.3324 0.0000 -0.6140
vt 0.4625 0.0000 -0.3860
vt 0.5952 0.0000 -0.1317
vt 0.7213 0.0000 0.1317
vt 0.8324 0.0000 0.3860
vt 0.9208 0.0000 0.6140
vt 0.9806 0.0000 0.8002
vt 1.0076 0.0000 0.9319
vt 1.0000 0.0000 1.0000
vt 0.9583 0.0000 1.0000
vt 0.9167 0.0000 1.0000
vt 0.8750 0.0000 1.0000
vt 0.8333 0.0000 1.0000
vt 0.7917 0.0000 1.0000
vt 0.7500 0.0000 1.0000
# 24 texture coords

o Cone003
g Cone003
usemtl wire_135110008
s 1
f 147/154/75 148/155/75 149/156/75 150/157/75 151/158/75 152/159/75 153/160/75 154/161/75 155/162/75 156/163/75 157/164/75 158/165/75 159/166/75 160/167/75 161/168/75 162/169/75 163/170/75 164/171/75 165/172/75 166/173/75 167/174/75 168/175/75 169/176/75 170/177/75 
# 1 polygons

#
# object Cylinder001
#

v  0.0000 160.0000 -0.0000
v  2.8858 160.0000 -2.4215
v  3.5399 160.0000 -1.2884
v  3.7671 160.0000 -0.0000
v  0.6542 160.0000 -3.7099
v  1.8836 160.0000 -3.2624
v  -1.8836 160.0000 -3.2624
v  -0.6542 160.0000 -3.7099
v  -3.5399 160.0000 -1.2884
v  -2.8858 160.0000 -2.4215
v  -3.5399 160.0000 1.2884
v  -3.7671 160.0000 -0.0000
v  -1.8836 160.0000 3.2624
v  -2.8858 160.0000 2.4215
v  0.6542 160.0000 3.7099
v  -0.6542 160.0000 3.7099
v  2.8858 160.0000 2.4215
v  1.8836 160.0000 3.2624
v  3.5399 160.0000 1.2884
v  3.5399 175.5849 -1.2884
v  3.7671 175.5849 -0.0000
v  2.8858 175.5849 -2.4215
v  1.8836 175.5849 -3.2624
v  0.6542 175.5849 -3.7099
v  -0.6542 175.5849 -3.7099
v  -1.8836 175.5849 -3.2624
v  -2.8858 175.5849 -2.4215
v  -3.5399 175.5849 -1.2884
v  -3.7671 175.5849 -0.0000
v  -3.5399 175.5849 1.2884
v  -2.8858 175.5849 2.4215
v  -1.8836 175.5849 3.2624
v  -0.6542 175.5849 3.7099
v  0.6542 175.5849 3.7099
v  1.8836 175.5849 3.2624
v  2.8858 175.5849 2.4215
v  3.5399 175.5849 1.2884
v  3.5399 191.1698 -1.2884
v  3.7671 191.1698 -0.0000
v  2.8858 191.1698 -2.4215
v  1.8836 191.1698 -3.2624
v  0.6542 191.1698 -3.7099
v  -0.6542 191.1698 -3.7099
v  -1.8836 191.1698 -3.2624
v  -2.8858 191.1698 -2.4215
v  -3.5399 191.1698 -1.2884
v  -3.7671 191.1698 -0.0000
v  -3.5399 191.1698 1.2884
v  -2.8858 191.1698 2.4215
v  -1.8836 191.1698 3.2624
v  -0.6542 191.1698 3.7099
v  0.6542 191.1698 3.7099
v  1.8836 191.1698 3.2624
v  2.8858 191.1698 2.4215
v  3.5399 191.1698 1.2884
v  3.5399 206.7547 -1.2884
v  3.7671 206.7547 -0.0000
v  2.8858 206.7547 -2.4215
v  1.8836 206.7547 -3.2624
v  0.6542 206.7547 -3.7099
v  -0.6542 206.7547 -3.7099
v  -1.8836 206.7547 -3.2624
v  -2.8858 206.7547 -2.4215
v  -3.5399 206.7547 -1.2884
v  -3.7671 206.7547 -0.0000
v  -3.5399 206.7547 1.2884
v  -2.8858 206.7547 2.4215
v  -1.8836 206.7547 3.2624
v  -0.6542 206.7547 3.7099
v  0.6542 206.7547 3.7099
v  1.8836 206.7547 3.2624
v  2.8858 206.7547 2.4215
v  3.5399 206.7547 1.2884
v  3.5399 222.3396 -1.2884
v  3.7671 222.3396 -0.0000
v  2.8858 222.3396 -2.4215
v  1.8836 222.3396 -3.2624
v  0.6542 222.3396 -3.7099
v  -0.6542 222.3396 -3.7099
v  -1.8836 222.3396 -3.2624
v  -2.8858 222.3396 -2.4215
v  -3.5399 222.3396 -1.2884
v  -3.7671 222.3396 -0.0000
v  -3.5399 222.3396 1.2884
v  -2.8858 222.3396 2.4215
v  -1.8836 222.3396 3.2624
v  -0.6542 222.3396 3.7099
v  0.6542 222.3396 3.7099
v  1.8836 222.3396 3.2624
v  2.8858 222.3396 2.4215
v  3.5399 222.3396 1.2884
v  3.5399 237.9245 -1.2884
v  3.7671 237.9245 -0.0000
v  2.8858 237.9245 -2.4215
v  1.8836 237.9245 -3.2624
v  0.6542 237.9245 -3.7099
v  -0.6542 237.9245 -3.7099
v  -1.8836 237.9245 -3.2624
v  -2.8858 237.9245 -2.4215
v  -3.5399 237.9245 -1.2884
v  -3.7671 237.9245 -0.0000
v  -3.5399 237.9245 1.2884
v  -2.8858 237.9245 2.4215
v  -1.8836 237.9245 3.2624
v  -0.6542 237.9245 3.7099
v  0.6542 237.9245 3.7099
v  1.8836 237.9245 3.2624
v  2.8858 237.9245 2.4215
v  3.5399 237.9245 1.2884
v  0.0000 237.9245 -0.0000
# 110 vertices

vn 0.0000 -1.0000 -0.0000
vn 0.5687 -0.6700 -0.4772
vn 0.6975 -0.6701 -0.2539
vn 0.7423 -0.6701 0.0000
vn 0.1289 -0.6701 -0.7310
vn 0.3712 -0.6701 -0.6428
vn -0.3711 -0.6701 -0.6429
vn -0.1289 -0.6700 -0.7311
vn -0.6976 -0.6700 -0.2539
vn -0.5686 -0.6701 -0.4771
vn -0.6976 -0.6700 0.2539
vn -0.7423 -0.6700 -0.0000
vn -0.3712 -0.6700 0.6429
vn -0.5687 -0.6700 0.4772
vn 0.1289 -0.6700 0.7311
vn -0.1289 -0.6700 0.7311
vn 0.5687 -0.6700 0.4772
vn 0.3712 -0.6700 0.6429
vn 0.6976 -0.6700 0.2539
vn 0.9397 0.0000 -0.3420
vn 1.0000 0.0000 0.0000
vn 0.7660 0.0000 -0.6428
vn 0.5000 0.0000 -0.8660
vn 0.1736 0.0000 -0.9848
vn -0.1736 0.0000 -0.9848
vn -0.5000 0.0000 -0.8660
vn -0.7661 0.0000 -0.6428
vn -0.9397 0.0000 -0.3420
vn -1.0000 0.0000 -0.0000
vn -0.9397 0.0000 0.3420
vn -0.7660 0.0000 0.6428
vn -0.5000 0.0000 0.8660
vn -0.1736 0.0000 0.9848
vn 0.1736 0.0000 0.9848
vn 0.5000 0.0000 0.8660
vn 0.7660 0.0000 0.6428
vn 0.9397 0.0000 0.3420
vn 0.6975 0.6701 -0.2539
vn 0.7423 0.6701 0.0000
vn 0.5687 0.6700 -0.4772
vn 0.3712 0.6701 -0.6428
vn 0.1289 0.6701 -0.7310
vn -0.1289 0.6700 -0.7311
vn -0.3711 0.6701 -0.6429
vn -0.5686 0.6701 -0.4771
vn -0.6976 0.6700 -0.2539
vn -0.7423 0.6700 -0.0000
vn -0.6976 0.6700 0.2539
vn -0.5687 0.6700 0.4772
vn -0.3712 0.6700 0.6429
vn -0.1289 0.6700 0.7311
vn 0.1289 0.6700 0.7311
vn 0.3712 0.6700 0.6429
vn 0.5687 0.6700 0.4772
vn 0.6976 0.6700 0.2539
vn 0.0000 1.0000 -0.0000
# 56 vertex normals

vt 0.5000 0.0000 0.0000
vt 0.8611 0.0000 1.0000
vt 0.8056 0.0000 1.0000
vt 0.7500 0.0000 1.0000
vt 0.9722 0.0000 1.0000
vt 0.9167 0.0000 1.0000
vt 0.0833 0.0000 1.0000
vt 0.0278 0.0000 1.0000
vt -0.0278 0.0000 1.0000
vt 0.1944 0.0000 1.0000
vt 0.1389 0.0000 1.0000
vt 0.3056 0.0000 1.0000
vt 0.2500 0.0000 1.0000
vt 0.4167 0.0000 1.0000
vt 0.3611 0.0000 1.0000
vt 0.5278 0.0000 1.0000
vt 0.4722 0.0000 1.0000
vt 0.6389 0.0000 1.0000
vt 0.5833 0.0000 1.0000
vt 0.6944 0.0000 1.0000
vt 0.8056 0.2000 1.0000
vt 0.7500 0.2000 1.0000
vt 0.8611 0.2000 1.0000
vt 0.9167 0.2000 1.0000
vt 0.9722 0.2000 1.0000
vt 0.0278 0.2000 1.0000
vt -0.0278 0.2000 1.0000
vt 0.0833 0.2000 1.0000
vt 0.1389 0.2000 1.0000
vt 0.1944 0.2000 1.0000
vt 0.2500 0.2000 1.0000
vt 0.3056 0.2000 1.0000
vt 0.3611 0.2000 1.0000
vt 0.4167 0.2000 1.0000
vt 0.4722 0.2000 1.0000
vt 0.5278 0.2000 1.0000
vt 0.5833 0.2000 1.0000
vt 0.6389 0.2000 1.0000
vt 0.6944 0.2000 1.0000
vt 0.8056 0.4000 1.0000
vt 0.7500 0.4000 1.0000
vt 0.8611 0.4000 1.0000
vt 0.9167 0.4000 1.0000
vt 0.9722 0.4000 1.0000
vt 0.0278 0.4000 1.0000
vt -0.0278 0.4000 1.0000
vt 0.0833 0.4000 1.0000
vt 0.1389 0.4000 1.0000
vt 0.1944 0.4000 1.0000
vt 0.2500 0.4000 1.0000
vt 0.3056 0.4000 1.0000
vt 0.3611 0.4000 1.0000
vt 0.4167 0.4000 1.0000
vt 0.4722 0.4000 1.0000
vt 0.5278 0.4000 1.0000
vt 0.5833 0.4000 1.0000
vt 0.6389 0.4000 1.0000
vt 0.6944 0.4000 1.0000
vt 0.8056 0.6000 1.0000
vt 0.7500 0.6000 1.0000
vt 0.8611 0.6000 1.0000
vt 0.9167 0.6000 1.0000
vt 0.9722 0.6000 1.0000
vt 0.0278 0.6000 1.0000
vt -0.0278 0.6000 1.0000
vt 0.0833 0.6000 1.0000
vt 0.1389 0.6000 1.0000
vt 0.1944 0.6000 1.0000
vt 0.2500 0.6000 1.0000
vt 0.3056 0.6000 1.0000
vt 0.3611 0.6000 1.0000
vt 0.4167 0.6000 1.0000
vt 0.4722 0.6000 1.0000
vt 0.5278 0.6000 1.0000
vt 0.5833 0.6000 1.0000
vt 0.6389 0.6000 1.0000
vt 0.6944 0.6000 1.0000
vt 0.8056 0.8000 1.0000
vt 0.7500 0.8000 1.0000
vt 0.8611 0.8000 1.0000
vt 0.9167 0.8000 1.0000
vt 0.9722 0.8000 1.0000
vt 0.0278 0.8000 1.0000
vt -0.0278 0.8000 1.0000
vt 0.0833 0.8000 1.0000
vt 0.1389 0.8000 1.0000
vt 0.1944 0.8000 1.0000
vt 0.2500 0.8000 1.0000
vt 0.3056 0.8000 1.0000
vt 0.3611 0.8000 1.0000
vt 0.4167 0.8000 1.0000
vt 0.4722 0.8000 1.0000
vt 0.5278 0.8000 1.0000
vt 0.5833 0.8000 1.0000
vt 0.6389 0.8000 1.0000
vt 0.6944 0.8000 1.0000
vt 0.8056 1.0000 1.0000
vt 0.7500 1.0000 1.0000
vt 0.8611 1.0000 1.0000
vt 0.9167 1.0000 1.0000
vt 0.9722 1.0000 1.0000
vt 0.0278 1.0000 1.0000
vt -0.0278 1.0000 1.0000
vt 0.0833 1.0000 1.0000
vt 0.1389 1.0000 1.0000
vt 0.1944 1.0000 1.0000
vt 0.2500 1.0000 1.0000
vt 0.3056 1.0000 1.0000
vt 0.3611 1.0000 1.0000
vt 0.4167 1.0000 1.0000
vt 0.4722 1.0000 1.0000
vt 0.5278 1.0000 1.0000
vt 0.5833 1.0000 1.0000
vt 0.6389 1.0000 1.0000
vt 0.6944 1.0000 1.0000
vt 0.5000 1.0000 0.0000
vt 0.9708 1.0000 0.8794
# 117 texture coords

o Cylinder001
g Cylinder001
usemtl wire_000000000
s 1
f 171/178/76 172/179/77 173/180/78 174/181/79 
f 171/178/76 175/182/80 176/183/81 172/179/77 
f 171/178/76 177/184/82 178/185/83 175/186/80 
f 171/178/76 179/187/84 180/188/85 177/184/82 
f 171/178/76 181/189/86 182/190/87 179/187/84 
f 171/178/76 183/191/88 184/192/89 181/189/86 
f 171/178/76 185/193/90 186/194/91 183/191/88 
f 171/178/76 187/195/92 188/196/93 185/193/90 
f 171/178/76 174/181/79 189/197/94 187/195/92 
s 8
f 174/181/79 173/180/78 190/198/95 191/199/96 
f 173/180/78 172/179/77 192/200/97 190/198/95 
f 172/179/77 176/183/81 193/201/98 192/200/97 
f 176/183/81 175/182/80 194/202/99 193/201/98 
f 175/186/80 178/185/83 195/203/100 194/204/99 
f 178/185/83 177/184/82 196/205/101 195/203/100 
f 177/184/82 180/188/85 197/206/102 196/205/101 
f 180/188/85 179/187/84 198/207/103 197/206/102 
f 179/187/84 182/190/87 199/208/104 198/207/103 
f 182/190/87 181/189/86 200/209/105 199/208/104 
f 181/189/86 184/192/89 201/210/106 200/209/105 
f 184/192/89 183/191/88 202/211/107 201/210/106 
f 183/191/88 186/194/91 203/212/108 202/211/107 
f 186/194/91 185/193/90 204/213/109 203/212/108 
f 185/193/90 188/196/93 205/214/110 204/213/109 
f 188/196/93 187/195/92 206/215/111 205/214/110 
f 187/195/92 189/197/94 207/216/112 206/215/111 
f 189/197/94 174/181/79 191/199/96 207/216/112 
f 191/199/96 190/198/95 208/217/95 209/218/96 
f 190/198/95 192/200/97 210/219/97 208/217/95 
f 192/200/97 193/201/98 211/220/98 210/219/97 
f 193/201/98 194/202/99 212/221/99 211/220/98 
f 194/204/99 195/203/100 213/222/100 212/223/99 
f 195/203/100 196/205/101 214/224/101 213/222/100 
f 196/205/101 197/206/102 215/225/102 214/224/101 
f 197/206/102 198/207/103 216/226/103 215/225/102 
f 198/207/103 199/208/104 217/227/104 216/226/103 
f 199/208/104 200/209/105 218/228/105 217/227/104 
f 200/209/105 201/210/106 219/229/106 218/228/105 
f 201/210/106 202/211/107 220/230/107 219/229/106 
f 202/211/107 203/212/108 221/231/108 220/230/107 
f 203/212/108 204/213/109 222/232/109 221/231/108 
f 204/213/109 205/214/110 223/233/110 222/232/109 
f 205/214/110 206/215/111 224/234/111 223/233/110 
f 206/215/111 207/216/112 225/235/112 224/234/111 
f 207/216/112 191/199/96 209/218/96 225/235/112 
f 209/218/96 208/217/95 226/236/95 227/237/96 
f 208/217/95 210/219/97 228/238/97 226/236/95 
f 210/219/97 211/220/98 229/239/98 228/238/97 
f 211/220/98 212/221/99 230/240/99 229/239/98 
f 212/223/99 213/222/100 231/241/100 230/242/99 
f 213/222/100 214/224/101 232/243/101 231/241/100 
f 214/224/101 215/225/102 233/244/102 232/243/101 
f 215/225/102 216/226/103 234/245/103 233/244/102 
f 216/226/103 217/227/104 235/246/104 234/245/103 
f 217/227/104 218/228/105 236/247/105 235/246/104 
f 218/228/105 219/229/106 237/248/106 236/247/105 
f 219/229/106 220/230/107 238/249/107 237/248/106 
f 220/230/107 221/231/108 239/250/108 238/249/107 
f 221/231/108 222/232/109 240/251/109 239/250/108 
f 222/232/109 223/233/110 241/252/110 240/251/109 
f 223/233/110 224/234/111 242/253/111 241/252/110 
f 224/234/111 225/235/112 243/254/112 242/253/111 
f 225/235/112 209/218/96 227/237/96 243/254/112 
f 227/237/96 226/236/95 244/255/95 245/256/96 
f 226/236/95 228/238/97 246/257/97 244/255/95 
f 228/238/97 229/239/98 247/258/98 246/257/97 
f 229/239/98 230/240/99 248/259/99 247/258/98 
f 230/242/99 231/241/100 249/260/100 248/261/99 
f 231/241/100 232/243/101 250/262/101 249/260/100 
f 232/243/101 233/244/102 251/263/102 250/262/101 
f 233/244/102 234/245/103 252/264/103 251/263/102 
f 234/245/103 235/246/104 253/265/104 252/264/103 
f 235/246/104 236/247/105 254/266/105 253/265/104 
f 236/247/105 237/248/106 255/267/106 254/266/105 
f 237/248/106 238/249/107 256/268/107 255/267/106 
f 238/249/107 239/250/108 257/269/108 256/268/107 
f 239/250/108 240/251/109 258/270/109 257/269/108 
f 240/251/109 241/252/110 259/271/110 258/270/109 
f 241/252/110 242/253/111 260/272/111 259/271/110 
f 242/253/111 243/254/112 261/273/112 260/272/111 
f 243/254/112 227/237/96 245/256/96 261/273/112 
f 245/256/96 244/255/95 262/274/113 263/275/114 
f 244/255/95 246/257/97 264/276/115 262/274/113 
f 246/257/97 247/258/98 265/277/116 264/276/115 
f 247/258/98 248/259/99 266/278/117 265/277/116 
f 248/261/99 249/260/100 267/279/118 266/280/117 
f 249/260/100 250/262/101 268/281/119 267/279/118 
f 250/262/101 251/263/102 269/282/120 268/281/119 
f 251/263/102 252/264/103 270/283/121 269/282/120 
f 252/264/103 253/265/104 271/284/122 270/283/121 
f 253/265/104 254/266/105 272/285/123 271/284/122 
f 254/266/105 255/267/106 273/286/124 272/285/123 
f 255/267/106 256/268/107 274/287/125 273/286/124 
f 256/268/107 257/269/108 275/288/126 274/287/125 
f 257/269/108 258/270/109 276/289/127 275/288/126 
f 258/270/109 259/271/110 277/290/128 276/289/127 
f 259/271/110 260/272/111 278/291/129 277/290/128 
f 260/272/111 261/273/112 279/292/130 278/291/129 
f 261/273/112 245/256/96 263/275/114 279/292/130 
s 1
f 280/293/131 279/292/130 263/275/114 262/274/113 
f 280/293/131 262/274/113 264/276/115 265/277/116 
f 280/293/131 265/277/116 266/278/117 267/294/118 
f 280/293/131 267/279/118 268/281/119 269/282/120 
f 280/293/131 269/282/120 270/283/121 271/284/122 
f 280/293/131 271/284/122 272/285/123 273/286/124 
f 280/293/131 273/286/124 274/287/125 275/288/126 
f 280/293/131 275/288/126 276/289/127 277/290/128 
f 280/293/131 277/290/128 278/291/129 279/292/130 
# 108 polygons

#
# object Cone003
#

v  0.0000 218.0000 -0.0000
v  -35.2895 218.0000 -6.2225
v  -35.6975 218.0000 3.1231
v  -33.6728 218.0000 12.2559
v  -27.4504 218.0000 -23.0336
v  -32.4765 218.0000 -15.1441
v  -12.2559 218.0000 -33.6728
v  -20.5535 218.0000 -29.3534
v  6.2225 218.0000 -35.2895
v  -3.1231 218.0000 -35.6975
v  23.0336 218.0000 -27.4504
v  15.1440 218.0000 -32.4765
v  33.6728 218.0000 -12.2559
v  29.3534 218.0000 -20.5535
v  35.2895 218.0000 6.2225
v  35.6975 218.0000 -3.1231
v  27.4504 218.0000 23.0336
v  32.4765 218.0000 15.1440
v  12.2559 218.0000 33.6728
v  20.5535 218.0000 29.3534
v  -6.2225 218.0000 35.2895
v  3.1232 218.0000 35.6975
v  -23.0336 218.0000 27.4504
v  -15.1440 218.0000 32.4765
v  -29.3534 218.0000 20.5535
v  -28.5580 210.7995 2.4985
v  -26.9383 210.7995 9.8047
v  -28.2316 210.7995 -4.9780
v  -25.9812 210.7995 -12.1152
v  -21.9603 210.7995 -18.4269
v  -16.4428 210.7995 -23.4827
v  -9.8047 210.7995 -26.9383
v  -2.4985 210.7995 -28.5580
v  4.9780 210.7995 -28.2316
v  12.1152 210.7995 -25.9812
v  18.4269 210.7995 -21.9603
v  23.4827 210.7995 -16.4428
v  26.9383 210.7995 -9.8047
v  28.5580 210.7995 -2.4985
v  28.2316 210.7995 4.9780
v  25.9812 210.7995 12.1152
v  21.9603 210.7995 18.4269
v  16.4428 210.7995 23.4827
v  9.8047 210.7995 26.9383
v  2.4985 210.7995 28.5580
v  -4.9780 210.7995 28.2316
v  -12.1152 210.7995 25.9812
v  -18.4268 210.7995 21.9603
v  -23.4827 210.7995 16.4428
v  -21.4185 203.5990 1.8739
v  -20.2037 203.5990 7.3536
v  -21.1737 203.5990 -3.7335
v  -19.4859 203.5990 -9.0864
v  -16.4702 203.5990 -13.8201
v  -12.3321 203.5990 -17.6120
v  -7.3535 203.5990 -20.2037
v  -1.8739 203.5990 -21.4185
v  3.7335 203.5990 -21.1737
v  9.0864 203.5990 -19.4859
v  13.8201 203.5990 -16.4702
v  17.6120 203.5990 -12.3321
v  20.2037 203.5990 -7.3536
v  21.4185 203.5990 -1.8739
v  21.1737 203.5990 3.7335
v  19.4859 203.5990 9.0864
v  16.4702 203.5990 13.8201
v  12.3321 203.5990 17.6120
v  7.3536 203.5990 20.2037
v  1.8739 203.5990 21.4185
v  -3.7335 203.5990 21.1737
v  -9.0864 203.5990 19.4859
v  -13.8201 203.5990 16.4702
v  -17.6120 203.5990 12.3321
v  -14.2790 196.3985 1.2493
v  -13.4691 196.3985 4.9024
v  -14.1158 196.3985 -2.4890
v  -12.9906 196.3985 -6.0576
v  -10.9801 196.3985 -9.2134
v  -8.2214 196.3985 -11.7414
v  -4.9024 196.3985 -13.4691
v  -1.2493 196.3985 -14.2790
v  2.4890 196.3985 -14.1158
v  6.0576 196.3985 -12.9906
v  9.2134 196.3985 -10.9801
v  11.7414 196.3985 -8.2214
v  13.4691 196.3985 -4.9024
v  14.2790 196.3985 -1.2493
v  14.1158 196.3985 2.4890
v  12.9906 196.3985 6.0576
v  10.9801 196.3985 9.2134
v  8.2214 196.3985 11.7414
v  4.9024 196.3985 13.4691
v  1.2493 196.3985 14.2790
v  -2.4890 196.3985 14.1158
v  -6.0576 196.3985 12.9906
v  -9.2134 196.3985 10.9802
v  -11.7414 196.3985 8.2214
v  -7.1395 189.1981 0.6246
v  -6.7346 189.1981 2.4512
v  -7.0579 189.1981 -1.2445
v  -6.4953 189.1981 -3.0288
v  -5.4901 189.1981 -4.6067
v  -4.1107 189.1981 -5.8707
v  -2.4512 189.1981 -6.7346
v  -0.6246 189.1981 -7.1395
v  1.2445 189.1981 -7.0579
v  3.0288 189.1981 -6.4953
v  4.6067 189.1981 -5.4901
v  5.8707 189.1981 -4.1107
v  6.7346 189.1981 -2.4512
v  7.1395 189.1981 -0.6246
v  7.0579 189.1981 1.2445
v  6.4953 189.1981 3.0288
v  5.4901 189.1981 4.6067
v  4.1107 189.1981 5.8707
v  2.4512 189.1981 6.7346
v  0.6246 189.1981 7.1395
v  -1.2445 189.1981 7.0579
v  -3.0288 189.1981 6.4953
v  -4.6067 189.1981 5.4901
v  -5.8707 189.1981 4.1107
v  0.0000 181.9976 0.0000
# 122 vertices

vn -0.0000 1.0000 -0.0000
vn -0.9192 0.3590 -0.1621
vn -0.9298 0.3590 0.0813
vn -0.8771 0.3590 0.3192
vn -0.7150 0.3590 -0.5999
vn -0.8459 0.3590 -0.3944
vn -0.3192 0.3590 -0.8771
vn -0.5353 0.3590 -0.7645
vn 0.1621 0.3590 -0.9192
vn -0.0813 0.3590 -0.9298
vn 0.5999 0.3590 -0.7150
vn 0.3944 0.3590 -0.8459
vn 0.8771 0.3590 -0.3192
vn 0.7645 0.3590 -0.5353
vn 0.9192 0.3590 0.1621
vn 0.9298 0.3590 -0.0813
vn 0.7150 0.3590 0.5999
vn 0.8459 0.3590 0.3944
vn 0.3192 0.3590 0.8771
vn 0.5353 0.3590 0.7645
vn -0.1621 0.3590 0.9192
vn 0.0813 0.3590 0.9298
vn -0.5999 0.3590 0.7150
vn -0.3944 0.3590 0.8459
vn -0.7645 0.3590 0.5353
vn -0.7061 -0.7054 0.0618
vn -0.6660 -0.7054 0.2424
vn -0.6980 -0.7054 -0.1231
vn -0.6424 -0.7054 -0.2995
vn -0.5429 -0.7054 -0.4556
vn -0.4065 -0.7054 -0.5806
vn -0.2424 -0.7054 -0.6660
vn -0.0618 -0.7054 -0.7061
vn 0.1231 -0.7054 -0.6980
vn 0.2995 -0.7054 -0.6424
vn 0.4556 -0.7054 -0.5429
vn 0.5806 -0.7054 -0.4065
vn 0.6660 -0.7054 -0.2424
vn 0.7061 -0.7054 -0.0618
vn 0.6980 -0.7054 0.1231
vn 0.6424 -0.7054 0.2995
vn 0.5429 -0.7054 0.4556
vn 0.4065 -0.7054 0.5806
vn 0.2424 -0.7054 0.6660
vn 0.0618 -0.7054 0.7061
vn -0.1231 -0.7054 0.6980
vn -0.2995 -0.7054 0.6424
vn -0.4556 -0.7054 0.5429
vn -0.5806 -0.7054 0.4065
vn -0.9397 0.0000 0.3420
# 50 vertex normals

vt 0.5000 0.0000 0.0000
vt 0.8333 0.0000 1.0000
vt 0.7917 0.0000 1.0000
vt 0.7500 0.0000 1.0000
vt 0.9167 0.0000 1.0000
vt 0.8750 0.0000 1.0000
vt 1.0000 0.0000 1.0000
vt 0.9583 0.0000 1.0000
vt 0.0833 0.0000 1.0000
vt 0.0417 0.0000 1.0000
vt 0.0000 0.0000 1.0000
vt 0.1667 0.0000 1.0000
vt 0.1250 0.0000 1.0000
vt 0.2500 0.0000 1.0000
vt 0.2083 0.0000 1.0000
vt 0.3333 0.0000 1.0000
vt 0.2917 0.0000 1.0000
vt 0.4167 0.0000 1.0000
vt 0.3750 0.0000 1.0000
vt 0.5000 0.0000 1.0000
vt 0.4583 0.0000 1.0000
vt 0.5833 0.0000 1.0000
vt 0.5417 0.0000 1.0000
vt 0.6667 0.0000 1.0000
vt 0.6250 0.0000 1.0000
vt 0.7083 0.0000 1.0000
vt 0.7917 0.2000 0.8000
vt 0.7500 0.2000 0.8000
vt 0.8333 0.2000 0.8000
vt 0.8750 0.2000 0.8000
vt 0.9167 0.2000 0.8000
vt 0.9583 0.2000 0.8000
vt 1.0000 0.2000 0.8000
vt 0.0417 0.2000 0.8000
vt 0.0000 0.2000 0.8000
vt 0.0833 0.2000 0.8000
vt 0.1250 0.2000 0.8000
vt 0.1667 0.2000 0.8000
vt 0.2083 0.2000 0.8000
vt 0.2500 0.2000 0.8000
vt 0.2917 0.2000 0.8000
vt 0.3333 0.2000 0.8000
vt 0.3750 0.2000 0.8000
vt 0.4167 0.2000 0.8000
vt 0.4583 0.2000 0.8000
vt 0.5000 0.2000 0.8000
vt 0.5417 0.2000 0.8000
vt 0.5833 0.2000 0.8000
vt 0.6250 0.2000 0.8000
vt 0.6667 0.2000 0.8000
vt 0.7083 0.2000 0.8000
vt 0.7917 0.4000 0.6000
vt 0.7500 0.4000 0.6000
vt 0.8333 0.4000 0.6000
vt 0.8750 0.4000 0.6000
vt 0.9167 0.4000 0.6000
vt 0.9583 0.4000 0.6000
vt 1.0000 0.4000 0.6000
vt 0.0417 0.4000 0.6000
vt 0.0000 0.4000 0.6000
vt 0.0833 0.4000 0.6000
vt 0.1250 0.4000 0.6000
vt 0.1667 0.4000 0.6000
vt 0.2083 0.4000 0.6000
vt 0.2500 0.4000 0.6000
vt 0.2917 0.4000 0.6000
vt 0.3333 0.4000 0.6000
vt 0.3750 0.4000 0.6000
vt 0.4167 0.4000 0.6000
vt 0.4583 0.4000 0.6000
vt 0.5000 0.4000 0.6000
vt 0.5417 0.4000 0.6000
vt 0.5833 0.4000 0.6000
vt 0.6250 0.4000 0.6000
vt 0.6667 0.4000 0.6000
vt 0.7083 0.4000 0.6000
vt 0.7917 0.6000 0.4000
vt 0.7500 0.6000 0.4000
vt 0.8333 0.6000 0.4000
vt 0.8750 0.6000 0.4000
vt 0.9167 0.6000 0.4000
vt 0.9583 0.6000 0.4000
vt 1.0000 0.6000 0.4000
vt 0.0417 0.6000 0.4000
vt 0.0000 0.6000 0.4000
vt 0.0833 0.6000 0.4000
vt 0.1250 0.6000 0.4000
vt 0.1667 0.6000 0.4000
vt 0.2083 0.6000 0.4000
vt 0.2500 0.6000 0.4000
vt 0.2917 0.6000 0.4000
vt 0.3333 0.6000 0.4000
vt 0.3750 0.6000 0.4000
vt 0.4167 0.6000 0.4000
vt 0.4583 0.6000 0.4000
vt 0.5000 0.6000 0.4000
vt 0.5417 0.6000 0.4000
vt 0.5833 0.6000 0.4000
vt 0.6250 0.6000 0.4000
vt 0.6667 0.6000 0.4000
vt 0.7083 0.6000 0.4000
vt 0.7917 0.8000 0.2000
vt 0.7500 0.8000 0.2000
vt 0.8333 0.8000 0.2000
vt 0.8750 0.8000 0.2000
vt 0.9167 0.8000 0.2000
vt 0.9583 0.8000 0.2000
vt 1.0000 0.8000 0.2000
vt 0.0417 0.8000 0.2000
vt 0.0000 0.8000 0.2000
vt 0.0833 0.8000 0.2000
vt 0.1250 0.8000 0.2000
vt 0.1667 0.8000 0.2000
vt 0.2083 0.8000 0.2000
vt 0.2500 0.8000 0.2000
vt 0.2917 0.8000 0.2000
vt 0.3333 0.8000 0.2000
vt 0.3750 0.8000 0.2000
vt 0.4167 0.8000 0.2000
vt 0.4583 0.8000 0.2000
vt 0.5000 0.8000 0.2000
vt 0.5417 0.8000 0.2000
vt 0.5833 0.8000 0.2000
vt 0.6250 0.8000 0.2000
vt 0.6667 0.8000 0.2000
vt 0.7083 0.8000 0.2000
vt 0.5000 1.0000 0.0000
# 127 texture coords

o Cone003
g Cone003
usemtl wire_000000000
s 1
f 281/295/132 282/296/133 283/297/134 284/298/135 
f 281/295/132 285/299/136 286/300/137 282/296/133 
f 281/295/132 287/301/138 288/302/139 285/299/136 
f 281/295/132 289/303/140 290/304/141 287/305/138 
f 281/295/132 291/306/142 292/307/143 289/303/140 
f 281/295/132 293/308/144 294/309/145 291/306/142 
f 281/295/132 295/310/146 296/311/147 293/308/144 
f 281/295/132 297/312/148 298/313/149 295/310/146 
f 281/295/132 299/314/150 300/315/151 297/312/148 
f 281/295/132 301/316/152 302/317/153 299/314/150 
f 281/295/132 303/318/154 304/319/155 301/316/152 
f 281/295/132 284/298/135 305/320/156 303/318/154 
s 8
f 284/298/135 283/297/134 306/321/157 307/322/158 
f 283/297/134 282/296/133 308/323/159 306/321/157 
f 282/296/133 286/300/137 309/324/160 308/323/159 
f 286/300/137 285/299/136 310/325/161 309/324/160 
f 285/299/136 288/302/139 311/326/162 310/325/161 
f 288/302/139 287/301/138 312/327/163 311/326/162 
f 287/305/138 290/304/141 313/328/164 312/329/163 
f 290/304/141 289/303/140 314/330/165 313/328/164 
f 289/303/140 292/307/143 315/331/166 314/330/165 
f 292/307/143 291/306/142 316/332/167 315/331/166 
f 291/306/142 294/309/145 317/333/168 316/332/167 
f 294/309/145 293/308/144 318/334/169 317/333/168 
f 293/308/144 296/311/147 319/335/170 318/334/169 
f 296/311/147 295/310/146 320/336/171 319/335/170 
f 295/310/146 298/313/149 321/337/172 320/336/171 
f 298/313/149 297/312/148 322/338/173 321/337/172 
f 297/312/148 300/315/151 323/339/174 322/338/173 
f 300/315/151 299/314/150 324/340/175 323/339/174 
f 299/314/150 302/317/153 325/341/176 324/340/175 
f 302/317/153 301/316/152 326/342/177 325/341/176 
f 301/316/152 304/319/155 327/343/178 326/342/177 
f 304/319/155 303/318/154 328/344/179 327/343/178 
f 303/318/154 305/320/156 329/345/180 328/344/179 
f 305/320/156 284/298/135 307/322/158 329/345/180 
f 307/322/158 306/321/157 330/346/157 331/347/158 
f 306/321/157 308/323/159 332/348/159 330/346/157 
f 308/323/159 309/324/160 333/349/160 332/348/159 
f 309/324/160 310/325/161 334/350/161 333/349/160 
f 310/325/161 311/326/162 335/351/162 334/350/161 
f 311/326/162 312/327/163 336/352/163 335/351/162 
f 312/329/163 313/328/164 337/353/164 336/354/163 
f 313/328/164 314/330/165 338/355/165 337/353/164 
f 314/330/165 315/331/166 339/356/166 338/355/165 
f 315/331/166 316/332/167 340/357/167 339/356/166 
f 316/332/167 317/333/168 341/358/168 340/357/167 
f 317/333/168 318/334/169 342/359/169 341/358/168 
f 318/334/169 319/335/170 343/360/170 342/359/169 
f 319/335/170 320/336/171 344/361/171 343/360/170 
f 320/336/171 321/337/172 345/362/172 344/361/171 
f 321/337/172 322/338/173 346/363/173 345/362/172 
f 322/338/173 323/339/174 347/364/174 346/363/173 
f 323/339/174 324/340/175 348/365/175 347/364/174 
f 324/340/175 325/341/176 349/366/176 348/365/175 
f 325/341/176 326/342/177 350/367/177 349/366/176 
f 326/342/177 327/343/178 351/368/178 350/367/177 
f 327/343/178 328/344/179 352/369/179 351/368/178 
f 328/344/179 329/345/180 353/370/180 352/369/179 
f 329/345/180 307/322/158 331/347/158 353/370/180 
f 331/347/158 330/346/157 354/371/157 355/372/158 
f 330/346/157 332/348/159 356/373/159 354/371/157 
f 332/348/159 333/349/160 357/374/160 356/373/159 
f 333/349/160 334/350/161 358/375/161 357/374/160 
f 334/350/161 335/351/162 359/376/162 358/375/161 
f 335/351/162 336/352/163 360/377/163 359/376/162 
f 336/354/163 337/353/164 361/378/164 360/379/163 
f 337/353/164 338/355/165 362/380/165 361/378/164 
f 338/355/165 339/356/166 363/381/166 362/380/165 
f 339/356/166 340/357/167 364/382/167 363/381/166 
f 340/357/167 341/358/168 365/383/168 364/382/167 
f 341/358/168 342/359/169 366/384/169 365/383/168 
f 342/359/169 343/360/170 367/385/170 366/384/169 
f 343/360/170 344/361/171 368/386/171 367/385/170 
f 344/361/171 345/362/172 369/387/172 368/386/171 
f 345/362/172 346/363/173 370/388/173 369/387/172 
f 346/363/173 347/364/174 371/389/174 370/388/173 
f 347/364/174 348/365/175 372/390/175 371/389/174 
f 348/365/175 349/366/176 373/391/176 372/390/175 
f 349/366/176 350/367/177 374/392/177 373/391/176 
f 350/367/177 351/368/178 375/393/178 374/392/177 
f 351/368/178 352/369/179 376/394/179 375/393/178 
f 352/369/179 353/370/180 377/395/180 376/394/179 
f 353/370/180 331/347/158 355/372/158 377/395/180 
f 355/372/158 354/371/157 378/396/157 379/397/158 
f 354/371/157 356/373/159 380/398/159 378/396/157 
f 356/373/159 357/374/160 381/399/160 380/398/159 
f 357/374/160 358/375/161 382/400/161 381/399/160 
f 358/375/161 359/376/162 383/401/162 382/400/161 
f 359/376/162 360/377/163 384/402/163 383/401/162 
f 360/379/163 361/378/164 385/403/164 384/404/163 
f 361/378/164 362/380/165 386/405/165 385/403/164 
f 362/380/165 363/381/166 387/406/166 386/405/165 
f 363/381/166 364/382/167 388/407/167 387/406/166 
f 364/382/167 365/383/168 389/408/168 388/407/167 
f 365/383/168 366/384/169 390/409/169 389/408/168 
f 366/384/169 367/385/170 391/410/170 390/409/169 
f 367/385/170 368/386/171 392/411/171 391/410/170 
f 368/386/171 369/387/172 393/412/172 392/411/171 
f 369/387/172 370/388/173 394/413/173 393/412/172 
f 370/388/173 371/389/174 395/414/174 394/413/173 
f 371/389/174 372/390/175 396/415/175 395/414/174 
f 372/390/175 373/391/176 397/416/176 396/415/175 
f 373/391/176 374/392/177 398/417/177 397/416/176 
f 374/392/177 375/393/178 399/418/178 398/417/177 
f 375/393/178 376/394/179 400/419/179 399/418/178 
f 376/394/179 377/395/180 401/420/180 400/419/179 
f 377/395/180 355/372/158 379/397/158 401/420/180 
f 379/397/158 378/396/157 402/421/181 402/421/181 
f 378/396/157 380/398/159 402/421/181 402/421/181 
f 380/398/159 381/399/160 402/421/181 402/421/181 
f 381/399/160 382/400/161 402/421/181 402/421/181 
f 382/400/161 383/401/162 402/421/181 402/421/181 
f 383/401/162 384/402/163 402/421/181 402/421/181 
f 384/404/163 385/403/164 402/421/181 402/421/181 
f 385/403/164 386/405/165 402/421/181 402/421/181 
f 386/405/165 387/406/166 402/421/181 402/421/181 
f 387/406/166 388/407/167 402/421/181 402/421/181 
f 388/407/167 389/408/168 402/421/181 402/421/181 
f 389/408/168 390/409/169 402/421/181 402/421/181 
f 390/409/169 391/410/170 402/421/181 402/421/181 
f 391/410/170 392/411/171 402/421/181 402/421/181 
f 392/411/171 393/412/172 402/421/181 402/421/181 
f 393/412/172 394/413/173 402/421/181 402/421/181 
f 394/413/173 395/414/174 402/421/181 402/421/181 
f 395/414/174 396/415/175 402/421/181 402/421/181 
f 396/415/175 397/416/176 402/421/181 402/421/181 
f 397/416/176 398/417/177 402/421/181 402/421/181 
f 398/417/177 399/418/178 402/421/181 402/421/181 
f 399/418/178 400/419/179 402/421/181 402/421/181 
f 400/419/179 401/420/180 402/421/181 402/421/181 
f 401/420/180 379/397/158 402/421/181 402/421/181 
s 1
f 402/421/181 402/421/181 402/421/181 402/421/181 
f 402/421/181 402/421/181 402/421/181 402/421/181 
f 402/421/181 402/421/181 402/421/181 402/421/181 
f 402/421/181 402/421/181 402/421/181 402/421/181 
f 402/421/181 402/421/181 402/421/181 402/421/181 
f 402/421/181 402/421/181 402/421/181 402/421/181 
f 402/421/181 402/421/181 402/421/181 402/421/181 
f 402/421/181 402/421/181 402/421/181 402/421/181 
f 402/421/181 402/421/181 402/421/181 402/421/181 
f 402/421/181 402/421/181 402/421/181 402/421/181 
f 402/421/181 402/421/181 402/421/181 402/421/181 
f 402/421/181 402/421/181 402/421/181 402/421/181 
# 144 polygons

#
# object Cone004
#

v  0.0000 255.0000 -0.0000
v  31.0331 255.0000 17.9169
v  34.6129 255.0000 9.2745
v  35.8339 255.0000 -0.0000
v  17.9169 255.0000 31.0331
v  25.3384 255.0000 25.3384
v  0.0000 255.0000 35.8339
v  9.2745 255.0000 34.6129
v  -17.9169 255.0000 31.0331
v  -9.2745 255.0000 34.6129
v  -31.0331 255.0000 17.9170
v  -25.3384 255.0000 25.3384
v  -35.8339 255.0000 0.0000
v  -34.6129 255.0000 9.2745
v  -31.0331 255.0000 -17.9169
v  -34.6129 255.0000 -9.2745
v  -17.9170 255.0000 -31.0331
v  -25.3384 255.0000 -25.3384
v  -0.0000 255.0000 -35.8339
v  -9.2745 255.0000 -34.6129
v  17.9169 255.0000 -31.0331
v  9.2745 255.0000 -34.6129
v  31.0330 255.0000 -17.9170
v  25.3384 255.0000 -25.3384
v  34.6129 255.0000 -9.2745
v  27.6903 247.7995 7.4196
v  28.6671 247.7995 -0.0000
v  24.8264 247.7995 14.3336
v  20.2707 247.7995 20.2707
v  14.3336 247.7995 24.8264
v  7.4196 247.7995 27.6903
v  0.0000 247.7995 28.6671
v  -7.4196 247.7995 27.6903
v  -14.3336 247.7995 24.8264
v  -20.2707 247.7995 20.2707
v  -24.8264 247.7995 14.3336
v  -27.6903 247.7995 7.4196
v  -28.6671 247.7995 0.0000
v  -27.6903 247.7995 -7.4196
v  -24.8265 247.7995 -14.3335
v  -20.2707 247.7995 -20.2707
v  -14.3336 247.7995 -24.8264
v  -7.4196 247.7995 -27.6903
v  -0.0000 247.7995 -28.6671
v  7.4196 247.7995 -27.6903
v  14.3335 247.7995 -24.8265
v  20.2707 247.7995 -20.2707
v  24.8264 247.7995 -14.3336
v  27.6903 247.7995 -7.4196
v  20.7677 240.5990 5.5647
v  21.5003 240.5990 -0.0000
v  18.6198 240.5990 10.7502
v  15.2030 240.5990 15.2030
v  10.7502 240.5990 18.6198
v  5.5647 240.5990 20.7677
v  0.0000 240.5990 21.5003
v  -5.5647 240.5990 20.7677
v  -10.7502 240.5990 18.6198
v  -15.2030 240.5990 15.2030
v  -18.6198 240.5990 10.7502
v  -20.7677 240.5990 5.5647
v  -21.5003 240.5990 0.0000
v  -20.7677 240.5990 -5.5647
v  -18.6198 240.5990 -10.7502
v  -15.2030 240.5990 -15.2030
v  -10.7502 240.5990 -18.6198
v  -5.5647 240.5990 -20.7677
v  -0.0000 240.5990 -21.5003
v  5.5647 240.5990 -20.7677
v  10.7502 240.5990 -18.6198
v  15.2030 240.5990 -15.2030
v  18.6198 240.5990 -10.7502
v  20.7677 240.5990 -5.5647
v  13.8452 233.3985 3.7098
v  14.3336 233.3985 -0.0000
v  12.4132 233.3985 7.1668
v  10.1354 233.3985 10.1354
v  7.1668 233.3985 12.4132
v  3.7098 233.3985 13.8451
v  0.0000 233.3985 14.3336
v  -3.7098 233.3985 13.8451
v  -7.1668 233.3985 12.4132
v  -10.1354 233.3985 10.1354
v  -12.4132 233.3985 7.1668
v  -13.8451 233.3985 3.7098
v  -14.3336 233.3985 0.0000
v  -13.8452 233.3985 -3.7098
v  -12.4132 233.3985 -7.1668
v  -10.1354 233.3985 -10.1354
v  -7.1668 233.3985 -12.4132
v  -3.7098 233.3985 -13.8452
v  -0.0000 233.3985 -14.3336
v  3.7098 233.3985 -13.8452
v  7.1668 233.3985 -12.4132
v  10.1353 233.3985 -10.1354
v  12.4132 233.3985 -7.1668
v  13.8451 233.3985 -3.7098
v  6.9226 226.1981 1.8549
v  7.1668 226.1981 -0.0000
v  6.2066 226.1981 3.5834
v  5.0677 226.1981 5.0677
v  3.5834 226.1981 6.2066
v  1.8549 226.1981 6.9226
v  0.0000 226.1981 7.1668
v  -1.8549 226.1981 6.9226
v  -3.5834 226.1981 6.2066
v  -5.0677 226.1981 5.0677
v  -6.2066 226.1981 3.5834
v  -6.9226 226.1981 1.8549
v  -7.1668 226.1981 -0.0000
v  -6.9226 226.1981 -1.8549
v  -6.2066 226.1981 -3.5834
v  -5.0677 226.1981 -5.0677
v  -3.5834 226.1981 -6.2066
v  -1.8549 226.1981 -6.9226
v  -0.0000 226.1981 -7.1668
v  1.8549 226.1981 -6.9226
v  3.5834 226.1981 -6.2066
v  5.0677 226.1981 -5.0677
v  6.2066 226.1981 -3.5834
v  6.9226 226.1981 -1.8549
v  0.0000 218.9976 -0.0000
# 122 vertices

vn 0.0000 1.0000 0.0000
vn 0.8083 0.3590 0.4667
vn 0.9015 0.3590 0.2416
vn 0.9333 0.3590 0.0000
vn 0.4667 0.3590 0.8083
vn 0.6600 0.3590 0.6600
vn 0.0000 0.3590 0.9333
vn 0.2416 0.3590 0.9015
vn -0.4667 0.3590 0.8083
vn -0.2416 0.3590 0.9015
vn -0.8083 0.3590 0.4667
vn -0.6600 0.3590 0.6600
vn -0.9333 0.3590 0.0000
vn -0.9015 0.3590 0.2416
vn -0.8083 0.3590 -0.4667
vn -0.9015 0.3590 -0.2416
vn -0.4667 0.3590 -0.8083
vn -0.6600 0.3590 -0.6600
vn -0.0000 0.3590 -0.9333
vn -0.2416 0.3590 -0.9015
vn 0.4667 0.3590 -0.8083
vn 0.2416 0.3590 -0.9015
vn 0.8083 0.3590 -0.4667
vn 0.6600 0.3590 -0.6600
vn 0.9015 0.3590 -0.2416
vn 0.6846 -0.7054 0.1834
vn 0.7088 -0.7054 -0.0000
vn 0.6138 -0.7054 0.3544
vn 0.5012 -0.7054 0.5012
vn 0.3544 -0.7054 0.6138
vn 0.1834 -0.7054 0.6846
vn 0.0000 -0.7054 0.7088
vn -0.1834 -0.7054 0.6846
vn -0.3544 -0.7054 0.6138
vn -0.5012 -0.7054 0.5012
vn -0.6138 -0.7054 0.3544
vn -0.6846 -0.7054 0.1834
vn -0.7088 -0.7054 0.0000
vn -0.6846 -0.7054 -0.1834
vn -0.6138 -0.7054 -0.3544
vn -0.5012 -0.7054 -0.5012
vn -0.3544 -0.7054 -0.6138
vn -0.1834 -0.7054 -0.6846
vn -0.0000 -0.7054 -0.7088
vn 0.1834 -0.7054 -0.6846
vn 0.3544 -0.7054 -0.6138
vn 0.5012 -0.7054 -0.5012
vn 0.6138 -0.7054 -0.3544
vn 0.6846 -0.7054 -0.1834
vn 1.0000 0.0000 -0.0000
# 50 vertex normals

vt 0.5000 0.0000 0.0000
vt 0.8333 0.0000 1.0000
vt 0.7917 0.0000 1.0000
vt 0.7500 0.0000 1.0000
vt 0.9167 0.0000 1.0000
vt 0.8750 0.0000 1.0000
vt 1.0000 0.0000 1.0000
vt 0.9583 0.0000 1.0000
vt 0.0833 0.0000 1.0000
vt 0.0417 0.0000 1.0000
vt 0.0000 0.0000 1.0000
vt 0.1667 0.0000 1.0000
vt 0.1250 0.0000 1.0000
vt 0.2500 0.0000 1.0000
vt 0.2083 0.0000 1.0000
vt 0.3333 0.0000 1.0000
vt 0.2917 0.0000 1.0000
vt 0.4167 0.0000 1.0000
vt 0.3750 0.0000 1.0000
vt 0.5000 0.0000 1.0000
vt 0.4583 0.0000 1.0000
vt 0.5833 0.0000 1.0000
vt 0.5417 0.0000 1.0000
vt 0.6667 0.0000 1.0000
vt 0.6250 0.0000 1.0000
vt 0.7083 0.0000 1.0000
vt 0.7917 0.2000 0.8000
vt 0.7500 0.2000 0.8000
vt 0.8333 0.2000 0.8000
vt 0.8750 0.2000 0.8000
vt 0.9167 0.2000 0.8000
vt 0.9583 0.2000 0.8000
vt 1.0000 0.2000 0.8000
vt 0.0417 0.2000 0.8000
vt 0.0000 0.2000 0.8000
vt 0.0833 0.2000 0.8000
vt 0.1250 0.2000 0.8000
vt 0.1667 0.2000 0.8000
vt 0.2083 0.2000 0.8000
vt 0.2500 0.2000 0.8000
vt 0.2917 0.2000 0.8000
vt 0.3333 0.2000 0.8000
vt 0.3750 0.2000 0.8000
vt 0.4167 0.2000 0.8000
vt 0.4583 0.2000 0.8000
vt 0.5000 0.2000 0.8000
vt 0.5417 0.2000 0.8000
vt 0.5833 0.2000 0.8000
vt 0.6250 0.2000 0.8000
vt 0.6667 0.2000 0.8000
vt 0.7083 0.2000 0.8000
vt 0.7917 0.4000 0.6000
vt 0.7500 0.4000 0.6000
vt 0.8333 0.4000 0.6000
vt 0.8750 0.4000 0.6000
vt 0.9167 0.4000 0.6000
vt 0.9583 0.4000 0.6000
vt 1.0000 0.4000 0.6000
vt 0.0417 0.4000 0.6000
vt 0.0000 0.4000 0.6000
vt 0.0833 0.4000 0.6000
vt 0.1250 0.4000 0.6000
vt 0.1667 0.4000 0.6000
vt 0.2083 0.4000 0.6000
vt 0.2500 0.4000 0.6000
vt 0.2917 0.4000 0.6000
vt 0.3333 0.4000 0.6000
vt 0.3750 0.4000 0.6000
vt 0.4167 0.4000 0.6000
vt 0.4583 0.4000 0.6000
vt 0.5000 0.4000 0.6000
vt 0.5417 0.4000 0.6000
vt 0.5833 0.4000 0.6000
vt 0.6250 0.4000 0.6000
vt 0.6667 0.4000 0.6000
vt 0.7083 0.4000 0.6000
vt 0.7917 0.6000 0.4000
vt 0.7500 0.6000 0.4000
vt 0.8333 0.6000 0.4000
vt 0.8750 0.6000 0.4000
vt 0.9167 0.6000 0.4000
vt 0.9583 0.6000 0.4000
vt 1.0000 0.6000 0.4000
vt 0.0417 0.6000 0.4000
vt 0.0000 0.6000 0.4000
vt 0.0833 0.6000 0.4000
vt 0.1250 0.6000 0.4000
vt 0.1667 0.6000 0.4000
vt 0.2083 0.6000 0.4000
vt 0.2500 0.6000 0.4000
vt 0.2917 0.6000 0.4000
vt 0.3333 0.6000 0.4000
vt 0.3750 0.6000 0.4000
vt 0.4167 0.6000 0.4000
vt 0.4583 0.6000 0.4000
vt 0.5000 0.6000 0.4000
vt 0.5417 0.6000 0.4000
vt 0.5833 0.6000 0.4000
vt 0.6250 0.6000 0.4000
vt 0.6667 0.6000 0.4000
vt 0.7083 0.6000 0.4000
vt 0.7917 0.8000 0.2000
vt 0.7500 0.8000 0.2000
vt 0.8333 0.8000 0.2000
vt 0.8750 0.8000 0.2000
vt 0.9167 0.8000 0.2000
vt 0.9583 0.8000 0.2000
vt 1.0000 0.8000 0.2000
vt 0.0417 0.8000 0.2000
vt 0.0000 0.8000 0.2000
vt 0.0833 0.8000 0.2000
vt 0.1250 0.8000 0.2000
vt 0.1667 0.8000 0.2000
vt 0.2083 0.8000 0.2000
vt 0.2500 0.8000 0.2000
vt 0.2917 0.8000 0.2000
vt 0.3333 0.8000 0.2000
vt 0.3750 0.8000 0.2000
vt 0.4167 0.8000 0.2000
vt 0.4583 0.8000 0.2000
vt 0.5000 0.8000 0.2000
vt 0.5417 0.8000 0.2000
vt 0.5833 0.8000 0.2000
vt 0.6250 0.8000 0.2000
vt 0.6667 0.8000 0.2000
vt 0.7083 0.8000 0.2000
vt 0.5000 1.0000 0.0000
# 127 texture coords

o Cone004
g Cone004
usemtl wire_000000000
s 1
f 403/422/182 404/423/183 405/424/184 406/425/185 
f 403/422/182 407/426/186 408/427/187 404/423/183 
f 403/422/182 409/428/188 410/429/189 407/426/186 
f 403/422/182 411/430/190 412/431/191 409/432/188 
f 403/422/182 413/433/192 414/434/193 411/430/190 
f 403/422/182 415/435/194 416/436/195 413/433/192 
f 403/422/182 417/437/196 418/438/197 415/435/194 
f 403/422/182 419/439/198 420/440/199 417/437/196 
f 403/422/182 421/441/200 422/442/201 419/439/198 
f 403/422/182 423/443/202 424/444/203 421/441/200 
f 403/422/182 425/445/204 426/446/205 423/443/202 
f 403/422/182 406/425/185 427/447/206 425/445/204 
s 8
f 406/425/185 405/424/184 428/448/207 429/449/208 
f 405/424/184 404/423/183 430/450/209 428/448/207 
f 404/423/183 408/427/187 431/451/210 430/450/209 
f 408/427/187 407/426/186 432/452/211 431/451/210 
f 407/426/186 410/429/189 433/453/212 432/452/211 
f 410/429/189 409/428/188 434/454/213 433/453/212 
f 409/432/188 412/431/191 435/455/214 434/456/213 
f 412/431/191 411/430/190 436/457/215 435/455/214 
f 411/430/190 414/434/193 437/458/216 436/457/215 
f 414/434/193 413/433/192 438/459/217 437/458/216 
f 413/433/192 416/436/195 439/460/218 438/459/217 
f 416/436/195 415/435/194 440/461/219 439/460/218 
f 415/435/194 418/438/197 441/462/220 440/461/219 
f 418/438/197 417/437/196 442/463/221 441/462/220 
f 417/437/196 420/440/199 443/464/222 442/463/221 
f 420/440/199 419/439/198 444/465/223 443/464/222 
f 419/439/198 422/442/201 445/466/224 444/465/223 
f 422/442/201 421/441/200 446/467/225 445/466/224 
f 421/441/200 424/444/203 447/468/226 446/467/225 
f 424/444/203 423/443/202 448/469/227 447/468/226 
f 423/443/202 426/446/205 449/470/228 448/469/227 
f 426/446/205 425/445/204 450/471/229 449/470/228 
f 425/445/204 427/447/206 451/472/230 450/471/229 
f 427/447/206 406/425/185 429/449/208 451/472/230 
f 429/449/208 428/448/207 452/473/207 453/474/208 
f 428/448/207 430/450/209 454/475/209 452/473/207 
f 430/450/209 431/451/210 455/476/210 454/475/209 
f 431/451/210 432/452/211 456/477/211 455/476/210 
f 432/452/211 433/453/212 457/478/212 456/477/211 
f 433/453/212 434/454/213 458/479/213 457/478/212 
f 434/456/213 435/455/214 459/480/214 458/481/213 
f 435/455/214 436/457/215 460/482/215 459/480/214 
f 436/457/215 437/458/216 461/483/216 460/482/215 
f 437/458/216 438/459/217 462/484/217 461/483/216 
f 438/459/217 439/460/218 463/485/218 462/484/217 
f 439/460/218 440/461/219 464/486/219 463/485/218 
f 440/461/219 441/462/220 465/487/220 464/486/219 
f 441/462/220 442/463/221 466/488/221 465/487/220 
f 442/463/221 443/464/222 467/489/222 466/488/221 
f 443/464/222 444/465/223 468/490/223 467/489/222 
f 444/465/223 445/466/224 469/491/224 468/490/223 
f 445/466/224 446/467/225 470/492/225 469/491/224 
f 446/467/225 447/468/226 471/493/226 470/492/225 
f 447/468/226 448/469/227 472/494/227 471/493/226 
f 448/469/227 449/470/228 473/495/228 472/494/227 
f 449/470/228 450/471/229 474/496/229 473/495/228 
f 450/471/229 451/472/230 475/497/230 474/496/229 
f 451/472/230 429/449/208 453/474/208 475/497/230 
f 453/474/208 452/473/207 476/498/207 477/499/208 
f 452/473/207 454/475/209 478/500/209 476/498/207 
f 454/475/209 455/476/210 479/501/210 478/500/209 
f 455/476/210 456/477/211 480/502/211 479/501/210 
f 456/477/211 457/478/212 481/503/212 480/502/211 
f 457/478/212 458/479/213 482/504/213 481/503/212 
f 458/481/213 459/480/214 483/505/214 482/506/213 
f 459/480/214 460/482/215 484/507/215 483/505/214 
f 460/482/215 461/483/216 485/508/216 484/507/215 
f 461/483/216 462/484/217 486/509/217 485/508/216 
f 462/484/217 463/485/218 487/510/218 486/509/217 
f 463/485/218 464/486/219 488/511/219 487/510/218 
f 464/486/219 465/487/220 489/512/220 488/511/219 
f 465/487/220 466/488/221 490/513/221 489/512/220 
f 466/488/221 467/489/222 491/514/222 490/513/221 
f 467/489/222 468/490/223 492/515/223 491/514/222 
f 468/490/223 469/491/224 493/516/224 492/515/223 
f 469/491/224 470/492/225 494/517/225 493/516/224 
f 470/492/225 471/493/226 495/518/226 494/517/225 
f 471/493/226 472/494/227 496/519/227 495/518/226 
f 472/494/227 473/495/228 497/520/228 496/519/227 
f 473/495/228 474/496/229 498/521/229 497/520/228 
f 474/496/229 475/497/230 499/522/230 498/521/229 
f 475/497/230 453/474/208 477/499/208 499/522/230 
f 477/499/208 476/498/207 500/523/207 501/524/208 
f 476/498/207 478/500/209 502/525/209 500/523/207 
f 478/500/209 479/501/210 503/526/210 502/525/209 
f 479/501/210 480/502/211 504/527/211 503/526/210 
f 480/502/211 481/503/212 505/528/212 504/527/211 
f 481/503/212 482/504/213 506/529/213 505/528/212 
f 482/506/213 483/505/214 507/530/214 506/531/213 
f 483/505/214 484/507/215 508/532/215 507/530/214 
f 484/507/215 485/508/216 509/533/216 508/532/215 
f 485/508/216 486/509/217 510/534/217 509/533/216 
f 486/509/217 487/510/218 511/535/218 510/534/217 
f 487/510/218 488/511/219 512/536/219 511/535/218 
f 488/511/219 489/512/220 513/537/220 512/536/219 
f 489/512/220 490/513/221 514/538/221 513/537/220 
f 490/513/221 491/514/222 515/539/222 514/538/221 
f 491/514/222 492/515/223 516/540/223 515/539/222 
f 492/515/223 493/516/224 517/541/224 516/540/223 
f 493/516/224 494/517/225 518/542/225 517/541/224 
f 494/517/225 495/518/226 519/543/226 518/542/225 
f 495/518/226 496/519/227 520/544/227 519/543/226 
f 496/519/227 497/520/228 521/545/228 520/544/227 
f 497/520/228 498/521/229 522/546/229 521/545/228 
f 498/521/229 499/522/230 523/547/230 522/546/229 
f 499/522/230 477/499/208 501/524/208 523/547/230 
f 501/524/208 500/523/207 524/548/231 524/548/231 
f 500/523/207 502/525/209 524/548/231 524/548/231 
f 502/525/209 503/526/210 524/548/231 524/548/231 
f 503/526/210 504/527/211 524/548/231 524/548/231 
f 504/527/211 505/528/212 524/548/231 524/548/231 
f 505/528/212 506/529/213 524/548/231 524/548/231 
f 506/531/213 507/530/214 524/548/231 524/548/231 
f 507/530/214 508/532/215 524/548/231 524/548/231 
f 508/532/215 509/533/216 524/548/231 524/548/231 
f 509/533/216 510/534/217 524/548/231 524/548/231 
f 510/534/217 511/535/218 524/548/231 524/548/231 
f 511/535/218 512/536/219 524/548/231 524/548/231 
f 512/536/219 513/537/220 524/548/231 524/548/231 
f 513/537/220 514/538/221 524/548/231 524/548/231 
f 514/538/221 515/539/222 524/548/231 524/548/231 
f 515/539/222 516/540/223 524/548/231 524/548/231 
f 516/540/223 517/541/224 524/548/231 524/548/231 
f 517/541/224 518/542/225 524/548/231 524/548/231 
f 518/542/225 519/543/226 524/548/231 524/548/231 
f 519/543/226 520/544/227 524/548/231 524/548/231 
f 520/544/227 521/545/228 524/548/231 524/548/231 
f 521/545/228 522/546/229 524/548/231 524/548/231 
f 522/546/229 523/547/230 524/548/231 524/548/231 
f 523/547/230 501/524/208 524/548/231 524/548/231 
s 1
f 524/548/231 524/548/231 524/548/231 524/548/231 
f 524/548/231 524/548/231 524/548/231 524/548/231 
f 524/548/231 524/548/231 524/548/231 524/548/231 
f 524/548/231 524/548/231 524/548/231 524/548/231 
f 524/548/231 524/548/231 524/548/231 524/548/231 
f 524/548/231 524/548/231 524/548/231 524/548/231 
f 524/548/231 524/548/231 524/548/231 524/548/231 
f 524/548/231 524/548/231 524/548/231 524/548/231 
f 524/548/231 524/548/231 524/548/231 524/548/231 
f 524/548/231 524/548/231 524/548/231 524/548/231 
f 524/548/231 524/548/231 524/548/231 524/548/231 
f 524/548/231 524/548/231 524/548/231 524/548/231 
# 144 polygons

#
# object 对象001
#

v  25.6624 48.0951 -0.0000
v  24.7879 48.0951 -6.6419
v  21.3192 76.1901 -5.7125
v  22.0713 76.1901 -0.0000
v  22.2243 48.0951 -12.8312
v  19.1143 76.1901 -11.0356
v  18.1460 48.0951 -18.1460
v  15.6067 76.1901 -15.6067
v  12.8312 48.0951 -22.2243
v  11.0356 76.1901 -19.1143
v  6.6419 48.0951 -24.7879
v  5.7125 76.1901 -21.3192
v  0.0000 48.0951 -25.6624
v  0.0000 76.1901 -22.0713
v  -6.6419 48.0951 -24.7880
v  -5.7125 76.1901 -21.3192
v  -12.8312 48.0951 -22.2243
v  -11.0356 76.1901 -19.1143
v  -18.1460 48.0951 -18.1460
v  -15.6067 76.1901 -15.6068
v  -22.2243 48.0951 -12.8312
v  -19.1143 76.1901 -11.0356
v  -24.7879 48.0951 -6.6419
v  -21.3192 76.1901 -5.7125
v  -25.6624 48.0951 -0.0000
v  -22.0713 76.1901 -0.0000
v  -24.7880 48.0951 6.6419
v  -21.3192 76.1901 5.7125
v  -22.2243 48.0951 12.8312
v  -19.1143 76.1901 11.0356
v  -18.1460 48.0951 18.1460
v  -15.6068 76.1901 15.6067
v  -12.8312 48.0951 22.2243
v  -11.0356 76.1901 19.1143
v  -6.6419 48.0951 24.7879
v  -5.7125 76.1901 21.3192
v  -0.0000 48.0951 25.6624
v  -0.0000 76.1901 22.0713
v  6.6419 48.0951 24.7880
v  5.7125 76.1901 21.3192
v  12.8312 48.0951 22.2243
v  11.0356 76.1901 19.1143
v  18.1460 48.0951 18.1460
v  15.6067 76.1901 15.6068
v  22.2243 48.0951 12.8312
v  19.1143 76.1901 11.0357
v  24.7879 48.0951 6.6419
v  21.3192 76.1901 5.7125
v  17.8505 104.2852 -4.7830
v  18.4802 104.2852 -0.0000
v  16.0043 104.2852 -9.2401
v  13.0675 104.2852 -13.0675
v  9.2401 104.2852 -16.0043
v  4.7830 104.2852 -17.8505
v  0.0000 104.2852 -18.4802
v  -4.7830 104.2852 -17.8505
v  -9.2401 104.2852 -16.0043
v  -13.0675 104.2852 -13.0675
v  -16.0043 104.2852 -9.2401
v  -17.8505 104.2852 -4.7830
v  -18.4802 104.2852 -0.0000
v  -17.8505 104.2852 4.7830
v  -16.0043 104.2852 9.2401
v  -13.0675 104.2852 13.0675
v  -9.2401 104.2852 16.0043
v  -4.7830 104.2852 17.8505
v  -0.0000 104.2852 18.4802
v  4.7830 104.2852 17.8505
v  9.2401 104.2852 16.0043
v  13.0674 104.2852 13.0675
v  16.0043 104.2852 9.2401
v  17.8505 104.2852 4.7830
# 72 vertices

vn 0.9919 0.1268 0.0000
vn 0.9581 0.1268 -0.2567
vn 0.8590 0.1268 -0.4960
vn 0.7014 0.1268 -0.7014
vn 0.4960 0.1268 -0.8590
vn 0.2567 0.1268 -0.9581
vn 0.0000 0.1268 -0.9919
vn -0.0000 0.1268 -0.9919
vn -0.2567 0.1268 -0.9581
vn -0.4960 0.1268 -0.8590
vn -0.7014 0.1268 -0.7014
vn -0.8590 0.1268 -0.4960
vn -0.9581 0.1268 -0.2567
vn -0.9919 0.1268 -0.0000
vn -0.9581 0.1268 0.2567
vn -0.8590 0.1268 0.4960
vn -0.7014 0.1268 0.7014
vn -0.4960 0.1268 0.8590
vn -0.2567 0.1268 0.9581
vn -0.0000 0.1268 0.9919
vn 0.2567 0.1268 0.9581
vn 0.4960 0.1268 0.8590
vn 0.7014 0.1268 0.7014
vn 0.8590 0.1268 0.4960
vn 0.9581 0.1268 0.2567
# 25 vertex normals

vt 0.7500 0.2000 0.8772
vt 0.7917 0.2000 0.8772
vt 0.7917 0.4000 0.7545
vt 0.7500 0.4000 0.7545
vt 0.8333 0.2000 0.8772
vt 0.8333 0.4000 0.7545
vt 0.8750 0.2000 0.8772
vt 0.8750 0.4000 0.7545
vt 0.9167 0.2000 0.8772
vt 0.9167 0.4000 0.7545
vt 0.9583 0.2000 0.8772
vt 0.9583 0.4000 0.7545
vt 1.0000 0.2000 0.8772
vt 1.0000 0.4000 0.7545
vt 0.0000 0.2000 0.8772
vt 0.0417 0.2000 0.8772
vt 0.0417 0.4000 0.7545
vt 0.0000 0.4000 0.7545
vt 0.0833 0.2000 0.8772
vt 0.0833 0.4000 0.7545
vt 0.1250 0.2000 0.8772
vt 0.1250 0.4000 0.7545
vt 0.1667 0.2000 0.8772
vt 0.1667 0.4000 0.7545
vt 0.2083 0.2000 0.8772
vt 0.2083 0.4000 0.7545
vt 0.2500 0.2000 0.8772
vt 0.2500 0.4000 0.7545
vt 0.2917 0.2000 0.8772
vt 0.2917 0.4000 0.7545
vt 0.3333 0.2000 0.8772
vt 0.3333 0.4000 0.7545
vt 0.3750 0.2000 0.8772
vt 0.3750 0.4000 0.7545
vt 0.4167 0.2000 0.8772
vt 0.4167 0.4000 0.7545
vt 0.4583 0.2000 0.8772
vt 0.4583 0.4000 0.7545
vt 0.5000 0.2000 0.8772
vt 0.5000 0.4000 0.7545
vt 0.5417 0.2000 0.8772
vt 0.5417 0.4000 0.7545
vt 0.5833 0.2000 0.8772
vt 0.5833 0.4000 0.7545
vt 0.6250 0.2000 0.8772
vt 0.6250 0.4000 0.7545
vt 0.6667 0.2000 0.8772
vt 0.6667 0.4000 0.7545
vt 0.7083 0.2000 0.8772
vt 0.7083 0.4000 0.7545
vt 0.7917 0.6000 0.6317
vt 0.7500 0.6000 0.6317
vt 0.8333 0.6000 0.6317
vt 0.8750 0.6000 0.6317
vt 0.9167 0.6000 0.6317
vt 0.9583 0.6000 0.6317
vt 1.0000 0.6000 0.6317
vt 0.0417 0.6000 0.6317
vt 0.0000 0.6000 0.6317
vt 0.0833 0.6000 0.6317
vt 0.1250 0.6000 0.6317
vt 0.1667 0.6000 0.6317
vt 0.2083 0.6000 0.6317
vt 0.2500 0.6000 0.6317
vt 0.2917 0.6000 0.6317
vt 0.3333 0.6000 0.6317
vt 0.3750 0.6000 0.6317
vt 0.4167 0.6000 0.6317
vt 0.4583 0.6000 0.6317
vt 0.5000 0.6000 0.6317
vt 0.5417 0.6000 0.6317
vt 0.5833 0.6000 0.6317
vt 0.6250 0.6000 0.6317
vt 0.6667 0.6000 0.6317
vt 0.7083 0.6000 0.6317
# 75 texture coords

o 对象001
g 对象001
usemtl wire_135110008
s 8
f 525/549/232 526/550/233 527/551/233 528/552/232 
f 526/550/233 529/553/234 530/554/234 527/551/233 
f 529/553/234 531/555/235 532/556/235 530/554/234 
f 531/555/235 533/557/236 534/558/236 532/556/235 
f 533/557/236 535/559/237 536/560/237 534/558/236 
f 535/559/237 537/561/238 538/562/239 536/560/237 
f 537/563/238 539/564/240 540/565/240 538/566/239 
f 539/564/240 541/567/241 542/568/241 540/565/240 
f 541/567/241 543/569/242 544/570/242 542/568/241 
f 543/569/242 545/571/243 546/572/243 544/570/242 
f 545/571/243 547/573/244 548/574/244 546/572/243 
f 547/573/244 549/575/245 550/576/245 548/574/244 
f 549/575/245 551/577/246 552/578/246 550/576/245 
f 551/577/246 553/579/247 554/580/247 552/578/246 
f 553/579/247 555/581/248 556/582/248 554/580/247 
f 555/581/248 557/583/249 558/584/249 556/582/248 
f 557/583/249 559/585/250 560/586/250 558/584/249 
f 559/585/250 561/587/251 562/588/251 560/586/250 
f 561/587/251 563/589/252 564/590/252 562/588/251 
f 563/589/252 565/591/253 566/592/253 564/590/252 
f 565/591/253 567/593/254 568/594/254 566/592/253 
f 567/593/254 569/595/255 570/596/255 568/594/254 
f 569/595/255 571/597/256 572/598/256 570/596/255 
f 571/597/256 525/549/232 528/552/232 572/598/256 
f 528/552/232 527/551/233 573/599/233 574/600/232 
f 527/551/233 530/554/234 575/601/234 573/599/233 
f 530/554/234 532/556/235 576/602/235 575/601/234 
f 532/556/235 534/558/236 577/603/236 576/602/235 
f 534/558/236 536/560/237 578/604/237 577/603/236 
f 536/560/237 538/562/239 579/605/238 578/604/237 
f 538/566/239 540/565/240 580/606/240 579/607/238 
f 540/565/240 542/568/241 581/608/241 580/606/240 
f 542/568/241 544/570/242 582/609/242 581/608/241 
f 544/570/242 546/572/243 583/610/243 582/609/242 
f 546/572/243 548/574/244 584/611/244 583/610/243 
f 548/574/244 550/576/245 585/612/245 584/611/244 
f 550/576/245 552/578/246 586/613/246 585/612/245 
f 552/578/246 554/580/247 587/614/247 586/613/246 
f 554/580/247 556/582/248 588/615/248 587/614/247 
f 556/582/248 558/584/249 589/616/249 588/615/248 
f 558/584/249 560/586/250 590/617/250 589/616/249 
f 560/586/250 562/588/251 591/618/251 590/617/250 
f 562/588/251 564/590/252 592/619/252 591/618/251 
f 564/590/252 566/592/253 593/620/253 592/619/252 
f 566/592/253 568/594/254 594/621/254 593/620/253 
f 568/594/254 570/596/255 595/622/255 594/621/254 
f 570/596/255 572/598/256 596/623/256 595/622/255 
f 572/598/256 528/552/232 574/600/232 596/623/256 
# 48 polygons

#
# object 对象002
#

v  29.2535 20.0000 -0.0000
v  28.2567 20.0000 -7.5714
v  24.7879 48.0951 -6.6419
v  25.6624 48.0951 -0.0000
v  25.3342 20.0000 -14.6267
v  22.2243 48.0951 -12.8312
v  20.6853 20.0000 -20.6853
v  18.1460 48.0951 -18.1460
v  14.6267 20.0000 -25.3342
v  12.8312 48.0951 -22.2243
v  7.5714 20.0000 -28.2567
v  6.6419 48.0951 -24.7879
v  0.0000 20.0000 -29.2535
v  0.0000 48.0951 -25.6624
v  -7.5714 20.0000 -28.2567
v  -6.6419 48.0951 -24.7880
v  -14.6267 20.0000 -25.3343
v  -12.8312 48.0951 -22.2243
v  -20.6853 20.0000 -20.6853
v  -18.1460 48.0951 -18.1460
v  -25.3342 20.0000 -14.6267
v  -22.2243 48.0951 -12.8312
v  -28.2567 20.0000 -7.5714
v  -24.7879 48.0951 -6.6419
v  -29.2535 20.0000 -0.0000
v  -25.6624 48.0951 -0.0000
v  -28.2567 20.0000 7.5713
v  -24.7880 48.0951 6.6419
v  -25.3343 20.0000 14.6267
v  -22.2243 48.0951 12.8312
v  -20.6853 20.0000 20.6853
v  -18.1460 48.0951 18.1460
v  -14.6267 20.0000 25.3342
v  -12.8312 48.0951 22.2243
v  -7.5714 20.0000 28.2567
v  -6.6419 48.0951 24.7879
v  -0.0000 20.0000 29.2535
v  -0.0000 48.0951 25.6624
v  7.5713 20.0000 28.2567
v  6.6419 48.0951 24.7880
v  14.6267 20.0000 25.3343
v  12.8312 48.0951 22.2243
v  20.6853 20.0000 20.6853
v  18.1460 48.0951 18.1460
v  25.3342 20.0000 14.6268
v  22.2243 48.0951 12.8312
v  28.2567 20.0000 7.5714
v  24.7879 48.0951 6.6419
# 48 vertices

vn 0.9919 0.1268 0.0000
vn 0.9581 0.1268 -0.2567
vn 0.8590 0.1268 -0.4960
vn 0.7014 0.1268 -0.7014
vn 0.4960 0.1268 -0.8590
vn 0.2567 0.1268 -0.9581
vn -0.0000 0.1268 -0.9919
vn 0.0000 0.1268 -0.9919
vn -0.2567 0.1268 -0.9581
vn -0.4960 0.1268 -0.8590
vn -0.7014 0.1268 -0.7014
vn -0.8590 0.1268 -0.4960
vn -0.9581 0.1268 -0.2567
vn -0.9919 0.1268 -0.0000
vn -0.9581 0.1268 0.2567
vn -0.8590 0.1268 0.4960
vn -0.7014 0.1268 0.7014
vn -0.4960 0.1268 0.8590
vn -0.2567 0.1268 0.9581
vn -0.0000 0.1268 0.9919
vn 0.2567 0.1268 0.9581
vn 0.4960 0.1268 0.8590
vn 0.7014 0.1268 0.7014
vn 0.8590 0.1268 0.4960
vn 0.9581 0.1268 0.2567
# 25 vertex normals

vt 0.7500 0.0000 1.0000
vt 0.7917 0.0000 1.0000
vt 0.7917 0.2000 0.8772
vt 0.7500 0.2000 0.8772
vt 0.8333 0.0000 1.0000
vt 0.8333 0.2000 0.8772
vt 0.8750 0.0000 1.0000
vt 0.8750 0.2000 0.8772
vt 0.9167 0.0000 1.0000
vt 0.9167 0.2000 0.8772
vt 0.9583 0.0000 1.0000
vt 0.9583 0.2000 0.8772
vt 1.0000 0.0000 1.0000
vt 1.0000 0.2000 0.8772
vt 0.0000 0.0000 1.0000
vt 0.0417 0.0000 1.0000
vt 0.0417 0.2000 0.8772
vt 0.0000 0.2000 0.8772
vt 0.0833 0.0000 1.0000
vt 0.0833 0.2000 0.8772
vt 0.1250 0.0000 1.0000
vt 0.1250 0.2000 0.8772
vt 0.1667 0.0000 1.0000
vt 0.1667 0.2000 0.8772
vt 0.2083 0.0000 1.0000
vt 0.2083 0.2000 0.8772
vt 0.2500 0.0000 1.0000
vt 0.2500 0.2000 0.8772
vt 0.2917 0.0000 1.0000
vt 0.2917 0.2000 0.8772
vt 0.3333 0.0000 1.0000
vt 0.3333 0.2000 0.8772
vt 0.3750 0.0000 1.0000
vt 0.3750 0.2000 0.8772
vt 0.4167 0.0000 1.0000
vt 0.4167 0.2000 0.8772
vt 0.4583 0.0000 1.0000
vt 0.4583 0.2000 0.8772
vt 0.5000 0.0000 1.0000
vt 0.5000 0.2000 0.8772
vt 0.5417 0.0000 1.0000
vt 0.5417 0.2000 0.8772
vt 0.5833 0.0000 1.0000
vt 0.5833 0.2000 0.8772
vt 0.6250 0.0000 1.0000
vt 0.6250 0.2000 0.8772
vt 0.6667 0.0000 1.0000
vt 0.6667 0.2000 0.8772
vt 0.7083 0.0000 1.0000
vt 0.7083 0.2000 0.8772
# 50 texture coords

o 对象002
g 对象002
usemtl wire_135110008
s 8
f 597/624/257 598/625/258 599/626/258 600/627/257 
f 598/625/258 601/628/259 602/629/259 599/626/258 
f 601/628/259 603/630/260 604/631/260 602/629/259 
f 603/630/260 605/632/261 606/633/261 604/631/260 
f 605/632/261 607/634/262 608/635/262 606/633/261 
f 607/634/262 609/636/263 610/637/264 608/635/262 
f 609/638/263 611/639/265 612/640/265 610/641/264 
f 611/639/265 613/642/266 614/643/266 612/640/265 
f 613/642/266 615/644/267 616/645/267 614/643/266 
f 615/644/267 617/646/268 618/647/268 616/645/267 
f 617/646/268 619/648/269 620/649/269 618/647/268 
f 619/648/269 621/650/270 622/651/270 620/649/269 
f 621/650/270 623/652/271 624/653/271 622/651/270 
f 623/652/271 625/654/272 626/655/272 624/653/271 
f 625/654/272 627/656/273 628/657/273 626/655/272 
f 627/656/273 629/658/274 630/659/274 628/657/273 
f 629/658/274 631/660/275 632/661/275 630/659/274 
f 631/660/275 633/662/276 634/663/276 632/661/275 
f 633/662/276 635/664/277 636/665/277 634/663/276 
f 635/664/277 637/666/278 638/667/278 636/665/277 
f 637/666/278 639/668/279 640/669/279 638/667/278 
f 639/668/279 641/670/280 642/671/280 640/669/279 
f 641/670/280 643/672/281 644/673/281 642/671/280 
f 643/672/281 597/624/257 600/627/257 644/673/281 
# 24 polygons

#
# object 对象003
#

v  18.4802 104.2852 -0.0000
v  17.8505 104.2852 -4.7830
v  14.3817 132.3802 -3.8536
v  14.8891 132.3802 -0.0000
v  16.0043 104.2852 -9.2401
v  12.8943 132.3802 -7.4445
v  13.0675 104.2852 -13.0675
v  10.5282 132.3802 -10.5282
v  9.2401 104.2852 -16.0043
v  7.4445 132.3802 -12.8943
v  4.7830 104.2852 -17.8505
v  3.8536 132.3802 -14.3817
v  0.0000 104.2852 -18.4802
v  0.0000 132.3802 -14.8891
v  -4.7830 104.2852 -17.8505
v  -3.8536 132.3802 -14.3817
v  -9.2401 104.2852 -16.0043
v  -7.4445 132.3802 -12.8943
v  -13.0675 104.2852 -13.0675
v  -10.5282 132.3802 -10.5282
v  -16.0043 104.2852 -9.2401
v  -12.8943 132.3802 -7.4445
v  -17.8505 104.2852 -4.7830
v  -14.3817 132.3802 -3.8536
v  -18.4802 104.2852 -0.0000
v  -14.8891 132.3802 -0.0000
v  -17.8505 104.2852 4.7830
v  -14.3817 132.3802 3.8536
v  -16.0043 104.2852 9.2401
v  -12.8943 132.3802 7.4445
v  -13.0675 104.2852 13.0675
v  -10.5282 132.3802 10.5282
v  -9.2401 104.2852 16.0043
v  -7.4445 132.3802 12.8943
v  -4.7830 104.2852 17.8505
v  -3.8536 132.3802 14.3817
v  -0.0000 104.2852 18.4802
v  -0.0000 132.3802 14.8891
v  4.7830 104.2852 17.8505
v  3.8536 132.3802 14.3817
v  9.2401 104.2852 16.0043
v  7.4445 132.3802 12.8943
v  13.0674 104.2852 13.0675
v  10.5282 132.3802 10.5282
v  16.0043 104.2852 9.2401
v  12.8943 132.3802 7.4445
v  17.8505 104.2852 4.7830
v  14.3817 132.3802 3.8536
v  10.9130 160.4753 -2.9241
v  11.2980 160.4753 -0.0000
v  9.7843 160.4753 -5.6490
v  7.9889 160.4753 -7.9889
v  5.6490 160.4753 -9.7843
v  2.9241 160.4753 -10.9130
v  0.0000 160.4753 -11.2980
v  -2.9241 160.4753 -10.9130
v  -5.6490 160.4753 -9.7843
v  -7.9889 160.4753 -7.9889
v  -9.7843 160.4753 -5.6490
v  -10.9130 160.4753 -2.9241
v  -11.2980 160.4753 -0.0000
v  -10.9130 160.4753 2.9241
v  -9.7843 160.4753 5.6490
v  -7.9889 160.4753 7.9889
v  -5.6490 160.4753 9.7843
v  -2.9241 160.4753 10.9130
v  -0.0000 160.4753 11.2980
v  2.9241 160.4753 10.9130
v  5.6490 160.4753 9.7843
v  7.9889 160.4753 7.9889
v  9.7843 160.4753 5.6490
v  10.9130 160.4753 2.9241
# 72 vertices

vn 0.9919 0.1268 0.0000
vn 0.9581 0.1268 -0.2567
vn 0.8590 0.1268 -0.4960
vn 0.7014 0.1268 -0.7014
vn 0.4960 0.1268 -0.8590
vn 0.2567 0.1268 -0.9581
vn 0.0000 0.1268 -0.9919
vn -0.2567 0.1268 -0.9581
vn -0.4960 0.1268 -0.8590
vn -0.7014 0.1268 -0.7014
vn -0.8590 0.1268 -0.4960
vn -0.9581 0.1268 -0.2567
vn -0.9919 0.1268 -0.0000
vn -0.9581 0.1268 0.2567
vn -0.8590 0.1268 0.4960
vn -0.7014 0.1268 0.7014
vn -0.4960 0.1268 0.8590
vn -0.2567 0.1268 0.9581
vn -0.0000 0.1268 0.9919
vn 0.2567 0.1268 0.9581
vn 0.4960 0.1268 0.8590
vn 0.7014 0.1268 0.7014
vn 0.8590 0.1268 0.4960
vn 0.9581 0.1268 0.2567
vn 0.6661 0.7242 -0.1785
vn 0.6896 0.7242 -0.0000
vn 0.5972 0.7242 -0.3448
vn 0.4876 0.7242 -0.4876
vn 0.3448 0.7242 -0.5972
vn 0.1785 0.7242 -0.6661
vn 0.0000 0.7242 -0.6896
vn -0.1785 0.7242 -0.6661
vn -0.3448 0.7242 -0.5972
vn -0.4876 0.7242 -0.4876
vn -0.5972 0.7242 -0.3448
vn -0.6661 0.7242 -0.1785
vn -0.6896 0.7242 -0.0000
vn -0.6661 0.7242 0.1785
vn -0.5972 0.7242 0.3448
vn -0.4876 0.7242 0.4876
vn -0.3448 0.7242 0.5972
vn -0.1785 0.7242 0.6661
vn -0.0000 0.7242 0.6896
vn 0.1785 0.7242 0.6661
vn 0.3448 0.7242 0.5972
vn 0.4876 0.7242 0.4876
vn 0.5972 0.7242 0.3448
vn 0.6661 0.7242 0.1785
# 48 vertex normals

vt 0.7500 0.6000 0.6317
vt 0.7917 0.6000 0.6317
vt 0.7917 0.8000 0.5090
vt 0.7500 0.8000 0.5090
vt 0.8333 0.6000 0.6317
vt 0.8333 0.8000 0.5090
vt 0.8750 0.6000 0.6317
vt 0.8750 0.8000 0.5090
vt 0.9167 0.6000 0.6317
vt 0.9167 0.8000 0.5090
vt 0.9583 0.6000 0.6317
vt 0.9583 0.8000 0.5090
vt 1.0000 0.6000 0.6317
vt 1.0000 0.8000 0.5090
vt 0.0000 0.6000 0.6317
vt 0.0417 0.6000 0.6317
vt 0.0417 0.8000 0.5090
vt 0.0000 0.8000 0.5090
vt 0.0833 0.6000 0.6317
vt 0.0833 0.8000 0.5090
vt 0.1250 0.6000 0.6317
vt 0.1250 0.8000 0.5090
vt 0.1667 0.6000 0.6317
vt 0.1667 0.8000 0.5090
vt 0.2083 0.6000 0.6317
vt 0.2083 0.8000 0.5090
vt 0.2500 0.6000 0.6317
vt 0.2500 0.8000 0.5090
vt 0.2917 0.6000 0.6317
vt 0.2917 0.8000 0.5090
vt 0.3333 0.6000 0.6317
vt 0.3333 0.8000 0.5090
vt 0.3750 0.6000 0.6317
vt 0.3750 0.8000 0.5090
vt 0.4167 0.6000 0.6317
vt 0.4167 0.8000 0.5090
vt 0.4583 0.6000 0.6317
vt 0.4583 0.8000 0.5090
vt 0.5000 0.6000 0.6317
vt 0.5000 0.8000 0.5090
vt 0.5417 0.6000 0.6317
vt 0.5417 0.8000 0.5090
vt 0.5833 0.6000 0.6317
vt 0.5833 0.8000 0.5090
vt 0.6250 0.6000 0.6317
vt 0.6250 0.8000 0.5090
vt 0.6667 0.6000 0.6317
vt 0.6667 0.8000 0.5090
vt 0.7083 0.6000 0.6317
vt 0.7083 0.8000 0.5090
vt 0.7917 1.0000 0.3862
vt 0.7500 1.0000 0.3862
vt 0.8333 1.0000 0.3862
vt 0.8750 1.0000 0.3862
vt 0.9167 1.0000 0.3862
vt 0.9583 1.0000 0.3862
vt 1.0000 1.0000 0.3862
vt 0.0417 1.0000 0.3862
vt 0.0000 1.0000 0.3862
vt 0.0833 1.0000 0.3862
vt 0.1250 1.0000 0.3862
vt 0.1667 1.0000 0.3862
vt 0.2083 1.0000 0.3862
vt 0.2500 1.0000 0.3862
vt 0.2917 1.0000 0.3862
vt 0.3333 1.0000 0.3862
vt 0.3750 1.0000 0.3862
vt 0.4167 1.0000 0.3862
vt 0.4583 1.0000 0.3862
vt 0.5000 1.0000 0.3862
vt 0.5417 1.0000 0.3862
vt 0.5833 1.0000 0.3862
vt 0.6250 1.0000 0.3862
vt 0.6667 1.0000 0.3862
vt 0.7083 1.0000 0.3862
vt 1.0076 1.0000 0.3599
vt 0.9806 1.0000 0.3090
vt 0.9208 1.0000 0.2371
vt 0.8324 1.0000 0.1491
vt 0.7213 1.0000 0.0508
vt 0.5952 1.0000 -0.0508
vt 0.4625 1.0000 -0.1491
vt 0.3324 1.0000 -0.2371
vt 0.2137 1.0000 -0.3090
vt 0.1146 1.0000 -0.3599
vt 0.0417 1.0000 -0.3862
vt 0.0000 1.0000 -0.3862
vt -0.0076 1.0000 -0.3599
vt 0.0194 1.0000 -0.3090
vt 0.0792 1.0000 -0.2371
vt 0.1676 1.0000 -0.1491
# 91 texture coords

o 对象003
g 对象003
usemtl wire_135110008
s 8
f 645/674/282 646/675/283 647/676/283 648/677/282 
f 646/675/283 649/678/284 650/679/284 647/676/283 
f 649/678/284 651/680/285 652/681/285 650/679/284 
f 651/680/285 653/682/286 654/683/286 652/681/285 
f 653/682/286 655/684/287 656/685/287 654/683/286 
f 655/684/287 657/686/288 658/687/288 656/685/287 
f 657/688/288 659/689/289 660/690/289 658/691/288 
f 659/689/289 661/692/290 662/693/290 660/690/289 
f 661/692/290 663/694/291 664/695/291 662/693/290 
f 663/694/291 665/696/292 666/697/292 664/695/291 
f 665/696/292 667/698/293 668/699/293 666/697/292 
f 667/698/293 669/700/294 670/701/294 668/699/293 
f 669/700/294 671/702/295 672/703/295 670/701/294 
f 671/702/295 673/704/296 674/705/296 672/703/295 
f 673/704/296 675/706/297 676/707/297 674/705/296 
f 675/706/297 677/708/298 678/709/298 676/707/297 
f 677/708/298 679/710/299 680/711/299 678/709/298 
f 679/710/299 681/712/300 682/713/300 680/711/299 
f 681/712/300 683/714/301 684/715/301 682/713/300 
f 683/714/301 685/716/302 686/717/302 684/715/301 
f 685/716/302 687/718/303 688/719/303 686/717/302 
f 687/718/303 689/720/304 690/721/304 688/719/303 
f 689/720/304 691/722/305 692/723/305 690/721/304 
f 691/722/305 645/674/282 648/677/282 692/723/305 
f 648/677/282 647/676/283 693/724/306 694/725/307 
f 647/676/283 650/679/284 695/726/308 693/724/306 
f 650/679/284 652/681/285 696/727/309 695/726/308 
f 652/681/285 654/683/286 697/728/310 696/727/309 
f 654/683/286 656/685/287 698/729/311 697/728/310 
f 656/685/287 658/687/288 699/730/312 698/729/311 
f 658/691/288 660/690/289 700/731/313 699/732/312 
f 660/690/289 662/693/290 701/733/314 700/731/313 
f 662/693/290 664/695/291 702/734/315 701/733/314 
f 664/695/291 666/697/292 703/735/316 702/734/315 
f 666/697/292 668/699/293 704/736/317 703/735/316 
f 668/699/293 670/701/294 705/737/318 704/736/317 
f 670/701/294 672/703/295 706/738/319 705/737/318 
f 672/703/295 674/705/296 707/739/320 706/738/319 
f 674/705/296 676/707/297 708/740/321 707/739/320 
f 676/707/297 678/709/298 709/741/322 708/740/321 
f 678/709/298 680/711/299 710/742/323 709/741/322 
f 680/711/299 682/713/300 711/743/324 710/742/323 
f 682/713/300 684/715/301 712/744/325 711/743/324 
f 684/715/301 686/717/302 713/745/326 712/744/325 
f 686/717/302 688/719/303 714/746/327 713/745/326 
f 688/719/303 690/721/304 715/747/328 714/746/327 
f 690/721/304 692/723/305 716/748/329 715/747/328 
f 692/723/305 648/677/282 694/725/307 716/748/329 
s 1
f 716/748/329 694/725/307 693/724/306 695/726/308 696/727/309 697/728/310 698/729/311 699/730/312 700/749/313 701/750/314 702/751/315 703/752/316 704/753/317 705/754/318 706/755/319 707/756/320 708/757/321 709/758/322 710/759/323 711/760/324 712/761/325 713/762/326 714/763/327 715/764/328 
# 49 polygons

